<?xml version="1.0" encoding="UTF-8"?>
<!DOCTYPE svg PUBLIC "-//W3C//DTD SVG 1.1//EN" "http://www.w3.org/Graphics/SVG/1.1/DTD/svg11.dtd">
<!-- Creator: CorelDRAW 2018 (64 Bit Versão de avaliação) -->
<svg xmlns="http://www.w3.org/2000/svg" xml:space="preserve" width="67.7332mm" height="67.7332mm" version="1.1" style="shape-rendering:geometricPrecision; text-rendering:geometricPrecision; image-rendering:optimizeQuality; fill-rule:evenodd; clip-rule:evenodd"
viewBox="0 0 6773.32 6773.32"
 xmlns:xlink="http://www.w3.org/1999/xlink">
 <defs>
  <style type="text/css">
   <![CDATA[
    .fil18 {fill:none}
    .fil1 {fill:#97266D}
    .fil17 {fill:#CBCBCB}
    .fil16 {fill:#D2D2D2}
    .fil14 {fill:#DFDFDF}
    .fil15 {fill:#E7E7E7}
    .fil11 {fill:#EBEBEB}
    .fil7 {fill:#F0F0F0}
    .fil9 {fill:#F1F1F1}
    .fil12 {fill:#F3F3F3}
    .fil10 {fill:#F4F4F4}
    .fil13 {fill:whitesmoke}
    .fil6 {fill:#F6F6F6}
    .fil8 {fill:#F7F7F7}
    .fil4 {fill:#F9F9F9}
    .fil5 {fill:#FAFAFA}
    .fil3 {fill:#FBFBFB}
    .fil0 {fill:#FDFDFD}
    .fil2 {fill:#FEFEFE}
   ]]>
  </style>
 </defs>
 <g id="Camada_x0020_1">
  <metadata id="CorelCorpID_0Corel-Layer"/>
  <g id="_2013969376416">
   <path class="fil0" d="M4068.57 4148.43c30.73,19.08 44.71,36.89 72.79,58.69 33.98,26.4 53.72,22.59 93.72,42.12l-21.77 15.56c-111.32,47.38 -39.28,3.92 -172.97,101.85 -48.98,35.87 -66.26,19.23 -131.97,11.13 -127.57,-15.73 -685.63,-20.94 -758.37,8.97 40.18,117.34 548.44,-27.03 767.32,44.07 -12.46,66.8 -107.03,46.9 -198.52,53.03 -76.68,5.14 -160.74,7.95 -240.15,5.35 -138.01,-4.53 -206.85,4.77 -320.43,-49.58 -31.29,-14.98 -59.23,-23.56 -64.2,-60.08 76.81,-55.98 220.31,-14.95 317.66,-44.72 71.59,-21.89 179.59,-119.71 222.45,-139.41 -24.55,82.41 -135.14,113.88 -153.47,149.53 36.26,1.76 127.43,8.66 158.75,3.95 49.09,-7.39 49.92,-65.47 98.79,-68.5l-32.31 67.61 81.63 5.04c-1.05,-72.67 -42.96,-68.87 -51.66,-143.79 -3.54,-30.45 -5.23,-155.15 3.27,-179.18 48.26,-7.39 13.43,15.64 45.97,29.41 23.43,-26.82 29.07,-65.37 65.25,-74.43 43.58,-10.91 59.63,39.44 80.71,57.82 18.45,16.08 21.9,6.12 40.62,27.35 45.69,51.8 16.92,30.57 100.94,113.69 -4.09,-24.23 -22.92,-28.51 -4.05,-35.48zm-1049.01 -159.83c-79.52,7.55 -66.05,51.33 -124.94,90.44 -106.42,70.66 -240.18,66.89 -304.06,-44.91 -52.07,-91.12 45.12,-90.83 13.83,-151.85 -11.52,-22.45 -43.95,-38.89 -14.19,-84.65 97.21,-149.43 119.77,22.03 192.9,1.6 83.75,-23.4 89.98,16.18 140.45,62.65 24.43,22.49 29.38,31.38 49.64,57.69 33.39,43.37 46.23,13.6 46.37,69.03zm-58.24 -368.36l1.64 45.21 -35.92 28.62c-17.3,-14.86 -7.8,-16.01 -27.63,-29.98 -33.51,-23.6 -5.16,14.9 -30.81,-31 -22.43,-40.16 -43.86,-28 -39.56,-72.83 74.82,5.46 96.04,92.9 98,96.02 22.49,-6.48 5.01,5.7 18.73,-15.14l8.44 -15.5c0.47,-2.89 2.12,-3.53 7.11,-5.4zm602.4 -332.81c2.4,1.91 17.16,13.48 24.43,19.06 0.52,26.06 -6.11,49.96 8.97,68.01 21.48,25.72 41.35,-0.03 29.17,33.46 -2.24,6.16 -30.58,37.1 -37.91,40.38 -35.49,15.85 -19.76,0.2 -48.43,-12.09 -50.85,41.02 -131.17,14.32 -130.29,8.28l-31.62 -6.91c-2.37,-0.73 -3.97,-1.5 -6.22,-2.25l-17.2 -6.68c-2.39,-0.81 -9.39,-2.8 -11.73,-3.53 -59.91,-18.84 -40.13,-31.87 -85.7,-50.42 -27.27,-11.11 -25.83,-3.72 -45.64,-21.21 10.53,-9.11 -11.61,-9.08 28.26,-8.17l85.68 20.41c-11.79,-92.13 21.38,-65.76 31.47,-111.99 -95.98,-9 -104.87,71.46 -161.54,53.13 4.25,-35.75 10.74,-25.09 32.21,-53.78 -37.78,14.81 -63.61,40.36 -108.87,10.26 12.02,-59.92 71.48,-26.18 126.14,-44.96 37.02,-12.71 73.92,-35.58 101.77,-58.98 51.3,1.67 0.12,3.2 40.28,11.06 29.49,5.79 -0.17,-10.38 29.1,7.82 38.55,23.96 -8.03,14.85 53.92,7.95 13.58,32.4 1.89,13.05 22.79,29.57 1.38,1.08 3.41,2.19 4.78,3.28 21.76,17.18 55.08,40.79 66.18,68.3zm193.44 -68.01c-102.21,-200.33 -145.15,-107.88 -416.77,-125.9 -144.83,-9.62 -88.96,-94.09 -81.58,-99.77 41.44,-31.95 356.39,-9.72 403.97,13.42 82.19,39.97 105.97,115.51 134.03,195.11 12.31,34.91 24.69,63.03 3.62,91.29 -30.73,-10.4 -28.24,-44.67 -43.27,-74.15zm-1128.92 -488.52c-26.23,-33.23 -6.68,-52.32 10.01,-73.71 21.78,-27.92 10.79,-41.07 56.76,-38.28 5.57,28.52 -19.83,68.3 -36.85,95.77 -17.21,27.79 7.16,18 -29.92,16.22zm459.68 -309.43c-26.33,-12.83 -16.09,-15.06 -23.13,-49.07 -9.25,-44.65 -52.83,-98.5 -77.99,-129.77 -56.59,-70.34 -29.57,-194.08 12.15,-206.26 10.04,78.22 -2.33,111.12 4.34,145.65 12.88,66.67 39.35,110.97 80.32,163.16 16.38,20.89 30.6,47.69 4.31,76.29zm-330.21 -127.68c-48.02,-1.89 -54.06,-70.42 -56.85,-113.77 -7.58,-117.91 58.41,-164.84 92.66,-210.05 11.23,-14.81 101.05,-130.69 93.1,-62.08 -0.59,5.09 -55.99,81.36 -66.25,103.85 -91.74,201.09 60.47,328.04 30.05,395.2 -32.19,-1.17 -19.82,5.26 -34.05,-25.43l-49.14 -132.57c-18.99,-74.69 -10.35,-156.67 -1.05,-230.52 -64.87,78.36 -13.24,224.25 -8.47,275.37zm404.14 -222.75c38.92,21.4 24.43,65.97 56.31,86.79 8.41,-13.95 3.09,4.92 5.08,-15.37l1.1 -40.89c-14.94,-27.51 -42.81,-68.44 -47.4,-99.09 55.04,22.17 67.89,123.85 148.33,156.92 -13.6,-36.91 -34.69,-43.88 -43.09,-89.19l50.87 71.65c-26,-107.7 -173.02,-206.06 -165.41,-272.98 117.35,-18.13 217.08,206.19 299.67,253.23 113.7,64.76 102.99,-45.35 240.39,73.79 60.25,52.23 143.44,166.5 158.83,285.49 11.52,89.04 -10.49,114.74 40.74,181.75 29.8,38.98 79.68,76.95 102.29,114.49 -6.93,66.44 -39.13,92.27 -88.32,112.71 -61.72,25.63 -101.53,23.16 -150.26,-14.18 -43.8,-33.58 -61.9,-55.63 -87.02,-112.5 -8.81,-19.95 -19.02,-45.59 -26.98,-72.7 -12.31,-41.86 -3.95,-52.63 -45.08,-47.58 -10.45,135.65 94.39,172.59 93.83,223.24 -109.48,4.53 -169.99,-298.98 -231.38,-391.22 -15.83,-23.8 -21.81,-31.05 -57.45,-28.16 -0.54,50.98 5.79,19.87 33.39,59.82 19.89,28.8 67.56,157.76 81.64,194.23 76.33,197.72 147.15,186.61 233.24,218.67 17.98,6.69 48.67,25.06 61.92,28.95 47.87,14.05 106.56,-3.42 144.78,-23.1 93.93,-48.35 127.33,-152.79 171.47,-182.94 -2.34,50.19 -68.2,168.82 -142.34,212.34 -60.66,35.61 -28.63,9.86 -47.19,66.91 -40.36,-14.84 -2.02,-14.08 -51.51,-26.06 11.33,59.63 48.78,125.24 15.38,242.65 -10.99,-10.68 -3.87,-1.13 -12.02,-15.5 -16.78,-29.56 -14.24,-93.25 -20.16,-124.3 -41.97,-219.77 -140.09,-14.77 -345.51,-260.14 -36.19,-43.22 -53.58,-84.36 -83.49,-138.63 -70.56,-128.05 -30.38,-78.4 -54.92,-160.83 30.76,25.76 31.62,56.83 53.87,91.49 -1.69,-50.18 -33.22,-75.79 -49.6,-118 -40.79,-105.21 -45.03,-38.78 -72.76,-24.31 -85.65,-39.56 -31.61,-45.82 -68.96,-87.56 -30.59,12 -9.37,47.81 -38.3,46.96 -26.08,-0.76 -28.47,-76.25 -41.75,-113.22 -7.22,29.45 13.18,67.09 11.61,91.11 -1.95,30.07 1.37,11.97 -8.17,27.37 -82.89,-17.33 -10.91,-174.84 -80.09,-177.98 3.85,23.45 13.87,47.76 19.93,73.33 6.99,29.53 15.01,57.22 -1.13,75.88 -14.45,-36.8 -8.81,-77.48 -28.37,-123.85 -14.35,-34.03 -32.5,-70.69 -43.71,-103.57 -20.31,-59.57 -24.33,-203.19 -55.32,-241.98 -46.66,-28.32 -123.19,79.82 -123.04,105.14 0.33,56.34 34.84,-23.08 51.7,41.59 7.32,28.06 8.78,80.2 7.97,111.13 -30.05,0.56 -30.01,-3.89 -50.15,-13.82 21.32,123.42 20.66,77.59 80.03,72.86 28.38,29.96 48.71,54.95 44.87,106.72l-113.82 -18.54 -77.78 -127.7c1.38,1.34 3.03,3.38 3.76,4.37l28.78 57.17c12.11,19.84 4.38,8.88 16.1,19.19 -3.92,-148.47 -80.32,-113.82 -29.77,-230.06 48.53,-111.61 -13.29,-30.9 77.37,-138.09 16.37,-19.34 10.96,-80.68 111.45,-72.78 30.13,2.37 61.95,25.7 77.53,38.66 54.33,45.2 58.13,67.19 58.02,160.22zm-530.99 300.32c-5.08,-100.35 7.47,-130.11 43.04,-199.74 8.35,15.45 3.65,27.45 3.63,27.6 -3.73,34.75 -37.17,135.03 19.66,168.78 19.69,-26.79 -7.7,-15.71 44.96,-44.03l16.33 -8.82c23.43,18.25 55.67,55.87 63.12,94.57 -22.43,38.71 -39.75,36.07 -62.87,83.47 -9.79,20.07 -44.12,71.36 -63.2,82.84 -63.26,38.08 8.54,-15.88 -71.22,75.08 -32.71,37.3 -28.95,50.51 -21.67,113.99 65.87,3.49 79.2,-139.81 194.63,-26.34 54.45,53.54 107.21,135.29 91.3,221.4 -41.09,2.15 -37.24,-12.27 -57.78,-40.19l-125.93 -159.02c-39.5,15.82 -90.9,60 -100.57,107.36 -5.69,27.93 -22.44,153.85 -15.66,167.36l8.84 -61.01c30.61,6.64 19.65,11.66 22.8,-38.51 74.87,17.95 65.1,-17.48 116.68,8.38 23.48,11.76 57.9,39.9 76.5,61.51 89.51,103.97 16.52,151.37 85.65,197.17 5.68,-35.21 16.9,-74.28 2.78,-109.45 -16.82,-41.87 -55.6,-45.11 -28.48,-87.51 56.28,14.79 57.83,133.2 50.81,191.73 -7.64,63.63 -111.14,180.26 -147.67,210.97 -166.91,140.32 13.68,135.63 -27.13,240.17 -30.13,-9.31 -62.69,-34.4 -82.89,-50.02 -3.96,-27.48 5.54,-110.25 16.05,-139.4 10.71,-29.73 46.76,-55.57 68.48,-76.36 30.21,-28.92 125.61,-120.02 134.79,-161.17 -25.92,-17.96 -39.5,-31.33 -55.45,-57.78 -24.11,30.28 -17.8,8.42 -23.97,42.82 -7.74,43.17 -41.08,4.65 -79.12,-0.59 -40.66,-5.61 -46.31,5.08 -82,-16.62 -63.49,-38.6 -19.19,-106.11 -102.1,-105.91 -63.69,181.94 -204.46,396.15 -117.08,562.99 30.88,58.97 71.98,103.77 41.24,162.25 -23.18,-23.44 -14.19,-40.36 -50.4,-47.89 -5.66,100.82 -2.47,229.34 13.26,325.77 34.43,210.85 123.44,317.22 347.46,342.49 55.09,6.21 109.24,8.86 164.8,7.47 19.57,-0.49 59.26,-0.44 76.73,-3.04 54.79,-8.18 9.87,-15.24 53.39,-34.06 26.02,22.34 3.11,21.47 38.85,48 150.68,111.89 584.77,168.16 768.85,102.98 116.58,-41.27 190.56,-134.97 297.59,-200.1l165.93 -84.57 624.56 -127.43c25.9,-4.94 46.54,-5.74 68.15,-18.49 23.33,-13.77 12.37,1.56 12.39,-29.37 0.01,-1.79 -0.34,-2.9 0.31,-4.12 33.79,-5.63 72.83,-7.5 107.56,-10.13 48.98,-3.72 69.94,-29.78 95.23,-22.94l81.99 40.99c28.15,12.06 64.66,21.56 77.68,44.39 17.01,29.82 3.14,74.29 18.4,104.54 2.98,5.9 49.05,57.23 56.57,66.05l113.29 129.05c-6.79,-75.86 -8.39,-162.96 -23.85,-233.76 -7.35,-33.65 -16.67,-74.98 -22.13,-109.75 -13.6,-86.64 34.91,-94.36 -220.45,-161.82 -221.82,-58.62 -227.37,129.7 -322.54,163.18 -102.83,36.17 -313.73,61.37 -424.85,86.56 -67.17,15.24 -147.24,39.84 -214.21,46.91 24.58,-44.26 53.11,-26.09 86.07,-74.3 20.95,-30.65 38.99,-57.53 58.53,-86.99 53.66,-80.89 50.44,-138.01 51.31,-248.94 1.66,-208.81 -86.88,-284.44 -261.93,-328.93 31.56,27.47 245.62,152.64 214.7,226.23 -12.35,-9.39 -88.11,-124.63 -107.45,-133.76 -14.1,-6.66 -3.57,-20.21 -13.87,2.31 16.6,6.98 29.46,26.48 39.75,39.99 95.18,125.11 146.87,260.6 67.44,417.88 -131.79,260.97 -357.45,158.57 -395.24,88.2 53.13,11.12 104.81,56.87 163.68,48.85 41.75,-5.68 89.35,-69.19 95.47,-120.32 -65.77,20.92 -39.51,76.69 -110.71,72.13l23.7 -60.51c-29.05,23.81 -14.38,38.69 -69.23,30.35 -17.21,-23.15 -6.14,-20.26 -15.32,-40.95 -24.27,20.1 -49.88,55.14 -87.01,67.07 -3.23,-63.86 45.93,-87.24 50.01,-162.36 -45.82,20.1 -64.72,83.09 -117.96,92.23 -25.92,-84.01 -5.37,-144.56 -113.49,-154.46 -111.86,-10.24 -103.09,101.06 -161.8,107.76 1.96,-35.91 36.14,-91.3 57.71,-112.2 38.25,-37.06 71.68,-28.58 129.2,-25.48 27.59,-41.96 55.35,-65.88 34.02,-136.75 -61.59,-16.46 -59.89,5.26 -99.04,-45.65 -22.51,-29.26 -53.64,-48.31 -53.3,-94.74 54.59,1.52 60.62,38.77 106.47,50.46 26.19,6.67 28.56,-0.3 33.83,-3.62 -27.45,-39.98 -80.68,-45.04 -107.74,-92.75 -21.74,-38.37 -77.7,-72.18 -44,-126.58 34.73,-0.16 37.68,33.06 69.49,55.51 50.76,35.82 28.64,16.31 39.17,83.58 34.52,18.5 146.56,79.33 178.92,64.66 -1.16,-43.61 -40.84,-42.15 -79.12,-65.09 -32.58,-19.51 -52.7,-33.79 -91.05,-54.8 -39.57,-21.68 -95.48,-117.85 -76.07,-196.4 22.79,4.87 21.11,31.75 58.25,49.61 -3.16,-11.06 -100.67,-170.38 -55.6,-245.21 25.02,38.6 21.22,107.17 43.72,153.76 10.03,20.78 27.05,43.78 31.11,68.69 27.15,166.44 76.16,176.9 216.01,259.87l20.48 -0.91c1.91,-0.3 5.06,-0.39 6.56,-3.11 1.32,-2.4 2.99,-3.05 4.57,-4.49 -35.6,-60.06 -199.79,-133.35 -218.37,-279.3 -8.38,-65.85 -9.26,-177.52 6.04,-238.75 24.29,-97.15 30.93,-94.44 96.41,-146.45 84.87,58.74 135.19,366.11 152.83,504.86 35.87,10.64 135.07,47.9 168.3,44.17 8.46,-28.06 1.98,-64.12 11.56,-95.54 18.98,-62.22 35.69,-57.3 46.28,-62.05 -1.24,24.08 -5.37,36.39 -7.53,56.68 -3.45,32.32 0.35,26.36 6.98,34.98 7.22,-28.38 11.37,-29.87 19.94,-63.44 8,-31.3 10.26,-30.69 28.18,-56.39 16.75,-24.02 47.73,-86.57 63.78,-101.77 16,6.51 2.4,2.26 16.52,12.41 5.48,3.94 2.94,5.38 18.58,12.52 16.52,-89.59 48.16,-113.83 43.94,-273.89 -1.49,-56.64 -49.35,-125.57 -84.44,-224.16 -40.19,-112.93 -166,-302.04 -229.14,-383.82 -60.9,-78.89 -366.52,-256.04 -492.98,-280.53 -19.21,-3.72 -49.18,-7.13 -69.45,-7.42 -16.81,-0.24 -248.33,47.49 -354.93,32.07 9.65,-87 132.66,-58.65 187.37,-70.92 2.56,-53.07 -99.97,-107.27 -144.9,-131.39 -31.04,-16.66 -38.94,-15.73 -42.16,-54.65l44.36 -22.1c-29.41,-7.89 -33.94,-2.3 -54.69,-7.01 -39.32,-8.93 10.35,13.42 -17.18,-8.84 -34.19,-27.65 -73.16,-66.78 -118.96,-96.27 -22.86,-14.73 -30.74,-16.26 -40.17,-48.91 -8.28,8.05 -3.15,1.78 -11.68,14.13 -2.8,4.06 -7.54,12.77 -8.74,15.04 -88.54,167.81 -35.66,183.92 -101.86,189.01 -26.35,-61.86 43.62,-178.93 59.35,-243.9 -12.63,-9.58 -12.49,-10.85 -23.72,-19.58l-60.93 -48.2c-24.72,-16.24 -12.14,1.36 -15.77,-12.34 -5.18,-2.1 -5.94,35.6 4.24,-28.52 3.74,-23.66 3.35,-31.42 3.35,-55.8 -41.2,-2.77 -70.01,-9.46 -108.63,5.18 -1.59,0.61 -4.13,1.71 -6.22,2.48 -0.35,2.48 -0.88,3.42 -0.89,7.43 -0.06,25.18 -1.73,31.34 8.47,53.85 -2.65,0.77 -6.52,-1.84 -8.19,1.29 -4.8,8.99 -28.47,5.19 -39.53,12.09l-30.7 30.91c-21.17,22.62 -45.7,37.64 -65.29,57.19l-62.18 59.76c-34.63,32.47 -23.09,45.21 -85.16,53.34 14.83,-16.75 8.58,-7.08 15.24,15.33 -51.77,-0.87 -79.81,10.46 -100.4,60.74 -6.16,15.05 -5.39,-17.95 -4.87,22.15 0.57,43.69 5.14,16.65 5.76,16.82 -5.57,-33.82 3.84,-10.78 -30.65,-22.99 -10.35,16.03 -10.93,18.65 -25.82,35.22 -1.11,1.23 -2.64,2.87 -3.77,4.12l-148.08 167.38c-10.77,9.63 -6.99,5.71 -16.16,13.59l-11.78 10.29c-16.41,14.84 -43.82,23.79 -16.57,45.29 14.39,-8.38 4.66,0.01 -0.08,-7.62 -2.2,-0.49 -5.7,-2.04 -6.74,0.58l-100.44 106.64c57.8,-3 43.77,-13.81 72.74,-41.25l58.85 -42.59c12.68,-14.61 8.44,-20.51 32.4,-24.14l71.53 66.81c24.19,11.37 19.66,16.84 37.38,36.51 20.55,22.81 60,43.66 87.21,60.78 1.5,0.93 10.99,7.05 12.4,8.23l5.92 5.97c18.1,19.36 -7.52,74.99 22.54,105.97z"/>
   <path class="fil1" d="M4312.78 5133.56c31.35,10.4 71.39,125.26 76.09,163.78 -58.75,-19.22 -133.87,-43.04 -189.77,-67.44 -74.83,-32.65 -155.65,-54.95 -163.97,-102.47 100.83,2.48 167.52,103.24 302.41,102.29l-24.76 -96.16zm-213.95 -10.54c46.01,-24.86 129.66,-8.67 184.26,-0.91 18.72,24.8 27.36,55.16 34.06,89.06 -50.75,-6.54 -117.9,-40.78 -167.86,-61.48 -23.94,-9.92 -33.83,-10.65 -50.46,-26.67zm225.28 -127.68c50.07,10.28 287.37,131.53 301.71,163.69 -76.22,12.76 -172.93,12.34 -251.25,9.08 -22.4,-49.91 -45.74,-109.87 -50.46,-172.77zm-913.61 -10.29c9.43,-21.75 48.46,-41.93 68.49,-61.02 44.33,-42.27 147.72,-183.66 180.39,-233.36 59.85,-91.03 34.26,-34.07 196.77,-70.38 101.7,-22.72 115.75,-74.91 185.55,-97.6 50.15,114.1 234.58,398.22 235.29,523.31 -274.7,45.43 -233.87,-83.09 -423,-106.93 -51.45,-6.48 -76.41,3.36 -128.06,-9.85 -81.81,-20.92 -8.31,12.14 -100.97,11.19 -51.06,-0.53 -78.92,-6.69 -120.63,16.14 -26.86,14.71 -65.18,46.19 -93.83,28.5zm-624.66 -408.32c180.89,-1.05 142.93,40.25 255.8,41.53 46.81,0.53 100.34,-5.15 145.97,-0.02 47.89,5.4 82.74,35.17 124.08,-1.09 -28.95,-22 -59.42,5.21 -77.08,-30.66l75.15 -16.53 10.65 34.58c115.76,-17.72 17.01,-10.87 137.53,12.04 53.05,10.09 97.55,12.02 152.31,15.59 -8.21,36.82 -119.37,180.11 -143.56,202.85 -51.29,48.22 -52.55,28.51 -134.68,42.46 -50.3,8.54 -99.87,18.62 -151.85,20.21 -174.93,5.38 -259.22,-17.66 -372.58,-145.81 -39.21,-44.32 -51.29,-43.83 -47.65,-125.48 41.15,13.48 57.77,83.55 84.64,119.06 21.23,28.08 76.13,77.41 116.13,98.81 65.12,34.83 103.2,29.87 187.52,24.57 33.84,-2.14 170.09,-12.78 189.7,-21.76 -29.51,-10.13 -146.85,2.4 -187.98,4.21 -82.84,3.62 -104.41,-2.18 -171.61,-32.89 -93.03,-42.52 -78.71,-79.76 -97.98,-116.19 -23.44,-44.29 -87.69,-97.1 -94.51,-125.48zm436.05 -15.42l-264.73 8.83c-40.43,-5.95 -24.53,-5.03 -26.26,-26.88 -12.19,-0.12 36.59,-28.61 47.63,-35.54 33.84,-21.25 49.66,-17.85 94.15,-20.88 67.69,-4.63 25.07,-7.44 111.96,40.6 22.69,12.55 25.03,11.8 37.25,33.87zm-693.49 72.36c-19.99,20.25 -22.91,5.21 -27.88,34.2 51.91,-2.38 110.05,-84.43 150.7,-93.94 48.32,57.21 -43.36,86.42 -83.62,112.81 -60.12,39.4 -72.46,62.84 -168.18,56.59 -81.68,-5.34 -119.02,-21.01 -194.44,-34.69 -137.41,-24.95 -132.05,3.83 -207.22,17.22 18.47,-30.68 95.61,-89.4 125.55,-115.64 90.3,-79.2 190.44,-161.51 326.78,-142.05 59.77,8.53 176.61,28.81 195.95,41.67 -14.85,32.89 -146.93,89.38 -178.57,100.38 -76.49,26.58 -43.46,6.23 -95.56,-13.17 -63.93,-23.81 -215.66,37.63 -188.4,67.59 19.4,21.33 84.62,-3.79 114.35,-10.19 78.79,-16.95 67.2,7.89 115.89,8.32 34.9,0.31 76.71,-24.29 114.65,-29.1zm-675.32 162.49c60.24,3.07 130.46,-36.25 208.16,-39.42 57.23,-2.33 183.69,-2.59 231.33,11 -14.56,32.5 -56.35,48.31 -99.49,73.05 -70.7,40.53 -60.79,17.31 -139.99,29.82 -3.34,24.38 -7.39,9.48 2.32,34.94l21.42 25.85c-42.54,40.04 -364.96,125.61 -418.17,179.59 -54.47,55.25 -89.73,89.34 -140.85,158.11 -26.19,35.23 -39.51,50.06 -61.49,91.48 -14.5,27.34 -48.87,61.09 -85.13,69.79 6.17,-57.37 224.04,-446.97 280.12,-556.69 42.59,-83.33 127.52,-144.43 202.17,-219.16 45.62,-45.67 172.77,-176.98 189.68,-232.68 61.27,-2.23 157.23,22.38 186.18,57.34 -17.12,18.5 -123.57,96.91 -181.28,163.06 -134.09,153.76 -189.86,72.86 -194.98,153.92zm283.59 -447.47c8.17,14.4 -14.39,13.68 59.42,23.3 61.92,8.08 147.31,39.21 176.46,80.69 -57.32,10.8 -223.6,-60.55 -293.42,-80.8 0.77,-40.21 11.62,-54.96 48.9,-64.11 29.27,-7.18 63.65,-13.84 93.47,-21.03 55.6,-13.38 136.24,-37.79 192.22,-37.75 42.41,57.93 32.44,90.48 93.09,137.1 20.66,15.9 44.37,30.75 69.76,45.18 46.86,26.61 56.73,19.22 71.65,47.91l-12.42 4.67c-30.38,4.77 -0.03,3.21 -18.73,1.55 -5.48,-0.49 -25.14,-6.92 -31.18,-9.14 -62.19,-22.77 -108.12,-57.09 -165.25,-88.5 -29.4,-16.19 -83.54,-41.1 -122.65,-43.91 -24.04,-1.73 -150.33,-3.77 -161.32,4.84zm2828.28 23.49c35.65,6.25 37.18,26.81 68.57,46.08 25.4,15.61 56.44,24.67 79.35,37.93 2.75,85.34 11.8,144.28 -8.81,222.28 -25.11,95.03 -45.31,116.81 -57.89,187.56 -22.01,123.81 -29.71,321.47 -33.93,450.32 -52.67,-21.89 -169.52,-111.85 -228.17,-150.34 -73.68,-48.34 -266.25,-158.39 -359.05,-200.34 -26.76,-12.1 -114.48,-47.41 -129.56,-62.26 -10.28,-10.11 -121.44,-229.68 -123.18,-243.41 116.3,-10.93 120.82,-15.47 197.67,-70.94 49.9,-36.01 118,-70.7 136.58,-134.25 -33.91,16.04 -12.41,21.98 -58.84,34.25 8.33,-42.65 23.14,-44.42 63.53,-56.51 30.73,-130.36 14.87,-132.71 76.34,-145.64 52.78,-11.1 79.56,3.68 175.63,-15.75 38.92,-7.87 50.27,25.91 70.66,47.86 32.29,34.79 49.96,16.37 83.85,45.19 -1.49,32.47 -55.86,127.35 -116.3,123.53 -1.97,-42.14 23.04,-89.92 26.96,-138.7 -30.24,11.55 -37.13,56.14 -52.14,86.53 -25.57,51.79 -11.9,78.63 -72.94,76.01 6.6,-25.71 26.59,-95.29 36.48,-119.68 12.49,-30.83 48.1,-86.33 33.66,-109.99 -18.63,16.84 -56.44,103.16 -67.52,129.36 -18.59,43.98 -76.95,119.26 5.83,121.47 42.84,1.14 46.4,-14.34 78.48,-20.47 145.3,-27.82 95.47,-60.4 174.74,-140.09zm347.82 -235.41c56.8,0.25 59.06,-4.49 61.25,48.94 -60.11,-4.08 -44.46,-4.63 -61.25,-48.94zm-271.27 5.16c31.6,-16.39 73.63,-20.04 109.65,-36.5 16.12,-7.36 48.58,-46.63 121.98,-4.76 -11.59,16.36 -7.35,15.72 -48.37,25.93l-166.95 22.48c-15.85,-2.88 -9.97,-2.9 -16.31,-7.15zm635.95 -7.19c-72.72,0 -79.58,13.73 -84.05,-38.61 62.55,-3.26 227.68,-7.21 283.04,-23.61 25.44,-7.53 52.52,-25.33 73.17,-27.1 2.94,58.02 -53.37,60.98 -104.29,72.25 -62.98,13.94 -99.67,17.07 -167.87,17.07zm-3860.48 29.11c-7.05,-52.96 -7.6,-45.57 17.51,-80.28 62.1,-85.79 53.69,-145.38 169.74,-142.79 0.48,99.82 9.19,105.21 -38.77,174.17 -43.88,63.1 -43.7,69.97 -148.48,48.9zm2857.51 -314.28c4.68,-34.36 19.16,-60.17 22.85,-106.17 3.17,-39.76 -2.08,-81.22 2.79,-119.28 80.21,25.84 111.98,133.59 233.92,119.72 112.36,-12.78 175.82,-110.02 252.04,-107.25 -14.52,32.66 -62.99,59.73 -99.75,82.41 -73.87,45.59 -106.83,198.95 -356.58,169.11 51.88,-58.9 134.67,-54.01 162.65,-109.35 -106.61,0.05 -142.09,57.3 -217.92,70.81zm552.26 -221.83c-3.08,-43.13 4.33,-49.59 29.35,-64.92 17.42,19.4 19.61,37 20.79,66.15l-50.14 -1.23zm-1082.76 -159.61c21.52,-19.46 155.32,27.85 195.09,116.16 -67.3,-0.66 -76.92,-14.71 -123.4,-41.93 -25.89,-15.17 -101.64,-47.13 -71.69,-74.23zm-1808.12 82.76c-52.87,-7.31 -118.4,-158.65 -54.3,-197.78 -14.13,41.62 -14.53,38.14 -5.9,85.93 5.95,-6.31 4.95,-4.04 11.32,-14.25 3.78,-6.05 4.2,-8.74 8,-16.12 4.7,-9.1 6.95,-16.31 15.54,-22.42 -36.21,113.42 24.74,59.61 25.34,164.64zm12.94 -61.52l-18.37 -150.83c34.59,8.83 50.12,24.95 50.28,67.45 0.19,49.94 -1.32,72.95 -31.91,83.38zm2451.35 -226.04c-7.74,-80.46 -57.89,-102.57 -79.1,-165.15l153.42 207.02c15.28,-2.16 11.37,-3.35 21.06,-6.86 41.83,-15.11 23.82,-19.62 47.05,-9.12 51.85,30.15 18.59,133.78 127.58,122.48 66.52,-6.89 134.64,-46.05 191.89,-51.16 -5.62,57.53 -101.21,168.75 -123.43,234.41 -12.19,36.05 -11.01,34.47 -42.38,50.01 -69.7,34.54 -135.83,68.71 -206.24,50.4 7.06,-17.25 9.34,-20.87 49.41,-30.56 117.85,-28.51 261.1,-187.94 281.38,-269.29 -27.97,14.66 -61.21,63.06 -80.37,86.62 -79.22,97.45 -109.12,84.11 -185.59,136.06 -30.2,20.53 -49.88,47.96 -97.14,58.47 -13.8,-8.85 -73.42,-80.84 -246.88,-184.46 -43.49,-25.98 -54.35,-17.7 -102.1,-34.7 0.48,-23.3 77.18,-186.54 93.46,-215.99 36.32,-65.69 36.93,-106.73 63.99,-126.98 21.01,11.81 17.02,12.83 32.05,37.24 27.7,44.95 58.4,97.56 101.94,111.56zm-2391.43 -70.81c-51.03,-36.54 -30.45,-101.12 -9.51,-115.23 33.07,-22.29 87.34,19.32 87.54,19.63 26.26,38.37 -3.83,31.5 -4.07,31.9 -37.84,-14.67 -12.29,-5.43 -25.29,-48.34 -33.16,0.63 -38.31,6.88 -57.21,18.95 -10.13,49.37 -1.32,50.45 8.54,93.09zm408.54 -68.19c9.98,65.29 -76.29,50.89 -120.46,38.38 -136.1,-38.59 -16.83,-164.82 57.95,-105.58 -7.71,27.95 -55.28,11.63 -44.19,90.96 23.27,3.37 7.82,1.04 24.95,-20.09l16.72 25.65c8.24,7.77 -6.25,14.52 28,9.28 23.99,-3.68 25.72,-21 37.03,-38.6zm-391.57 164.6c-19.22,-6.6 -5.45,3.35 -19.33,-20.5 -6.56,-11.29 -7.35,-15.55 -16.74,-29.6 -20.57,-30.76 -109.22,-94.64 -57.7,-183.1 42.08,-72.27 117.02,-78.47 167.95,-99.93 32.08,-13.53 23.63,-21.17 54.86,-35.74 -0.82,57.08 -4.87,40.15 -25.23,73.54 -15.1,24.76 -7.9,35.64 -23.16,59.38l-12.2 -34.65c-0.41,-1.21 -1.6,-2.65 -1.88,-5.42 -0.28,-2.7 -1.05,-3.61 -1.92,-5.26 -50.87,-0.69 -86.48,-0.7 -114.04,30.57 8.61,4.9 24.04,-3.48 26.73,-3.87 -124.08,73.63 15.94,222.4 22.66,254.58zm2758.31 42.46c6.91,-57.33 42.65,-51.4 34.47,-147.67 -16.25,-191.31 32.18,-124.04 68.63,-267.82 14.63,-57.76 35.63,-61.39 65.17,-103.68 1.92,35.73 -23.04,61.29 -28.02,110.99 -4.24,42.51 -8.18,82.33 -11.06,122.86l-21.54 268.02 -107.65 17.3zm-2018.6 -1722.94c-15.73,64.97 -85.7,182.04 -59.35,243.9 66.2,-5.09 13.32,-21.2 101.86,-189.01 1.2,-2.27 5.94,-10.98 8.74,-15.04 8.53,-12.35 3.4,-6.08 11.68,-14.13 1.06,-20.03 47.24,-106.17 65.38,-161.69l18.91 -56.96c31.66,-30.86 215.09,-60.14 271.57,-61.81 -61.06,45.53 -47,117.64 -44.02,181.96l11.34 59.22c0.55,-1.2 2.2,4.52 3.76,6.47 15.09,-22.6 20.4,-108.13 23.95,-142.2 4.44,-42.65 11.37,-73.35 45,-109.66 119.73,6.04 250.58,-14.87 375.68,-6.3 65.64,4.51 92.28,23.69 156.83,34.84 120.21,20.79 79.17,14.04 134.62,58.12 27.54,21.88 174.21,85.03 245.07,137.77 152.38,113.4 292.5,206.11 425.22,341 254.82,258.96 130.87,110.48 221.25,353.49 94.14,253.14 70.11,118.61 142.86,240.4 54.38,91.05 -17.61,115.6 29.93,136.96 24.28,-12.59 15.81,-33.02 19.92,-62.72 23.12,2.18 37.3,11.09 34.94,40.26l-85.1 154.67c-22.6,35.84 -48.04,54.66 -70.97,90.06 -19.12,29.52 -32.84,64.88 -52.18,100.65 -37.54,69.45 -96.2,130.21 -71.2,233.23 13.18,54.29 48.57,60.4 5.8,115.8 -28.63,37.09 -50.02,43.41 -110.65,43.51 -12.76,-21.32 -16.21,-57.63 -27.55,-80.16l-104.82 -194.89c-73.88,-119.03 -101.26,-179.7 -216.71,-182.58 -125.6,-196.61 13.23,-180.86 -20.59,-485.43 -26.58,34.19 -10.11,25.52 -22.47,23.95 -22.34,-49.33 -7.21,-200.57 -26.22,-261.26l-18.34 43.6c-17.05,-21.63 -37.44,-69.33 -70,-83.02 -89.62,-37.66 4.59,118.96 4.67,119.11 42.85,76.33 84.61,169.94 73.05,263.96 -5.15,41.83 -7.55,110.51 -41.7,133.17 -37.11,-110.92 -68.03,-183.45 -140.53,-272.62 -29.55,-36.36 -38.11,-31.8 -37.41,-97.62 3.29,-306.82 78.19,-316.25 97.03,-445.83 -38.75,4.23 -57.92,43.48 -72.84,81.33 -36.73,93.24 -47.02,136.09 -52.21,241.34 -3.12,63.44 5.2,103.2 -20.54,125.84 -40.28,-11.86 -39.27,-94.52 -91.02,-116.63 5.39,31.1 13.4,27.06 13.98,62.45l-51.61 -35.32c-2.67,-55.03 -34.75,-151.64 -60.74,-196.92 -113.16,-7.85 -46.85,82.79 -33.64,124.44 -36.45,-5.14 -138.55,-64.93 -170.32,-83.85 -155.38,-92.58 -129.52,-17.16 -178.44,-51.03 -22.29,-15.44 -48.97,-68.58 -127.85,-125.29 -145.29,-104.47 -88.96,-53.15 -170.09,-72.78l-44.36 22.1c3.22,38.92 11.12,37.99 42.16,54.65 44.93,24.12 147.46,78.32 144.9,131.39 -54.71,12.27 -177.72,-16.08 -187.37,70.92 106.6,15.42 338.12,-32.31 354.93,-32.07 20.27,0.29 50.24,3.7 69.45,7.42 126.46,24.49 432.08,201.64 492.98,280.53 63.14,81.78 188.95,270.89 229.14,383.82 35.09,98.59 82.95,167.52 84.44,224.16 4.22,160.06 -27.42,184.3 -43.94,273.89 -15.64,-7.14 -13.1,-8.58 -18.58,-12.52 -14.12,-10.15 -0.52,-5.9 -16.52,-12.41 -16.05,15.2 -47.03,77.75 -63.78,101.77 -17.92,25.7 -20.18,25.09 -28.18,56.39 -8.57,33.57 -12.72,35.06 -19.94,63.44 -6.63,-8.62 -10.43,-2.66 -6.98,-34.98 2.16,-20.29 6.29,-32.6 7.53,-56.68 -10.59,4.75 -27.3,-0.17 -46.28,62.05 -9.58,31.42 -3.1,67.48 -11.56,95.54 -33.23,3.73 -132.43,-33.53 -168.3,-44.17 -17.64,-138.75 -67.96,-446.12 -152.83,-504.86 -65.48,52.01 -72.12,49.3 -96.41,146.45 -15.3,61.23 -14.42,172.9 -6.04,238.75 18.58,145.95 182.77,219.24 218.37,279.3 -1.58,1.44 -3.25,2.09 -4.57,4.49 -1.5,2.72 -4.65,2.81 -6.56,3.11l-20.48 0.91c12.03,9.65 23.28,13.56 41.92,7.3l16.68 -17.37c0.43,-2.42 1.6,-3.31 2.65,-4.8 26.75,16.72 8.2,6.91 46.59,8.1 107.61,3.3 83.69,13.69 91.23,-11.2l39.66 5.24c10.3,-22.52 -0.23,-8.97 13.87,-2.31 19.34,9.13 95.1,124.37 107.45,133.76 30.92,-73.59 -183.14,-198.76 -214.7,-226.23 175.05,44.49 263.59,120.12 261.93,328.93 -0.87,110.93 2.35,168.05 -51.31,248.94 -19.54,29.46 -37.58,56.34 -58.53,86.99 -32.96,48.21 -61.49,30.04 -86.07,74.3 66.97,-7.07 147.04,-31.67 214.21,-46.91 111.12,-25.19 322.02,-50.39 424.85,-86.56 95.17,-33.48 100.72,-221.8 322.54,-163.18 255.36,67.46 206.85,75.18 220.45,161.82 5.46,34.77 14.78,76.1 22.13,109.75 15.46,70.8 17.06,157.9 23.85,233.76l-113.29 -129.05c-7.52,-8.82 -53.59,-60.15 -56.57,-66.05 -15.26,-30.25 -1.39,-74.72 -18.4,-104.54 -13.02,-22.83 -49.53,-32.33 -77.68,-44.39l-81.99 -40.99c-25.29,-6.84 -46.25,19.22 -95.23,22.94 -34.73,2.63 -73.77,4.5 -107.56,10.13 -0.65,1.22 -0.3,2.33 -0.31,4.12 -0.02,30.93 10.94,15.6 -12.39,29.37 -21.61,12.75 -42.25,13.55 -68.15,18.49l-624.56 127.43 -165.93 84.57c-107.03,65.13 -181.01,158.83 -297.59,200.1 -184.08,65.18 -618.17,8.91 -768.85,-102.98 -35.74,-26.53 -12.83,-25.66 -38.85,-48 -43.52,18.82 1.4,25.88 -53.39,34.06 -17.47,2.6 -57.16,2.55 -76.73,3.04 -55.56,1.39 -109.71,-1.26 -164.8,-7.47 -224.02,-25.27 -313.03,-131.64 -347.46,-342.49 -15.73,-96.43 -18.92,-224.95 -13.26,-325.77 36.21,7.53 27.22,24.45 50.4,47.89 30.74,-58.48 -10.36,-103.28 -41.24,-162.25 -87.38,-166.84 53.39,-381.05 117.08,-562.99 82.91,-0.2 38.61,67.31 102.1,105.91 35.69,21.7 41.34,11.01 82,16.62 38.04,5.24 71.38,43.76 79.12,0.59 6.17,-34.4 -0.14,-12.54 23.97,-42.82 15.95,26.45 29.53,39.82 55.45,57.78 -9.18,41.15 -104.58,132.25 -134.79,161.17 -21.72,20.79 -57.77,46.63 -68.48,76.36 -10.51,29.15 -20.01,111.92 -16.05,139.4 20.2,15.62 52.76,40.71 82.89,50.02 40.81,-104.54 -139.78,-99.85 27.13,-240.17 36.53,-30.71 140.03,-147.34 147.67,-210.97 7.02,-58.53 5.47,-176.94 -50.81,-191.73 -27.12,42.4 11.66,45.64 28.48,87.51 14.12,35.17 2.9,74.24 -2.78,109.45 -69.13,-45.8 3.86,-93.2 -85.65,-197.17 -18.6,-21.61 -53.02,-49.75 -76.5,-61.51 -51.58,-25.86 -41.81,9.57 -116.68,-8.38 -3.15,50.17 7.81,45.15 -22.8,38.51l-8.84 61.01c-6.78,-13.51 9.97,-139.43 15.66,-167.36 9.67,-47.36 61.07,-91.54 100.57,-107.36l125.93 159.02c20.54,27.92 16.69,42.34 57.78,40.19 15.91,-86.11 -36.85,-167.86 -91.3,-221.4 -115.43,-113.47 -128.76,29.83 -194.63,26.34 -7.28,-63.48 -11.04,-76.69 21.67,-113.99 79.76,-90.96 7.96,-37 71.22,-75.08 19.08,-11.48 53.41,-62.77 63.2,-82.84 23.12,-47.4 40.44,-44.76 62.87,-83.47 -7.45,-38.7 -39.69,-76.32 -63.12,-94.57l-16.33 8.82c-52.66,28.32 -25.27,17.24 -44.96,44.03 -56.83,-33.75 -23.39,-134.03 -19.66,-168.78 0.02,-0.15 4.72,-12.15 -3.63,-27.6 -35.57,69.63 -48.12,99.39 -43.04,199.74 30.37,91.65 103.79,114.64 45.67,148.05 -1.81,1.04 -7.83,3.97 -9.63,5.25 -13.06,9.29 -3.53,1.69 -12.04,11.09l-39.28 37.61c-11.13,10.34 -49.52,76.94 -59.21,93.88 -12.28,21.43 -12.17,83.84 -22.42,123.65 -38.7,150.29 0.73,95.01 -133.84,164.78 -177.13,91.83 -78.76,226.22 -105.56,329.94 -38.08,-18.54 -16.49,-11.87 -39.71,-56.38 -7.93,-15.19 1.49,-7.54 -10.81,-14.68 -7.71,91.82 -82.32,179.33 -26.9,311.33 12.62,30.04 40.59,112.59 52.14,132.22 6.95,11.84 81.28,77.56 100.7,88.14 0.64,86.38 -3.15,178.01 2.17,263.73 4.99,80.2 33.5,149.88 39.27,226.99 -93.75,-15.6 -227.56,18.16 -300.94,54.64 11.32,-85.22 98.76,-175.55 84.6,-262.51 -8.15,-50.12 -28.24,-78.93 -35.59,-145.92 -4.34,-39.62 -10.44,-125.43 -21.56,-160.27 -24.84,10.75 -5.06,38.76 -91.94,92.24 -31.3,-30.28 -28.8,-64.19 -83.9,-66.61 -34.84,-1.54 -90.82,16.42 -121.59,27.25 -92.78,32.7 -86.04,120.89 -150.12,153.92 9.84,-58.88 30.07,-120.69 57.35,-162.9 35.15,-54.36 48.06,-80.18 77.67,-144.42 19.58,-42.47 55.6,-74.76 83.08,-132.34 30.45,-63.84 27.71,-117.97 2.28,-177.89 -77.56,1.32 -110.24,83.3 -178.34,171.28 -33.68,43.52 -132.37,153.98 -141.83,210.75 34.71,-12.11 44.19,-37.8 79.89,-81.18l140.95 -180.93c18.87,-23.98 50.4,-77.73 79.58,-63.56 59.77,36.27 -57.22,188.85 -111.21,293.17 -69.9,135.04 -85.37,98.24 -130.75,314.06 -34.12,-7.82 -37.12,-21.79 -66.68,-21.76 -1.55,29.38 -1.25,20.22 63.6,66.95 26.32,18.98 55.99,40.94 92.16,41.62 -14.52,-34.94 -42.4,-20.65 -60.99,-66.24 14.77,-31.01 36.17,-37.46 61.44,-69.85 16.96,-21.73 36.7,-54.84 51.79,-78.52 22.56,-35.42 29.94,-39.65 79.2,-51 43.02,-9.91 57.65,-30.22 105.1,-20.17 12.63,26.61 4.34,44.05 22.15,69.77 21.17,30.59 36.58,19.09 16.85,65.45 -21.2,9.71 -52.28,5.09 -71.04,-11.37 -24.24,-21.27 -18.88,-40.91 -57.71,-50.86 5.5,45.08 24.62,44.51 36.21,77.56 -58.32,40.24 -46.77,11.31 -100.21,-3.65 9.68,36.24 10.97,26.01 40,41.02 -4.64,49.84 -45.14,100.84 -71.01,127.48 -21.36,-4.43 -11.31,-3.72 -26.38,-19.43 2.65,52.03 34.99,46.12 34.72,92.19 -79.24,63.56 -126.17,-13.58 -200.98,-26.65 11.81,37.29 41.02,49.69 75.09,70.9 49.05,30.56 68.49,20.28 115.51,3.66 106.66,-37.73 156.47,13.81 220.98,44.72 -6.68,-48.18 -29.1,-37.38 -56.7,-69.63 57.05,-110.96 82.88,-108.43 105.93,-131.87 -14.03,-30.54 -18.5,3.03 -22.28,-59.09 -1.81,-29.65 0.76,-60.2 6.41,-89 11.83,-60.34 28.71,-91.11 72.73,-112.23 1.33,1.69 2.84,2.4 3.28,5.54 0.43,3.13 2.48,4.23 3.04,5.63 11.83,29.9 13.49,87.6 15.89,120.57 10.88,149.56 75.71,36.7 -14.81,230.63 -31.66,67.83 -57.71,165.09 -84.81,228.04 -25.8,59.96 -26.52,49.32 -67.51,86.01 -34.44,30.81 -57.42,35.09 -88.52,64.65l-194.15 196.35c-46.89,64.75 -274.35,515.97 -328.57,637.32l-19.33 31.6 -14.66 64.19c110.59,2.93 59.05,-18.72 115.95,-35.69 5.69,15.22 -0.93,14.42 -6.06,36.43l97.99 1.22c31.28,-28.41 104.97,-151.82 128.71,-193.35 46.5,-81.36 50.99,-146.61 135.43,-186.31 69.92,-32.86 164.58,-59.21 236.18,-85.43 36.9,-13.52 83.44,-43.2 123.57,-29.79 20.01,6.69 92.42,53.5 102.76,65.35 -31.69,65.85 -103.32,127.09 -159.74,176.21 -24.28,21.14 -44.46,25.15 -50.47,59.47 75.96,24.71 403.64,-137.57 445.1,-147.18 143.77,-33.33 143.08,92.8 209.04,234.99 19.29,41.57 24.3,85.15 70.57,83.63 18.54,-34.21 -51.52,-201.45 -69.03,-245.99 -22.29,-56.7 -87.44,-187.84 -120.45,-217.69 -12.66,-4.27 -232.77,15.1 -285.7,13.9 -104.04,-2.35 -98.32,-39.63 -166.79,-66.7 -28.23,-11.16 -33.15,-2.91 -50.06,-28.6l25.56 -9.76c83.73,-21.3 151.97,-55.93 174.8,-58.25 -44.31,55.04 -82.79,43.38 -120.78,75.68 11.07,11.06 -1.93,3.13 18.85,12.39 6.03,2.68 14.44,4.45 22.9,7.34 92.76,31.67 1.58,36.83 157.21,29.36 58.64,-2.82 194.93,10.06 231.16,-33.77 -28.71,-20.92 -52.26,2.12 -82.68,8.51 -29.42,6.19 -71.46,3.23 -102.73,3.73 -66.88,1.08 -148.23,16.26 -180.97,-27.56 24.43,-22.66 67.52,-57.97 91.87,-73.9 55.23,-36.12 144.09,9.57 277.28,-67.17 46.42,-26.74 99.55,-13.39 159.8,-7.09 12.69,39.15 12.01,96.52 22.68,138.47 12.18,47.87 35.37,86.35 30.98,140 -4.15,50.78 -15.82,97.93 -22.75,148.44 -11.41,83.17 2.29,82.31 15.54,148.6l22.86 139.21c27.51,-26.02 10.7,-166.47 0.65,-194.74 -25.9,-72.84 1.93,-114.03 6.13,-175.01 32.82,53.89 -1.69,150.04 50.93,163.75 20.39,-39.64 11.07,-206.75 -1.91,-252.11 -14.16,-49.51 -64.57,-153.8 -64.56,-199.12 34.48,17.32 46.39,48.71 97.63,74.66 166.55,84.33 314.66,37.32 479.38,18.43 -18.57,59.43 -55.65,95.85 -89.05,127.95 -44.07,42.33 -255.11,298.7 -279.36,346.43 58.47,-19.88 249.71,-235.41 271.03,-278.84 66.46,20.22 46.37,-12.94 107.81,-64.18l181.99 105.69c36.31,28.75 138.69,124.96 162.77,132.95 84.52,-69.24 29.85,-72.88 175.45,27.33 33.38,22.97 30.73,16.3 64.66,1.89 65.65,-27.87 334.14,23.55 435.01,36.46 -0.1,-49.28 -9.48,-67.88 -10.12,-82.12l0.62 -9.71c0.11,-0.96 1.02,-3.53 1.17,-4.28 7.49,-41.3 369.08,-2.25 434.44,28.08 51.14,23.73 80.74,67.26 141.2,96.01 101.37,48.2 9.5,117.8 132.65,118.63 -10.99,-55.61 -53.68,-140.69 -40.71,-190.47 -5.52,-8.78 -1.83,2.55 -8.4,-19.44l-10.96 -152.53c-3.51,-78.34 27.88,-328.7 73.41,-396.97 20.48,-30.71 28.66,-20.93 29,-70.17 0.38,-55.99 -12.16,-111.27 -18.21,-167.52 -9.65,-89.66 -31.1,-60.75 -88.18,-102.14 -49.6,-35.95 -47.85,-46.4 -118.83,-64.81 -42.82,-11.11 -112.55,-23.77 -107.8,-75.62 13.6,-1.87 43.54,-3.81 54.66,-7.29 35.78,-11.16 30.36,-49.11 147.42,-3.71 284.14,110.21 175.57,-44.71 292.7,389.7 10.23,37.99 3.28,33.1 32.75,41.97 10.27,-53.6 -64.27,-329.88 -92.03,-366.67 -34.17,-45.29 -224.86,-104.68 -302.06,-102.49l-50.56 -9.37c79.65,-46.58 196.95,-22.48 255.72,-33.16 122.74,-22.33 74.29,-46.77 219.47,206.56 32.23,56.24 61.8,170.47 141.55,215.65 -4.47,-68.19 -175.41,-306.68 -174.92,-364.09 39.44,9.41 16.8,2.28 39.75,34.83 27.91,39.61 160.37,168.74 201.22,212.57 74.28,79.7 -38.48,156.48 -21.93,328.57 2.04,21.27 -70.04,313.41 -84.36,332.72 8.37,81 -39.05,118.97 4.42,199.61 14.34,26.61 9.77,37.68 36.89,44.12 20.94,-43.81 -42.19,-63.58 -8.9,-128.28 32.43,-63.04 22.08,-59.65 35.11,-133.77 17.36,-98.74 44.39,-196.13 53.49,-289.5 26.61,-273.15 27.26,-220.41 20.91,-472.55 -1.56,-61.62 -13.95,-109.2 -16.58,-160.7 90.55,-2.92 161.4,-3.15 243.54,-25.17 89.86,-24.09 134,-47.44 125.52,-153.33 -93.6,-51.93 -349.48,-52.25 -401.41,-28.69 10.45,41.94 59.46,26.47 162.84,27.42 51.27,0.46 144.25,-4.59 183.48,10.62 -20.5,40.65 -94.48,40.93 -152.47,43.95 -59.52,3.1 -130.59,12.33 -191.9,0.8l-7.14 -71.12c-96.89,-53.96 -0.77,-18.74 -154.68,-72.07 -42.12,-14.6 -53.48,-14.02 -98.51,-17.92 -66.99,-5.81 -43.33,-69.89 -162.32,8.03l-124.31 105.68c-35.3,32.38 -25.85,22.91 -43.52,70.26l-462.14 89.59c20.21,-75.02 33.71,-10.24 53.21,-153.06 161.37,-45.66 275.14,53.29 447.82,-103.44 46.15,-41.89 93.87,-92.88 136.6,-139.39 75.48,-82.14 73.73,-72.26 143.92,-128.93 4.79,-60.53 -13.58,-77.93 -20.73,-130.87 -8.61,-63.52 9.51,-77.42 34.45,-126.35 18,-35.31 9.37,-33.52 17.77,-61.16 9.78,-32.22 36.98,-12.36 53.75,-188.65 9.53,-100.21 17.51,-200.98 20.78,-305.62 7.56,-240.81 62.84,-212.17 -50.15,-390.05 -63.39,-99.78 8.4,-53.86 -63.05,-97.5 -68.87,-42.05 -132.22,-284.95 -160.42,-322.73l-153.43 -168.46c-113.1,-103.04 -37.12,-49.01 -174.95,-146.91l-96.64 -64.17c-60.84,-40.06 -314.69,-230.67 -387.74,-256.11 -25.43,-8.86 -36.21,-4.66 -59.58,-16.76 -18.33,-9.49 -29.02,-23.35 -51.79,-32.34 -39.6,-15.64 -90.84,-11.18 -133.65,-27.71 -124.96,-48.24 -119.26,-30.64 -288.64,-33.41 -165.27,-2.7 -293.24,-12.42 -441.19,42.38 -153.71,56.93 -131.07,216.64 -193.84,283.47z"/>
   <path class="fil2" d="M5073.2 2249.45c65.47,3.13 27.57,73.11 83.74,144.45 19.34,24.57 21.22,15.74 44.71,31.86 22.4,15.38 49.89,52.44 68.97,84.37 22.75,38.06 65.02,63.79 39.09,105.35 -34.87,-5.12 -21.93,-8.12 -36.1,-39.35 -23.89,-52.63 -60.53,-104.79 -120.55,-117.29 -38.17,-82.68 -86.24,-135.22 -79.86,-209.39zm-208.88 -337.43c66.23,14.36 105.07,98.01 128.31,140.25 26.92,48.94 88.5,109.09 78.86,188.11 -29.47,-13.99 -85.38,-125.13 -104.12,-162.28 -17.02,-33.75 -29.13,-53.49 -50.02,-80.68 -17.76,-23.13 -49.41,-61.57 -53.03,-85.4zm-1319.08 -302.13c38.35,10.2 190,201.28 228.87,243.61 23.84,25.95 37.86,77.06 45.2,123.92 -70.53,-22.56 -258.15,-245.77 -274.07,-367.53zm614.77 -0.31l-29.87 6.64c-37.54,4 -81.66,-7.98 -101.48,-9.13 -31.45,-1.82 -73.91,12.84 -127.76,5.32l-1.6 -44.56c46.1,-19.1 86.63,-3.57 124.62,4.35 47.64,9.94 94.4,-3.3 141.73,4.8l-5.64 32.58zm-931.68 24.59c9.43,32.65 17.31,34.18 40.17,48.91 45.8,29.49 84.77,68.62 118.96,96.27 27.53,22.26 -22.14,-0.09 17.18,8.84 20.75,4.71 25.28,-0.88 54.69,7.01 81.13,19.63 24.8,-31.69 170.09,72.78 78.88,56.71 105.56,109.85 127.85,125.29 48.92,33.87 23.06,-41.55 178.44,51.03 31.77,18.92 133.87,78.71 170.32,83.85 -13.21,-41.65 -79.52,-132.29 33.64,-124.44 25.99,45.28 58.07,141.89 60.74,196.92l51.61 35.32c-0.58,-35.39 -8.59,-31.35 -13.98,-62.45 51.75,22.11 50.74,104.77 91.02,116.63 25.74,-22.64 17.42,-62.4 20.54,-125.84 5.19,-105.25 15.48,-148.1 52.21,-241.34 14.92,-37.85 34.09,-77.1 72.84,-81.33 -18.84,129.58 -93.74,139.01 -97.03,445.83 -0.7,65.82 7.86,61.26 37.41,97.62 72.5,89.17 103.42,161.7 140.53,272.62 34.15,-22.66 36.55,-91.34 41.7,-133.17 11.56,-94.02 -30.2,-187.63 -73.05,-263.96 -0.08,-0.15 -94.29,-156.77 -4.67,-119.11 32.56,13.69 52.95,61.39 70,83.02l18.34 -43.6c19.01,60.69 3.88,211.93 26.22,261.26 12.36,1.57 -4.11,10.24 22.47,-23.95 33.82,304.57 -105.01,288.82 20.59,485.43 115.45,2.88 142.83,63.55 216.71,182.58l104.82 194.89c11.34,22.53 14.79,58.84 27.55,80.16 60.63,-0.1 82.02,-6.42 110.65,-43.51 42.77,-55.4 7.38,-61.51 -5.8,-115.8 -25,-103.02 33.66,-163.78 71.2,-233.23 19.34,-35.77 33.06,-71.13 52.18,-100.65 22.93,-35.4 48.37,-54.22 70.97,-90.06l85.1 -154.67c2.36,-29.17 -11.82,-38.08 -34.94,-40.26 -4.11,29.7 4.36,50.13 -19.92,62.72 -47.54,-21.36 24.45,-45.91 -29.93,-136.96 -72.75,-121.79 -48.72,12.74 -142.86,-240.4 -90.38,-243.01 33.57,-94.53 -221.25,-353.49 -132.72,-134.89 -272.84,-227.6 -425.22,-341 -70.86,-52.74 -217.53,-115.89 -245.07,-137.77 -55.45,-44.08 -14.41,-37.33 -134.62,-58.12 -64.55,-11.15 -91.19,-30.33 -156.83,-34.84 -125.1,-8.57 -255.95,12.34 -375.68,6.3 -33.63,36.31 -40.56,67.01 -45,109.66 -3.55,34.07 -8.86,119.6 -23.95,142.2 -1.56,-1.95 -3.21,-7.67 -3.76,-6.47l-11.34 -59.22c-2.98,-64.32 -17.04,-136.43 44.02,-181.96 -56.48,1.67 -239.91,30.95 -271.57,61.81l-18.91 56.96c-18.14,55.52 -64.32,141.66 -65.38,161.69z"/>
   <path class="fil0" d="M1162.15 3608.23c25.71,-9.32 31.85,-19.88 64.07,-16.9 34.07,58.77 12.82,144.86 -62.19,198.06l9.15 99.61c34.03,13.79 69.57,30.39 103.78,27.25 6.41,-58.94 -5.57,-150.88 14.01,-200.17 59.84,-150.65 56.06,-174.42 146.51,-282.65 44.67,-53.46 72.93,-97.69 118.18,-94.72 35.95,85.77 -1.82,185.48 -45.53,259.39 -25.98,43.93 -18.47,80.01 -33.17,136.15 -12.29,46.95 1.84,102.05 2.95,155.46 43.2,-24.2 56.4,-158.7 106.57,-176.78 -8.64,45.11 -49.87,134.31 -68.8,184.12l-23.31 56.49c-55.22,-4.94 -36.09,-19.52 -79.65,-13.08 -34.48,5.09 -46.37,8.88 -70.72,-13.14 22.8,-16.63 70.3,-9.74 101.55,-11.32 8.6,-59.05 -6.89,-105.45 -8.63,-150.83 -1.12,-29.17 9.11,-33.35 18.2,-60.97 9.98,-30.31 3.38,-45.66 7.29,-75.71 4.26,-32.82 42.36,-75.16 57.72,-111.91 7.67,-18.33 57.33,-147.62 4.3,-132.61l-37.56 29.97c-15.37,19 -25.62,36.54 -42.02,57.52 -32.23,41.2 -51.07,63.79 -72.23,126.46 -42.06,124.58 -77.8,124.77 -65.64,329.4 18.77,15.84 28.35,18.52 41.74,30.69 50.88,46.22 79.97,109.69 107.33,123.82 27.88,-42 -23.25,-50.02 -28.84,-100.11 31.25,5.48 63,51.22 68.36,84.2 13.83,85.13 -5.23,41.48 37.63,106.22 97.78,147.7 105.95,77.08 174.76,114.18 -59.96,3.73 -72.77,11.09 -133.88,4.16 11.76,67.78 57.86,101.18 47.99,186.16 -17.01,-31.29 -24.77,-57.96 -41.81,-91.18 -60.65,-118.3 -88.52,-49.94 -177.32,-236.61 -40.82,-85.8 8.28,-10.43 -52.71,-86.49 -38.55,-48.07 40.51,-30.5 -25.57,-95.61 -44.77,-44.12 -69.04,-12.64 -105.97,-31.75 -22.84,-11.82 -5.93,-14.13 -47.26,-20.92 -39.05,-6.42 -25.32,-0.33 -53.43,-15.84 13.17,-23.53 16.69,2.93 26.43,-33.15 14.79,-54.83 -42.96,-98.4 -47,-105.33 50.78,-1.17 68.25,-2.27 93.27,-36.57 15.93,-21.84 33.68,-55.5 20.22,-86.26 -26.01,-27.66 -75.7,70.74 -167.02,104.47l5.5 -36.31c-14.53,17.83 0.79,-9.22 -16.11,26.33 -8.63,18.13 6.56,-14.7 -6.23,19.45 24.15,14.08 7.97,-4.03 16.97,23.38 11.83,36.03 -26.84,140.44 -18.8,183.14 5.19,27.54 91.08,102.3 119.25,115.43l12.78 -58.2c62.33,15.81 28.91,251.09 58.26,344.76 23.04,73.57 19.98,106.33 15.82,188.59 -1.48,29.3 -44.44,117.2 -56.97,139.83l-305.84 509.46c23.46,4.25 54.64,37.41 94.81,65.43 15.86,11.06 5.01,4.78 19.6,12.29l44.04 16.69c-12.09,33.37 -29.78,30.31 -38.23,61.24 35.26,-29.27 -14.74,-22.59 -15.32,-22.92 2.14,41.13 11.7,26.4 -1.07,45.75l-16.61 21.18c-34.8,32.71 -46,-9.83 -51.31,63.34l91.24 8.32c2.9,0.12 17.65,-0.41 20.34,-0.89 14.42,-2.57 19.15,-4.93 29.24,-12.35 1.9,-1.4 9.98,-9.93 11.42,-11.67 13.01,-15.66 19.92,-39.66 50.77,-39.66 0.78,0 2.84,0.61 3.72,0.6 45.01,-0.45 -33.2,6.4 16.29,-1.16l14.44 -4.51c9.1,-9.17 3.69,-26.17 4.38,-28.62l35.49 -37.46c1.22,-0.79 3.49,-1.76 4.63,-2.53 33.63,-22.55 1.94,-33.97 48.84,-49.17 40.15,-13.01 21.96,4.05 52.31,-4.82 0,-57.74 -4.23,-35.79 61.25,-91.97l10.71 20.48c11.71,8.68 21.85,9.54 22.15,57.53 0.01,1.22 0.16,3.44 0.06,4.54 -0.08,0.97 -0.29,3.12 -0.48,4.01 -3.42,16.5 -65.03,63.67 -41.8,131.15l19.33 -31.6c54.22,-121.35 281.68,-572.57 328.57,-637.32l194.15 -196.35c31.1,-29.56 54.08,-33.84 88.52,-64.65 40.99,-36.69 41.71,-26.05 67.51,-86.01 27.1,-62.95 53.15,-160.21 84.81,-228.04 90.52,-193.93 25.69,-81.07 14.81,-230.63 -2.4,-32.97 -4.06,-90.67 -15.89,-120.57 -0.56,-1.4 -2.61,-2.5 -3.04,-5.63 -0.44,-3.14 -1.95,-3.85 -3.28,-5.54 -44.02,21.12 -60.9,51.89 -72.73,112.23 -5.65,28.8 -8.22,59.35 -6.41,89 3.78,62.12 8.25,28.55 22.28,59.09 -23.05,23.44 -48.88,20.91 -105.93,131.87 27.6,32.25 50.02,21.45 56.7,69.63 -64.51,-30.91 -114.32,-82.45 -220.98,-44.72 -47.02,16.62 -66.46,26.9 -115.51,-3.66 -34.07,-21.21 -63.28,-33.61 -75.09,-70.9 74.81,13.07 121.74,90.21 200.98,26.65 0.27,-46.07 -32.07,-40.16 -34.72,-92.19 15.07,15.71 5.02,15 26.38,19.43 25.87,-26.64 66.37,-77.64 71.01,-127.48 -29.03,-15.01 -30.32,-4.78 -40,-41.02 53.44,14.96 41.89,43.89 100.21,3.65 -11.59,-33.05 -30.71,-32.48 -36.21,-77.56 38.83,9.95 33.47,29.59 57.71,50.86 18.76,16.46 49.84,21.08 71.04,11.37 19.73,-46.36 4.32,-34.86 -16.85,-65.45 -17.81,-25.72 -9.52,-43.16 -22.15,-69.77 -47.45,-10.05 -62.08,10.26 -105.1,20.17 -49.26,11.35 -56.64,15.58 -79.2,51 -15.09,23.68 -34.83,56.79 -51.79,78.52 -25.27,32.39 -46.67,38.84 -61.44,69.85 18.59,45.59 46.47,31.3 60.99,66.24 -36.17,-0.68 -65.84,-22.64 -92.16,-41.62 -64.85,-46.73 -65.15,-37.57 -63.6,-66.95 29.56,-0.03 32.56,13.94 66.68,21.76 45.38,-215.82 60.85,-179.02 130.75,-314.06 53.99,-104.32 170.98,-256.9 111.21,-293.17 -29.18,-14.17 -60.71,39.58 -79.58,63.56l-140.95 180.93c-35.7,43.38 -45.18,69.07 -79.89,81.18 9.46,-56.77 108.15,-167.23 141.83,-210.75 68.1,-87.98 100.78,-169.96 178.34,-171.28 25.43,59.92 28.17,114.05 -2.28,177.89 -27.48,57.58 -63.5,89.87 -83.08,132.34 -29.61,64.24 -42.52,90.06 -77.67,144.42 -27.28,42.21 -47.51,104.02 -57.35,162.9 64.08,-33.03 57.34,-121.22 150.12,-153.92 30.77,-10.83 86.75,-28.79 121.59,-27.25 55.1,2.42 52.6,36.33 83.9,66.61 86.88,-53.48 67.1,-81.49 91.94,-92.24 11.12,34.84 17.22,120.65 21.56,160.27 7.35,66.99 27.44,95.8 35.59,145.92 14.16,86.96 -73.28,177.29 -84.6,262.51 73.38,-36.48 207.19,-70.24 300.94,-54.64 -5.77,-77.11 -34.28,-146.79 -39.27,-226.99 -5.32,-85.72 -1.53,-177.35 -2.17,-263.73 -19.42,-10.58 -93.75,-76.3 -100.7,-88.14 -11.55,-19.63 -39.52,-102.18 -52.14,-132.22 -55.42,-132 19.19,-219.51 26.9,-311.33l-10.71 8.15c-60.32,44.18 -41.32,59.47 -51.37,46.51 -1.2,-1.55 -3.72,4.45 -5.69,6.58 -11.64,-15.63 -191.77,-7.72 -222.62,-7.83 -72.98,-0.26 -65.56,9.64 -92.63,11.14 -1.09,0.06 -3.26,0.07 -4.33,0.04l-569.17 -3.35c-15.55,28.23 -18.05,23.63 -42.12,38.36 45.87,50.08 -8.06,7.62 69.59,59.06 41.56,27.53 28.01,38.39 64.47,48.24l-16.46 7.76c-20.45,3.57 -11.57,-0.82 -14.23,-7.79 1.25,18.49 -5.21,-4.52 18.36,15.67l19.95 22.69c-21.87,28.79 -36.09,16.7 -45.3,45.88 -0.76,2.41 -2.01,10.43 -2.55,13.18 -1.98,9.84 -1,15.64 -5.74,32.88 -71.12,0 -77.79,7.52 -116.41,8.97 -29.69,1.11 -14.9,-3.32 -44.48,6.36 -0.27,18.5 -0.33,14.7 -10.44,41.18z"/>
   <path class="fil2" d="M4964.95 4372.18c-79.27,79.69 -29.44,112.27 -174.74,140.09 -32.08,6.13 -35.64,21.61 -78.48,20.47 -82.78,-2.21 -24.42,-77.49 -5.83,-121.47 11.08,-26.2 48.89,-112.52 67.52,-129.36 14.44,23.66 -21.17,79.16 -33.66,109.99 -9.89,24.39 -29.88,93.97 -36.48,119.68 61.04,2.62 47.37,-24.22 72.94,-76.01 15.01,-30.39 21.9,-74.98 52.14,-86.53 -3.92,48.78 -28.93,96.56 -26.96,138.7 60.44,3.82 114.81,-91.06 116.3,-123.53 -33.89,-28.82 -51.56,-10.4 -83.85,-45.19 -20.39,-21.95 -31.74,-55.73 -70.66,-47.86 -96.07,19.43 -122.85,4.65 -175.63,15.75 -61.47,12.93 -45.61,15.28 -76.34,145.64 -40.39,12.09 -55.2,13.86 -63.53,56.51 46.43,-12.27 24.93,-18.21 58.84,-34.25 -18.58,63.55 -86.68,98.24 -136.58,134.25 -76.85,55.47 -81.37,60.01 -197.67,70.94 1.74,13.73 112.9,233.3 123.18,243.41 15.08,14.85 102.8,50.16 129.56,62.26 92.8,41.95 285.37,152 359.05,200.34 58.65,38.49 175.5,128.45 228.17,150.34 4.22,-128.85 11.92,-326.51 33.93,-450.32 12.58,-70.75 32.78,-92.53 57.89,-187.56 20.61,-78 11.56,-136.94 8.81,-222.28 -22.91,-13.26 -53.95,-22.32 -79.35,-37.93 -31.39,-19.27 -32.92,-39.83 -68.57,-46.08z"/>
   <path class="fil1" d="M3449.59 2238.09c46.82,-10.45 57.93,5.84 111.41,-23.02 45.27,-24.44 49.01,-3.03 77.95,26.6 48.17,49.33 93.1,70.54 88.88,178.81 -44.6,-19.87 -43.36,-41.42 -62.26,-67.58 -39.9,-55.21 -193.25,-47.76 -254.07,-109.27l38.09 -5.54zm-225.25 -136.52l67.12 122.98c4.57,37.58 35.81,74.26 65.23,88.62 -6.76,-19.48 -10.38,-22.26 -17.1,-43.68 52.29,28.09 60.47,57.72 141.43,77.15 41.34,9.93 142.64,20.73 170.95,34.47 97.6,47.34 81.58,312.14 60.31,339.69l-12.07 -42.07c-42.8,3.41 -9.96,12.47 -30.18,6.92 -9.11,-18.15 -14.45,-34.67 -22.57,-54.23 -2.28,-5.49 -11.17,-26.94 -11.25,-27.33 -1.94,-9.68 -0.94,-8.73 -0.35,-18l3.68 -12.69c36.08,22.59 11.63,27.82 55.56,44.2 -5.45,-126.02 -96.26,-200.06 -204.4,-227.53 -76.02,-19.31 -189.56,22.78 -272.22,-141.34 -36.19,-37.3 -45.96,-127.27 -56.63,-177.69 0.11,-93.03 -3.69,-115.02 -58.02,-160.22 -15.58,-12.96 -47.4,-36.29 -77.53,-38.66 -100.49,-7.9 -95.08,53.44 -111.45,72.78 -90.66,107.19 -28.84,26.48 -77.37,138.09 -50.55,116.24 25.85,81.59 29.77,230.06 -11.72,-10.31 -3.99,0.65 -16.1,-19.19l-28.78 -57.17c-0.73,-0.99 -2.38,-3.03 -3.76,-4.37l77.78 127.7 113.82 18.54c3.84,-51.77 -16.49,-76.76 -44.87,-106.72 -59.37,4.73 -58.71,50.56 -80.03,-72.86 20.14,9.93 20.1,14.38 50.15,13.82 0.81,-30.93 -0.65,-83.07 -7.97,-111.13 -16.86,-64.67 -51.37,14.75 -51.7,-41.59 -0.15,-25.32 76.38,-133.46 123.04,-105.14 30.99,38.79 35.01,182.41 55.32,241.98 11.21,32.88 29.36,69.54 43.71,103.57 19.56,46.37 13.92,87.05 28.37,123.85 16.14,-18.66 8.12,-46.35 1.13,-75.88 -6.06,-25.57 -16.08,-49.88 -19.93,-73.33 69.18,3.14 -2.8,160.65 80.09,177.98 9.54,-15.4 6.22,2.7 8.17,-27.37 1.57,-24.02 -18.83,-61.66 -11.61,-91.11 13.28,36.97 15.67,112.46 41.75,113.22 28.93,0.85 7.71,-34.96 38.3,-46.96 37.35,41.74 -16.69,48 68.96,87.56 27.73,-14.47 31.97,-80.9 72.76,24.31 16.38,42.21 47.91,67.82 49.6,118 -22.25,-34.66 -23.11,-65.73 -53.87,-91.49 24.54,82.43 -15.64,32.78 54.92,160.83 29.91,54.27 47.3,95.41 83.49,138.63 205.42,245.37 303.54,40.37 345.51,260.14 5.92,31.05 3.38,94.74 20.16,124.3 8.15,14.37 1.03,4.82 12.02,15.5 33.4,-117.41 -4.05,-183.02 -15.38,-242.65 49.49,11.98 11.15,11.22 51.51,26.06 18.56,-57.05 -13.47,-31.3 47.19,-66.91 74.14,-43.52 140,-162.15 142.34,-212.34 -44.14,30.15 -77.54,134.59 -171.47,182.94 -38.22,19.68 -96.91,37.15 -144.78,23.1 -13.25,-3.89 -43.94,-22.26 -61.92,-28.95 -86.09,-32.06 -156.91,-20.95 -233.24,-218.67 -14.08,-36.47 -61.75,-165.43 -81.64,-194.23 -27.6,-39.95 -33.93,-8.84 -33.39,-59.82 35.64,-2.89 41.62,4.36 57.45,28.16 61.39,92.24 121.9,395.75 231.38,391.22 0.56,-50.65 -104.28,-87.59 -93.83,-223.24 41.13,-5.05 32.77,5.72 45.08,47.58 7.96,27.11 18.17,52.75 26.98,72.7 25.12,56.87 43.22,78.92 87.02,112.5 48.73,37.34 88.54,39.81 150.26,14.18 49.19,-20.44 81.39,-46.27 88.32,-112.71 -22.61,-37.54 -72.49,-75.51 -102.29,-114.49 -51.23,-67.01 -29.22,-92.71 -40.74,-181.75 -15.39,-118.99 -98.58,-233.26 -158.83,-285.49 -137.4,-119.14 -126.69,-9.03 -240.39,-73.79 -82.59,-47.04 -182.32,-271.36 -299.67,-253.23 -7.61,66.92 139.41,165.28 165.41,272.98l-50.87 -71.65c8.4,45.31 29.49,52.28 43.09,89.19 -80.44,-33.07 -93.29,-134.75 -148.33,-156.92 4.59,30.65 32.46,71.58 47.4,99.09z"/>
   <path class="fil0" d="M5325.04 4939.25c-15,-31 2.76,-53.68 18.55,-81.43l51.47 -75.2c-5.53,60.34 -21.65,138.88 -70.02,156.63zm160.88 -122.45c-22.4,-41.93 22.52,-72.97 38.05,-162.19 1.03,-5.89 4.17,-32.83 4.92,-35.14 11.46,-35.62 0.96,-10.25 18.32,-20.55 11.96,16.33 4.32,-19.4 11.87,25.63 5.64,33.68 -26.78,171.59 -73.16,192.25zm-404.75 485.85c50.49,-60.52 136.81,-134.08 199.3,-192.96l84.13 -71.06c1.55,-0.89 3.67,-1.68 5.23,-2.54l31.86 -28.01 76 14.32c26.31,64.02 -0.4,54.18 12.89,106.84 14.32,-19.31 86.4,-311.45 84.36,-332.72 -16.55,-172.09 96.21,-248.87 21.93,-328.57 -40.85,-43.83 -173.31,-172.96 -201.22,-212.57 -22.95,-32.55 -0.31,-25.42 -39.75,-34.83 -0.49,57.41 170.45,295.9 174.92,364.09 -79.75,-45.18 -109.32,-159.41 -141.55,-215.65 -145.18,-253.33 -96.73,-228.89 -219.47,-206.56 -58.77,10.68 -176.07,-13.42 -255.72,33.16l50.56 9.37c77.2,-2.19 267.89,57.2 302.06,102.49 27.76,36.79 102.3,313.07 92.03,366.67 -29.47,-8.87 -22.52,-3.98 -32.75,-41.97 -117.13,-434.41 -8.56,-279.49 -292.7,-389.7 -117.06,-45.4 -111.64,-7.45 -147.42,3.71 -11.12,3.48 -41.06,5.42 -54.66,7.29 -4.75,51.85 64.98,64.51 107.8,75.62 70.98,18.41 69.23,28.86 118.83,64.81 57.08,41.39 78.53,12.48 88.18,102.14 6.05,56.25 18.59,111.53 18.21,167.52 -0.34,49.24 -8.52,39.46 -29,70.17 -45.53,68.27 -76.92,318.63 -73.41,396.97l10.96 152.53c6.57,21.99 2.88,10.66 8.4,19.44z"/>
   <path class="fil1" d="M4339.05 4178.49c11.71,-22.91 34.09,-43.23 47.19,-63.61 15.14,-23.55 23.27,-59.53 50.08,-70.37 28.23,53.88 -58.39,119.34 -97.27,133.98zm-289.31 -169.81c8.7,-35.76 8.13,-23.23 29.11,-48.04 70.44,-83.25 42.86,-121.11 74,-139.07 30.4,33.47 -3.16,83.06 -19.26,109.63 -22.28,36.77 -33.61,68.31 -83.85,77.48zm-4.15 -71.07c-21.94,-15.5 -31.38,-27.71 -62.13,-48.61 4.54,-24.36 31.4,-84.3 46.81,-100.12 16.87,14.79 9.23,1.57 17.99,27.24 8.31,24.36 -2.34,18.7 12.66,40.68 31.24,-21.53 26.25,-48.21 21.46,-93.12 91.75,54.95 14.02,142.02 -36.79,173.93zm353.69 -351.75l-39.66 -5.24c-7.54,24.89 16.38,14.5 -91.23,11.2 -38.39,-1.19 -19.84,8.62 -46.59,-8.1 -1.05,1.49 -2.22,2.38 -2.65,4.8l-16.68 17.37c-18.64,6.26 -29.89,2.35 -41.92,-7.3 -139.85,-82.97 -188.86,-93.43 -216.01,-259.87 -4.06,-24.91 -21.08,-47.91 -31.11,-68.69 -22.5,-46.59 -18.7,-115.16 -43.72,-153.76 -45.07,74.83 52.44,234.15 55.6,245.21 -37.14,-17.86 -35.46,-44.74 -58.25,-49.61 -19.41,78.55 36.5,174.72 76.07,196.4 38.35,21.01 58.47,35.29 91.05,54.8 38.28,22.94 77.96,21.48 79.12,65.09 -32.36,14.67 -144.4,-46.16 -178.92,-64.66 -10.53,-67.27 11.59,-47.76 -39.17,-83.58 -31.81,-22.45 -34.76,-55.67 -69.49,-55.51 -33.7,54.4 22.26,88.21 44,126.58 27.06,47.71 80.29,52.77 107.74,92.75 -5.27,3.32 -7.64,10.29 -33.83,3.62 -45.85,-11.69 -51.88,-48.94 -106.47,-50.46 -0.34,46.43 30.79,65.48 53.3,94.74 39.15,50.91 37.45,29.19 99.04,45.65 21.33,70.87 -6.43,94.79 -34.02,136.75 -57.52,-3.1 -90.95,-11.58 -129.2,25.48 -21.57,20.9 -55.75,76.29 -57.71,112.2 58.71,-6.7 49.94,-118 161.8,-107.76 108.12,9.9 87.57,70.45 113.49,154.46 53.24,-9.14 72.14,-72.13 117.96,-92.23 -4.08,75.12 -53.24,98.5 -50.01,162.36 37.13,-11.93 62.74,-46.97 87.01,-67.07 9.18,20.69 -1.89,17.8 15.32,40.95 54.85,8.34 40.18,-6.54 69.23,-30.35l-23.7 60.51c71.2,4.56 44.94,-51.21 110.71,-72.13 -6.12,51.13 -53.72,114.64 -95.47,120.32 -58.87,8.02 -110.55,-37.73 -163.68,-48.85 37.79,70.37 263.45,172.77 395.24,-88.2 79.43,-157.28 27.74,-292.77 -67.44,-417.88 -10.29,-13.51 -23.15,-33.01 -39.75,-39.99z"/>
   <path class="fil2" d="M3410.5 4985.05c28.65,17.69 66.97,-13.79 93.83,-28.5 41.71,-22.83 69.57,-16.67 120.63,-16.14 92.66,0.95 19.16,-32.11 100.97,-11.19 51.65,13.21 76.61,3.37 128.06,9.85 189.13,23.84 148.3,152.36 423,106.93 -0.71,-125.09 -185.14,-409.21 -235.29,-523.31 -69.8,22.69 -83.85,74.88 -185.55,97.6 -162.51,36.31 -136.92,-20.65 -196.77,70.38 -32.67,49.7 -136.06,191.09 -180.39,233.36 -20.03,19.09 -59.06,39.27 -68.49,61.02z"/>
   <path class="fil0" d="M1853.08 4796.16c5.12,-81.06 60.89,-0.16 194.98,-153.92 57.71,-66.15 164.16,-144.56 181.28,-163.06 -28.95,-34.96 -124.91,-59.57 -186.18,-57.34 -16.91,55.7 -144.06,187.01 -189.68,232.68 -74.65,74.73 -159.58,135.83 -202.17,219.16 -56.08,109.72 -273.95,499.32 -280.12,556.69 36.26,-8.7 70.63,-42.45 85.13,-69.79 21.98,-41.42 35.3,-56.25 61.49,-91.48 51.12,-68.77 86.38,-102.86 140.85,-158.11 53.21,-53.98 375.63,-139.55 418.17,-179.59l-21.42 -25.85c-9.71,-25.46 -5.66,-10.56 -2.32,-34.94 79.2,-12.51 69.29,10.71 139.99,-29.82 43.14,-24.74 84.93,-40.55 99.49,-73.05 -47.64,-13.59 -174.1,-13.33 -231.33,-11 -77.7,3.17 -147.92,42.49 -208.16,39.42z"/>
   <path class="fil0" d="M4800.15 3263.33c-43.54,-14 -74.24,-66.61 -101.94,-111.56 -15.03,-24.41 -11.04,-25.43 -32.05,-37.24 -27.06,20.25 -27.67,61.29 -63.99,126.98 -16.28,29.45 -92.98,192.69 -93.46,215.99 47.75,17 58.61,8.72 102.1,34.7 173.46,103.62 233.08,175.61 246.88,184.46 47.26,-10.51 66.94,-37.94 97.14,-58.47 76.47,-51.95 106.37,-38.61 185.59,-136.06 19.16,-23.56 52.4,-71.96 80.37,-86.62 -20.28,81.35 -163.53,240.78 -281.38,269.29 -40.07,9.69 -42.35,13.31 -49.41,30.56 70.41,18.31 136.54,-15.86 206.24,-50.4 31.37,-15.54 30.19,-13.96 42.38,-50.01 22.22,-65.66 117.81,-176.88 123.43,-234.41 -57.25,5.11 -125.37,44.27 -191.89,51.16 -108.99,11.3 -75.73,-92.33 -127.58,-122.48 -23.23,-10.5 -5.22,-5.99 -47.05,9.12 -9.69,3.51 -5.78,4.7 -21.06,6.86l-153.42 -207.02c21.21,62.58 71.36,84.69 79.1,165.15z"/>
   <path class="fil1" d="M4068.57 4148.43c-18.87,6.97 -0.04,11.25 4.05,35.48 -84.02,-83.12 -55.25,-61.89 -100.94,-113.69 -18.72,-21.23 -22.17,-11.27 -40.62,-27.35 -21.08,-18.38 -37.13,-68.73 -80.71,-57.82 -36.18,9.06 -41.82,47.61 -65.25,74.43 -32.54,-13.77 2.29,-36.8 -45.97,-29.41 -8.5,24.03 -6.81,148.73 -3.27,179.18 8.7,74.92 50.61,71.12 51.66,143.79l-81.63 -5.04 32.31 -67.61c-48.87,3.03 -49.7,61.11 -98.79,68.5 -31.32,4.71 -122.49,-2.19 -158.75,-3.95 18.33,-35.65 128.92,-67.12 153.47,-149.53 -42.86,19.7 -150.86,117.52 -222.45,139.41 -97.35,29.77 -240.85,-11.26 -317.66,44.72 4.97,36.52 32.91,45.1 64.2,60.08 113.58,54.35 182.42,45.05 320.43,49.58 79.41,2.6 163.47,-0.21 240.15,-5.35 91.49,-6.13 186.06,13.77 198.52,-53.03 -218.88,-71.1 -727.14,73.27 -767.32,-44.07 72.74,-29.91 630.8,-24.7 758.37,-8.97 65.71,8.1 82.99,24.74 131.97,-11.13 133.69,-97.93 61.65,-54.47 172.97,-101.85l21.77 -15.56c-40,-19.53 -59.74,-15.72 -93.72,-42.12 -28.08,-21.8 -42.06,-39.61 -72.79,-58.69z"/>
   <path class="fil0" d="M2785.84 4576.73c6.82,28.38 71.07,81.19 94.51,125.48 19.27,36.43 4.95,73.67 97.98,116.19 67.2,30.71 88.77,36.51 171.61,32.89 41.13,-1.81 158.47,-14.34 187.98,-4.21 -19.61,8.98 -155.86,19.62 -189.7,21.76 -84.32,5.3 -122.4,10.26 -187.52,-24.57 -40,-21.4 -94.9,-70.73 -116.13,-98.81 -26.87,-35.51 -43.49,-105.58 -84.64,-119.06 -3.64,81.65 8.44,81.16 47.65,125.48 113.36,128.15 197.65,151.19 372.58,145.81 51.98,-1.59 101.55,-11.67 151.85,-20.21 82.13,-13.95 83.39,5.76 134.68,-42.46 24.19,-22.74 135.35,-166.03 143.56,-202.85 -54.76,-3.57 -99.26,-5.5 -152.31,-15.59 -120.52,-22.91 -21.77,-29.76 -137.53,-12.04l-10.65 -34.58 -75.15 16.53c17.66,35.87 48.13,8.66 77.08,30.66 -41.34,36.26 -76.19,6.49 -124.08,1.09 -45.63,-5.13 -99.16,0.55 -145.97,0.02 -112.87,-1.28 -74.91,-42.58 -255.8,-41.53z"/>
   <path class="fil1" d="M1162.15 3608.23c-3.03,6.07 1.61,0.67 -7.99,10.49l-104.76 86.37 -5.5 36.31c91.32,-33.73 141.01,-132.13 167.02,-104.47 13.46,30.76 -4.29,64.42 -20.22,86.26 -25.02,34.3 -42.49,35.4 -93.27,36.57 4.04,6.93 61.79,50.5 47,105.33 -9.74,36.08 -13.26,9.62 -26.43,33.15 28.11,15.51 14.38,9.42 53.43,15.84 41.33,6.79 24.42,9.1 47.26,20.92 36.93,19.11 61.2,-12.37 105.97,31.75 66.08,65.11 -12.98,47.54 25.57,95.61 60.99,76.06 11.89,0.69 52.71,86.49 88.8,186.67 116.67,118.31 177.32,236.61 17.04,33.22 24.8,59.89 41.81,91.18 9.87,-84.98 -36.23,-118.38 -47.99,-186.16 61.11,6.93 73.92,-0.43 133.88,-4.16 -68.81,-37.1 -76.98,33.52 -174.76,-114.18 -42.86,-64.74 -23.8,-21.09 -37.63,-106.22 -5.36,-32.98 -37.11,-78.72 -68.36,-84.2 5.59,50.09 56.72,58.11 28.84,100.11 -27.36,-14.13 -56.45,-77.6 -107.33,-123.82 -13.39,-12.17 -22.97,-14.85 -41.74,-30.69 -12.16,-204.63 23.58,-204.82 65.64,-329.4 21.16,-62.67 40,-85.26 72.23,-126.46 16.4,-20.98 26.65,-38.52 42.02,-57.52l37.56 -29.97c53.03,-15.01 3.37,114.28 -4.3,132.61 -15.36,36.75 -53.46,79.09 -57.72,111.91 -3.91,30.05 2.69,45.4 -7.29,75.71 -9.09,27.62 -19.32,31.8 -18.2,60.97 1.74,45.38 17.23,91.78 8.63,150.83 -31.25,1.58 -78.75,-5.31 -101.55,11.32 24.35,22.02 36.24,18.23 70.72,13.14 43.56,-6.44 24.43,8.14 79.65,13.08l23.31 -56.49c18.93,-49.81 60.16,-139.01 68.8,-184.12 -50.17,18.08 -63.37,152.58 -106.57,176.78 -1.11,-53.41 -15.24,-108.51 -2.95,-155.46 14.7,-56.14 7.19,-92.22 33.17,-136.15 43.71,-73.91 81.48,-173.62 45.53,-259.39 -45.25,-2.97 -73.51,41.26 -118.18,94.72 -90.45,108.23 -86.67,132 -146.51,282.65 -19.58,49.29 -7.6,141.23 -14.01,200.17 -34.21,3.14 -69.75,-13.46 -103.78,-27.25l-9.15 -99.61c75.01,-53.2 96.26,-139.29 62.19,-198.06 -32.22,-2.98 -38.36,7.58 -64.07,16.9z"/>
   <path class="fil1" d="M2645.26 3982.36c30.37,7.55 3.2,6.24 33.55,5.36 16.04,-0.47 13.74,-3.36 35.48,-0.64l7.2 78.23c-28.75,1.84 -13.52,9.05 -33.72,-6.42 -14.81,-11.34 2.08,-0.56 -9.92,-13.63 -10.85,-11.83 -0.48,-2.96 -9.76,-8.25 -28.49,-16.2 -23.43,-2.57 -22.83,-54.65zm153.97 62.16c-2.8,-1.41 -14.94,-11.71 -17.76,-14.67 -17.66,20.89 -2,21.98 -42.16,8.63l-1.65 -31.64c33.71,-10.28 29.75,-2.72 58.75,-4.63 39.27,-2.59 -1.95,-2.21 25.83,-5.74 24.71,-3.13 50.08,6.05 28.18,48.16 -40.87,0.8 -24.36,7.14 -38.95,-22.93l-12.24 22.82zm-100.62 -163.44c30.51,0.25 53.96,12.94 79.11,26.94 5.04,2.8 28.91,17.25 33.36,21.07 6.42,5.51 6.95,3.7 10.63,11.54l1.38 14.64c0.01,1.01 -0.58,3.61 -1.14,5.33 -20.22,8.99 -70.31,13.98 -96.67,-0.21 -25.79,-13.9 -26.58,-43.95 -26.67,-79.31zm320.95 107.52c-0.14,-55.43 -12.98,-25.66 -46.37,-69.03 -20.26,-26.31 -25.21,-35.2 -49.64,-57.69 -50.47,-46.47 -56.7,-86.05 -140.45,-62.65 -73.13,20.43 -95.69,-151.03 -192.9,-1.6 -29.76,45.76 2.67,62.2 14.19,84.65 31.29,61.02 -65.9,60.73 -13.83,151.85 63.88,111.8 197.64,115.57 304.06,44.91 58.89,-39.11 45.42,-82.89 124.94,-90.44z"/>
   <path class="fil0" d="M2528.4 4633.67c-37.94,4.81 -79.75,29.41 -114.65,29.1 -48.69,-0.43 -37.1,-25.27 -115.89,-8.32 -29.73,6.4 -94.95,31.52 -114.35,10.19 -27.26,-29.96 124.47,-91.4 188.4,-67.59 52.1,19.4 19.07,39.75 95.56,13.17 31.64,-11 163.72,-67.49 178.57,-100.38 -19.34,-12.86 -136.18,-33.14 -195.95,-41.67 -136.34,-19.46 -236.48,62.85 -326.78,142.05 -29.94,26.24 -107.08,84.96 -125.55,115.64 75.17,-13.39 69.81,-42.17 207.22,-17.22 75.42,13.68 112.76,29.35 194.44,34.69 95.72,6.25 108.06,-17.19 168.18,-56.59 40.26,-26.39 131.94,-55.6 83.62,-112.81 -40.65,9.51 -98.79,91.56 -150.7,93.94 4.97,-28.99 7.89,-13.95 27.88,-34.2z"/>
   <path class="fil1" d="M868.53 5197.26l305.84 -509.46c12.53,-22.63 55.49,-110.53 56.97,-139.83 4.16,-82.26 7.22,-115.02 -15.82,-188.59 -29.35,-93.67 4.07,-328.95 -58.26,-344.76l-12.78 58.2c-28.17,-13.13 -114.06,-87.89 -119.25,-115.43 -8.04,-42.7 30.63,-147.11 18.8,-183.14 -9,-27.41 7.18,-9.3 -16.97,-23.38 12.99,116.53 -108.03,170.95 34.78,302.56 28.3,26.09 61.69,33.16 85.79,57.85 8.31,150.51 -3.81,216.09 31.23,362.75 31.96,133.81 -16.61,147.94 -92.31,279.29 -48.62,84.37 -95.42,163.31 -146.47,244.79 -24.54,39.16 -49.21,80.92 -77.04,121.84 -51.77,76.12 -98.83,87.96 -63.41,116.65 25.07,16.16 38.43,-27.31 68.9,-39.34z"/>
   <path class="fil1" d="M3800.43 3293.57c21.07,-28.26 8.69,-56.38 -3.62,-91.29 -28.06,-79.6 -51.84,-155.14 -134.03,-195.11 -47.58,-23.14 -362.53,-45.37 -403.97,-13.42 -7.38,5.68 -63.25,90.15 81.58,99.77 271.62,18.02 314.56,-74.43 416.77,125.9 15.03,29.48 12.54,63.75 43.27,74.15z"/>
   <path class="fil1" d="M3372.93 3293.3c40.07,-5.2 59.5,4.02 80,36.18l-6.32 44.38c-39.13,8.2 -108.89,14.16 -98.32,-46.48l23.1 30.7c27.37,4.79 55.26,4.18 53.13,-27.45 -2.48,-36.71 -28.03,-28.06 -51.59,-37.33zm36.73 151.23c0.09,-25.23 6.82,-27.93 7.67,-53.77 10.74,0 12.03,0.48 22.66,-1.89 26.7,-5.95 9.87,0.2 12.66,-5.66 1.44,-1.5 3.12,-6.32 3.82,-4.96l12.04 -13.23c17.79,-10.51 4.42,-4.72 26.02,-5.09l-1.35 38.5c13.91,-15.59 5.01,1.77 14.49,-20.69 9.56,-22.65 9,-34.88 -6.07,-40.64 3.95,24.08 1.17,7.51 7.74,23.01l16.01 -21.92c9.55,-19.81 6.75,-19.33 6.93,-47.07l31.44 -3.69c-11.1,-27.51 -44.42,-51.12 -66.18,-68.3 -1.37,-1.09 -3.4,-2.2 -4.78,-3.28 -20.9,-16.52 -9.21,2.83 -22.79,-29.57 -61.95,6.9 -15.37,16.01 -53.92,-7.95 -29.27,-18.2 0.39,-2.03 -29.1,-7.82 -40.16,-7.86 11.02,-9.39 -40.28,-11.06 -27.85,23.4 -64.75,46.27 -101.77,58.98 -54.66,18.78 -114.12,-14.96 -126.14,44.96 45.26,30.1 71.09,4.55 108.87,-10.26 -21.47,28.69 -27.96,18.03 -32.21,53.78 56.67,18.33 65.56,-62.13 161.54,-53.13 -10.09,46.23 -43.26,19.86 -31.47,111.99l-85.68 -20.41c-39.87,-0.91 -17.73,-0.94 -28.26,8.17 19.81,17.49 18.37,10.1 45.64,21.21 45.57,18.55 25.79,31.58 85.7,50.42 2.34,0.73 9.34,2.72 11.73,3.53l17.2 6.68c2.25,0.75 3.85,1.52 6.22,2.25l31.62 6.91z"/>
   <path class="fil3" d="M4674.48 3849.57c75.83,-13.51 111.31,-70.76 217.92,-70.81 -27.98,55.34 -110.77,50.45 -162.65,109.35 249.75,29.84 282.71,-123.52 356.58,-169.11 36.76,-22.68 85.23,-49.75 99.75,-82.41 -76.22,-2.77 -139.68,94.47 -252.04,107.25 -121.94,13.87 -153.71,-93.88 -233.92,-119.72 -4.87,38.06 0.38,79.52 -2.79,119.28 -3.69,46 -18.17,71.81 -22.85,106.17z"/>
   <path class="fil4" d="M2136.67 4348.69c10.99,-8.61 137.28,-6.57 161.32,-4.84 39.11,2.81 93.25,27.72 122.65,43.91 57.13,31.41 103.06,65.73 165.25,88.5 6.04,2.22 25.7,8.65 31.18,9.14 18.7,1.66 -11.65,3.22 18.73,-1.55l12.42 -4.67c-14.92,-28.69 -24.79,-21.3 -71.65,-47.91 -25.39,-14.43 -49.1,-29.28 -69.76,-45.18 -60.65,-46.62 -50.68,-79.17 -93.09,-137.1 -55.98,-0.04 -136.62,24.37 -192.22,37.75 -29.82,7.19 -64.2,13.85 -93.47,21.03 -37.28,9.15 -48.13,23.9 -48.9,64.11 69.82,20.25 236.1,91.6 293.42,80.8 -29.15,-41.48 -114.54,-72.61 -176.46,-80.69 -73.81,-9.62 -51.25,-8.9 -59.42,-23.3z"/>
   <path class="fil5" d="M3218.48 2248.73c82.66,164.12 196.2,122.03 272.22,141.34 108.14,27.47 198.95,101.51 204.4,227.53 -43.93,-16.38 -19.48,-21.61 -55.56,-44.2l-3.68 12.69c-0.59,9.27 -1.59,8.32 0.35,18 0.08,0.39 8.97,21.84 11.25,27.33 8.12,19.56 13.46,36.08 22.57,54.23 20.22,5.55 -12.62,-3.51 30.18,-6.92l12.07 42.07c21.27,-27.55 37.29,-292.35 -60.31,-339.69 -28.31,-13.74 -129.61,-24.54 -170.95,-34.47 -80.96,-19.43 -89.14,-49.06 -141.43,-77.15 6.72,21.42 10.34,24.2 17.1,43.68 -29.42,-14.36 -60.66,-51.04 -65.23,-88.62l-22.16 -9.64c-4.75,46.04 -26.07,47.62 -26.2,47.41 -1.2,-1.82 -4.29,3.55 -6.38,5.4 -8.75,-16.37 -13.76,-46.48 -18.24,-18.99z"/>
   <path class="fil0" d="M5184 3331.39l107.65 -17.3 21.54 -268.02c2.88,-40.53 6.82,-80.35 11.06,-122.86 4.98,-49.7 29.94,-75.26 28.02,-110.99 -29.54,42.29 -50.54,45.92 -65.17,103.68 -36.45,143.78 -84.88,76.51 -68.63,267.82 8.18,96.27 -27.56,90.34 -34.47,147.67z"/>
   <path class="fil1" d="M2757.71 2293.79c-4.77,-51.12 -56.4,-197.01 8.47,-275.37 -9.3,73.85 -17.94,155.83 1.05,230.52l49.14 132.57c14.23,30.69 1.86,24.26 34.05,25.43 30.42,-67.16 -121.79,-194.11 -30.05,-395.2 10.26,-22.49 65.66,-98.76 66.25,-103.85 7.95,-68.61 -81.87,47.27 -93.1,62.08 -34.25,45.21 -100.24,92.14 -92.66,210.05 2.79,43.35 8.83,111.88 56.85,113.77z"/>
   <path class="fil0" d="M1816.97 4163.85c104.78,21.07 104.6,14.2 148.48,-48.9 47.96,-68.96 39.25,-74.35 38.77,-174.17 -116.05,-2.59 -107.64,57 -169.74,142.79 -25.11,34.71 -24.56,27.32 -17.51,80.28z"/>
   <path class="fil0" d="M4625.82 5159.03c-14.34,-32.16 -251.64,-153.41 -301.71,-163.69 4.72,62.9 28.06,122.86 50.46,172.77 78.32,3.26 175.03,3.68 251.25,-9.08z"/>
   <path class="fil1" d="M3774.11 1853.5c-38.87,-42.33 -190.52,-233.41 -228.87,-243.61 15.92,121.76 203.54,344.97 274.07,367.53 -7.34,-46.86 -21.36,-97.97 -45.2,-123.92z"/>
   <path class="fil6" d="M3449.59 2238.09l-38.09 5.54c60.82,61.51 214.17,54.06 254.07,109.27 18.9,26.16 17.66,47.71 62.26,67.58 4.22,-108.27 -40.71,-129.48 -88.88,-178.81 -28.94,-29.63 -32.68,-51.04 -77.95,-26.6 -53.48,28.86 -64.59,12.57 -111.41,23.02z"/>
   <path class="fil1" d="M3493.18 3398.43l-25.56 2.91 -14.97 -18.13c-2.79,5.86 14.04,-0.29 -12.66,5.66 -10.63,2.37 -11.92,1.89 -22.66,1.89 -0.85,25.84 -7.58,28.54 -7.67,53.77 -0.88,6.04 79.44,32.74 130.29,-8.28 28.67,12.29 12.94,27.94 48.43,12.09 7.33,-3.28 35.67,-34.22 37.91,-40.38 12.18,-33.49 -7.69,-7.74 -29.17,-33.46 -15.08,-18.05 -8.45,-41.95 -8.97,-68.01 -7.27,-5.58 -22.03,-17.15 -24.43,-19.06l-31.44 3.69c-0.18,27.74 2.62,27.26 -6.93,47.07l-16.01 21.92c-6.57,-15.5 -3.79,1.07 -7.74,-23.01 15.07,5.76 15.63,17.99 6.07,40.64 -9.48,22.46 -0.58,5.1 -14.49,20.69z"/>
   <path class="fil7" d="M3221.89 4561.31c-12.22,-22.07 -14.56,-21.32 -37.25,-33.87 -86.89,-48.04 -44.27,-45.23 -111.96,-40.6 -44.49,3.03 -60.31,-0.37 -94.15,20.88 -11.04,6.93 -59.82,35.42 -47.63,35.54 1.73,21.85 -14.17,20.93 26.26,26.88l264.73 -8.83z"/>
   <path class="fil8" d="M4337.54 5229.72c-134.89,0.95 -201.58,-99.81 -302.41,-102.29 8.32,47.52 89.14,69.82 163.97,102.47 55.9,24.4 131.02,48.22 189.77,67.44 -4.7,-38.52 -44.74,-153.38 -76.09,-163.78l24.76 96.16z"/>
   <path class="fil1" d="M5201.65 2425.76c-23.49,-16.12 -25.37,-7.29 -44.71,-31.86 -56.17,-71.34 -18.27,-141.32 -83.74,-144.45 -6.38,74.17 41.69,126.71 79.86,209.39 60.02,12.5 96.66,64.66 120.55,117.29 14.17,31.23 1.23,34.23 36.1,39.35 25.93,-41.56 -16.34,-67.29 -39.09,-105.35 -19.08,-31.93 -46.57,-68.99 -68.97,-84.37z"/>
   <path class="fil9" d="M2425.69 3288.93c-6.72,-32.18 -146.74,-180.95 -22.66,-254.58 -2.69,0.39 -18.12,8.77 -26.73,3.87 27.56,-31.27 63.17,-31.26 114.04,-30.57 0.87,1.65 1.64,2.56 1.92,5.26 0.28,2.77 1.47,4.21 1.88,5.42l12.2 34.65c15.26,-23.74 8.06,-34.62 23.16,-59.38 20.36,-33.39 24.41,-16.46 25.23,-73.54 -31.23,14.57 -22.78,22.21 -54.86,35.74 -50.93,21.46 -125.87,27.66 -167.95,99.93 -51.52,88.46 37.13,152.34 57.7,183.1 9.39,14.05 10.18,18.31 16.74,29.6 13.88,23.85 0.11,13.9 19.33,20.5z"/>
   <path class="fil4" d="M5677.45 4134.74c68.2,0 104.89,-3.13 167.87,-17.07 50.92,-11.27 107.23,-14.23 104.29,-72.25 -20.65,1.77 -47.73,19.57 -73.17,27.1 -55.36,16.4 -220.49,20.35 -283.04,23.61 4.47,52.34 11.33,38.61 84.05,38.61z"/>
   <path class="fil1" d="M4992.63 2052.27c-23.24,-42.24 -62.08,-125.89 -128.31,-140.25 3.62,23.83 35.27,62.27 53.03,85.4 20.89,27.19 33,46.93 50.02,80.68 18.74,37.15 74.65,148.29 104.12,162.28 9.64,-79.02 -51.94,-139.17 -78.86,-188.11z"/>
   <path class="fil1" d="M3087.92 2421.47c26.29,-28.6 12.07,-55.4 -4.31,-76.29 -40.97,-52.19 -67.44,-96.49 -80.32,-163.16 -6.67,-34.53 5.7,-67.43 -4.34,-145.65 -41.72,12.18 -68.74,135.92 -12.15,206.26 25.16,31.27 68.74,85.12 77.99,129.77 7.04,34.01 -3.2,36.24 23.13,49.07z"/>
   <path class="fil4" d="M4045.59 3937.61c50.81,-31.91 128.54,-118.98 36.79,-173.93 4.79,44.91 9.78,71.59 -21.46,93.12 -15,-21.98 -4.35,-16.32 -12.66,-40.68 -8.76,-25.67 -1.12,-12.45 -17.99,-27.24 -15.41,15.82 -42.27,75.76 -46.81,100.12 30.75,20.9 40.19,33.11 62.13,48.61z"/>
   <path class="fil3" d="M4098.83 5123.02c16.63,16.02 26.52,16.75 50.46,26.67 49.96,20.7 117.11,54.94 167.86,61.48 -6.7,-33.9 -15.34,-64.26 -34.06,-89.06 -54.6,-7.76 -138.25,-23.95 -184.26,0.91z"/>
   <path class="fil1" d="M4165.65 1577c-47.33,-8.1 -94.09,5.14 -141.73,-4.8 -37.99,-7.92 -78.52,-23.45 -124.62,-4.35l1.6 44.56c53.85,7.52 96.31,-7.14 127.76,-5.32 19.82,1.15 63.94,13.13 101.48,9.13l29.87 -6.64 5.64 -32.58z"/>
   <path class="fil4" d="M4339.07 3584.29c-39.77,-88.31 -173.57,-135.62 -195.09,-116.16 -29.95,27.1 45.8,59.06 71.69,74.23 46.48,27.22 56.1,41.27 123.4,41.93z"/>
   <path class="fil10" d="M2817.26 3124.33c-11.31,17.6 -13.04,34.92 -37.03,38.6 -34.25,5.24 -19.76,-1.51 -28,-9.28l-16.72 -25.65c-17.13,21.13 -1.68,23.46 -24.95,20.09 -11.09,-79.33 36.48,-63.01 44.19,-90.96 -74.78,-59.24 -194.05,66.99 -57.95,105.58 44.17,12.51 130.44,26.91 120.46,-38.38z"/>
   <path class="fil1" d="M3218.48 2248.73c4.48,-27.49 9.49,2.62 18.24,18.99 2.09,-1.85 5.18,-7.22 6.38,-5.4 0.13,0.21 21.45,-1.37 26.2,-47.41l22.16 9.64 -67.12 -122.98 -1.1 40.89c-1.99,20.29 3.33,1.42 -5.08,15.37 -31.88,-20.82 -17.39,-65.39 -56.31,-86.79 10.67,50.42 20.44,140.39 56.63,177.69z"/>
   <path class="fil4" d="M2811.08 3929.09c-4.45,-3.82 -28.32,-18.27 -33.36,-21.07 -25.15,-14 -48.6,-26.69 -79.11,-26.94 0.09,35.36 0.88,65.41 26.67,79.31 26.36,14.19 76.45,9.2 96.67,0.21 0.56,-1.72 1.15,-4.32 1.14,-5.33l-1.38 -14.64c-3.68,-7.84 -4.21,-6.03 -10.63,-11.54z"/>
   <path class="fil1" d="M5485.92 4816.8c46.38,-20.66 78.8,-158.57 73.16,-192.25 -7.55,-45.03 0.09,-9.3 -11.87,-25.63 -17.36,10.3 -6.86,-15.07 -18.32,20.55 -0.75,2.31 -3.89,29.25 -4.92,35.14 -15.53,89.22 -60.45,120.26 -38.05,162.19z"/>
   <path class="fil10" d="M5041.5 4141.93c6.34,4.25 0.46,4.27 16.31,7.15l166.95 -22.48c41.02,-10.21 36.78,-9.57 48.37,-25.93 -73.4,-41.87 -105.86,-2.6 -121.98,4.76 -36.02,16.46 -78.05,20.11 -109.65,36.5z"/>
   <path class="fil1" d="M2927.04 3694.07l35.92 -28.62 -1.64 -45.21c-4.99,1.87 -6.64,2.51 -7.11,5.4l-8.44 15.5c-13.72,20.84 3.76,8.66 -18.73,15.14 -1.96,-3.12 -23.18,-90.56 -98,-96.02 -4.3,44.83 17.13,32.67 39.56,72.83 25.65,45.9 -2.7,7.4 30.81,31 19.83,13.97 10.33,15.12 27.63,29.98z"/>
   <path class="fil11" d="M2335.86 3550.89c-0.6,-105.03 -61.55,-51.22 -25.34,-164.64 -8.59,6.11 -10.84,13.32 -15.54,22.42 -3.8,7.38 -4.22,10.07 -8,16.12 -6.37,10.21 -5.37,7.94 -11.32,14.25 -8.63,-47.79 -8.23,-44.31 5.9,-85.93 -64.1,39.13 1.43,190.47 54.3,197.78z"/>
   <path class="fil12" d="M4049.74 4008.68c50.24,-9.17 61.57,-40.71 83.85,-77.48 16.1,-26.57 49.66,-76.16 19.26,-109.63 -31.14,17.96 -3.56,55.82 -74,139.07 -20.98,24.81 -20.41,12.28 -29.11,48.04z"/>
   <path class="fil1" d="M2628.24 2730.9c37.08,1.78 12.71,11.57 29.92,-16.22 17.02,-27.47 42.42,-67.25 36.85,-95.77 -45.97,-2.79 -34.98,10.36 -56.76,38.28 -16.69,21.39 -36.24,40.48 -10.01,73.71z"/>
   <path class="fil6" d="M2348.8 3489.37c30.59,-10.43 32.1,-33.44 31.91,-83.38 -0.16,-42.5 -15.69,-58.62 -50.28,-67.45l18.37 150.83z"/>
   <path class="fil13" d="M2811.47 4021.7c14.59,30.07 -1.92,23.73 38.95,22.93 21.9,-42.11 -3.47,-51.29 -28.18,-48.16 -27.78,3.53 13.44,3.15 -25.83,5.74 -29,1.91 -25.04,-5.65 -58.75,4.63l1.65 31.64c40.16,13.35 24.5,12.26 42.16,-8.63 2.82,2.96 14.96,13.26 17.76,14.67l12.24 -22.82z"/>
   <path class="fil14" d="M2714.29 3987.08c-21.74,-2.72 -19.44,0.17 -35.48,0.64 -30.35,0.88 -3.18,2.19 -33.55,-5.36 -0.6,52.08 -5.66,38.45 22.83,54.65 9.28,5.29 -1.09,-3.58 9.76,8.25 12,13.07 -4.89,2.29 9.92,13.63 20.2,15.47 4.97,8.26 33.72,6.42l-7.2 -78.23z"/>
   <path class="fil1" d="M5325.04 4939.25c48.37,-17.75 64.49,-96.29 70.02,-156.63l-51.47 75.2c-15.79,27.75 -33.55,50.43 -18.55,81.43z"/>
   <path class="fil15" d="M4339.05 4178.49c38.88,-14.64 125.5,-80.1 97.27,-133.98 -26.81,10.84 -34.94,46.82 -50.08,70.37 -13.1,20.38 -35.48,40.7 -47.19,63.61z"/>
   <path class="fil16" d="M3372.93 3293.3c23.56,9.27 49.11,0.62 51.59,37.33 2.13,31.63 -25.76,32.24 -53.13,27.45l-23.1 -30.7c-10.57,60.64 59.19,54.68 98.32,46.48l6.32 -44.38c-20.5,-32.16 -39.93,-41.38 -80,-36.18z"/>
   <path class="fil17" d="M2408.72 3192.52c-9.86,-42.64 -18.67,-43.72 -8.54,-93.09 18.9,-12.07 24.05,-18.32 57.21,-18.95 13,42.91 -12.55,33.67 25.29,48.34 0.24,-0.4 30.33,6.47 4.07,-31.9 -0.2,-0.31 -54.47,-41.92 -87.54,-19.63 -20.94,14.11 -41.52,78.69 9.51,115.23z"/>
   <path class="fil6" d="M5226.74 3627.74l50.14 1.23c-1.18,-29.15 -3.37,-46.75 -20.79,-66.15 -25.02,15.33 -32.43,21.79 -29.35,64.92z"/>
   <path class="fil5" d="M5312.77 4136.77c16.79,44.31 1.14,44.86 61.25,48.94 -2.19,-53.43 -4.45,-48.69 -61.25,-48.94z"/>
   <path class="fil7" d="M3452.65 3383.21l14.97 18.13 25.56 -2.91 1.35 -38.5c-21.6,0.37 -8.23,-5.42 -26.02,5.09l-12.04 13.23c-0.7,-1.36 -2.38,3.46 -3.82,4.96z"/>
  </g>
  <circle class="fil18" cx="3386.66" cy="3386.66" r="3386.66"/>
 </g>
</svg>
