<?xml version="1.0" encoding="UTF-8"?>
<!DOCTYPE svg PUBLIC "-//W3C//DTD SVG 1.1//EN" "http://www.w3.org/Graphics/SVG/1.1/DTD/svg11.dtd">
<!-- Creator: CorelDRAW 2018 (64 Bit Versão de avaliação) -->
<svg xmlns="http://www.w3.org/2000/svg" xml:space="preserve" width="67.7332mm" height="42.3332mm" version="1.1" style="shape-rendering:geometricPrecision; text-rendering:geometricPrecision; image-rendering:optimizeQuality; fill-rule:evenodd; clip-rule:evenodd"
viewBox="0 0 6773.32 4233.32"
 xmlns:xlink="http://www.w3.org/1999/xlink">
 <defs>
  <style type="text/css">
   <![CDATA[
    .fil0 {fill:none}
    .fil2 {fill:#97266D}
    .fil18 {fill:#CBCBCB}
    .fil17 {fill:#D2D2D2}
    .fil15 {fill:#DFDFDF}
    .fil16 {fill:#E7E7E7}
    .fil12 {fill:#EBEBEB}
    .fil8 {fill:#F0F0F0}
    .fil10 {fill:#F1F1F1}
    .fil13 {fill:#F3F3F3}
    .fil11 {fill:#F4F4F4}
    .fil14 {fill:whitesmoke}
    .fil7 {fill:#F6F6F6}
    .fil9 {fill:#F7F7F7}
    .fil5 {fill:#F9F9F9}
    .fil6 {fill:#FAFAFA}
    .fil4 {fill:#FBFBFB}
    .fil1 {fill:#FDFDFD}
    .fil3 {fill:#FEFEFE}
    .fil19 {fill:black;fill-rule:nonzero}
    .fil20 {fill:#97266D;fill-rule:nonzero}
   ]]>
  </style>
 </defs>
 <g id="Camada_x0020_1">
  <metadata id="CorelCorpID_0Corel-Layer"/>
  <rect class="fil0" x="-0.01" y="-0.01" width="6773.33" height="4233.33"/>
  <g id="_2013329970624">
   <path class="fil1" d="M3795.13 2010.13c18.41,11.43 26.79,22.1 43.6,35.16 20.36,15.81 32.18,13.53 56.14,25.23l-13.04 9.31c-66.68,28.39 -23.52,2.36 -103.61,61.01 -29.34,21.49 -39.69,11.53 -79.05,6.67 -76.42,-9.42 -410.7,-12.54 -454.27,5.38 24.07,70.28 328.52,-16.19 459.63,26.39 -7.46,40.02 -64.11,28.1 -118.91,31.77 -45.93,3.08 -96.29,4.76 -143.86,3.2 -82.67,-2.71 -123.9,2.86 -191.94,-29.7 -18.74,-8.97 -35.48,-14.11 -38.45,-35.98 46,-33.53 131.96,-8.96 190.28,-26.79 42.88,-13.12 107.57,-71.71 133.25,-83.51 -14.71,49.37 -80.95,68.22 -91.93,89.57 21.72,1.05 76.33,5.19 95.09,2.36 29.4,-4.42 29.9,-39.21 59.17,-41.03l-19.35 40.5 48.9 3.02c-0.63,-43.53 -25.73,-41.25 -30.95,-86.13 -2.11,-18.24 -3.13,-92.94 1.97,-107.33 28.9,-4.43 8.04,9.37 27.53,17.62 14.04,-16.07 17.42,-39.16 39.09,-44.59 26.1,-6.53 35.71,23.63 48.34,34.64 11.06,9.63 13.12,3.66 24.33,16.38 27.37,31.03 10.14,18.31 60.47,68.1 -2.45,-14.51 -13.73,-17.08 -2.43,-21.25zm-628.37 -95.74c-47.63,4.52 -39.56,30.75 -74.83,54.17 -63.75,42.33 -143.88,40.07 -182.14,-26.9 -31.2,-54.58 27.02,-54.41 8.28,-90.96 -6.9,-13.45 -26.32,-23.3 -8.5,-50.7 58.23,-89.51 71.75,13.19 115.55,0.96 50.17,-14.02 53.9,9.68 84.13,37.52 14.64,13.47 17.6,18.8 29.74,34.56 20,25.98 27.69,8.15 27.77,41.35zm-34.89 -220.65l0.99 27.08 -21.52 17.14c-10.36,-8.9 -4.67,-9.59 -16.55,-17.95 -20.07,-14.15 -3.09,8.92 -18.45,-18.57 -13.44,-24.06 -26.27,-16.78 -23.7,-43.63 44.82,3.27 57.53,55.64 58.7,57.51 13.48,-3.88 3,3.42 11.22,-9.06l5.06 -9.29c0.28,-1.73 1.27,-2.11 4.25,-3.23zm360.85 -199.36c1.44,1.14 10.28,8.07 14.64,11.42 0.3,15.6 -3.66,29.92 5.37,40.73 12.86,15.41 24.77,-0.01 17.47,20.05 -1.34,3.69 -18.32,22.22 -22.71,24.19 -21.26,9.49 -11.83,0.12 -29.01,-7.24 -30.46,24.57 -78.57,8.58 -78.04,4.96l-18.94 -4.15c-1.42,-0.43 -2.38,-0.89 -3.73,-1.34l-10.3 -4.01c-1.43,-0.48 -5.63,-1.67 -7.03,-2.11 -35.89,-11.28 -24.04,-19.09 -51.33,-30.2 -16.34,-6.65 -15.47,-2.23 -27.34,-12.71 6.3,-5.45 -6.96,-5.44 16.92,-4.89l51.33 12.23c-7.07,-55.19 12.81,-39.39 18.85,-67.08 -57.5,-5.4 -62.82,42.8 -96.77,31.82 2.55,-21.42 6.44,-15.03 19.3,-32.21 -22.63,8.86 -38.1,24.17 -65.21,6.14 7.2,-35.89 42.81,-15.68 75.55,-26.93 22.18,-7.61 44.28,-21.32 60.96,-35.33 30.74,1 0.08,1.91 24.13,6.63 17.67,3.46 -0.1,-6.22 17.44,4.68 23.09,14.35 -4.81,8.89 32.29,4.76 8.14,19.41 1.14,7.82 13.66,17.71 0.82,0.65 2.04,1.31 2.86,1.96 13.03,10.3 32.99,24.44 39.64,40.92zm115.87 -40.74c-61.22,-120 -86.94,-64.62 -249.65,-75.42 -86.75,-5.76 -53.29,-56.35 -48.87,-59.76 24.83,-19.14 213.49,-5.82 241.99,8.04 49.23,23.95 63.48,69.19 80.28,116.87 7.38,20.92 14.79,37.76 2.17,54.69 -18.41,-6.23 -16.91,-26.76 -25.92,-44.42zm-676.23 -292.63c-15.71,-19.91 -4,-31.34 5.99,-44.15 13.05,-16.73 6.47,-24.6 34.01,-22.93 3.33,17.09 -11.89,40.91 -22.08,57.37 -10.31,16.64 4.29,10.78 -17.92,9.71zm275.35 -185.35c-15.77,-7.68 -9.64,-9.02 -13.85,-29.39 -5.54,-26.75 -31.65,-59.01 -46.72,-77.74 -33.9,-42.13 -17.71,-116.25 7.28,-123.55 6.01,46.86 -1.4,66.56 2.6,87.25 7.71,39.93 23.57,66.47 48.11,97.73 9.81,12.51 18.33,28.57 2.58,45.7zm-197.8 -76.48c-28.77,-1.13 -32.38,-42.18 -34.05,-68.15 -4.54,-70.63 34.98,-98.74 55.5,-125.82 6.73,-8.88 60.53,-78.29 55.77,-37.19 -0.35,3.05 -33.54,48.73 -39.68,62.21 -54.96,120.45 36.22,196.5 18,236.72 -19.29,-0.69 -11.88,3.16 -20.4,-15.22l-29.44 -79.42c-11.37,-44.74 -6.2,-93.84 -0.62,-138.08 -38.86,46.94 -7.93,134.33 -5.08,164.95zm242.08 -133.43c23.32,12.82 14.64,39.52 33.74,51.99 5.03,-8.36 1.85,2.94 3.04,-9.21l0.66 -24.49c-8.95,-16.48 -25.65,-41 -28.4,-59.36 32.98,13.28 40.67,74.19 88.86,94 -8.15,-22.11 -20.78,-26.29 -25.82,-53.43l30.48 42.92c-15.58,-64.51 -103.64,-123.43 -99.08,-163.52 70.29,-10.86 130.03,123.51 179.5,151.69 68.11,38.79 61.69,-27.16 144,44.2 36.09,31.29 85.92,99.74 95.14,171.01 6.9,53.34 -6.29,68.73 24.4,108.87 17.85,23.35 47.73,46.1 61.28,68.58 -4.16,39.8 -23.44,55.28 -52.91,67.52 -36.97,15.35 -60.82,13.87 -90.01,-8.5 -26.23,-20.11 -37.08,-33.32 -52.12,-67.39 -5.28,-11.94 -11.4,-27.3 -16.17,-43.54 -7.37,-25.08 -2.36,-31.53 -27,-28.5 -6.26,81.25 56.54,103.38 56.2,133.72 -65.58,2.71 -101.82,-179.09 -138.59,-234.34 -9.49,-14.26 -13.07,-18.6 -34.41,-16.87 -0.33,30.54 3.46,11.9 19.99,35.83 11.92,17.25 40.47,94.5 48.91,116.35 45.72,118.43 88.14,111.78 139.71,130.98 10.77,4.01 29.15,15.01 37.09,17.34 28.67,8.42 63.83,-2.05 86.73,-13.83 56.27,-28.96 76.27,-91.53 102.71,-109.59 -1.4,30.07 -40.85,101.13 -85.27,127.2 -36.33,21.33 -17.14,5.9 -28.26,40.08 -24.18,-8.89 -1.21,-8.43 -30.85,-15.61 6.78,35.72 29.21,75.02 9.21,145.35 -6.58,-6.4 -2.32,-0.68 -7.21,-9.29 -10.05,-17.7 -8.52,-55.85 -12.07,-74.46 -25.14,-131.64 -83.92,-8.84 -206.96,-155.82 -21.68,-25.89 -32.1,-50.53 -50.02,-83.04 -42.26,-76.71 -18.19,-46.97 -32.9,-96.34 18.43,15.43 18.95,34.04 32.28,54.8 -1.02,-30.05 -19.9,-45.4 -29.71,-70.68 -24.44,-63.02 -26.98,-23.23 -43.59,-14.56 -51.31,-23.7 -18.93,-27.45 -41.31,-52.45 -18.32,7.18 -5.61,28.63 -22.94,28.13 -15.62,-0.46 -17.05,-45.68 -25.01,-67.82 -4.32,17.64 7.89,40.18 6.96,54.57 -1.17,18.01 0.82,7.17 -4.9,16.4 -49.65,-10.38 -6.53,-104.73 -47.97,-106.61 2.31,14.04 8.31,28.61 11.93,43.92 4.19,17.69 9,34.28 -0.67,45.45 -8.65,-22.04 -5.28,-46.41 -16.99,-74.18 -8.6,-20.39 -19.47,-42.35 -26.19,-62.04 -12.16,-35.69 -14.57,-121.72 -33.14,-144.95 -27.95,-16.97 -73.79,47.81 -73.7,62.98 0.2,33.75 20.87,-13.83 30.97,24.91 4.39,16.81 5.26,48.04 4.78,66.57 -18,0.34 -17.98,-2.33 -30.04,-8.28 12.77,73.93 12.37,46.48 47.94,43.65 16.99,17.94 29.17,32.91 26.87,63.92l-68.18 -11.11 -46.59 -76.49c0.83,0.8 1.81,2.02 2.25,2.62l17.24 34.25c7.26,11.88 2.63,5.32 9.65,11.49 -2.35,-88.93 -48.12,-68.18 -17.84,-137.81 29.08,-66.85 -7.95,-18.51 46.35,-82.72 9.8,-11.58 6.57,-48.32 66.76,-43.59 18.05,1.42 37.11,15.39 46.44,23.16 32.54,27.07 34.82,40.24 34.75,95.97zm-318.06 179.89c-3.04,-60.11 4.47,-77.93 25.78,-119.64 5,9.25 2.19,16.44 2.18,16.53 -2.24,20.82 -22.27,80.89 11.77,101.1 11.79,-16.05 -4.61,-9.41 26.93,-26.37l9.78 -5.29c14.04,10.93 33.35,33.47 37.81,56.65 -13.44,23.19 -23.81,21.61 -37.65,50 -5.87,12.02 -26.44,42.75 -37.86,49.62 -37.9,22.81 5.11,-9.51 -42.67,44.97 -19.59,22.35 -17.34,30.27 -12.98,68.29 39.46,2.09 47.44,-83.75 116.59,-15.78 32.61,32.07 64.22,81.04 54.69,132.62 -24.61,1.29 -22.31,-7.35 -34.61,-24.07l-75.44 -95.26c-23.66,9.48 -54.45,35.94 -60.24,64.32 -3.4,16.72 -13.44,92.15 -9.38,100.24l5.3 -36.54c18.33,3.97 11.77,6.98 13.65,-23.07 44.85,10.75 39,-10.47 69.9,5.02 14.06,7.05 34.68,23.9 45.82,36.84 53.62,62.28 9.89,90.67 51.31,118.11 3.4,-21.09 10.12,-44.5 1.66,-65.56 -10.07,-25.08 -33.31,-27.02 -17.06,-52.42 33.71,8.86 34.64,79.79 30.44,114.85 -4.58,38.11 -66.58,107.98 -88.46,126.37 -99.98,84.06 8.2,81.25 -16.25,143.87 -18.05,-5.58 -37.55,-20.61 -49.65,-29.97 -2.37,-16.45 3.32,-66.03 9.61,-83.5 6.42,-17.81 28.01,-33.28 41.02,-45.74 18.1,-17.32 75.25,-71.89 80.74,-96.54 -15.53,-10.76 -23.66,-18.77 -33.21,-34.61 -14.44,18.14 -10.67,5.04 -14.36,25.65 -4.64,25.86 -24.61,2.78 -47.39,-0.36 -24.36,-3.36 -27.75,3.05 -49.12,-9.95 -38.03,-23.12 -11.5,-63.57 -61.16,-63.44 -38.15,108.98 -122.47,237.29 -70.13,337.23 18.49,35.33 43.11,62.16 24.7,97.19 -13.89,-14.04 -8.5,-24.17 -30.19,-28.68 -3.39,60.39 -1.48,137.38 7.94,195.14 20.62,126.3 73.95,190.01 208.14,205.15 32.99,3.72 65.43,5.31 98.71,4.48 11.72,-0.3 35.5,-0.27 45.96,-1.82 32.82,-4.9 5.92,-9.13 31.98,-20.41 15.59,13.38 1.87,12.86 23.27,28.76 90.27,67.02 350.29,100.72 460.56,61.68 69.83,-24.72 114.14,-80.84 178.26,-119.86l99.39 -50.66 374.12 -76.33c15.51,-2.96 27.88,-3.44 40.82,-11.08 13.98,-8.24 7.41,0.94 7.42,-17.59 0.01,-1.07 -0.2,-1.74 0.19,-2.46 20.24,-3.38 43.63,-4.5 64.43,-6.08 29.34,-2.22 41.89,-17.83 57.04,-13.73l49.12 24.55c16.86,7.22 38.73,12.91 46.53,26.59 10.19,17.86 1.88,44.5 11.02,62.62 1.78,3.53 29.38,34.28 33.88,39.56l67.87 77.31c-4.07,-45.45 -5.03,-97.62 -14.29,-140.03 -4.4,-20.16 -9.98,-44.91 -13.26,-65.74 -8.15,-51.9 20.91,-56.52 -132.05,-96.93 -132.87,-35.12 -136.2,77.69 -193.2,97.75 -61.6,21.66 -187.93,36.75 -254.5,51.85 -40.23,9.12 -88.19,23.86 -128.31,28.09 14.73,-26.51 31.82,-15.62 51.56,-44.51 12.55,-18.35 23.35,-34.45 35.06,-52.1 32.14,-48.45 30.21,-82.67 30.74,-149.12 0.99,-125.08 -52.05,-170.38 -156.91,-197.03 18.91,16.45 147.13,91.43 128.61,135.51 -7.4,-5.62 -52.77,-74.65 -64.36,-80.12 -8.45,-3.99 -2.14,-12.11 -8.31,1.39 9.95,4.17 17.65,15.85 23.81,23.95 57.01,74.94 87.98,156.1 40.4,250.31 -78.94,156.33 -214.12,94.99 -236.75,52.84 31.82,6.65 62.78,34.06 98.04,29.26 25.01,-3.41 53.52,-41.45 57.19,-72.08 -39.4,12.53 -23.67,45.94 -66.32,43.21l14.2 -36.25c-17.4,14.27 -8.61,23.18 -41.47,18.18 -10.31,-13.86 -3.68,-12.13 -9.18,-24.52 -14.54,12.04 -29.88,33.02 -52.12,40.17 -1.93,-38.25 27.52,-52.26 29.96,-97.25 -27.45,12.04 -38.77,49.77 -70.66,55.24 -15.52,-50.32 -3.22,-86.59 -67.98,-92.52 -67.01,-6.14 -61.75,60.54 -96.92,64.55 1.17,-21.51 21.65,-54.69 34.57,-67.21 22.91,-22.2 42.93,-17.12 77.39,-15.27 16.52,-25.13 33.15,-39.45 20.38,-81.91 -36.89,-9.86 -35.88,3.15 -59.33,-27.35 -13.48,-17.52 -32.13,-28.93 -31.93,-56.75 32.71,0.91 36.32,23.23 63.78,30.23 15.69,4 17.11,-0.18 20.27,-2.17 -16.45,-23.95 -48.33,-26.97 -64.54,-55.56 -13.02,-22.98 -46.55,-43.23 -26.36,-75.82 20.8,-0.09 22.57,19.81 41.63,33.26 30.4,21.45 17.15,9.76 23.46,50.06 20.68,11.08 87.79,47.52 107.18,38.73 -0.7,-26.12 -24.47,-25.25 -47.4,-38.99 -19.51,-11.69 -31.57,-20.24 -54.54,-32.83 -23.7,-12.98 -57.19,-70.59 -45.56,-117.64 13.64,2.91 12.64,19.02 34.89,29.72 -1.9,-6.63 -60.31,-102.06 -33.31,-146.89 14.99,23.13 12.71,64.2 26.19,92.11 6.01,12.44 16.21,26.22 18.64,41.14 16.26,99.7 45.62,105.97 129.39,155.67l12.27 -0.55c1.14,-0.18 3.03,-0.23 3.93,-1.86 0.78,-1.44 1.79,-1.83 2.73,-2.69 -21.32,-35.98 -119.67,-79.88 -130.8,-167.3 -5.02,-39.45 -5.55,-106.34 3.62,-143.01 14.54,-58.2 18.52,-56.58 57.74,-87.73 50.84,35.18 80.98,219.3 91.55,302.42 21.49,6.37 80.91,28.69 100.82,26.46 5.06,-16.82 1.19,-38.42 6.92,-57.24 11.37,-37.27 21.38,-34.32 27.72,-37.16 -0.74,14.42 -3.21,21.79 -4.51,33.95 -2.07,19.36 0.21,15.78 4.18,20.95 4.33,-17 6.81,-17.89 11.95,-38 4.79,-18.75 6.14,-18.38 16.88,-33.78 10.03,-14.39 28.59,-51.86 38.2,-60.96 9.59,3.9 1.44,1.35 9.9,7.43 3.28,2.36 1.76,3.23 11.13,7.5 9.89,-53.66 28.85,-68.18 26.32,-164.06 -0.9,-33.93 -29.56,-75.22 -50.58,-134.28 -24.08,-67.64 -99.44,-180.92 -137.26,-229.91 -36.48,-47.25 -219.55,-153.37 -295.3,-168.04 -11.51,-2.23 -29.46,-4.27 -41.6,-4.44 -10.07,-0.14 -148.75,28.44 -212.61,19.21 5.78,-52.12 79.46,-35.14 112.24,-42.48 1.53,-31.79 -59.89,-64.26 -86.8,-78.71 -18.59,-9.98 -23.33,-9.42 -25.25,-32.73l26.57 -13.24c-17.62,-4.73 -20.33,-1.38 -32.76,-4.2 -23.55,-5.35 6.2,8.04 -10.29,-5.3 -20.48,-16.56 -43.82,-40 -71.26,-57.66 -13.69,-8.83 -18.41,-9.75 -24.06,-29.3 -4.96,4.82 -1.89,1.06 -7,8.46 -1.68,2.43 -4.52,7.65 -5.23,9.01 -53.04,100.52 -21.36,110.17 -61.02,113.22 -15.78,-37.05 26.13,-107.18 35.55,-146.1 -7.56,-5.74 -7.48,-6.5 -14.21,-11.73l-36.49 -28.87c-14.81,-9.72 -7.28,0.81 -9.45,-7.39 -3.11,-1.26 -3.56,21.32 2.54,-17.08 2.24,-14.18 2,-18.83 2,-33.43 -24.67,-1.66 -41.93,-5.67 -65.06,3.11 -0.95,0.36 -2.48,1.02 -3.73,1.48 -0.21,1.48 -0.53,2.05 -0.53,4.45 -0.04,15.08 -1.04,18.77 5.07,32.26 -1.59,0.46 -3.9,-1.1 -4.9,0.77 -2.88,5.38 -17.06,3.11 -23.68,7.24l-18.4 18.52c-12.67,13.54 -27.37,22.54 -39.11,34.25l-37.24 35.8c-20.75,19.45 -13.83,27.08 -51.01,31.95 8.88,-10.03 5.14,-4.24 9.13,9.18 -31.01,-0.52 -47.81,6.27 -60.14,36.39 -3.69,9.01 -3.23,-10.75 -2.92,13.27 0.34,26.17 3.08,9.97 3.45,10.07 -3.33,-20.26 2.3,-6.45 -18.36,-13.77 -6.2,9.6 -6.55,11.17 -15.47,21.1 -0.66,0.74 -1.58,1.72 -2.25,2.47l-88.71 100.26c-6.45,5.77 -4.19,3.42 -9.68,8.14l-7.05 6.17c-9.83,8.88 -26.25,14.24 -9.93,27.12 8.62,-5.02 2.8,0.01 -0.05,-4.56 -1.32,-0.29 -3.41,-1.22 -4.04,0.34l-60.16 63.88c34.63,-1.8 26.22,-8.27 43.58,-24.71l35.25 -25.51c7.59,-8.75 5.05,-12.28 19.4,-14.45l42.85 40.02c14.49,6.8 11.78,10.08 22.39,21.86 12.31,13.67 35.94,26.15 52.24,36.41 0.9,0.56 6.59,4.22 7.43,4.93l3.54 3.58c10.85,11.6 -4.5,44.92 13.51,63.47z"/>
   <path class="fil2" d="M3941.42 2600.23c18.78,6.23 42.76,75.04 45.58,98.11 -35.2,-11.51 -80.2,-25.78 -113.68,-40.4 -44.82,-19.55 -93.23,-32.91 -98.22,-61.38 60.4,1.49 100.35,61.84 181.15,61.27l-14.83 -57.6zm-128.16 -6.31c27.56,-14.89 77.67,-5.19 110.37,-0.54 11.22,14.85 16.39,33.04 20.4,53.34 -30.39,-3.92 -70.62,-24.43 -100.54,-36.83 -14.35,-5.94 -20.27,-6.37 -30.23,-15.97zm134.94 -76.48c30,6.16 172.14,78.79 180.73,98.05 -45.65,7.64 -103.58,7.39 -150.5,5.44 -13.42,-29.9 -27.4,-65.81 -30.23,-103.49zm-547.26 -6.17c5.65,-13.03 29.03,-25.11 41.02,-36.55 26.56,-25.32 88.49,-110.02 108.06,-139.78 35.85,-54.53 20.52,-20.41 117.87,-42.16 60.92,-13.61 69.34,-44.87 111.14,-58.46 30.05,68.34 140.52,238.53 140.95,313.46 -164.55,27.22 -140.1,-49.77 -253.38,-64.05 -30.82,-3.88 -45.77,2.01 -76.71,-5.9 -49.01,-12.53 -4.98,7.27 -60.48,6.7 -30.59,-0.31 -47.28,-4 -72.26,9.67 -16.1,8.81 -39.05,27.67 -56.21,17.07zm-374.18 -244.58c108.36,-0.63 85.62,24.11 153.23,24.87 28.04,0.32 60.11,-3.08 87.44,-0.01 28.68,3.23 49.56,21.07 74.32,-0.66 -17.34,-13.17 -35.59,3.13 -46.17,-18.36l45.01 -9.9 6.38 20.72c69.35,-10.62 10.19,-6.52 82.39,7.21 31.78,6.04 58.43,7.2 91.23,9.33 -4.92,22.06 -71.5,107.89 -85.99,121.51 -30.72,28.89 -31.48,17.08 -80.68,25.44 -30.12,5.11 -59.82,11.15 -90.95,12.11 -104.79,3.22 -155.28,-10.59 -223.18,-87.35 -23.49,-26.55 -30.73,-26.25 -28.55,-75.16 24.65,8.08 34.61,50.05 50.7,71.32 12.72,16.82 45.6,46.37 69.57,59.19 39,20.86 61.81,17.89 112.32,14.71 20.27,-1.28 101.89,-7.66 113.64,-13.03 -17.68,-6.07 -87.97,1.44 -112.61,2.52 -49.62,2.17 -62.54,-1.31 -102.79,-19.7 -55.73,-25.47 -47.15,-47.78 -58.69,-69.6 -14.05,-26.53 -52.53,-58.17 -56.62,-75.16zm261.2 -9.24l-158.57 5.29c-24.22,-3.57 -14.7,-3.02 -15.74,-16.1 -7.3,-0.07 21.92,-17.14 28.53,-21.29 20.27,-12.73 29.75,-10.69 56.4,-12.51 40.55,-2.77 15.02,-4.46 67.07,24.32 13.59,7.52 14.99,7.07 22.31,20.29zm-415.41 43.34c-11.97,12.13 -13.72,3.12 -16.7,20.49 31.1,-1.43 65.92,-50.57 90.28,-56.27 28.94,34.27 -25.98,51.77 -50.1,67.57 -36.01,23.6 -43.4,37.65 -100.74,33.9 -48.92,-3.2 -71.29,-12.59 -116.47,-20.78 -82.31,-14.94 -79.1,2.29 -124.12,10.32 11.05,-18.38 57.26,-53.56 75.2,-69.28 54.09,-47.43 114.07,-96.74 195.74,-85.08 35.8,5.1 105.8,17.25 117.38,24.96 -8.89,19.7 -88.01,53.54 -106.96,60.12 -45.82,15.93 -26.04,3.74 -57.25,-7.88 -38.29,-14.27 -129.18,22.54 -112.85,40.49 11.62,12.77 50.69,-2.27 68.5,-6.11 47.19,-10.16 40.25,4.73 69.41,4.98 20.91,0.19 45.96,-14.55 68.68,-17.43zm-404.52 97.34c36.08,1.84 78.15,-21.72 124.69,-23.62 34.28,-1.39 110.03,-1.55 138.57,6.59 -8.72,19.47 -33.76,28.94 -59.6,43.76 -42.35,24.28 -36.41,10.37 -83.86,17.86 -1.99,14.61 -4.42,5.68 1.39,20.93l12.84 15.49c-25.49,23.98 -218.62,75.24 -250.49,107.57 -32.63,33.1 -53.75,53.52 -84.37,94.71 -15.69,21.11 -23.67,29.99 -36.83,54.8 -8.69,16.38 -29.28,36.59 -51,41.81 3.7,-34.37 134.2,-267.74 167.8,-333.47 25.51,-49.91 76.38,-86.51 121.1,-131.28 27.32,-27.36 103.49,-106.01 113.62,-139.38 36.7,-1.33 94.18,13.41 111.52,34.35 -10.25,11.08 -74.02,58.05 -108.58,97.68 -80.33,92.1 -113.73,43.64 -116.8,92.2zm169.87 -268.04c4.9,8.62 -8.62,8.19 35.6,13.95 37.09,4.84 88.24,23.49 105.7,48.34 -34.34,6.47 -133.94,-36.27 -175.77,-48.4 0.47,-24.09 6.97,-32.92 29.3,-38.4 17.53,-4.31 38.12,-8.3 55.99,-12.6 33.3,-8.02 81.61,-22.64 115.14,-22.62 25.4,34.7 19.43,54.2 55.76,82.13 12.38,9.52 26.58,18.42 41.79,27.06 28.07,15.94 33.98,11.52 42.92,28.7l-7.44 2.8c-18.2,2.85 -0.02,1.92 -11.22,0.93 -3.29,-0.3 -15.06,-4.15 -18.68,-5.48 -37.25,-13.63 -64.76,-34.19 -98.98,-53.01 -17.62,-9.69 -50.05,-24.62 -73.48,-26.3 -14.4,-1.04 -90.05,-2.26 -96.63,2.9zm1694.17 14.07c21.36,3.74 22.28,16.06 41.08,27.6 15.21,9.35 33.81,14.78 47.53,22.72 1.65,51.12 7.07,86.42 -5.28,133.15 -15.04,56.92 -27.14,69.97 -34.68,112.35 -13.18,74.16 -17.79,192.56 -20.32,269.74 -31.55,-13.11 -101.54,-66.99 -136.67,-90.05 -44.14,-28.95 -159.49,-94.88 -215.08,-120.01 -16.03,-7.24 -68.58,-28.4 -77.61,-37.29 -6.15,-6.06 -72.74,-137.58 -73.79,-145.81 69.67,-6.54 72.38,-9.26 118.41,-42.49 29.89,-21.57 70.68,-42.35 81.81,-80.42 -20.31,9.61 -7.43,13.17 -35.24,20.52 4.99,-25.55 13.86,-26.61 38.05,-33.85 18.41,-78.09 8.91,-79.49 45.73,-87.24 31.62,-6.65 47.66,2.21 105.21,-9.43 23.31,-4.72 30.11,15.51 42.32,28.67 19.35,20.83 29.93,9.8 50.23,27.07 -0.9,19.44 -33.46,76.28 -69.66,73.99 -1.18,-25.24 13.79,-53.87 16.15,-83.08 -18.12,6.92 -22.25,33.62 -31.24,51.83 -15.32,31.02 -7.13,47.1 -43.69,45.53 3.95,-15.4 15.93,-57.08 21.85,-71.69 7.48,-18.47 28.82,-51.71 20.16,-65.89 -11.15,10.09 -33.81,61.8 -40.44,77.49 -11.14,26.35 -46.1,71.44 3.49,72.76 25.66,0.69 27.8,-8.58 47.01,-12.26 87.04,-16.66 57.19,-36.18 104.67,-83.91zm208.35 -141.02c34.03,0.15 35.38,-2.68 36.69,29.32 -36,-2.44 -26.63,-2.77 -36.69,-29.32zm-162.49 3.1c18.92,-9.82 44.1,-12.01 65.68,-21.87 9.66,-4.41 29.1,-27.93 73.07,-2.85 -6.95,9.8 -4.4,9.42 -28.98,15.53l-100 13.47c-9.5,-1.73 -5.97,-1.74 -9.77,-4.28zm380.94 -4.31c-43.56,0 -47.67,8.23 -50.35,-23.13 37.47,-1.95 136.39,-4.32 169.55,-14.14 15.24,-4.51 31.46,-15.17 43.83,-16.24 1.76,34.76 -31.97,36.53 -62.48,43.29 -37.72,8.34 -59.7,10.22 -100.55,10.22zm-2312.47 17.44c-4.22,-31.73 -4.55,-27.3 10.49,-48.09 37.2,-51.39 32.16,-87.09 101.67,-85.54 0.29,59.8 5.51,63.03 -23.22,104.33 -26.29,37.8 -26.17,41.92 -88.94,29.3zm1711.68 -188.26c2.8,-20.58 11.48,-36.04 13.68,-63.6 1.9,-23.82 -1.24,-48.65 1.68,-71.45 48.05,15.48 67.07,80.02 140.12,71.71 67.3,-7.65 105.32,-65.9 150.97,-64.24 -8.7,19.57 -37.73,35.78 -59.75,49.37 -44.25,27.31 -63.99,119.17 -213.6,101.29 31.08,-35.28 80.68,-32.35 97.44,-65.5 -63.86,0.04 -85.12,34.33 -130.54,42.42zm330.81 -132.88c-1.85,-25.84 2.59,-29.71 17.58,-38.89 10.43,11.62 11.75,22.16 12.46,39.63l-30.04 -0.74zm-648.58 -95.61c12.88,-11.66 93.03,16.68 116.85,69.59 -40.31,-0.4 -46.07,-8.82 -73.91,-25.12 -15.51,-9.09 -60.89,-28.24 -42.94,-44.47zm-1083.09 49.58c-31.67,-4.39 -70.93,-95.04 -32.53,-118.48 -8.46,24.93 -8.7,22.85 -3.53,51.48 3.57,-3.78 2.96,-2.42 6.78,-8.54 2.26,-3.63 2.51,-5.23 4.79,-9.66 2.82,-5.44 4.17,-9.77 9.31,-13.42 -21.69,67.93 14.82,35.7 15.18,98.62zm7.75 -36.86l-11 -90.35c20.72,5.29 30.02,14.95 30.11,40.41 0.12,29.91 -0.78,43.69 -19.11,49.94zm1468.39 -135.4c-4.64,-48.19 -34.68,-61.44 -47.38,-98.92l91.89 124c9.16,-1.29 6.81,-2 12.62,-4.1 25.06,-9.05 14.27,-11.76 28.19,-5.47 31.05,18.06 11.13,80.14 76.41,73.37 39.85,-4.13 80.66,-27.58 114.95,-30.64 -3.37,34.45 -60.63,101.07 -73.93,140.41 -7.31,21.59 -6.6,20.65 -25.39,29.95 -41.75,20.69 -81.37,41.16 -123.54,30.19 4.23,-10.33 5.59,-12.5 29.59,-18.3 70.6,-17.08 156.41,-112.58 168.55,-161.31 -16.75,8.78 -36.66,37.77 -48.14,51.89 -47.45,58.37 -65.36,50.38 -111.17,81.5 -18.09,12.3 -29.87,28.73 -58.18,35.03 -8.27,-5.31 -43.98,-48.43 -147.89,-110.5 -26.05,-15.56 -32.56,-10.61 -61.16,-20.78 0.29,-13.96 46.23,-111.75 55.98,-129.39 21.76,-39.34 22.13,-63.93 38.34,-76.06 12.58,7.07 10.19,7.69 19.19,22.31 16.6,26.93 34.99,58.44 61.07,66.82zm-1432.5 -42.41c-30.56,-21.89 -18.24,-60.58 -5.69,-69.03 19.8,-13.35 52.31,11.58 52.44,11.76 15.73,22.99 -2.3,18.87 -2.45,19.11 -22.66,-8.79 -7.36,-3.25 -15.14,-28.96 -19.87,0.38 -22.95,4.12 -34.28,11.35 -6.06,29.58 -0.78,30.22 5.12,55.77zm244.72 -40.85c5.98,39.11 -45.7,30.49 -72.16,22.99 -81.52,-23.12 -10.07,-98.73 34.72,-63.24 -4.62,16.74 -33.11,6.96 -26.47,54.48 13.94,2.02 4.68,0.63 14.94,-12.03l10.02 15.36c4.94,4.66 -3.74,8.7 16.77,5.56 14.37,-2.2 15.41,-12.58 22.18,-23.12zm-234.55 98.6c-11.51,-3.95 -3.27,2.01 -11.58,-12.28 -3.93,-6.76 -4.4,-9.32 -10.03,-17.73 -12.32,-18.43 -65.42,-56.69 -34.56,-109.68 25.21,-43.29 70.09,-47 100.6,-59.86 19.22,-8.1 14.16,-12.68 32.86,-21.41 -0.49,34.19 -2.91,24.05 -15.11,44.05 -9.05,14.83 -4.73,21.35 -13.87,35.57l-7.31 -20.76c-0.24,-0.72 -0.96,-1.58 -1.13,-3.24 -0.16,-1.62 -0.62,-2.16 -1.15,-3.15 -30.47,-0.41 -51.8,-0.42 -68.3,18.31 5.15,2.94 14.4,-2.08 16,-2.32 -74.32,44.11 9.55,133.23 13.58,152.5zm1652.26 25.43c4.14,-34.34 25.55,-30.78 20.65,-88.45 -9.74,-114.6 19.27,-74.31 41.1,-160.43 8.77,-34.6 21.35,-36.78 39.04,-62.11 1.15,21.4 -13.8,36.71 -16.78,66.49 -2.54,25.46 -4.9,49.31 -6.63,73.59l-12.9 160.55 -64.48 10.36zm-1209.17 -1032.06c-9.42,38.92 -51.33,109.05 -35.55,146.1 39.66,-3.05 7.98,-12.7 61.02,-113.22 0.71,-1.36 3.55,-6.58 5.23,-9.01 5.11,-7.4 2.04,-3.64 7,-8.46 0.63,-12 28.3,-63.6 39.16,-96.85l11.33 -34.12c18.96,-18.49 128.84,-36.03 162.67,-37.03 -36.57,27.27 -28.15,70.47 -26.37,109l6.8 35.47c0.33,-0.72 1.32,2.7 2.25,3.87 9.04,-13.53 12.22,-64.77 14.35,-85.17 2.66,-25.55 6.81,-43.94 26.95,-65.69 71.72,3.62 150.1,-8.91 225.04,-3.78 39.32,2.7 55.28,14.19 93.94,20.88 72.01,12.44 47.43,8.41 80.64,34.81 16.49,13.1 104.35,50.93 146.8,82.53 91.28,67.93 175.21,123.46 254.71,204.25 152.64,155.13 78.39,66.19 132.53,211.75 56.39,151.64 42,71.05 85.58,144 32.57,54.54 -10.55,69.25 17.92,82.04 14.55,-7.53 9.48,-19.78 11.94,-37.56 13.85,1.3 22.34,6.64 20.92,24.11l-50.97 92.65c-13.54,21.47 -28.78,32.74 -42.51,53.95 -11.45,17.68 -19.67,38.86 -31.26,60.29 -22.49,41.6 -57.62,77.99 -42.64,139.71 7.89,32.52 29.09,36.17 3.47,69.36 -17.15,22.22 -29.96,26.01 -66.28,26.07 -7.65,-12.78 -9.71,-34.53 -16.51,-48.02l-62.78 -116.74c-44.26,-71.31 -60.66,-107.65 -129.82,-109.37 -75.23,-117.77 7.93,-108.34 -12.33,-290.78 -15.92,20.48 -6.06,15.28 -13.46,14.34 -13.38,-29.54 -4.32,-120.14 -15.71,-156.49l-10.98 26.11c-10.21,-12.95 -22.43,-41.53 -41.94,-49.72 -53.68,-22.56 2.76,71.25 2.81,71.35 25.66,45.71 50.68,101.79 43.75,158.11 -3.08,25.06 -4.52,66.2 -24.98,79.77 -22.22,-66.44 -40.75,-109.89 -84.18,-163.31 -17.7,-21.77 -22.82,-19.04 -22.4,-58.47 1.97,-183.79 46.83,-189.44 58.12,-267.06 -23.21,2.54 -34.7,26.05 -43.63,48.72 -22.01,55.85 -28.17,81.52 -31.28,144.56 -1.87,38.01 3.12,61.83 -12.3,75.39 -24.13,-7.11 -23.52,-56.62 -54.52,-69.87 3.23,18.63 8.02,16.21 8.37,37.41l-30.91 -21.15c-1.61,-32.97 -20.82,-90.84 -36.39,-117.96 -67.78,-4.71 -28.07,49.59 -20.15,74.54 -21.83,-3.08 -82.99,-38.89 -102.02,-50.23 -93.08,-55.46 -77.59,-10.28 -106.89,-30.57 -13.35,-9.25 -29.33,-41.08 -76.58,-75.05 -87.04,-62.58 -53.29,-31.84 -101.89,-43.59l-26.57 13.24c1.92,23.31 6.66,22.75 25.25,32.73 26.91,14.45 88.33,46.92 86.8,78.71 -32.78,7.34 -106.46,-9.64 -112.24,42.48 63.86,9.23 202.54,-19.35 212.61,-19.21 12.14,0.17 30.09,2.21 41.6,4.44 75.75,14.67 258.82,120.79 295.3,168.04 37.82,48.99 113.18,162.27 137.26,229.91 21.02,59.06 49.68,100.35 50.58,134.28 2.53,95.88 -16.43,110.4 -26.32,164.06 -9.37,-4.27 -7.85,-5.14 -11.13,-7.5 -8.46,-6.08 -0.31,-3.53 -9.9,-7.43 -9.61,9.1 -28.17,46.57 -38.2,60.96 -10.74,15.4 -12.09,15.03 -16.88,33.78 -5.14,20.11 -7.62,21 -11.95,38 -3.97,-5.17 -6.25,-1.59 -4.18,-20.95 1.3,-12.16 3.77,-19.53 4.51,-33.95 -6.34,2.84 -16.35,-0.11 -27.72,37.16 -5.73,18.82 -1.86,40.42 -6.92,57.24 -19.91,2.23 -79.33,-20.09 -100.82,-26.46 -10.57,-83.12 -40.71,-267.24 -91.55,-302.42 -39.22,31.15 -43.2,29.53 -57.74,87.73 -9.17,36.67 -8.64,103.56 -3.62,143.01 11.13,87.42 109.48,131.32 130.8,167.3 -0.94,0.86 -1.95,1.25 -2.73,2.69 -0.9,1.63 -2.79,1.68 -3.93,1.86l-12.27 0.55c7.21,5.78 13.95,8.12 25.11,4.37l9.99 -10.41c0.26,-1.44 0.96,-1.97 1.59,-2.87 16.02,10.02 4.91,4.14 27.91,4.85 64.45,1.98 50.13,8.2 54.65,-6.7l23.75 3.14c6.17,-13.5 -0.14,-5.38 8.31,-1.39 11.59,5.47 56.96,74.5 64.36,80.12 18.52,-44.08 -109.7,-119.06 -128.61,-135.51 104.86,26.65 157.9,71.95 156.91,197.03 -0.53,66.45 1.4,100.67 -30.74,149.12 -11.71,17.65 -22.51,33.75 -35.06,52.1 -19.74,28.89 -36.83,18 -51.56,44.51 40.12,-4.23 88.08,-18.97 128.31,-28.09 66.57,-15.1 192.9,-30.19 254.5,-51.85 57,-20.06 60.33,-132.87 193.2,-97.75 152.96,40.41 123.9,45.03 132.05,96.93 3.28,20.83 8.86,45.58 13.26,65.74 9.26,42.41 10.22,94.58 14.29,140.03l-67.87 -77.31c-4.5,-5.28 -32.1,-36.03 -33.88,-39.56 -9.14,-18.12 -0.83,-44.76 -11.02,-62.62 -7.8,-13.68 -29.67,-19.37 -46.53,-26.59l-49.12 -24.55c-15.15,-4.1 -27.7,11.51 -57.04,13.73 -20.8,1.58 -44.19,2.7 -64.43,6.08 -0.39,0.72 -0.18,1.39 -0.19,2.46 -0.01,18.53 6.56,9.35 -7.42,17.59 -12.94,7.64 -25.31,8.12 -40.82,11.08l-374.12 76.33 -99.39 50.66c-64.12,39.02 -108.43,95.14 -178.26,119.86 -110.27,39.04 -370.29,5.34 -460.56,-61.68 -21.4,-15.9 -7.68,-15.38 -23.27,-28.76 -26.06,11.28 0.84,15.51 -31.98,20.41 -10.46,1.55 -34.24,1.52 -45.96,1.82 -33.28,0.83 -65.72,-0.76 -98.71,-4.48 -134.19,-15.14 -187.52,-78.85 -208.14,-205.15 -9.42,-57.76 -11.33,-134.75 -7.94,-195.14 21.69,4.51 16.3,14.64 30.19,28.68 18.41,-35.03 -6.21,-61.86 -24.7,-97.19 -52.34,-99.94 31.98,-228.25 70.13,-337.23 49.66,-0.13 23.13,40.32 61.16,63.44 21.37,13 24.76,6.59 49.12,9.95 22.78,3.14 42.75,26.22 47.39,0.36 3.69,-20.61 -0.08,-7.51 14.36,-25.65 9.55,15.84 17.68,23.85 33.21,34.61 -5.49,24.65 -62.64,79.22 -80.74,96.54 -13.01,12.46 -34.6,27.93 -41.02,45.74 -6.29,17.47 -11.98,67.05 -9.61,83.5 12.1,9.36 31.6,24.39 49.65,29.97 24.45,-62.62 -83.73,-59.81 16.25,-143.87 21.88,-18.39 83.88,-88.26 88.46,-126.37 4.2,-35.06 3.27,-105.99 -30.44,-114.85 -16.25,25.4 6.99,27.34 17.06,52.42 8.46,21.06 1.74,44.47 -1.66,65.56 -41.42,-27.44 2.31,-55.83 -51.31,-118.11 -11.14,-12.94 -31.76,-29.79 -45.82,-36.84 -30.9,-15.49 -25.05,5.73 -69.9,-5.02 -1.88,30.05 4.68,27.04 -13.65,23.07l-5.3 36.54c-4.06,-8.09 5.98,-83.52 9.38,-100.24 5.79,-28.38 36.58,-54.84 60.24,-64.32l75.44 95.26c12.3,16.72 10,25.36 34.61,24.07 9.53,-51.58 -22.08,-100.55 -54.69,-132.62 -69.15,-67.97 -77.13,17.87 -116.59,15.78 -4.36,-38.02 -6.61,-45.94 12.98,-68.29 47.78,-54.48 4.77,-22.16 42.67,-44.97 11.42,-6.87 31.99,-37.6 37.86,-49.62 13.84,-28.39 24.21,-26.81 37.65,-50 -4.46,-23.18 -23.77,-45.72 -37.81,-56.65l-9.78 5.29c-31.54,16.96 -15.14,10.32 -26.93,26.37 -34.04,-20.21 -14.01,-80.28 -11.77,-101.1 0.01,-0.09 2.82,-7.28 -2.18,-16.53 -21.31,41.71 -28.82,59.53 -25.78,119.64 18.19,54.9 62.17,68.68 27.35,88.69 -1.08,0.62 -4.68,2.37 -5.77,3.14 -7.82,5.57 -2.11,1.01 -7.21,6.65l-23.53 22.52c-6.66,6.2 -29.66,46.09 -35.47,56.24 -7.35,12.83 -7.28,50.22 -13.43,74.07 -23.17,90.02 0.44,56.91 -80.17,98.7 -106.09,55.01 -47.17,135.51 -63.23,197.64 -22.81,-11.11 -9.87,-7.11 -23.78,-33.77 -4.75,-9.1 0.89,-4.52 -6.48,-8.8 -4.62,55.01 -49.31,107.42 -16.11,186.5 7.56,17.99 24.31,67.44 31.23,79.2 4.16,7.09 48.69,46.46 60.32,52.79 0.38,51.74 -1.89,106.63 1.3,157.98 2.99,48.04 20.07,89.78 23.52,135.97 -56.15,-9.34 -136.31,10.88 -180.26,32.73 6.78,-51.05 59.15,-105.16 50.67,-157.24 -4.88,-30.03 -16.91,-47.29 -21.31,-87.42 -2.6,-23.73 -6.26,-75.13 -12.92,-96 -14.88,6.44 -3.03,23.22 -55.07,55.25 -18.75,-18.13 -17.25,-38.45 -50.26,-39.9 -20.87,-0.92 -54.4,9.84 -72.83,16.33 -55.58,19.58 -51.54,72.41 -89.93,92.19 5.9,-35.26 18.02,-72.29 34.36,-97.57 21.05,-32.57 28.79,-48.03 46.52,-86.51 11.73,-25.44 33.31,-44.78 49.77,-79.28 18.24,-38.24 16.6,-70.66 1.36,-106.55 -46.45,0.79 -66.03,49.89 -106.82,102.59 -20.18,26.07 -79.3,92.24 -84.96,126.25 20.79,-7.25 26.47,-22.64 47.85,-48.63l84.43 -108.38c11.31,-14.36 30.2,-46.56 47.68,-38.07 35.79,21.73 -34.28,113.12 -66.62,175.61 -41.87,80.89 -51.14,58.85 -78.32,188.13 -20.44,-4.69 -22.24,-13.06 -39.95,-13.04 -0.92,17.6 -0.74,12.11 38.1,40.11 15.77,11.36 33.54,24.52 55.2,24.93 -8.69,-20.93 -25.39,-12.37 -36.53,-39.68 8.85,-18.58 21.67,-22.44 36.81,-41.84 10.15,-13.02 21.98,-32.85 31.02,-47.04 13.51,-21.22 17.93,-23.75 47.44,-30.55 25.77,-5.94 34.53,-18.1 62.96,-12.08 7.56,15.94 2.6,26.39 13.26,41.8 12.69,18.31 21.91,11.43 10.1,39.2 -12.7,5.82 -31.32,3.05 -42.56,-6.81 -14.52,-12.75 -11.31,-24.51 -34.56,-30.47 3.29,27.01 14.74,26.66 21.69,46.46 -34.94,24.11 -28.02,6.78 -60.03,-2.19 5.8,21.71 6.57,15.59 23.96,24.58 -2.78,29.85 -27.04,60.4 -42.54,76.36 -12.79,-2.65 -6.77,-2.23 -15.8,-11.64 1.59,31.17 20.96,27.62 20.8,55.22 -47.46,38.07 -75.58,-8.13 -120.39,-15.96 7.07,22.34 24.57,29.76 44.98,42.47 29.38,18.3 41.03,12.15 69.19,2.19 63.89,-22.6 93.73,8.28 132.37,26.79 -4,-28.86 -17.43,-22.39 -33.96,-41.71 34.17,-66.47 49.64,-64.95 63.45,-78.99 -8.41,-18.3 -11.08,1.81 -13.35,-35.4 -1.08,-17.76 0.46,-36.06 3.84,-53.31 7.09,-36.14 17.2,-54.58 43.57,-67.23 0.79,1.01 1.7,1.44 1.96,3.32 0.26,1.88 1.49,2.54 1.82,3.37 7.09,17.92 8.09,52.47 9.52,72.23 6.52,89.58 45.35,21.98 -8.87,138.15 -18.96,40.63 -34.57,98.89 -50.8,136.6 -15.46,35.91 -15.89,29.54 -40.44,51.51 -20.63,18.46 -34.4,21.02 -53.02,38.73l-116.3 117.62c-28.09,38.78 -164.34,309.07 -196.82,381.76l-11.58 18.93 -8.78 38.45c66.25,1.76 35.38,-11.21 69.46,-21.38 3.4,9.12 -0.56,8.64 -3.64,21.82l58.71 0.73c18.73,-17.02 62.87,-90.94 77.09,-115.81 27.86,-48.74 30.55,-87.83 81.13,-111.61 41.88,-19.68 98.58,-35.46 141.47,-51.17 22.11,-8.1 49.98,-25.88 74.02,-17.84 11.99,4 55.36,32.04 61.55,39.14 -18.98,39.44 -61.89,76.13 -95.68,105.55 -14.55,12.66 -26.63,15.07 -30.23,35.62 45.5,14.81 241.78,-82.4 266.62,-88.16 86.12,-19.96 85.7,55.59 125.22,140.76 11.55,24.9 14.55,51.01 42.27,50.1 11.1,-20.49 -30.87,-120.67 -41.35,-147.35 -13.36,-33.96 -52.38,-112.52 -72.15,-130.4 -7.59,-2.56 -139.43,9.04 -171.14,8.33 -62.32,-1.41 -58.9,-23.74 -99.91,-39.96 -16.91,-6.68 -19.86,-1.74 -29.99,-17.13l15.31 -5.84c50.16,-12.76 91.04,-33.51 104.71,-34.9 -26.54,32.97 -49.59,25.99 -72.35,45.33 6.63,6.63 -1.15,1.88 11.3,7.43 3.61,1.6 8.64,2.67 13.71,4.39 55.57,18.98 0.95,22.06 94.17,17.59 35.12,-1.69 116.77,6.03 138.47,-20.22 -17.2,-12.54 -31.31,1.26 -49.53,5.09 -17.62,3.71 -42.8,1.93 -61.54,2.24 -40.06,0.64 -88.79,9.73 -108.4,-16.52 14.64,-13.57 40.45,-34.72 55.04,-44.26 33.08,-21.64 86.3,5.73 166.09,-40.24 27.81,-16.01 59.63,-8.02 95.72,-4.24 7.6,23.45 7.19,57.81 13.59,82.94 7.29,28.68 21.18,51.73 18.55,83.87 -2.48,30.41 -9.47,58.65 -13.62,88.91 -6.84,49.82 1.37,49.31 9.3,89.01l13.7 83.39c16.47,-15.58 6.41,-99.71 0.39,-116.65 -15.52,-43.63 1.15,-68.31 3.67,-104.83 19.66,32.28 -1.02,89.87 30.51,98.09 12.21,-23.75 6.63,-123.85 -1.15,-151.02 -8.48,-29.66 -38.68,-92.13 -38.67,-119.28 20.65,10.38 27.79,29.18 58.48,44.73 99.77,50.51 188.49,22.35 287.16,11.03 -11.13,35.6 -33.34,57.42 -53.35,76.65 -26.39,25.36 -152.81,178.92 -167.33,207.51 35.02,-11.91 149.57,-141.01 162.34,-167.02 39.81,12.11 27.78,-7.76 64.58,-38.45l109.02 63.31c21.75,17.22 83.07,74.85 97.5,79.64 50.62,-41.47 17.88,-43.66 105.09,16.37 20,13.76 18.41,9.76 38.73,1.13 39.33,-16.69 200.16,14.11 260.58,21.84 -0.06,-29.52 -5.68,-40.66 -6.06,-49.19l0.37 -5.81c0.07,-0.58 0.61,-2.12 0.7,-2.57 4.49,-24.74 221.09,-1.35 260.24,16.82 30.63,14.21 48.36,40.29 84.58,57.51 60.72,28.88 5.69,70.56 79.46,71.06 -6.59,-33.31 -32.16,-84.27 -24.39,-114.09 -3.3,-5.26 -1.09,1.53 -5.03,-11.65l-6.57 -91.36c-2.1,-46.93 16.7,-196.9 43.98,-237.79 12.26,-18.4 17.16,-12.54 17.37,-42.04 0.22,-33.53 -7.29,-66.65 -10.91,-100.34 -5.78,-53.71 -18.63,-36.39 -52.82,-61.18 -29.71,-21.54 -28.67,-27.8 -71.18,-38.83 -25.65,-6.65 -67.42,-14.24 -64.58,-45.29 8.15,-1.12 26.08,-2.29 32.75,-4.37 21.43,-6.68 18.19,-29.42 88.3,-2.22 170.21,66.01 105.17,-26.78 175.33,233.43 6.14,22.76 1.97,19.83 19.62,25.14 6.15,-32.1 -38.5,-197.6 -55.13,-219.64 -20.46,-27.13 -134.69,-62.7 -180.93,-61.39l-30.29 -5.61c47.71,-27.91 117.98,-13.47 153.18,-19.87 73.52,-13.37 44.5,-28.01 131.47,123.74 19.3,33.68 37.01,102.11 84.79,129.17 -2.68,-40.85 -105.08,-183.7 -104.78,-218.09 23.62,5.64 10.06,1.37 23.81,20.86 16.72,23.73 96.06,101.08 120.53,127.34 44.49,47.74 -23.05,93.73 -13.14,196.81 1.23,12.74 -41.95,187.74 -50.53,199.3 5.02,48.53 -23.39,71.27 2.65,119.58 8.59,15.93 5.85,22.56 22.1,26.42 12.54,-26.24 -25.28,-38.08 -5.34,-76.84 19.43,-37.76 13.23,-35.73 21.04,-80.13 10.4,-59.15 26.59,-117.48 32.04,-173.41 15.94,-163.62 16.32,-132.03 12.52,-283.07 -0.93,-36.91 -8.36,-65.41 -9.93,-96.26 54.24,-1.74 96.68,-1.88 145.88,-15.07 53.83,-14.43 80.27,-28.42 75.19,-91.85 -56.06,-31.11 -209.34,-31.3 -240.44,-17.18 6.25,25.11 35.61,15.85 97.54,16.42 30.71,0.28 86.41,-2.75 109.9,6.36 -12.27,24.35 -56.59,24.52 -91.33,26.33 -35.65,1.85 -78.22,7.38 -114.95,0.48l-4.27 -42.61c-58.04,-32.32 -0.47,-11.22 -92.66,-43.17 -25.23,-8.74 -32.03,-8.39 -59.01,-10.73 -40.13,-3.48 -25.96,-41.87 -97.23,4.81l-74.47 63.3c-21.14,19.4 -15.48,13.73 -26.06,42.09l-276.83 53.66c12.11,-44.93 20.19,-6.13 31.87,-91.68 96.67,-27.35 164.81,31.92 268.25,-61.96 27.65,-25.09 56.23,-55.64 81.83,-83.49 45.21,-49.21 44.16,-43.29 86.21,-77.24 2.87,-36.26 -8.13,-46.68 -12.42,-78.39 -5.15,-38.05 5.7,-46.37 20.64,-75.68 10.78,-21.15 5.61,-20.08 10.64,-36.64 5.86,-19.3 22.15,-7.4 32.2,-113 5.71,-60.03 10.48,-120.4 12.45,-183.07 4.52,-144.25 37.64,-127.09 -30.05,-233.65 -37.96,-59.77 5.04,-32.26 -37.76,-58.4 -41.26,-25.19 -79.2,-170.69 -96.09,-193.32l-91.91 -100.91c-67.75,-61.72 -22.24,-29.36 -104.8,-88l-57.89 -38.44c-36.44,-24 -188.5,-138.18 -232.26,-153.42 -15.23,-5.3 -21.69,-2.78 -35.69,-10.03 -10.98,-5.68 -17.38,-13.99 -31.02,-19.37 -23.72,-9.37 -54.42,-6.7 -80.06,-16.6 -74.85,-28.9 -71.43,-18.36 -172.9,-20.01 -99,-1.62 -175.65,-7.45 -264.28,25.38 -92.07,34.1 -78.51,129.77 -116.11,169.8z"/>
   <path class="fil3" d="M4396.91 872.62c39.23,1.87 16.52,43.79 50.17,86.53 11.58,14.71 12.71,9.42 26.78,19.08 13.42,9.21 29.89,31.41 41.31,50.54 13.63,22.8 38.95,38.21 23.42,63.1 -20.89,-3.06 -13.14,-4.86 -21.63,-23.56 -14.31,-31.53 -36.25,-62.78 -72.21,-70.27 -22.86,-49.52 -51.66,-80.99 -47.84,-125.42zm-125.12 -202.12c39.68,8.6 62.94,58.7 76.86,84 16.13,29.32 53.02,65.35 47.24,112.69 -17.65,-8.39 -51.14,-74.96 -62.36,-97.21 -10.2,-20.22 -17.45,-32.05 -29.97,-48.33 -10.64,-13.86 -29.6,-36.88 -31.77,-51.15zm-790.14 -180.99c22.97,6.12 113.82,120.57 137.1,145.93 14.28,15.54 22.68,46.16 27.07,74.23 -42.24,-13.51 -154.63,-147.22 -164.17,-220.16zm368.26 -0.18l-17.9 3.98c-22.49,2.39 -48.92,-4.79 -60.79,-5.47 -18.84,-1.09 -44.27,7.69 -76.52,3.19l-0.96 -26.7c27.61,-11.44 51.89,-2.14 74.65,2.61 28.53,5.95 56.54,-1.98 84.89,2.88l-3.37 19.51zm-558.09 14.73c5.65,19.55 10.37,20.47 24.06,29.3 27.44,17.66 50.78,41.1 71.26,57.66 16.49,13.34 -13.26,-0.05 10.29,5.3 12.43,2.82 15.14,-0.53 32.76,4.2 48.6,11.75 14.85,-18.99 101.89,43.59 47.25,33.97 63.23,65.8 76.58,75.05 29.3,20.29 13.81,-24.89 106.89,30.57 19.03,11.34 80.19,47.15 102.02,50.23 -7.92,-24.95 -47.63,-79.25 20.15,-74.54 15.57,27.12 34.78,84.99 36.39,117.96l30.91 21.15c-0.35,-21.2 -5.14,-18.78 -8.37,-37.41 31,13.25 30.39,62.76 54.52,69.87 15.42,-13.56 10.43,-37.38 12.3,-75.39 3.11,-63.04 9.27,-88.71 31.28,-144.56 8.93,-22.67 20.42,-46.18 43.63,-48.72 -11.29,77.62 -56.15,83.27 -58.12,267.06 -0.42,39.43 4.7,36.7 22.4,58.47 43.43,53.42 61.96,96.87 84.18,163.31 20.46,-13.57 21.9,-54.71 24.98,-79.77 6.93,-56.32 -18.09,-112.4 -43.75,-158.11 -0.05,-0.1 -56.49,-93.91 -2.81,-71.35 19.51,8.19 31.73,36.77 41.94,49.72l10.98 -26.11c11.39,36.35 2.33,126.95 15.71,156.49 7.4,0.94 -2.46,6.14 13.46,-14.34 20.26,182.44 -62.9,173.01 12.33,290.78 69.16,1.72 85.56,38.06 129.82,109.37l62.78 116.74c6.8,13.49 8.86,35.24 16.51,48.02 36.32,-0.06 49.13,-3.85 66.28,-26.07 25.62,-33.19 4.42,-36.84 -3.47,-69.36 -14.98,-61.72 20.15,-98.11 42.64,-139.71 11.59,-21.43 19.81,-42.61 31.26,-60.29 13.73,-21.21 28.97,-32.48 42.51,-53.95l50.97 -92.65c1.42,-17.47 -7.07,-22.81 -20.92,-24.11 -2.46,17.78 2.61,30.03 -11.94,37.56 -28.47,-12.79 14.65,-27.5 -17.92,-82.04 -43.58,-72.95 -29.19,7.64 -85.58,-144 -54.14,-145.56 20.11,-56.62 -132.53,-211.75 -79.5,-80.79 -163.43,-136.32 -254.71,-204.25 -42.45,-31.6 -130.31,-69.43 -146.8,-82.53 -33.21,-26.4 -8.63,-22.37 -80.64,-34.81 -38.66,-6.69 -54.62,-18.18 -93.94,-20.88 -74.94,-5.13 -153.32,7.4 -225.04,3.78 -20.14,21.75 -24.29,40.14 -26.95,65.69 -2.13,20.4 -5.31,71.64 -14.35,85.17 -0.93,-1.17 -1.92,-4.59 -2.25,-3.87l-6.8 -35.47c-1.78,-38.53 -10.2,-81.73 26.37,-109 -33.83,1 -143.71,18.54 -162.67,37.03l-11.33 34.12c-10.86,33.25 -38.53,84.85 -39.16,96.85z"/>
   <path class="fil1" d="M2054.15 1686.54c15.41,-5.58 19.08,-11.91 38.38,-10.12 20.41,35.2 7.68,86.77 -37.25,118.64l5.48 59.67c20.38,8.26 41.67,18.2 62.17,16.32 3.84,-35.3 -3.34,-90.38 8.39,-119.9 35.85,-90.25 33.58,-104.48 87.76,-169.31 26.76,-32.03 43.69,-58.52 70.79,-56.74 21.53,51.38 -1.09,111.1 -27.27,155.38 -15.56,26.31 -11.07,47.92 -19.87,81.55 -7.36,28.13 1.1,61.13 1.76,93.12 25.88,-14.49 33.79,-95.06 63.84,-105.89 -5.17,27.02 -29.87,80.46 -41.21,110.29l-13.96 33.84c-33.08,-2.96 -21.62,-11.7 -47.71,-7.84 -20.66,3.05 -27.78,5.32 -42.36,-7.87 13.65,-9.96 42.1,-5.83 60.82,-6.78 5.15,-35.37 -4.13,-63.16 -5.17,-90.35 -0.67,-17.47 5.46,-19.98 10.9,-36.52 5.98,-18.15 2.03,-27.35 4.37,-45.35 2.56,-19.66 25.37,-45.02 34.58,-67.04 4.59,-10.98 34.34,-88.42 2.57,-79.43l-22.49 17.95c-9.21,11.38 -15.35,21.89 -25.18,34.45 -19.3,24.68 -30.59,38.22 -43.26,75.76 -25.2,74.62 -46.61,74.74 -39.32,197.31 11.24,9.49 16.98,11.1 25,18.39 30.48,27.68 47.9,65.7 64.3,74.16 16.69,-25.15 -13.93,-29.96 -17.28,-59.96 18.72,3.28 37.73,30.68 40.94,50.44 8.29,50.99 -3.13,24.84 22.55,63.62 58.57,88.48 63.46,46.18 104.68,68.4 -35.92,2.23 -43.59,6.64 -80.19,2.49 7.04,40.6 34.65,60.6 28.74,111.51 -10.19,-18.74 -14.84,-34.72 -25.04,-54.62 -36.34,-70.86 -53.03,-29.91 -106.22,-141.73 -24.45,-51.39 4.96,-6.25 -31.57,-51.81 -23.1,-28.79 24.26,-18.27 -15.32,-57.27 -26.82,-26.43 -41.36,-7.57 -63.48,-19.02 -13.68,-7.08 -3.55,-8.46 -28.31,-12.53 -23.39,-3.85 -15.17,-0.2 -32,-9.49 7.89,-14.09 10,1.76 15.83,-19.86 8.86,-32.84 -25.73,-58.94 -28.16,-63.09 30.42,-0.7 40.89,-1.36 55.87,-21.91 9.55,-13.08 20.18,-33.24 12.12,-51.66 -15.58,-16.57 -45.35,42.37 -100.05,62.57l3.29 -21.75c-8.7,10.68 0.48,-5.52 -9.65,15.77 -5.17,10.87 3.94,-8.8 -3.72,11.65 14.46,8.44 4.77,-2.41 10.16,14.01 7.09,21.58 -16.08,84.12 -11.26,109.7 3.1,16.5 54.55,61.28 71.43,69.15l7.66 -34.87c37.33,9.47 17.31,150.41 34.89,206.52 13.8,44.07 11.97,63.69 9.48,112.97 -0.89,17.55 -26.62,70.2 -34.13,83.75l-183.2 305.18c14.05,2.54 32.73,22.41 56.8,39.2 9.49,6.62 2.99,2.86 11.73,7.36l26.39 9.99c-7.25,19.99 -17.84,18.16 -22.9,36.69 21.12,-17.54 -8.84,-13.53 -9.18,-13.73 1.28,24.63 7.01,15.81 -0.64,27.4l-9.95 12.69c-20.85,19.59 -27.56,-5.89 -30.74,37.94l54.66 4.99c1.74,0.07 10.57,-0.25 12.18,-0.54 8.64,-1.54 11.47,-2.95 17.52,-7.4 1.13,-0.84 5.97,-5.95 6.84,-6.99 7.79,-9.38 11.93,-23.75 30.41,-23.75 0.47,0 1.7,0.36 2.23,0.36 26.95,-0.27 -19.89,3.83 9.75,-0.7l8.65 -2.7c5.46,-5.49 2.21,-15.68 2.63,-17.15l21.26 -22.44c0.73,-0.47 2.09,-1.05 2.77,-1.51 20.14,-13.51 1.16,-20.35 29.26,-29.46 24.04,-7.79 13.15,2.43 31.33,-2.88 0,-34.59 -2.53,-21.44 36.69,-55.09l6.41 12.27c7.02,5.19 13.09,5.71 13.27,34.46 0.01,0.73 0.1,2.06 0.04,2.71 -0.05,0.59 -0.18,1.87 -0.29,2.41 -2.04,9.88 -38.95,38.14 -25.04,78.56l11.58 -18.93c32.48,-72.69 168.73,-342.98 196.82,-381.76l116.3 -117.62c18.62,-17.71 32.39,-20.27 53.02,-38.73 24.55,-21.97 24.98,-15.6 40.44,-51.51 16.23,-37.71 31.84,-95.97 50.8,-136.6 54.22,-116.17 15.39,-48.57 8.87,-138.15 -1.43,-19.76 -2.43,-54.31 -9.52,-72.23 -0.33,-0.83 -1.56,-1.49 -1.82,-3.37 -0.26,-1.88 -1.17,-2.31 -1.96,-3.32 -26.37,12.65 -36.48,31.09 -43.57,67.23 -3.38,17.25 -4.92,35.55 -3.84,53.31 2.27,37.21 4.94,17.1 13.35,35.4 -13.81,14.04 -29.28,12.52 -63.45,78.99 16.53,19.32 29.96,12.85 33.96,41.71 -38.64,-18.51 -68.48,-49.39 -132.37,-26.79 -28.16,9.96 -39.81,16.11 -69.19,-2.19 -20.41,-12.71 -37.91,-20.13 -44.98,-42.47 44.81,7.83 72.93,54.03 120.39,15.96 0.16,-27.6 -19.21,-24.05 -20.8,-55.22 9.03,9.41 3.01,8.99 15.8,11.64 15.5,-15.96 39.76,-46.51 42.54,-76.36 -17.39,-8.99 -18.16,-2.87 -23.96,-24.58 32.01,8.97 25.09,26.3 60.03,2.19 -6.95,-19.8 -18.4,-19.45 -21.69,-46.46 23.25,5.96 20.04,17.72 34.56,30.47 11.24,9.86 29.86,12.63 42.56,6.81 11.81,-27.77 2.59,-20.89 -10.1,-39.2 -10.66,-15.41 -5.7,-25.86 -13.26,-41.8 -28.43,-6.02 -37.19,6.14 -62.96,12.08 -29.51,6.8 -33.93,9.33 -47.44,30.55 -9.04,14.19 -20.87,34.02 -31.02,47.04 -15.14,19.4 -27.96,23.26 -36.81,41.84 11.14,27.31 27.84,18.75 36.53,39.68 -21.66,-0.41 -39.43,-13.57 -55.2,-24.93 -38.84,-28 -39.02,-22.51 -38.1,-40.11 17.71,-0.02 19.51,8.35 39.95,13.04 27.18,-129.28 36.45,-107.24 78.32,-188.13 32.34,-62.49 102.41,-153.88 66.62,-175.61 -17.48,-8.49 -36.37,23.71 -47.68,38.07l-84.43 108.38c-21.38,25.99 -27.06,41.38 -47.85,48.63 5.66,-34.01 64.78,-100.18 84.96,-126.25 40.79,-52.7 60.37,-101.8 106.82,-102.59 15.24,35.89 16.88,68.31 -1.36,106.55 -16.46,34.5 -38.04,53.84 -49.77,79.28 -17.73,38.48 -25.47,53.94 -46.52,86.51 -16.34,25.28 -28.46,62.31 -34.36,97.57 38.39,-19.78 34.35,-72.61 89.93,-92.19 18.43,-6.49 51.96,-17.25 72.83,-16.33 33.01,1.45 31.51,21.77 50.26,39.9 52.04,-32.03 40.19,-48.81 55.07,-55.25 6.66,20.87 10.32,72.27 12.92,96 4.4,40.13 16.43,57.39 21.31,87.42 8.48,52.08 -43.89,106.19 -50.67,157.24 43.95,-21.85 124.11,-42.07 180.26,-32.73 -3.45,-46.19 -20.53,-87.93 -23.52,-135.97 -3.19,-51.35 -0.92,-106.24 -1.3,-157.98 -11.63,-6.33 -56.16,-45.7 -60.32,-52.79 -6.92,-11.76 -23.67,-61.21 -31.23,-79.2 -33.2,-79.08 11.49,-131.49 16.11,-186.5l-6.42 4.88c-36.13,26.47 -24.75,35.63 -30.76,27.87 -0.72,-0.93 -2.23,2.66 -3.41,3.94 -6.97,-9.37 -114.88,-4.62 -133.35,-4.7 -43.72,-0.15 -39.28,5.78 -55.49,6.68 -0.66,0.03 -1.96,0.04 -2.6,0.02l-340.94 -2c-9.31,16.9 -10.81,14.15 -25.23,22.98 27.48,30 -4.82,4.56 41.69,35.38 24.89,16.48 16.78,22.99 38.62,28.89l-9.86 4.65c-12.25,2.14 -6.93,-0.49 -8.52,-4.67 0.75,11.07 -3.12,-2.71 10.99,9.39l11.95 13.59c-13.1,17.24 -21.61,10 -27.13,27.48 -0.46,1.45 -1.2,6.25 -1.53,7.9 -1.18,5.89 -0.6,9.36 -3.44,19.69 -42.6,0 -46.6,4.51 -69.73,5.37 -17.78,0.67 -8.92,-1.98 -26.65,3.82 -0.15,11.08 -0.19,8.8 -6.25,24.66z"/>
   <path class="fil3" d="M4332.07 2144.16c-47.48,47.73 -17.63,67.25 -104.67,83.91 -19.21,3.68 -21.35,12.95 -47.01,12.26 -49.59,-1.32 -14.63,-46.41 -3.49,-72.76 6.63,-15.69 29.29,-67.4 40.44,-77.49 8.66,14.18 -12.68,47.42 -20.16,65.89 -5.92,14.61 -17.9,56.29 -21.85,71.69 36.56,1.57 28.37,-14.51 43.69,-45.53 8.99,-18.21 13.12,-44.91 31.24,-51.83 -2.36,29.21 -17.33,57.84 -16.15,83.08 36.2,2.29 68.76,-54.55 69.66,-73.99 -20.3,-17.27 -30.88,-6.24 -50.23,-27.07 -12.21,-13.16 -19.01,-33.39 -42.32,-28.67 -57.55,11.64 -73.59,2.78 -105.21,9.43 -36.82,7.75 -27.32,9.15 -45.73,87.24 -24.19,7.24 -33.06,8.3 -38.05,33.85 27.81,-7.35 14.93,-10.91 35.24,-20.52 -11.13,38.07 -51.92,58.85 -81.81,80.42 -46.03,33.23 -48.74,35.95 -118.41,42.49 1.05,8.23 67.64,139.75 73.79,145.81 9.03,8.89 61.58,30.05 77.61,37.29 55.59,25.13 170.94,91.06 215.08,120.01 35.13,23.06 105.12,76.94 136.67,90.05 2.53,-77.18 7.14,-195.58 20.32,-269.74 7.54,-42.38 19.64,-55.43 34.68,-112.35 12.35,-46.73 6.93,-82.03 5.28,-133.15 -13.72,-7.94 -32.32,-13.37 -47.53,-22.72 -18.8,-11.54 -19.72,-23.86 -41.08,-27.6z"/>
   <path class="fil2" d="M3424.35 865.82c28.05,-6.26 34.7,3.49 66.74,-13.8 27.12,-14.64 29.36,-1.81 46.69,15.94 28.86,29.55 55.77,42.25 53.25,107.11 -26.72,-11.9 -25.98,-24.82 -37.3,-40.49 -23.9,-33.06 -115.76,-28.6 -152.19,-65.45l22.81 -3.31zm-134.92 -81.78l40.2 73.66c2.74,22.52 21.45,44.48 39.08,53.09 -4.05,-11.67 -6.22,-13.34 -10.24,-26.17 31.31,16.83 36.22,34.58 84.71,46.22 24.77,5.94 85.45,12.41 102.41,20.64 58.46,28.36 48.86,186.98 36.12,203.48l-7.23 -25.2c-25.64,2.05 -5.96,7.47 -18.08,4.14 -5.45,-10.87 -8.66,-20.76 -13.52,-32.48 -1.36,-3.29 -6.69,-16.14 -6.73,-16.37 -1.17,-5.8 -0.57,-5.23 -0.22,-10.78l2.21 -7.6c21.61,13.53 6.97,16.66 33.28,26.48 -3.26,-75.49 -57.66,-119.85 -122.44,-136.3 -45.53,-11.57 -113.55,13.65 -163.06,-84.66 -21.68,-22.35 -27.53,-76.24 -33.93,-106.44 0.07,-55.73 -2.21,-68.9 -34.75,-95.97 -9.33,-7.77 -28.39,-21.74 -46.44,-23.16 -60.19,-4.73 -56.96,32.01 -66.76,43.59 -54.3,64.21 -17.27,15.87 -46.35,82.72 -30.28,69.63 15.49,48.88 17.84,137.81 -7.02,-6.17 -2.39,0.39 -9.65,-11.49l-17.24 -34.25c-0.44,-0.6 -1.42,-1.82 -2.25,-2.62l46.59 76.49 68.18 11.11c2.3,-31.01 -9.88,-45.98 -26.87,-63.92 -35.57,2.83 -35.17,30.28 -47.94,-43.65 12.06,5.95 12.04,8.62 30.04,8.28 0.48,-18.53 -0.39,-49.76 -4.78,-66.57 -10.1,-38.74 -30.77,8.84 -30.97,-24.91 -0.09,-15.17 45.75,-79.95 73.7,-62.98 18.57,23.23 20.98,109.26 33.14,144.95 6.72,19.69 17.59,41.65 26.19,62.04 11.71,27.77 8.34,52.14 16.99,74.18 9.67,-11.17 4.86,-27.76 0.67,-45.45 -3.62,-15.31 -9.62,-29.88 -11.93,-43.92 41.44,1.88 -1.68,96.23 47.97,106.61 5.72,-9.23 3.73,1.61 4.9,-16.4 0.93,-14.39 -11.28,-36.93 -6.96,-54.57 7.96,22.14 9.39,67.36 25.01,67.82 17.33,0.5 4.62,-20.95 22.94,-28.13 22.38,25 -10,28.75 41.31,52.45 16.61,-8.67 19.15,-48.46 43.59,14.56 9.81,25.28 28.69,40.63 29.71,70.68 -13.33,-20.76 -13.85,-39.37 -32.28,-54.8 14.71,49.37 -9.36,19.63 32.9,96.34 17.92,32.51 28.34,57.15 50.02,83.04 123.04,146.98 181.82,24.18 206.96,155.82 3.55,18.61 2.02,56.76 12.07,74.46 4.89,8.61 0.63,2.89 7.21,9.29 20,-70.33 -2.43,-109.63 -9.21,-145.35 29.64,7.18 6.67,6.72 30.85,15.61 11.12,-34.18 -8.07,-18.75 28.26,-40.08 44.42,-26.07 83.87,-97.13 85.27,-127.2 -26.44,18.06 -46.44,80.63 -102.71,109.59 -22.9,11.78 -58.06,22.25 -86.73,13.83 -7.94,-2.33 -26.32,-13.33 -37.09,-17.34 -51.57,-19.2 -93.99,-12.55 -139.71,-130.98 -8.44,-21.85 -36.99,-99.1 -48.91,-116.35 -16.53,-23.93 -20.32,-5.29 -19.99,-35.83 21.34,-1.73 24.92,2.61 34.41,16.87 36.77,55.25 73.01,237.05 138.59,234.34 0.34,-30.34 -62.46,-52.47 -56.2,-133.72 24.64,-3.03 19.63,3.42 27,28.5 4.77,16.24 10.89,31.6 16.17,43.54 15.04,34.07 25.89,47.28 52.12,67.39 29.19,22.37 53.04,23.85 90.01,8.5 29.47,-12.24 48.75,-27.72 52.91,-67.52 -13.55,-22.48 -43.43,-45.23 -61.28,-68.58 -30.69,-40.14 -17.5,-55.53 -24.4,-108.87 -9.22,-71.27 -59.05,-139.72 -95.14,-171.01 -82.31,-71.36 -75.89,-5.41 -144,-44.2 -49.47,-28.18 -109.21,-162.55 -179.5,-151.69 -4.56,40.09 83.5,99.01 99.08,163.52l-30.48 -42.92c5.04,27.14 17.67,31.32 25.82,53.43 -48.19,-19.81 -55.88,-80.72 -88.86,-94 2.75,18.36 19.45,42.88 28.4,59.36z"/>
   <path class="fil1" d="M4547.77 2483.84c-8.98,-18.57 1.65,-32.15 11.11,-48.78l30.83 -45.04c-3.31,36.14 -12.97,83.19 -41.94,93.82zm96.37 -73.35c-13.42,-25.12 13.49,-43.71 22.79,-97.16 0.62,-3.52 2.5,-19.66 2.95,-21.04 6.86,-21.34 0.57,-6.14 10.97,-12.31 7.17,9.78 2.59,-11.63 7.11,15.35 3.38,20.17 -16.03,102.79 -43.82,115.16zm-242.45 291.03c30.24,-36.25 81.95,-80.32 119.38,-115.59l50.4 -42.56c0.93,-0.54 2.2,-1.01 3.13,-1.52l19.09 -16.78 45.52 8.58c15.76,38.35 -0.24,32.45 7.72,63.99 8.58,-11.56 51.76,-186.56 50.53,-199.3 -9.91,-103.08 57.63,-149.07 13.14,-196.81 -24.47,-26.26 -103.81,-103.61 -120.53,-127.34 -13.75,-19.49 -0.19,-15.22 -23.81,-20.86 -0.3,34.39 102.1,177.24 104.78,218.09 -47.78,-27.06 -65.49,-95.49 -84.79,-129.17 -86.97,-151.75 -57.95,-137.11 -131.47,-123.74 -35.2,6.4 -105.47,-8.04 -153.18,19.87l30.29 5.61c46.24,-1.31 160.47,34.26 180.93,61.39 16.63,22.04 61.28,187.54 55.13,219.64 -17.65,-5.31 -13.48,-2.38 -19.62,-25.14 -70.16,-260.21 -5.12,-167.42 -175.33,-233.43 -70.11,-27.2 -66.87,-4.46 -88.3,2.22 -6.67,2.08 -24.6,3.25 -32.75,4.37 -2.84,31.05 38.93,38.64 64.58,45.29 42.51,11.03 41.47,17.29 71.18,38.83 34.19,24.79 47.04,7.47 52.82,61.18 3.62,33.69 11.13,66.81 10.91,100.34 -0.21,29.5 -5.11,23.64 -17.37,42.04 -27.28,40.89 -46.08,190.86 -43.98,237.79l6.57 91.36c3.94,13.18 1.73,6.39 5.03,11.65z"/>
   <path class="fil2" d="M3957.15 2028.14c7.02,-13.73 20.42,-25.9 28.27,-38.11 9.07,-14.11 13.94,-35.66 30,-42.15 16.91,32.28 -34.98,71.49 -58.27,80.26zm-173.3 -101.72c5.22,-21.42 4.87,-13.92 17.44,-28.78 42.2,-49.87 25.67,-72.55 44.32,-83.31 18.22,20.06 -1.89,49.76 -11.53,65.67 -13.35,22.03 -20.13,40.92 -50.23,46.42zm-2.48 -42.57c-13.15,-9.29 -18.8,-16.6 -37.22,-29.12 2.72,-14.59 18.81,-50.5 28.04,-59.97 10.11,8.86 5.53,0.94 10.77,16.31 4.98,14.6 -1.4,11.2 7.59,24.37 18.71,-12.9 15.72,-28.88 12.86,-55.78 54.95,32.91 8.39,85.07 -22.04,104.19zm211.86 -210.7l-23.75 -3.14c-4.52,14.9 9.8,8.68 -54.65,6.7 -23,-0.71 -11.89,5.17 -27.91,-4.85 -0.63,0.9 -1.33,1.43 -1.59,2.87l-9.99 10.41c-11.16,3.75 -17.9,1.41 -25.11,-4.37 -83.77,-49.7 -113.13,-55.97 -129.39,-155.67 -2.43,-14.92 -12.63,-28.7 -18.64,-41.14 -13.48,-27.91 -11.2,-68.98 -26.19,-92.11 -27,44.83 31.41,140.26 33.31,146.89 -22.25,-10.7 -21.25,-26.81 -34.89,-29.72 -11.63,47.05 21.86,104.66 45.56,117.64 22.97,12.59 35.03,21.14 54.54,32.83 22.93,13.74 46.7,12.87 47.4,38.99 -19.39,8.79 -86.5,-27.65 -107.18,-38.73 -6.31,-40.3 6.94,-28.61 -23.46,-50.06 -19.06,-13.45 -20.83,-33.35 -41.63,-33.26 -20.19,32.59 13.34,52.84 26.36,75.82 16.21,28.59 48.09,31.61 64.54,55.56 -3.16,1.99 -4.58,6.17 -20.27,2.17 -27.46,-7 -31.07,-29.32 -63.78,-30.23 -0.2,27.82 18.45,39.23 31.93,56.75 23.45,30.5 22.44,17.49 59.33,27.35 12.77,42.46 -3.86,56.78 -20.38,81.91 -34.46,-1.85 -54.48,-6.93 -77.39,15.27 -12.92,12.52 -33.4,45.7 -34.57,67.21 35.17,-4.01 29.91,-70.69 96.92,-64.55 64.76,5.93 52.46,42.2 67.98,92.52 31.89,-5.47 43.21,-43.2 70.66,-55.24 -2.44,44.99 -31.89,59 -29.96,97.25 22.24,-7.15 37.58,-28.13 52.12,-40.17 5.5,12.39 -1.13,10.66 9.18,24.52 32.86,5 24.07,-3.91 41.47,-18.18l-14.2 36.25c42.65,2.73 26.92,-30.68 66.32,-43.21 -3.67,30.63 -32.18,68.67 -57.19,72.08 -35.26,4.8 -66.22,-22.61 -98.04,-29.26 22.63,42.15 157.81,103.49 236.75,-52.84 47.58,-94.21 16.61,-175.37 -40.4,-250.31 -6.16,-8.1 -13.86,-19.78 -23.81,-23.95z"/>
   <path class="fil3" d="M3400.94 2511.27c17.16,10.6 40.11,-8.26 56.21,-17.07 24.98,-13.67 41.67,-9.98 72.26,-9.67 55.5,0.57 11.47,-19.23 60.48,-6.7 30.94,7.91 45.89,2.02 76.71,5.9 113.28,14.28 88.83,91.27 253.38,64.05 -0.43,-74.93 -110.9,-245.12 -140.95,-313.46 -41.8,13.59 -50.22,44.85 -111.14,58.46 -97.35,21.75 -82.02,-12.37 -117.87,42.16 -19.57,29.76 -81.5,114.46 -108.06,139.78 -11.99,11.44 -35.37,23.52 -41.02,36.55z"/>
   <path class="fil1" d="M2468.03 2398.13c3.07,-48.56 36.47,-0.1 116.8,-92.2 34.56,-39.63 98.33,-86.6 108.58,-97.68 -17.34,-20.94 -74.82,-35.68 -111.52,-34.35 -10.13,33.37 -86.3,112.02 -113.62,139.38 -44.72,44.77 -95.59,81.37 -121.1,131.28 -33.6,65.73 -164.1,299.1 -167.8,333.47 21.72,-5.22 42.31,-25.43 51,-41.81 13.16,-24.81 21.14,-33.69 36.83,-54.8 30.62,-41.19 51.74,-61.61 84.37,-94.71 31.87,-32.33 225,-83.59 250.49,-107.57l-12.84 -15.49c-5.81,-15.25 -3.38,-6.32 -1.39,-20.93 47.45,-7.49 41.51,6.42 83.86,-17.86 25.84,-14.82 50.88,-24.29 59.6,-43.76 -28.54,-8.14 -104.29,-7.98 -138.57,-6.59 -46.54,1.9 -88.61,25.46 -124.69,23.62z"/>
   <path class="fil1" d="M4233.36 1479.94c-26.08,-8.38 -44.47,-39.89 -61.07,-66.82 -9,-14.62 -6.61,-15.24 -19.19,-22.31 -16.21,12.13 -16.58,36.72 -38.34,76.06 -9.75,17.64 -55.69,115.43 -55.98,129.39 28.6,10.17 35.11,5.22 61.16,20.78 103.91,62.07 139.62,105.19 147.89,110.5 28.31,-6.3 40.09,-22.73 58.18,-35.03 45.81,-31.12 63.72,-23.13 111.17,-81.5 11.48,-14.12 31.39,-43.11 48.14,-51.89 -12.14,48.73 -97.95,144.23 -168.55,161.31 -24,5.8 -25.36,7.97 -29.59,18.3 42.17,10.97 81.79,-9.5 123.54,-30.19 18.79,-9.3 18.08,-8.36 25.39,-29.95 13.3,-39.34 70.56,-105.96 73.93,-140.41 -34.29,3.06 -75.1,26.51 -114.95,30.64 -65.28,6.77 -45.36,-55.31 -76.41,-73.37 -13.92,-6.29 -3.13,-3.58 -28.19,5.47 -5.81,2.1 -3.46,2.81 -12.62,4.1l-91.89 -124c12.7,37.48 42.74,50.73 47.38,98.92z"/>
   <path class="fil2" d="M3795.13 2010.13c-11.3,4.17 -0.02,6.74 2.43,21.25 -50.33,-49.79 -33.1,-37.07 -60.47,-68.1 -11.21,-12.72 -13.27,-6.75 -24.33,-16.38 -12.63,-11.01 -22.24,-41.17 -48.34,-34.64 -21.67,5.43 -25.05,28.52 -39.09,44.59 -19.49,-8.25 1.37,-22.05 -27.53,-17.62 -5.1,14.39 -4.08,89.09 -1.97,107.33 5.22,44.88 30.32,42.6 30.95,86.13l-48.9 -3.02 19.35 -40.5c-29.27,1.82 -29.77,36.61 -59.17,41.03 -18.76,2.83 -73.37,-1.31 -95.09,-2.36 10.98,-21.35 77.22,-40.2 91.93,-89.57 -25.68,11.8 -90.37,70.39 -133.25,83.51 -58.32,17.83 -144.28,-6.74 -190.28,26.79 2.97,21.87 19.71,27.01 38.45,35.98 68.04,32.56 109.27,26.99 191.94,29.7 47.57,1.56 97.93,-0.12 143.86,-3.2 54.8,-3.67 111.45,8.25 118.91,-31.77 -131.11,-42.58 -435.56,43.89 -459.63,-26.39 43.57,-17.92 377.85,-14.8 454.27,-5.38 39.36,4.86 49.71,14.82 79.05,-6.67 80.09,-58.65 36.93,-32.62 103.61,-61.01l13.04 -9.31c-23.96,-11.7 -35.78,-9.42 -56.14,-25.23 -16.81,-13.06 -25.19,-23.73 -43.6,-35.16z"/>
   <path class="fil1" d="M3026.76 2266.69c4.09,16.99 42.57,48.63 56.62,75.16 11.54,21.82 2.96,44.13 58.69,69.6 40.25,18.39 53.17,21.87 102.79,19.7 24.64,-1.08 94.93,-8.59 112.61,-2.52 -11.75,5.37 -93.37,11.75 -113.64,13.03 -50.51,3.18 -73.32,6.15 -112.32,-14.71 -23.97,-12.82 -56.85,-42.37 -69.57,-59.19 -16.09,-21.27 -26.05,-63.24 -50.7,-71.32 -2.18,48.91 5.06,48.61 28.55,75.16 67.9,76.76 118.39,90.57 223.18,87.35 31.13,-0.96 60.83,-7 90.95,-12.11 49.2,-8.36 49.96,3.45 80.68,-25.44 14.49,-13.62 81.07,-99.45 85.99,-121.51 -32.8,-2.13 -59.45,-3.29 -91.23,-9.33 -72.2,-13.73 -13.04,-17.83 -82.39,-7.21l-6.38 -20.72 -45.01 9.9c10.58,21.49 28.83,5.19 46.17,18.36 -24.76,21.73 -45.64,3.89 -74.32,0.66 -27.33,-3.07 -59.4,0.33 -87.44,0.01 -67.61,-0.76 -44.87,-25.5 -153.23,-24.87z"/>
   <path class="fil2" d="M2054.15 1686.54c-1.81,3.64 0.97,0.4 -4.78,6.29l-62.76 51.73 -3.29 21.75c54.7,-20.2 84.47,-79.14 100.05,-62.57 8.06,18.42 -2.57,38.58 -12.12,51.66 -14.98,20.55 -25.45,21.21 -55.87,21.91 2.43,4.15 37.02,30.25 28.16,63.09 -5.83,21.62 -7.94,5.77 -15.83,19.86 16.83,9.29 8.61,5.64 32,9.49 24.76,4.07 14.63,5.45 28.31,12.53 22.12,11.45 36.66,-7.41 63.48,19.02 39.58,39 -7.78,28.48 15.32,57.27 36.53,45.56 7.12,0.42 31.57,51.81 53.19,111.82 69.88,70.87 106.22,141.73 10.2,19.9 14.85,35.88 25.04,54.62 5.91,-50.91 -21.7,-70.91 -28.74,-111.51 36.6,4.15 44.27,-0.26 80.19,-2.49 -41.22,-22.22 -46.11,20.08 -104.68,-68.4 -25.68,-38.78 -14.26,-12.63 -22.55,-63.62 -3.21,-19.76 -22.22,-47.16 -40.94,-50.44 3.35,30 33.97,34.81 17.28,59.96 -16.4,-8.46 -33.82,-46.48 -64.3,-74.16 -8.02,-7.29 -13.76,-8.9 -25,-18.39 -7.29,-122.57 14.12,-122.69 39.32,-197.31 12.67,-37.54 23.96,-51.08 43.26,-75.76 9.83,-12.56 15.97,-23.07 25.18,-34.45l22.49 -17.95c31.77,-8.99 2.02,68.45 -2.57,79.43 -9.21,22.02 -32.02,47.38 -34.58,67.04 -2.34,18 1.61,27.2 -4.37,45.35 -5.44,16.54 -11.57,19.05 -10.9,36.52 1.04,27.19 10.32,54.98 5.17,90.35 -18.72,0.95 -47.17,-3.18 -60.82,6.78 14.58,13.19 21.7,10.92 42.36,7.87 26.09,-3.86 14.63,4.88 47.71,7.84l13.96 -33.84c11.34,-29.83 36.04,-83.27 41.21,-110.29 -30.05,10.83 -37.96,91.4 -63.84,105.89 -0.66,-31.99 -9.12,-64.99 -1.76,-93.12 8.8,-33.63 4.31,-55.24 19.87,-81.55 26.18,-44.28 48.8,-104 27.27,-155.38 -27.1,-1.78 -44.03,24.71 -70.79,56.74 -54.18,64.83 -51.91,79.06 -87.76,169.31 -11.73,29.52 -4.55,84.6 -8.39,119.9 -20.5,1.88 -41.79,-8.06 -62.17,-16.32l-5.48 -59.67c44.93,-31.87 57.66,-83.44 37.25,-118.64 -19.3,-1.79 -22.97,4.54 -38.38,10.12z"/>
   <path class="fil2" d="M2942.55 1910.65c18.19,4.52 1.92,3.74 20.1,3.21 9.61,-0.28 8.23,-2.01 21.25,-0.38l4.31 46.86c-17.21,1.1 -8.09,5.42 -20.19,-3.85 -8.88,-6.79 1.24,-0.33 -5.95,-8.16 -6.49,-7.09 -0.28,-1.78 -5.84,-4.94 -17.07,-9.7 -14.03,-1.54 -13.68,-32.74zm92.24 37.23c-1.68,-0.84 -8.95,-7.01 -10.65,-8.78 -10.58,12.51 -1.19,13.17 -25.25,5.17l-0.99 -18.95c20.19,-6.17 17.82,-1.64 35.19,-2.78 23.53,-1.55 -1.17,-1.32 15.48,-3.44 14.8,-1.87 30,3.63 16.88,28.85 -24.49,0.48 -14.6,4.28 -23.33,-13.73l-7.33 13.66zm-60.28 -97.89c18.28,0.14 32.32,7.75 47.39,16.13 3.02,1.68 17.31,10.33 19.98,12.62 3.85,3.3 4.17,2.22 6.37,6.92l0.82 8.76c0.01,0.61 -0.34,2.16 -0.68,3.19 -12.11,5.39 -42.12,8.38 -57.91,-0.12 -15.44,-8.32 -15.92,-26.32 -15.97,-47.5zm192.25 64.4c-0.08,-33.2 -7.77,-15.37 -27.77,-41.35 -12.14,-15.76 -15.1,-21.09 -29.74,-34.56 -30.23,-27.84 -33.96,-51.54 -84.13,-37.52 -43.8,12.23 -57.32,-90.47 -115.55,-0.96 -17.82,27.4 1.6,37.25 8.5,50.7 18.74,36.55 -39.48,36.38 -8.28,90.96 38.26,66.97 118.39,69.23 182.14,26.9 35.27,-23.42 27.2,-49.65 74.83,-54.17z"/>
   <path class="fil1" d="M2872.55 2300.79c-22.72,2.88 -47.77,17.62 -68.68,17.43 -29.16,-0.25 -22.22,-15.14 -69.41,-4.98 -17.81,3.84 -56.88,18.88 -68.5,6.11 -16.33,-17.95 74.56,-54.76 112.85,-40.49 31.21,11.62 11.43,23.81 57.25,7.88 18.95,-6.58 98.07,-40.42 106.96,-60.12 -11.58,-7.71 -81.58,-19.86 -117.38,-24.96 -81.67,-11.66 -141.65,37.65 -195.74,85.08 -17.94,15.72 -64.15,50.9 -75.2,69.28 45.02,-8.03 41.81,-25.26 124.12,-10.32 45.18,8.19 67.55,17.58 116.47,20.78 57.34,3.75 64.73,-10.3 100.74,-33.9 24.12,-15.8 79.04,-33.3 50.1,-67.57 -24.36,5.7 -59.18,54.84 -90.28,56.27 2.98,-17.37 4.73,-8.36 16.7,-20.49z"/>
   <path class="fil2" d="M1878.27 2638.39l183.2 -305.18c7.51,-13.55 33.24,-66.2 34.13,-83.75 2.49,-49.28 4.32,-68.9 -9.48,-112.97 -17.58,-56.11 2.44,-197.05 -34.89,-206.52l-7.66 34.87c-16.88,-7.87 -68.33,-52.65 -71.43,-69.15 -4.82,-25.58 18.35,-88.12 11.26,-109.7 -5.39,-16.42 4.3,-5.57 -10.16,-14.01 7.78,69.81 -64.72,102.41 20.83,181.24 16.95,15.63 36.95,19.86 51.38,34.65 4.98,90.16 -2.28,129.45 18.71,217.3 19.15,80.15 -9.94,88.61 -55.29,167.3 -29.13,50.53 -57.16,97.82 -87.74,146.63 -14.7,23.46 -29.48,48.47 -46.15,72.98 -31.01,45.6 -59.2,52.69 -37.98,69.88 15.02,9.67 23.02,-16.36 41.27,-23.57z"/>
   <path class="fil2" d="M3634.51 1498.06c12.62,-16.93 5.21,-33.77 -2.17,-54.69 -16.8,-47.68 -31.05,-92.92 -80.28,-116.87 -28.5,-13.86 -217.16,-27.18 -241.99,-8.04 -4.42,3.41 -37.88,54 48.87,59.76 162.71,10.8 188.43,-44.58 249.65,75.42 9.01,17.66 7.51,38.19 25.92,44.42z"/>
   <path class="fil2" d="M3378.43 1497.89c24.01,-3.11 35.64,2.42 47.93,21.68l-3.79 26.58c-23.44,4.91 -65.23,8.48 -58.9,-27.84l13.84 18.39c16.4,2.87 33.11,2.5 31.83,-16.44 -1.48,-21.99 -16.79,-16.81 -30.91,-22.37zm22.01 90.6c0.05,-15.12 4.08,-16.74 4.59,-32.21 6.44,0 7.21,0.29 13.57,-1.14 16,-3.56 5.92,0.12 7.59,-3.39 0.86,-0.9 1.87,-3.78 2.28,-2.97l7.22 -7.92c10.66,-6.3 2.65,-2.83 15.59,-3.05l-0.82 23.06c8.34,-9.34 3.01,1.06 8.69,-12.39 5.72,-13.57 5.39,-20.9 -3.64,-24.34 2.37,14.42 0.7,4.49 4.64,13.77l9.59 -13.12c5.72,-11.87 4.04,-11.58 4.15,-28.2l18.83 -2.21c-6.65,-16.48 -26.61,-30.62 -39.64,-40.92 -0.82,-0.65 -2.04,-1.31 -2.86,-1.96 -12.52,-9.89 -5.52,1.7 -13.66,-17.71 -37.1,4.13 -9.2,9.59 -32.29,-4.76 -17.54,-10.9 0.23,-1.22 -17.44,-4.68 -24.05,-4.72 6.61,-5.63 -24.13,-6.63 -16.68,14.01 -38.78,27.72 -60.96,35.33 -32.74,11.25 -68.35,-8.96 -75.55,26.93 27.11,18.03 42.58,2.72 65.21,-6.14 -12.86,17.18 -16.75,10.79 -19.3,32.21 33.95,10.98 39.27,-37.22 96.77,-31.82 -6.04,27.69 -25.92,11.89 -18.85,67.08l-51.33 -12.23c-23.88,-0.55 -10.62,-0.56 -16.92,4.89 11.87,10.48 11,6.06 27.34,12.71 27.29,11.11 15.44,18.92 51.33,30.2 1.4,0.44 5.6,1.63 7.03,2.11l10.3 4.01c1.35,0.45 2.31,0.91 3.73,1.34l18.94 4.15z"/>
   <path class="fil4" d="M4158.08 1831.11c45.42,-8.09 66.68,-42.38 130.54,-42.42 -16.76,33.15 -66.36,30.22 -97.44,65.5 149.61,17.88 169.35,-73.98 213.6,-101.29 22.02,-13.59 51.05,-29.8 59.75,-49.37 -45.65,-1.66 -83.67,56.59 -150.97,64.24 -73.05,8.31 -92.07,-56.23 -140.12,-71.71 -2.92,22.8 0.22,47.63 -1.68,71.45 -2.2,27.56 -10.88,43.02 -13.68,63.6z"/>
   <path class="fil5" d="M2637.9 2130.09c6.58,-5.16 82.23,-3.94 96.63,-2.9 23.43,1.68 55.86,16.61 73.48,26.3 34.22,18.82 61.73,39.38 98.98,53.01 3.62,1.33 15.39,5.18 18.68,5.48 11.2,0.99 -6.98,1.92 11.22,-0.93l7.44 -2.8c-8.94,-17.18 -14.85,-12.76 -42.92,-28.7 -15.21,-8.64 -29.41,-17.54 -41.79,-27.06 -36.33,-27.93 -30.36,-47.43 -55.76,-82.13 -33.53,-0.02 -81.84,14.6 -115.14,22.62 -17.87,4.3 -38.46,8.29 -55.99,12.6 -22.33,5.48 -28.83,14.31 -29.3,38.4 41.83,12.13 141.43,54.87 175.77,48.4 -17.46,-24.85 -68.61,-43.5 -105.7,-48.34 -44.22,-5.76 -30.7,-5.33 -35.6,-13.95z"/>
   <path class="fil6" d="M3285.92 872.19c49.51,98.31 117.53,73.09 163.06,84.66 64.78,16.45 119.18,60.81 122.44,136.3 -26.31,-9.82 -11.67,-12.95 -33.28,-26.48l-2.21 7.6c-0.35,5.55 -0.95,4.98 0.22,10.78 0.04,0.23 5.37,13.08 6.73,16.37 4.86,11.72 8.07,21.61 13.52,32.48 12.12,3.33 -7.56,-2.09 18.08,-4.14l7.23 25.2c12.74,-16.5 22.34,-175.12 -36.12,-203.48 -16.96,-8.23 -77.64,-14.7 -102.41,-20.64 -48.49,-11.64 -53.4,-29.39 -84.71,-46.22 4.02,12.83 6.19,14.5 10.24,26.17 -17.63,-8.61 -36.34,-30.57 -39.08,-53.09l-13.27 -5.77c-2.84,27.58 -15.61,28.52 -15.7,28.4 -0.71,-1.1 -2.56,2.13 -3.81,3.23 -5.25,-9.81 -8.25,-27.84 -10.93,-11.37z"/>
   <path class="fil1" d="M4463.29 1520.71l64.48 -10.36 12.9 -160.55c1.73,-24.28 4.09,-48.13 6.63,-73.59 2.98,-29.78 17.93,-45.09 16.78,-66.49 -17.69,25.33 -30.27,27.51 -39.04,62.11 -21.83,86.12 -50.84,45.83 -41.1,160.43 4.9,57.67 -16.51,54.11 -20.65,88.45z"/>
   <path class="fil2" d="M3009.91 899.18c-2.85,-30.62 -33.78,-118.01 5.08,-164.95 -5.58,44.24 -10.75,93.34 0.62,138.08l29.44 79.42c8.52,18.38 1.11,14.53 20.4,15.22 18.22,-40.22 -72.96,-116.27 -18,-236.72 6.14,-13.48 39.33,-59.16 39.68,-62.21 4.76,-41.1 -49.04,28.31 -55.77,37.19 -20.52,27.08 -60.04,55.19 -55.5,125.82 1.67,25.97 5.28,67.02 34.05,68.15z"/>
   <path class="fil1" d="M2446.4 2019.37c62.77,12.62 62.65,8.5 88.94,-29.3 28.73,-41.3 23.51,-44.53 23.22,-104.33 -69.51,-1.55 -64.47,34.15 -101.67,85.54 -15.04,20.79 -14.71,16.36 -10.49,48.09z"/>
   <path class="fil1" d="M4128.93 2615.49c-8.59,-19.26 -150.73,-91.89 -180.73,-98.05 2.83,37.68 16.81,73.59 30.23,103.49 46.92,1.95 104.85,2.2 150.5,-5.44z"/>
   <path class="fil2" d="M3618.75 635.44c-23.28,-25.36 -114.13,-139.81 -137.1,-145.93 9.54,72.94 121.93,206.65 164.17,220.16 -4.39,-28.07 -12.79,-58.69 -27.07,-74.23z"/>
   <path class="fil7" d="M3424.35 865.82l-22.81 3.31c36.43,36.85 128.29,32.39 152.19,65.45 11.32,15.67 10.58,28.59 37.3,40.49 2.52,-64.86 -24.39,-77.56 -53.25,-107.11 -17.33,-17.75 -19.57,-30.58 -46.69,-15.94 -32.04,17.29 -38.69,7.54 -66.74,13.8z"/>
   <path class="fil2" d="M3450.46 1560.87l-15.31 1.74 -8.96 -10.86c-1.67,3.51 8.41,-0.17 -7.59,3.39 -6.36,1.43 -7.13,1.14 -13.57,1.14 -0.51,15.47 -4.54,17.09 -4.59,32.21 -0.53,3.62 47.58,19.61 78.04,-4.96 17.18,7.36 7.75,16.73 29.01,7.24 4.39,-1.97 21.37,-20.5 22.71,-24.19 7.3,-20.06 -4.61,-4.64 -17.47,-20.05 -9.03,-10.81 -5.07,-25.13 -5.37,-40.73 -4.36,-3.35 -13.2,-10.28 -14.64,-11.42l-18.83 2.21c-0.11,16.62 1.57,16.33 -4.15,28.2l-9.59 13.12c-3.94,-9.28 -2.27,0.65 -4.64,-13.77 9.03,3.44 9.36,10.77 3.64,24.34 -5.68,13.45 -0.35,3.05 -8.69,12.39z"/>
   <path class="fil8" d="M3287.96 2257.45c-7.32,-13.22 -8.72,-12.77 -22.31,-20.29 -52.05,-28.78 -26.52,-27.09 -67.07,-24.32 -26.65,1.82 -36.13,-0.22 -56.4,12.51 -6.61,4.15 -35.83,21.22 -28.53,21.29 1.04,13.08 -8.48,12.53 15.74,16.1l158.57 -5.29z"/>
   <path class="fil9" d="M3956.25 2657.83c-80.8,0.57 -120.75,-59.78 -181.15,-61.27 4.99,28.47 53.4,41.83 98.22,61.38 33.48,14.62 78.48,28.89 113.68,40.4 -2.82,-23.07 -26.8,-91.88 -45.58,-98.11l14.83 57.6z"/>
   <path class="fil2" d="M4473.86 978.23c-14.07,-9.66 -15.2,-4.37 -26.78,-19.08 -33.65,-42.74 -10.94,-84.66 -50.17,-86.53 -3.82,44.43 24.98,75.9 47.84,125.42 35.96,7.49 57.9,38.74 72.21,70.27 8.49,18.7 0.74,20.5 21.63,23.56 15.53,-24.89 -9.79,-40.3 -23.42,-63.1 -11.42,-19.13 -27.89,-41.33 -41.31,-50.54z"/>
   <path class="fil10" d="M2811.03 1495.28c-4.03,-19.27 -87.9,-108.39 -13.58,-152.5 -1.6,0.24 -10.85,5.26 -16,2.32 16.5,-18.73 37.83,-18.72 68.3,-18.31 0.53,0.99 0.99,1.53 1.15,3.15 0.17,1.66 0.89,2.52 1.13,3.24l7.31 20.76c9.14,-14.22 4.82,-20.74 13.87,-35.57 12.2,-20 14.62,-9.86 15.11,-44.05 -18.7,8.73 -13.64,13.31 -32.86,21.41 -30.51,12.86 -75.39,16.57 -100.6,59.86 -30.86,52.99 22.24,91.25 34.56,109.68 5.63,8.41 6.1,10.97 10.03,17.73 8.31,14.29 0.07,8.33 11.58,12.28z"/>
   <path class="fil5" d="M4758.87 2001.93c40.85,0 62.83,-1.88 100.55,-10.22 30.51,-6.76 64.24,-8.53 62.48,-43.29 -12.37,1.07 -28.59,11.73 -43.83,16.24 -33.16,9.82 -132.08,12.19 -169.55,14.14 2.68,31.36 6.79,23.13 50.35,23.13z"/>
   <path class="fil2" d="M4348.65 754.5c-13.92,-25.3 -37.18,-75.4 -76.86,-84 2.17,14.27 21.13,37.29 31.77,51.15 12.52,16.28 19.77,28.11 29.97,48.33 11.22,22.25 44.71,88.82 62.36,97.21 5.78,-47.34 -31.11,-83.37 -47.24,-112.69z"/>
   <path class="fil2" d="M3207.71 975.66c15.75,-17.13 7.23,-33.19 -2.58,-45.7 -24.54,-31.26 -40.4,-57.8 -48.11,-97.73 -4,-20.69 3.41,-40.39 -2.6,-87.25 -24.99,7.3 -41.18,81.42 -7.28,123.55 15.07,18.73 41.18,50.99 46.72,77.74 4.21,20.37 -1.92,21.71 13.85,29.39z"/>
   <path class="fil5" d="M3781.37 1883.85c30.43,-19.12 76.99,-71.28 22.04,-104.19 2.86,26.9 5.85,42.88 -12.86,55.78 -8.99,-13.17 -2.61,-9.77 -7.59,-24.37 -5.24,-15.37 -0.66,-7.45 -10.77,-16.31 -9.23,9.47 -25.32,45.38 -28.04,59.97 18.42,12.52 24.07,19.83 37.22,29.12z"/>
   <path class="fil4" d="M3813.26 2593.92c9.96,9.6 15.88,10.03 30.23,15.97 29.92,12.4 70.15,32.91 100.54,36.83 -4.01,-20.3 -9.18,-38.49 -20.4,-53.34 -32.7,-4.65 -82.81,-14.35 -110.37,0.54z"/>
   <path class="fil2" d="M3853.28 469.82c-28.35,-4.86 -56.36,3.07 -84.89,-2.88 -22.76,-4.75 -47.04,-14.05 -74.65,-2.61l0.96 26.7c32.25,4.5 57.68,-4.28 76.52,-3.19 11.87,0.68 38.3,7.86 60.79,5.47l17.9 -3.98 3.37 -19.51z"/>
   <path class="fil5" d="M3957.16 1672.21c-23.82,-52.91 -103.97,-81.25 -116.85,-69.59 -17.95,16.23 27.43,35.38 42.94,44.47 27.84,16.3 33.6,24.72 73.91,25.12z"/>
   <path class="fil11" d="M3045.58 1396.68c-6.77,10.54 -7.81,20.92 -22.18,23.12 -20.51,3.14 -11.83,-0.9 -16.77,-5.56l-10.02 -15.36c-10.26,12.66 -1,14.05 -14.94,12.03 -6.64,-47.52 21.85,-37.74 26.47,-54.48 -44.79,-35.49 -116.24,40.12 -34.72,63.24 26.46,7.5 78.14,16.12 72.16,-22.99z"/>
   <path class="fil2" d="M3285.92 872.19c2.68,-16.47 5.68,1.56 10.93,11.37 1.25,-1.1 3.1,-4.33 3.81,-3.23 0.09,0.12 12.86,-0.82 15.7,-28.4l13.27 5.77 -40.2 -73.66 -0.66 24.49c-1.19,12.15 1.99,0.85 -3.04,9.21 -19.1,-12.47 -10.42,-39.17 -33.74,-51.99 6.4,30.2 12.25,84.09 33.93,106.44z"/>
   <path class="fil5" d="M3041.88 1878.74c-2.67,-2.29 -16.96,-10.94 -19.98,-12.62 -15.07,-8.38 -29.11,-15.99 -47.39,-16.13 0.05,21.18 0.53,39.18 15.97,47.5 15.79,8.5 45.8,5.51 57.91,0.12 0.34,-1.03 0.69,-2.58 0.68,-3.19l-0.82 -8.76c-2.2,-4.7 -2.52,-3.62 -6.37,-6.92z"/>
   <path class="fil2" d="M4644.14 2410.49c27.79,-12.37 47.2,-94.99 43.82,-115.16 -4.52,-26.98 0.06,-5.57 -7.11,-15.35 -10.4,6.17 -4.11,-9.03 -10.97,12.31 -0.45,1.38 -2.33,17.52 -2.95,21.04 -9.3,53.45 -36.21,72.04 -22.79,97.16z"/>
   <path class="fil11" d="M4377.93 2006.24c3.8,2.54 0.27,2.55 9.77,4.28l100 -13.47c24.58,-6.11 22.03,-5.73 28.98,-15.53 -43.97,-25.08 -63.41,-1.56 -73.07,2.85 -21.58,9.86 -46.76,12.05 -65.68,21.87z"/>
   <path class="fil2" d="M3111.34 1737.96l21.52 -17.14 -0.99 -27.08c-2.98,1.12 -3.97,1.5 -4.25,3.23l-5.06 9.29c-8.22,12.48 2.26,5.18 -11.22,9.06 -1.17,-1.87 -13.88,-54.24 -58.7,-57.51 -2.57,26.85 10.26,19.57 23.7,43.63 15.36,27.49 -1.62,4.42 18.45,18.57 11.88,8.36 6.19,9.05 16.55,17.95z"/>
   <path class="fil12" d="M2757.22 1652.2c-0.36,-62.92 -36.87,-30.69 -15.18,-98.62 -5.14,3.65 -6.49,7.98 -9.31,13.42 -2.28,4.43 -2.53,6.03 -4.79,9.66 -3.82,6.12 -3.21,4.76 -6.78,8.54 -5.17,-28.63 -4.93,-26.55 3.53,-51.48 -38.4,23.44 0.86,114.09 32.53,118.48z"/>
   <path class="fil13" d="M3783.85 1926.42c30.1,-5.5 36.88,-24.39 50.23,-46.42 9.64,-15.91 29.75,-45.61 11.53,-65.67 -18.65,10.76 -2.12,33.44 -44.32,83.31 -12.57,14.86 -12.22,7.36 -17.44,28.78z"/>
   <path class="fil2" d="M2932.36 1161.01c22.21,1.07 7.61,6.93 17.92,-9.71 10.19,-16.46 25.41,-40.28 22.08,-57.37 -27.54,-1.67 -20.96,6.2 -34.01,22.93 -9.99,12.81 -21.7,24.24 -5.99,44.15z"/>
   <path class="fil7" d="M2764.97 1615.34c18.33,-6.25 19.23,-20.03 19.11,-49.94 -0.09,-25.46 -9.39,-35.12 -30.11,-40.41l11 90.35z"/>
   <path class="fil14" d="M3042.12 1934.22c8.73,18.01 -1.16,14.21 23.33,13.73 13.12,-25.22 -2.08,-30.72 -16.88,-28.85 -16.65,2.12 8.05,1.89 -15.48,3.44 -17.37,1.14 -15,-3.39 -35.19,2.78l0.99 18.95c24.06,8 14.67,7.34 25.25,-5.17 1.7,1.77 8.97,7.94 10.65,8.78l7.33 -13.66z"/>
   <path class="fil15" d="M2983.9 1913.48c-13.02,-1.63 -11.64,0.1 -21.25,0.38 -18.18,0.53 -1.91,1.31 -20.1,-3.21 -0.35,31.2 -3.39,23.04 13.68,32.74 5.56,3.16 -0.65,-2.15 5.84,4.94 7.19,7.83 -2.93,1.37 5.95,8.16 12.1,9.27 2.98,4.95 20.19,3.85l-4.31 -46.86z"/>
   <path class="fil2" d="M4547.77 2483.84c28.97,-10.63 38.63,-57.68 41.94,-93.82l-30.83 45.04c-9.46,16.63 -20.09,30.21 -11.11,48.78z"/>
   <path class="fil16" d="M3957.15 2028.14c23.29,-8.77 75.18,-47.98 58.27,-80.26 -16.06,6.49 -20.93,28.04 -30,42.15 -7.85,12.21 -21.25,24.38 -28.27,38.11z"/>
   <path class="fil17" d="M3378.43 1497.89c14.12,5.56 29.43,0.38 30.91,22.37 1.28,18.94 -15.43,19.31 -31.83,16.44l-13.84 -18.39c-6.33,36.32 35.46,32.75 58.9,27.84l3.79 -26.58c-12.29,-19.26 -23.92,-24.79 -47.93,-21.68z"/>
   <path class="fil18" d="M2800.86 1437.53c-5.9,-25.55 -11.18,-26.19 -5.12,-55.77 11.33,-7.23 14.41,-10.97 34.28,-11.35 7.78,25.71 -7.52,20.17 15.14,28.96 0.15,-0.24 18.18,3.88 2.45,-19.11 -0.13,-0.18 -32.64,-25.11 -52.44,-11.76 -12.55,8.45 -24.87,47.14 5.69,69.03z"/>
   <path class="fil7" d="M4488.89 1698.23l30.04 0.74c-0.71,-17.47 -2.03,-28.01 -12.46,-39.63 -14.99,9.18 -19.43,13.05 -17.58,38.89z"/>
   <path class="fil6" d="M4540.42 2003.14c10.06,26.55 0.69,26.88 36.69,29.32 -1.31,-32 -2.66,-29.17 -36.69,-29.32z"/>
   <path class="fil8" d="M3426.19 1551.75l8.96 10.86 15.31 -1.74 0.82 -23.06c-12.94,0.22 -4.93,-3.25 -15.59,3.05l-7.22 7.92c-0.41,-0.81 -1.42,2.07 -2.28,2.97z"/>
   <path class="fil19" d="M696.79 2945.07c19.19,0 38.24,1.69 57.15,5.08 18.91,3.39 34.01,7.9 45.29,13.55 10.16,5.08 16.94,11 20.32,17.78 3.39,6.77 5.08,15.8 5.08,27.09l0 62.65c-16.93,-1.12 -33.72,-2.11 -50.37,-2.96 -16.65,-0.85 -34.86,-1.27 -54.61,-1.27 -19.19,0 -34.86,2.68 -46.99,8.04 -12.14,5.37 -21.73,14.68 -28.79,27.94 -7.05,13.27 -11.85,31.47 -14.39,54.62 -2.54,23.14 -3.81,52.49 -3.81,88.05 0,36.69 1.41,66.89 4.23,90.59 2.82,23.71 7.62,42.62 14.39,56.73 6.78,14.11 15.67,23.99 26.67,29.63 11.01,5.65 24.42,8.47 40.22,8.47 18.63,0 35.7,-0.56 51.22,-1.69 15.53,-1.13 28.09,-1.7 37.68,-1.7 20.32,0 30.48,10.16 30.48,30.48l0 69.43c-19.19,7.9 -40.22,14.25 -63.08,19.05 -22.86,4.8 -51.5,7.2 -85.93,7.2 -31.61,0 -60.12,-4.66 -85.52,-13.97 -25.4,-9.32 -47.13,-25.54 -65.19,-48.69 -18.06,-23.14 -31.89,-54.18 -41.49,-93.13 -9.59,-38.95 -14.39,-88.34 -14.39,-148.17 0,-57.57 4.09,-105.83 12.28,-144.78 8.18,-38.95 21.16,-70.27 38.94,-93.98 17.78,-23.71 40.78,-40.64 69.01,-50.8 28.22,-10.16 62.09,-15.24 101.6,-15.24z"/>
   <path id="1" class="fil19" d="M1075.24 3553.83c-34.43,0 -63.92,-4.38 -88.47,-13.13 -24.56,-8.75 -44.59,-22.43 -60.12,-41.06 -15.52,-18.63 -26.81,-42.47 -33.86,-71.54 -7.06,-29.07 -10.59,-63.93 -10.59,-104.57 0,-41.2 3.53,-76.34 10.59,-105.41 7.05,-29.07 18.34,-52.91 33.86,-71.54 15.53,-18.63 35.56,-32.18 60.12,-40.64 24.55,-8.47 54.04,-12.7 88.47,-12.7 34.44,0 63.93,4.23 88.48,12.7 24.55,8.46 44.59,22.01 60.11,40.64 15.53,18.63 26.82,42.47 33.87,71.54 7.06,29.07 10.58,64.21 10.58,105.41 0,40.64 -3.52,75.5 -10.58,104.57 -7.05,29.07 -18.34,52.91 -33.87,71.54 -15.52,18.63 -35.56,32.31 -60.11,41.06 -24.55,8.75 -54.04,13.13 -88.48,13.13zm49.96 -230.3c0,-27.09 -0.71,-48.68 -2.12,-64.77 -1.41,-16.08 -4.09,-28.5 -8.04,-37.25 -3.95,-8.75 -9.03,-14.54 -15.24,-17.36 -6.21,-2.82 -14.4,-4.23 -24.56,-4.23 -10.16,0 -18.34,1.41 -24.55,4.23 -6.21,2.82 -11.29,8.61 -15.24,17.36 -3.95,8.75 -6.63,21.17 -8.04,37.25 -1.41,16.09 -2.12,37.68 -2.12,64.77 0,27.66 0.71,49.67 2.12,66.04 1.41,16.37 4.09,28.93 8.04,37.68 3.95,8.75 9.03,14.53 15.24,17.36 6.21,2.82 14.39,4.23 24.55,4.23 10.16,0 18.35,-1.41 24.56,-4.23 6.21,-2.83 11.29,-8.61 15.24,-17.36 3.95,-8.75 6.63,-21.31 8.04,-37.68 1.41,-16.37 2.12,-38.38 2.12,-66.04z"/>
   <path id="2" class="fil19" d="M1323.32 3103.4l297.18 0c20.89,0 31.33,9.88 31.33,29.63l0 74.51c-31.05,35.56 -61.1,71.97 -90.17,109.22 -29.07,37.25 -58.85,76.2 -89.33,116.84l152.4 0c20.89,0 31.33,9.88 31.33,29.63l0 79.59 -302.26 0c-20.88,0 -31.33,-9.88 -31.33,-29.63l0 -70.28c26.53,-42.33 55.6,-82.97 87.21,-121.92 31.61,-38.94 61.81,-75.07 90.59,-108.37l-145.62 0c-20.89,0 -31.33,-9.88 -31.33,-29.63l0 -79.59z"/>
   <path id="3" class="fil19" d="M1868.57 3542.82l-110.07 0c-20.88,0 -31.32,-9.88 -31.32,-29.63l0 -409.79 110.06 0c20.89,0 31.33,9.88 31.33,29.63l0 409.79zm-71.12 -482.6c-28.79,0 -49.25,-4.94 -61.38,-14.82 -12.14,-9.88 -18.21,-26.39 -18.21,-49.53 0,-23.14 6.07,-39.65 18.21,-49.53 12.13,-9.88 32.59,-14.82 61.38,-14.82 28.79,0 49.25,4.94 61.38,14.82 12.14,9.88 18.21,26.39 18.21,49.53 0,23.14 -6.07,39.65 -18.21,49.53 -12.13,9.88 -32.59,14.82 -61.38,14.82z"/>
   <path id="4" class="fil19" d="M2097.17 3542.82l-110.06 0c-20.89,0 -31.33,-9.88 -31.33,-29.63l0 -409.79 81.28 0c12.98,0 21.87,2.11 26.67,6.35 4.8,4.23 9.46,13.4 13.97,27.52l5.08 15.24c19.76,-21.45 39.09,-36.69 58,-45.73 18.91,-9.03 41.06,-13.54 66.46,-13.54 80.15,0 120.23,49.67 120.23,149.01l0 300.57 -110.07 0c-20.88,0 -31.33,-9.88 -31.33,-29.63l0 -256.54c0,-14.68 -2.82,-25.55 -8.46,-32.6 -5.65,-7.06 -16.09,-10.58 -31.33,-10.58 -8.47,0 -17.21,1.41 -26.25,4.23 -9.03,2.82 -16.65,7.05 -22.86,12.7l0 312.42z"/>
   <path id="5" class="fil19" d="M2675.45 3542.82c-20.88,0 -31.33,-9.88 -31.33,-29.63l0 -256.54c0,-14.68 -2.82,-25.55 -8.46,-32.6 -5.65,-7.06 -16.09,-10.58 -31.33,-10.58 -8.47,0 -17.21,1.41 -26.25,4.23 -9.03,2.82 -16.65,7.05 -22.86,12.7l0 312.42 -110.06 0c-20.89,0 -31.33,-9.88 -31.33,-29.63l0 -578.28 110.07 0c20.88,0 31.32,9.88 31.32,29.63l0 178.65c30.48,-33.3 66.89,-49.95 109.22,-49.95 80.72,0 121.08,49.67 121.08,149.01l0 300.57 -110.07 0z"/>
   <path id="6" class="fil19" d="M2986.18 3547.9c-40.64,0 -71.83,-12.14 -93.56,-36.41 -21.73,-24.27 -32.59,-58.7 -32.59,-103.29 0,-30.48 4.94,-54.89 14.81,-73.24 9.88,-18.34 23,-32.17 39.37,-41.48 16.37,-9.32 35,-15.39 55.88,-18.21 20.89,-2.82 42.62,-4.23 65.2,-4.23l51.64 0 0 -25.4c0,-18.06 -6.2,-29.21 -18.62,-33.44 -12.42,-4.24 -31.61,-6.35 -57.58,-6.35 -23.14,0 -43.88,0.56 -62.23,1.69 -18.34,1.13 -30.05,1.69 -35.13,1.69 -10.73,0 -18.35,-2.82 -22.86,-8.46 -4.52,-5.65 -6.78,-12.14 -6.78,-19.48l0 -59.26c15.81,-6.78 36.97,-13.27 63.5,-19.48 26.53,-6.21 57.01,-9.31 91.44,-9.31 66.04,0 113.46,13.83 142.24,41.49 28.79,27.65 43.18,67.16 43.18,118.53l0 289.56 -81.28 0c-6.2,0 -11.43,-0.42 -15.66,-1.27 -4.23,-0.85 -7.76,-2.54 -10.58,-5.08 -2.82,-2.54 -5.36,-6.07 -7.62,-10.58 -2.26,-4.52 -4.52,-10.16 -6.78,-16.94l-5.08 -13.54c-11.28,12.41 -25.96,24.27 -44.02,35.56 -18.06,11.29 -40.36,16.93 -66.89,16.93zm99.91 -194.73l-54.19 0c-18.63,0 -31.75,4.09 -39.37,12.27 -7.62,8.19 -11.43,19.62 -11.43,34.29 0,17.5 4.23,29.5 12.7,35.99 8.47,6.49 20.6,9.73 36.41,9.73 22.58,0 41.2,-5.64 55.88,-16.93l0 -75.35z"/>
   <path id="7" class="fil19" d="M3600.02 3549.59c-20.32,0 -38.94,-3.81 -55.88,-11.43 -16.93,-7.62 -31.32,-20.18 -43.18,-37.67 -11.85,-17.5 -21.16,-40.64 -27.94,-69.43 -6.77,-28.79 -10.16,-64.07 -10.16,-105.83 0,-80.16 13.13,-138.15 39.37,-173.99 26.25,-35.85 67.31,-53.77 123.19,-53.77 18.07,0 33.02,1.41 44.88,4.23 11.85,2.83 21.16,5.65 27.94,8.47l0 -175.26 110.06 0c20.89,0 31.33,9.88 31.33,29.63l0 578.28 -81.28 0c-12.98,0 -21.87,-2.12 -26.67,-6.35 -4.8,-4.23 -9.45,-13.41 -13.97,-27.52l-5.08 -14.39c-12.98,14.68 -28.64,27.52 -46.99,38.52 -18.34,11.01 -40.22,16.51 -65.62,16.51zm98.22 -347.98c-5.65,-1.13 -11.57,-1.97 -17.78,-2.54 -6.21,-0.56 -11.57,-0.84 -16.09,-0.84 -13.55,0 -24.13,2.25 -31.75,6.77 -7.62,4.51 -13.4,11.43 -17.36,20.74 -3.95,9.32 -6.49,21.17 -7.62,35.56 -1.12,14.4 -1.69,31.47 -1.69,51.23 0,24.27 0.57,44.3 1.69,60.11 1.13,15.8 3.39,28.36 6.78,37.68 3.38,9.31 8.18,15.94 14.39,19.89 6.21,3.95 14.39,5.93 24.55,5.93 9.6,0 18.07,-1.41 25.4,-4.23 7.34,-2.83 13.83,-6.21 19.48,-10.16l0 -220.14z"/>
   <path id="8" class="fil19" d="M4267.2 3525.89c-14.68,6.21 -34.86,12.41 -60.54,18.62 -25.68,6.21 -57.43,9.32 -95.25,9.32 -33.3,0 -62.09,-4.24 -86.36,-12.7 -24.27,-8.47 -44.45,-22.02 -60.54,-40.64 -16.08,-18.63 -27.94,-42.48 -35.56,-71.55 -7.62,-29.07 -11.43,-64.2 -11.43,-105.41 0,-81.84 15.38,-140.69 46.15,-176.53 30.76,-35.84 78.88,-53.76 144.35,-53.76 34.44,0 62.52,4.8 84.25,14.39 21.73,9.6 38.8,22.72 51.22,39.37 12.42,16.65 20.89,36.41 25.4,59.27 4.52,22.86 6.77,47.55 6.77,74.08 0,5.65 -0.28,12.7 -0.84,21.17 -0.57,8.47 -1.55,16.93 -2.97,25.4 -1.41,8.47 -2.96,16.51 -4.65,24.13 -1.7,7.62 -3.39,13.4 -5.08,17.36l-213.36 0c0,28.78 6.91,48.82 20.74,60.11 13.83,11.29 35.7,16.93 65.62,16.93 27.66,0 48.68,-0.42 63.07,-1.27 14.4,-0.84 26.96,-1.27 37.68,-1.27 11.29,0 19.33,2.68 24.13,8.05 4.8,5.36 7.2,12.84 7.2,22.43l0 52.5zm-111.76 -239.61c0,-35 -3.53,-59.13 -10.59,-72.39 -7.05,-13.27 -19.89,-19.9 -38.52,-19.9 -22.58,0 -37.68,7.06 -45.3,21.17 -7.62,14.11 -11.71,37.82 -12.27,71.12l106.68 0z"/>
   <path id="9" class="fil19" d="M4943.69 3542.82l-116 0c-8.46,0 -15.38,-3.1 -20.74,-9.31 -5.36,-6.21 -9.45,-13.27 -12.28,-21.17 -11.28,-28.79 -22.86,-58 -34.71,-87.63 -11.85,-29.63 -23.85,-58.56 -35.98,-86.78 -12.14,-28.23 -23.99,-55.32 -35.56,-81.28 -11.57,-25.97 -22.72,-49.11 -33.45,-69.43l0 355.6 -103.29 0c-20.88,0 -31.33,-9.88 -31.33,-29.63l0 -557.11 110.92 0c8.46,0 15.8,3.1 22.01,9.31 6.21,6.21 11.29,13.27 15.24,21.17 9.6,19.75 20.46,42.05 32.6,66.88 12.13,24.84 24.41,50.8 36.83,77.9 12.42,27.09 24.83,54.61 37.25,82.55 12.42,27.94 23.71,54.89 33.87,80.86l0 -338.67 103.29 0c20.89,0 31.33,9.88 31.33,29.63l0 557.11z"/>
   <path id="10" class="fil19" d="M5267.11 3103.4l110.07 0c20.89,0 31.33,9.88 31.33,29.63l0 409.79 -81.28 0c-12.98,0 -21.87,-2.12 -26.67,-6.35 -4.8,-4.23 -9.46,-13.41 -13.97,-27.52l-5.08 -15.24c-19.76,21.45 -39.09,36.69 -58,45.72 -18.91,9.03 -41.06,13.55 -66.46,13.55 -80.15,0 -120.23,-49.67 -120.23,-149.01l0 -300.57 110.07 0c20.88,0 31.32,9.88 31.32,29.63l0 256.54c0,14.68 2.83,25.54 8.47,32.6 5.65,7.06 16.09,10.58 31.33,10.58 8.46,0 17.21,-1.41 26.24,-4.23 9.04,-2.82 16.66,-7.06 22.86,-12.7l0 -312.42z"/>
   <path id="11" class="fil19" d="M5755.64 3537.74c-16.93,5.08 -32.31,8.75 -46.14,11.01 -13.83,2.25 -28.93,3.38 -45.3,3.38 -22.57,0 -42.75,-2.25 -60.53,-6.77 -17.78,-4.52 -33.02,-12.56 -45.72,-24.13 -12.7,-11.57 -22.44,-27.09 -29.21,-46.57 -6.78,-19.47 -10.16,-44.16 -10.16,-74.08l0 -187.96 -16.94 0c-20.88,0 -31.32,-9.88 -31.32,-29.63l0 -79.59 53.34 0 6.77 -106.68 98.21 0c20.89,0 31.33,9.88 31.33,29.63l0 77.05 64.35 0c20.88,0 31.32,9.88 31.32,29.63l0 79.59 -95.67 0 0 185.42c0,29.92 13.27,44.87 39.79,44.87l24.56 0c20.88,0 31.32,9.88 31.32,29.64l0 65.19z"/>
   <path id="12" class="fil19" d="M6052.82 3100.86c22.01,0 33.02,9.88 33.02,29.63l0 97.37c-3.95,-0.57 -7.62,-0.85 -11.01,-0.85 -3.38,0 -7.33,0 -11.85,0 -18.06,0 -35.98,1.41 -53.76,4.24 -17.78,2.82 -32.32,9.03 -43.61,18.62l0 292.95 -110.06 0c-20.89,0 -31.33,-9.88 -31.33,-29.63l0 -409.79 81.28 0c12.42,0 21.17,2.11 26.25,6.35 5.08,4.23 9.88,13.4 14.39,27.52l6.77 22.86c11.86,-18.63 26.53,-33.17 44.03,-43.61 17.5,-10.44 36.13,-15.66 55.88,-15.66z"/>
   <path id="13" class="fil19" d="M6289.89 3542.82l-110.07 0c-20.88,0 -31.32,-9.88 -31.32,-29.63l0 -409.79 110.06 0c20.89,0 31.33,9.88 31.33,29.63l0 409.79zm-71.12 -482.6c-28.79,0 -49.25,-4.94 -61.38,-14.82 -12.14,-9.88 -18.21,-26.39 -18.21,-49.53 0,-23.14 6.07,-39.65 18.21,-49.53 12.13,-9.88 32.59,-14.82 61.38,-14.82 28.79,0 49.25,4.94 61.38,14.82 12.14,9.88 18.21,26.39 18.21,49.53 0,23.14 -6.07,39.65 -18.21,49.53 -12.13,9.88 -32.59,14.82 -61.38,14.82z"/>
   <path class="fil20" d="M1689.47 3847.98l47.17 14.48c-7.25,26.56 -19.32,46.27 -36.17,59.19 -16.84,12.86 -38.18,19.31 -64.06,19.31 -32.07,0 -58.4,-10.95 -79.07,-32.85 -20.6,-21.89 -30.94,-51.82 -30.94,-89.84 0,-40.15 10.39,-71.37 31.11,-93.6 20.72,-22.24 48.01,-33.36 81.82,-33.36 29.53,0 53.51,8.76 71.93,26.23 11,10.33 19.2,25.15 24.7,44.52l-48.18 11.46c-2.86,-12.47 -8.81,-22.35 -17.85,-29.59 -9.1,-7.25 -20.1,-10.84 -33.02,-10.84 -17.91,0 -32.45,6.4 -43.57,19.26 -11.18,12.8 -16.74,33.58 -16.74,62.33 0,30.43 5.51,52.16 16.46,65.08 11,12.97 25.27,19.43 42.84,19.43 12.97,0 24.15,-4.1 33.47,-12.36 9.32,-8.25 16.06,-21.17 20.1,-38.85z"/>
   <path id="1" class="fil20" d="M1768.37 3817.77c0,-24.6 3.7,-45.26 11.06,-62 5.45,-12.29 12.97,-23.35 22.46,-33.12 9.49,-9.78 19.88,-17.02 31.16,-21.79 15.05,-6.35 32.4,-9.55 52.06,-9.55 35.6,0 64.01,11.06 85.4,33.13 21.34,22.13 32.01,52.84 32.01,92.2 0,39.03 -10.61,69.58 -31.78,91.59 -21.17,22.06 -49.53,33.07 -84.96,33.07 -35.88,0 -64.46,-10.95 -85.63,-32.91 -21.17,-21.89 -31.78,-52.1 -31.78,-90.62zm50.2 -1.63c0,27.34 6.34,48.06 18.98,62.21 12.63,14.1 28.69,21.17 48.12,21.17 19.48,0 35.43,-7.02 47.95,-21 12.47,-14.04 18.7,-35.04 18.7,-63.06 0,-27.68 -6.06,-48.34 -18.25,-61.93 -12.13,-13.65 -28.24,-20.44 -48.4,-20.44 -20.1,0 -36.33,6.91 -48.63,20.66 -12.3,13.82 -18.47,34.59 -18.47,62.39z"/>
   <polygon id="2" class="fil20" points="2039.86,3936.92 2039.86,3695.69 2113.03,3695.69 2156.26,3860.22 2198.99,3695.69 2272.33,3695.69 2272.33,3936.92 2227.18,3936.92 2227.01,3747.02 2179.45,3936.92 2132.51,3936.92 2085.18,3747.02 2085.01,3936.92 "/>
   <polygon id="3" class="fil20" points="2319.5,3936.92 2319.5,3695.69 2368.35,3695.69 2368.35,3936.92 "/>
   <path id="4" class="fil20" d="M2414.78 3695.69l88.84 0c20.04,0 35.32,1.52 45.82,4.61 14.09,4.15 26.22,11.56 36.27,22.23 10.11,10.62 17.74,23.64 23.02,39.08 5.22,15.39 7.86,34.43 7.86,57 0,19.88 -2.47,36.95 -7.41,51.32 -6.01,17.58 -14.6,31.78 -25.77,42.62 -8.42,8.25 -19.82,14.66 -34.14,19.26 -10.73,3.43 -25.05,5.11 -43.01,5.11l-91.48 0 0 -241.23zm48.86 40.77l0 159.69 36.21 0c13.54,0 23.31,-0.78 29.32,-2.3 7.91,-1.96 14.43,-5.33 19.59,-10.05 5.22,-4.72 9.44,-12.47 12.69,-23.25 3.32,-10.78 4.94,-25.55 4.94,-44.19 0,-18.64 -1.62,-32.9 -4.94,-42.9 -3.25,-9.99 -7.86,-17.74 -13.75,-23.36 -5.9,-5.56 -13.37,-9.37 -22.47,-11.34 -6.73,-1.52 -20.04,-2.3 -39.81,-2.3l-21.78 0z"/>
   <path id="5" class="fil20" d="M2875.4 3936.92l-52.61 0 -20.83 -54.92 -96.75 0 -20.05 54.92 -51.66 0 93.66 -241.23 51.6 0 96.64 241.23zm-89.28 -95.68l-33.52 -89.28 -32.57 89.28 66.09 0z"/>
   <path id="6" class="fil20" d="M2982.47 3695.69l88.84 0c20.04,0 35.32,1.52 45.82,4.61 14.09,4.15 26.22,11.56 36.27,22.23 10.11,10.62 17.74,23.64 23.02,39.08 5.22,15.39 7.86,34.43 7.86,57 0,19.88 -2.47,36.95 -7.41,51.32 -6.01,17.58 -14.6,31.78 -25.77,42.62 -8.42,8.25 -19.82,14.66 -34.14,19.26 -10.73,3.43 -25.05,5.11 -43.01,5.11l-91.48 0 0 -241.23zm48.86 40.77l0 159.69 36.21 0c13.54,0 23.31,-0.78 29.32,-2.3 7.91,-1.96 14.43,-5.33 19.59,-10.05 5.22,-4.72 9.44,-12.47 12.69,-23.25 3.32,-10.78 4.94,-25.55 4.94,-44.19 0,-18.64 -1.62,-32.9 -4.94,-42.9 -3.25,-9.99 -7.86,-17.74 -13.75,-23.36 -5.9,-5.56 -13.37,-9.37 -22.47,-11.34 -6.73,-1.52 -20.04,-2.3 -39.81,-2.3l-21.78 0z"/>
   <polygon id="7" class="fil20" points="3225.78,3936.92 3225.78,3695.69 3404.35,3695.69 3404.35,3736.46 3274.64,3736.46 3274.64,3790.03 3395.25,3790.03 3395.25,3830.79 3274.64,3830.79 3274.64,3896.15 3409.06,3896.15 3409.06,3936.92 "/>
   <polygon id="8" class="fil20" points="3605.82,3936.92 3519.51,3695.69 3572.29,3695.69 3633.55,3874.25 3692.34,3695.69 3744.23,3695.69 3658.43,3936.92 "/>
   <polygon id="9" class="fil20" points="3768.82,3936.92 3768.82,3695.69 3947.39,3695.69 3947.39,3736.46 3817.68,3736.46 3817.68,3790.03 3938.29,3790.03 3938.29,3830.79 3817.68,3830.79 3817.68,3896.15 3952.1,3896.15 3952.1,3936.92 "/>
   <path id="10" class="fil20" d="M3993.54 3936.92l0 -241.23 102.59 0c25.78,0 44.53,2.19 56.21,6.52 11.74,4.32 21.06,12.01 28.08,23.07 7.02,11.12 10.55,23.76 10.55,38.02 0,18.14 -5.27,33.07 -15.89,44.86 -10.61,11.8 -26.44,19.21 -47.56,22.3 10.5,6.12 19.15,12.86 25.94,20.21 6.85,7.36 16.06,20.44 27.63,39.19l29.42 47.06 -58.22 0 -34.93 -52.67c-12.52,-18.7 -21.11,-30.49 -25.77,-35.38 -4.61,-4.82 -9.49,-8.19 -14.66,-9.99 -5.22,-1.8 -13.42,-2.7 -24.65,-2.7l-9.88 0 0 100.74 -48.86 0zm48.86 -139.14l36.05 0c23.35,0 37.9,-1.01 43.74,-2.98 5.78,-1.97 10.39,-5.39 13.64,-10.22 3.32,-4.83 4.94,-10.89 4.94,-18.14 0,-8.14 -2.19,-14.65 -6.51,-19.71 -4.32,-4.99 -10.44,-8.14 -18.3,-9.43 -3.99,-0.56 -15.84,-0.84 -35.55,-0.84l-38.01 0 0 61.32z"/>
   <path id="11" class="fil20" d="M4236.85 3695.69l88.84 0c20.04,0 35.32,1.52 45.82,4.61 14.09,4.15 26.22,11.56 36.27,22.23 10.11,10.62 17.74,23.64 23.02,39.08 5.22,15.39 7.86,34.43 7.86,57 0,19.88 -2.47,36.95 -7.41,51.32 -6.01,17.58 -14.6,31.78 -25.77,42.62 -8.42,8.25 -19.82,14.66 -34.14,19.26 -10.73,3.43 -25.05,5.11 -43.01,5.11l-91.48 0 0 -241.23zm48.86 40.77l0 159.69 36.21 0c13.54,0 23.31,-0.78 29.32,-2.3 7.91,-1.96 14.43,-5.33 19.59,-10.05 5.22,-4.72 9.44,-12.47 12.69,-23.25 3.32,-10.78 4.94,-25.55 4.94,-44.19 0,-18.64 -1.62,-32.9 -4.94,-42.9 -3.25,-9.99 -7.86,-17.74 -13.75,-23.36 -5.9,-5.56 -13.37,-9.37 -22.47,-11.34 -6.73,-1.52 -20.04,-2.3 -39.81,-2.3l-21.78 0z"/>
   <path id="12" class="fil20" d="M4697.47 3936.92l-52.61 0 -20.83 -54.92 -96.75 0 -20.05 54.92 -51.66 0 93.66 -241.23 51.6 0 96.64 241.23zm-89.28 -95.68l-33.52 -89.28 -32.57 89.28 66.09 0z"/>
   <path id="13" class="fil20" d="M4723.47 3695.69l88.84 0c20.04,0 35.32,1.52 45.82,4.61 14.09,4.15 26.22,11.56 36.27,22.23 10.11,10.62 17.74,23.64 23.02,39.08 5.22,15.39 7.86,34.43 7.86,57 0,19.88 -2.47,36.95 -7.41,51.32 -6.01,17.58 -14.6,31.78 -25.77,42.62 -8.42,8.25 -19.82,14.66 -34.14,19.26 -10.73,3.43 -25.05,5.11 -43.01,5.11l-91.48 0 0 -241.23zm48.86 40.77l0 159.69 36.21 0c13.54,0 23.31,-0.78 29.32,-2.3 7.91,-1.96 14.43,-5.33 19.59,-10.05 5.22,-4.72 9.44,-12.47 12.69,-23.25 3.32,-10.78 4.94,-25.55 4.94,-44.19 0,-18.64 -1.62,-32.9 -4.94,-42.9 -3.25,-9.99 -7.86,-17.74 -13.75,-23.36 -5.9,-5.56 -13.37,-9.37 -22.47,-11.34 -6.73,-1.52 -20.04,-2.3 -39.81,-2.3l-21.78 0z"/>
   <polygon id="14" class="fil20" points="4966.78,3936.92 4966.78,3695.69 5145.35,3695.69 5145.35,3736.46 5015.64,3736.46 5015.64,3790.03 5136.25,3790.03 5136.25,3830.79 5015.64,3830.79 5015.64,3896.15 5150.06,3896.15 5150.06,3936.92 "/>
   <path id="15" class="fil20" d="M5209.02 3874.93l-11.96 -122.58 0 -56.66 49.87 0 0 56.66 -11.8 122.58 -26.11 0zm-9.94 61.99l0 -46.16 46.16 0 0 46.16 -46.16 0z"/>
  </g>
 </g>
</svg>
