<?xml version="1.0" encoding="UTF-8"?>
<!DOCTYPE svg PUBLIC "-//W3C//DTD SVG 1.1//EN" "http://www.w3.org/Graphics/SVG/1.1/DTD/svg11.dtd">
<!-- Creator: CorelDRAW 2018 (64 Bit Versão de avaliação) -->
<svg xmlns="http://www.w3.org/2000/svg" xml:space="preserve" width="40.6398mm" height="10.1598mm" version="1.1" style="shape-rendering:geometricPrecision; text-rendering:geometricPrecision; image-rendering:optimizeQuality; fill-rule:evenodd; clip-rule:evenodd"
viewBox="0 0 4063.98 1015.98"
 xmlns:xlink="http://www.w3.org/1999/xlink">
 <defs>
  <style type="text/css">
   <![CDATA[
    .fil0 {fill:none}
    .fil4 {fill:#97266D}
    .fil20 {fill:#CBCBCB}
    .fil19 {fill:#D2D2D2}
    .fil17 {fill:#DFDFDF}
    .fil18 {fill:#E7E7E7}
    .fil14 {fill:#EBEBEB}
    .fil10 {fill:#F0F0F0}
    .fil12 {fill:#F1F1F1}
    .fil15 {fill:#F3F3F3}
    .fil13 {fill:#F4F4F4}
    .fil16 {fill:whitesmoke}
    .fil9 {fill:#F6F6F6}
    .fil11 {fill:#F7F7F7}
    .fil7 {fill:#F9F9F9}
    .fil8 {fill:#FAFAFA}
    .fil6 {fill:#FBFBFB}
    .fil3 {fill:#FDFDFD}
    .fil5 {fill:#FEFEFE}
    .fil1 {fill:black;fill-rule:nonzero}
    .fil2 {fill:#97266D;fill-rule:nonzero}
   ]]>
  </style>
 </defs>
 <g id="Camada_x0020_1">
  <metadata id="CorelCorpID_0Corel-Layer"/>
  <rect class="fil0" x="-0.01" y="-0" width="4063.99" height="1015.99"/>
  <g id="_2012677165184">
   <path class="fil1" d="M1429.57 246.08c8.74,0 17.41,0.78 26.01,2.32 8.61,1.54 15.48,3.59 20.62,6.16 4.63,2.32 7.71,5.01 9.25,8.1 1.54,3.08 2.31,7.19 2.31,12.33l0 28.52c-7.7,-0.52 -15.35,-0.97 -22.93,-1.35 -7.58,-0.39 -15.86,-0.58 -24.85,-0.58 -8.74,0 -15.87,1.22 -21.39,3.66 -5.53,2.44 -9.89,6.68 -13.11,12.72 -3.21,6.04 -5.39,14.32 -6.55,24.86 -1.15,10.53 -1.73,23.89 -1.73,40.08 0,16.7 0.64,30.44 1.93,41.23 1.28,10.8 3.46,19.4 6.55,25.83 3.08,6.42 7.13,10.92 12.14,13.48 5.01,2.57 11.11,3.86 18.3,3.86 8.48,0 16.25,-0.26 23.32,-0.77 7.06,-0.52 12.78,-0.77 17.15,-0.77 9.25,0 13.87,4.62 13.87,13.87l0 31.6c-8.73,3.6 -18.3,6.49 -28.71,8.67 -10.4,2.19 -23.44,3.28 -39.12,3.28 -14.38,0 -27.36,-2.12 -38.92,-6.36 -11.56,-4.24 -21.45,-11.62 -29.68,-22.16 -8.22,-10.53 -14.51,-24.66 -18.88,-42.39 -4.37,-17.73 -6.55,-40.21 -6.55,-67.44 0,-26.21 1.86,-48.18 5.59,-65.91 3.72,-17.72 9.63,-31.98 17.72,-42.77 8.1,-10.8 18.57,-18.5 31.41,-23.13 12.85,-4.62 28.27,-6.94 46.25,-6.94z"/>
   <path id="1" class="fil1" d="M1601.84 523.18c-15.67,0 -29.1,-1.99 -40.27,-5.97 -11.18,-3.99 -20.3,-10.22 -27.37,-18.69 -7.06,-8.48 -12.2,-19.34 -15.41,-32.57 -3.21,-13.23 -4.82,-29.1 -4.82,-47.6 0,-18.75 1.61,-34.75 4.82,-47.98 3.21,-13.23 8.35,-24.08 15.41,-32.56 7.07,-8.48 16.19,-14.65 27.37,-18.5 11.17,-3.86 24.6,-5.78 40.27,-5.78 15.67,0 29.1,1.92 40.27,5.78 11.18,3.85 20.3,10.02 27.37,18.5 7.06,8.48 12.2,19.33 15.41,32.56 3.21,13.23 4.82,29.23 4.82,47.98 0,18.5 -1.61,34.37 -4.82,47.6 -3.21,13.23 -8.35,24.09 -15.41,32.57 -7.07,8.47 -16.19,14.7 -27.37,18.69 -11.17,3.98 -24.6,5.97 -40.27,5.97zm22.74 -104.83c0,-12.33 -0.32,-22.16 -0.97,-29.48 -0.64,-7.32 -1.86,-12.97 -3.66,-16.96 -1.8,-3.98 -4.11,-6.61 -6.93,-7.9 -2.83,-1.28 -6.56,-1.92 -11.18,-1.92 -4.62,0 -8.35,0.64 -11.18,1.92 -2.82,1.29 -5.13,3.92 -6.93,7.9 -1.8,3.99 -3.02,9.64 -3.66,16.96 -0.65,7.32 -0.97,17.15 -0.97,29.48 0,12.59 0.32,22.61 0.97,30.06 0.64,7.46 1.86,13.17 3.66,17.15 1.8,3.99 4.11,6.62 6.93,7.9 2.83,1.29 6.56,1.93 11.18,1.93 4.62,0 8.35,-0.64 11.18,-1.93 2.82,-1.28 5.13,-3.91 6.93,-7.9 1.8,-3.98 3.02,-9.69 3.66,-17.15 0.65,-7.45 0.97,-17.47 0.97,-30.06z"/>
   <path id="2" class="fil1" d="M1714.76 318.15l135.27 0c9.51,0 14.26,4.5 14.26,13.49l0 33.92c-14.13,16.18 -27.81,32.75 -41.04,49.71 -13.24,16.96 -26.79,34.69 -40.66,53.18l69.37 0c9.5,0 14.26,4.5 14.26,13.49l0 36.23 -137.59 0c-9.5,0 -14.26,-4.5 -14.26,-13.49l0 -31.99c12.08,-19.27 25.31,-37.76 39.7,-55.49 14.39,-17.73 28.13,-34.17 41.23,-49.33l-66.28 0c-9.51,0 -14.26,-4.5 -14.26,-13.49l0 -36.23z"/>
   <path id="3" class="fil1" d="M1962.95 518.17l-50.1 0c-9.51,0 -14.26,-4.5 -14.26,-13.49l0 -186.53 50.1 0c9.51,0 14.26,4.5 14.26,13.49l0 186.53zm-32.37 -219.67c-13.11,0 -22.42,-2.25 -27.94,-6.75 -5.53,-4.49 -8.29,-12.01 -8.29,-22.54 0,-10.54 2.76,-18.05 8.29,-22.55 5.52,-4.49 14.83,-6.74 27.94,-6.74 13.1,0 22.41,2.25 27.94,6.74 5.52,4.5 8.28,12.01 8.28,22.55 0,10.53 -2.76,18.05 -8.28,22.54 -5.53,4.5 -14.84,6.75 -27.94,6.75z"/>
   <path id="4" class="fil1" d="M2067.01 518.17l-50.11 0c-9.5,0 -14.26,-4.5 -14.26,-13.49l0 -186.53 37 0c5.91,0 9.96,0.97 12.14,2.89 2.19,1.93 4.31,6.11 6.36,12.53l2.31 6.94c9,-9.77 17.8,-16.71 26.4,-20.82 8.61,-4.11 18.69,-6.16 30.26,-6.16 36.48,0 54.72,22.61 54.72,67.83l0 136.81 -50.1 0c-9.51,0 -14.26,-4.5 -14.26,-13.49l0 -116.77c0,-6.68 -1.28,-11.63 -3.85,-14.84 -2.57,-3.21 -7.33,-4.82 -14.26,-4.82 -3.86,0 -7.84,0.65 -11.95,1.93 -4.11,1.28 -7.58,3.21 -10.4,5.78l0 142.21z"/>
   <path id="5" class="fil1" d="M2330.23 518.17c-9.51,0 -14.26,-4.5 -14.26,-13.49l0 -116.77c0,-6.68 -1.28,-11.63 -3.85,-14.84 -2.57,-3.21 -7.33,-4.82 -14.26,-4.82 -3.86,0 -7.84,0.65 -11.95,1.93 -4.11,1.28 -7.58,3.21 -10.4,5.78l0 142.21 -50.11 0c-9.5,0 -14.26,-4.5 -14.26,-13.49l0 -263.22 50.11 0c9.5,0 14.26,4.5 14.26,13.49l0 81.32c13.87,-15.16 30.44,-22.74 49.71,-22.74 36.74,0 55.11,22.61 55.11,67.83l0 136.81 -50.1 0z"/>
   <path id="6" class="fil1" d="M2471.67 520.48c-18.5,0 -32.69,-5.52 -42.58,-16.57 -9.89,-11.05 -14.84,-26.72 -14.84,-47.02 0,-13.87 2.25,-24.98 6.74,-33.33 4.5,-8.35 10.47,-14.65 17.92,-18.89 7.46,-4.24 15.93,-7 25.44,-8.28 9.51,-1.29 19.4,-1.93 29.68,-1.93l23.5 0 0 -11.56c0,-8.22 -2.82,-13.3 -8.47,-15.22 -5.66,-1.93 -14.39,-2.9 -26.21,-2.9 -10.54,0 -19.98,0.26 -28.33,0.78 -8.35,0.51 -13.68,0.77 -15.99,0.77 -4.88,0 -8.35,-1.29 -10.41,-3.86 -2.05,-2.57 -3.08,-5.52 -3.08,-8.86l0 -26.98c7.19,-3.08 16.83,-6.04 28.9,-8.86 12.08,-2.83 25.95,-4.24 41.63,-4.24 30.06,0 51.64,6.29 64.74,18.88 13.11,12.59 19.66,30.58 19.66,53.96l0 131.8 -37 0c-2.83,0 -5.2,-0.19 -7.13,-0.58 -1.93,-0.38 -3.53,-1.15 -4.82,-2.31 -1.28,-1.16 -2.44,-2.76 -3.47,-4.82 -1.02,-2.05 -2.05,-4.62 -3.08,-7.71l-2.31 -6.16c-5.14,5.65 -11.82,11.05 -20.04,16.18 -8.22,5.14 -18.37,7.71 -30.45,7.71zm45.48 -88.64l-24.67 0c-8.47,0 -14.45,1.87 -17.92,5.59 -3.47,3.73 -5.2,8.93 -5.2,15.61 0,7.96 1.93,13.42 5.78,16.38 3.85,2.95 9.38,4.43 16.57,4.43 10.28,0 18.76,-2.57 25.44,-7.71l0 -34.3z"/>
   <path id="7" class="fil1" d="M2751.07 521.25c-9.25,0 -17.72,-1.73 -25.43,-5.2 -7.71,-3.47 -14.26,-9.18 -19.66,-17.15 -5.39,-7.96 -9.63,-18.5 -12.71,-31.6 -3.09,-13.1 -4.63,-29.16 -4.63,-48.18 0,-36.48 5.97,-62.88 17.92,-79.19 11.95,-16.32 30.64,-24.48 56.08,-24.48 8.22,0 15.03,0.65 20.42,1.93 5.4,1.29 9.64,2.57 12.72,3.86l0 -79.78 50.1 0c9.51,0 14.26,4.5 14.26,13.49l0 263.22 -37 0c-5.91,0 -9.95,-0.96 -12.14,-2.89 -2.18,-1.93 -4.3,-6.1 -6.36,-12.53l-2.31 -6.55c-5.91,6.68 -13.04,12.53 -21.39,17.54 -8.35,5.01 -18.3,7.51 -29.87,7.51zm44.71 -158.39c-2.57,-0.52 -5.27,-0.9 -8.09,-1.16 -2.83,-0.26 -5.27,-0.38 -7.33,-0.38 -6.16,0 -10.98,1.02 -14.45,3.08 -3.47,2.05 -6.1,5.2 -7.9,9.44 -1.8,4.24 -2.95,9.64 -3.47,16.19 -0.51,6.55 -0.77,14.32 -0.77,23.31 0,11.05 0.26,20.17 0.77,27.37 0.52,7.19 1.54,12.91 3.09,17.15 1.54,4.24 3.72,7.25 6.55,9.05 2.82,1.8 6.55,2.7 11.17,2.7 4.37,0 8.23,-0.64 11.57,-1.93 3.34,-1.28 6.29,-2.82 8.86,-4.62l0 -100.2z"/>
   <path id="8" class="fil1" d="M3054.76 510.46c-6.68,2.83 -15.87,5.65 -27.56,8.48 -11.69,2.83 -26.14,4.24 -43.35,4.24 -15.16,0 -28.27,-1.93 -39.31,-5.78 -11.05,-3.85 -20.24,-10.02 -27.56,-18.5 -7.32,-8.48 -12.72,-19.33 -16.19,-32.56 -3.46,-13.24 -5.2,-29.23 -5.2,-47.99 0,-37.25 7,-64.03 21,-80.35 14.01,-16.31 35.91,-24.47 65.71,-24.47 15.68,0 28.46,2.18 38.35,6.55 9.89,4.37 17.66,10.34 23.32,17.92 5.65,7.58 9.5,16.57 11.56,26.98 2.05,10.4 3.08,21.64 3.08,33.72 0,2.57 -0.13,5.78 -0.38,9.63 -0.26,3.86 -0.71,7.71 -1.35,11.57 -0.65,3.85 -1.35,7.51 -2.12,10.98 -0.77,3.47 -1.54,6.1 -2.32,7.9l-97.11 0c0,13.1 3.14,22.22 9.44,27.36 6.29,5.14 16.25,7.71 29.87,7.71 12.59,0 22.16,-0.19 28.71,-0.58 6.55,-0.38 12.27,-0.58 17.15,-0.58 5.14,0 8.8,1.22 10.98,3.67 2.19,2.44 3.28,5.84 3.28,10.21l0 23.89zm-50.87 -109.06c0,-15.93 -1.61,-26.92 -4.82,-32.95 -3.21,-6.04 -9.06,-9.06 -17.54,-9.06 -10.27,0 -17.15,3.21 -20.62,9.63 -3.46,6.43 -5.33,17.22 -5.58,32.38l48.56 0z"/>
   <path id="9" class="fil1" d="M3362.68 518.17l-52.8 0c-3.85,0 -7,-1.41 -9.44,-4.24 -2.44,-2.83 -4.3,-6.04 -5.59,-9.63 -5.13,-13.11 -10.4,-26.4 -15.8,-39.89 -5.39,-13.49 -10.85,-26.66 -16.38,-39.5 -5.52,-12.85 -10.92,-25.18 -16.18,-37 -5.27,-11.82 -10.34,-22.35 -15.22,-31.6l0 161.86 -47.02 0c-9.51,0 -14.26,-4.5 -14.26,-13.49l0 -253.59 50.48 0c3.86,0 7.2,1.42 10.02,4.24 2.83,2.83 5.14,6.04 6.94,9.64 4.37,8.99 9.31,19.14 14.84,30.44 5.52,11.31 11.11,23.13 16.76,35.46 5.66,12.33 11.31,24.86 16.96,37.58 5.65,12.71 10.79,24.98 15.42,36.8l0 -154.16 47.01 0c9.51,0 14.26,4.5 14.26,13.49l0 253.59z"/>
   <path id="10" class="fil1" d="M3509.9 318.15l50.1 0c9.51,0 14.26,4.5 14.26,13.49l0 186.53 -37 0c-5.91,0 -9.95,-0.96 -12.14,-2.89 -2.18,-1.93 -4.3,-6.1 -6.36,-12.53l-2.31 -6.93c-8.99,9.76 -17.79,16.7 -26.4,20.81 -8.6,4.11 -18.69,6.16 -30.25,6.16 -36.48,0 -54.73,-22.6 -54.73,-67.82l0 -136.82 50.11 0c9.5,0 14.26,4.5 14.26,13.49l0 116.77c0,6.68 1.28,11.63 3.85,14.84 2.57,3.21 7.32,4.82 14.26,4.82 3.85,0 7.83,-0.64 11.95,-1.93 4.11,-1.28 7.57,-3.21 10.4,-5.78l0 -142.21z"/>
   <path id="11" class="fil1" d="M3732.28 515.86c-7.71,2.31 -14.71,3.98 -21.01,5.01 -6.29,1.03 -13.17,1.54 -20.62,1.54 -10.27,0 -19.46,-1.03 -27.55,-3.08 -8.1,-2.06 -15.03,-5.72 -20.81,-10.99 -5.78,-5.26 -10.22,-12.33 -13.3,-21.19 -3.08,-8.87 -4.62,-20.11 -4.62,-33.73l0 -85.55 -7.71 0c-9.51,0 -14.26,-4.5 -14.26,-13.49l0 -36.23 24.28 0 3.08 -48.56 44.71 0c9.5,0 14.26,4.5 14.26,13.49l0 35.07 29.29 0c9.5,0 14.26,4.5 14.26,13.49l0 36.23 -43.55 0 0 84.4c0,13.62 6.03,20.42 18.11,20.42l11.18 0c9.5,0 14.26,4.5 14.26,13.49l0 29.68z"/>
   <path id="12" class="fil1" d="M3867.55 317c10.02,0 15.03,4.49 15.03,13.49l0 44.31c-1.8,-0.25 -3.47,-0.38 -5.01,-0.38 -1.54,0 -3.34,0 -5.4,0 -8.22,0 -16.37,0.64 -24.47,1.93 -8.09,1.28 -14.71,4.11 -19.84,8.48l0 133.34 -50.11 0c-9.5,0 -14.26,-4.5 -14.26,-13.49l0 -186.53 37 0c5.65,0 9.64,0.97 11.95,2.89 2.31,1.93 4.5,6.11 6.55,12.53l3.08 10.4c5.4,-8.47 12.08,-15.09 20.04,-19.84 7.97,-4.76 16.45,-7.13 25.44,-7.13z"/>
   <path id="13" class="fil1" d="M3975.46 518.17l-50.1 0c-9.51,0 -14.26,-4.5 -14.26,-13.49l0 -186.53 50.1 0c9.51,0 14.26,4.5 14.26,13.49l0 186.53zm-32.37 -219.67c-13.11,0 -22.42,-2.25 -27.94,-6.75 -5.53,-4.49 -8.29,-12.01 -8.29,-22.54 0,-10.54 2.76,-18.05 8.29,-22.55 5.52,-4.49 14.83,-6.74 27.94,-6.74 13.1,0 22.41,2.25 27.94,6.74 5.52,4.5 8.28,12.01 8.28,22.55 0,10.53 -2.76,18.05 -8.28,22.54 -5.53,4.5 -14.84,6.75 -27.94,6.75z"/>
   <path class="fil2" d="M1672.22 712.12l32.33 9.92c-4.97,18.21 -13.24,31.71 -24.79,40.56 -11.54,8.82 -26.16,13.24 -43.9,13.24 -21.98,0 -40.02,-7.5 -54.18,-22.51 -14.13,-15.01 -21.21,-35.52 -21.21,-61.57 0,-27.52 7.12,-48.91 21.32,-64.15 14.2,-15.24 32.9,-22.86 56.07,-22.86 20.24,0 36.67,6 49.29,17.97 7.55,7.08 13.16,17.24 16.94,30.52l-33.02 7.85c-1.96,-8.54 -6.04,-15.32 -12.24,-20.28 -6.23,-4.97 -13.78,-7.43 -22.63,-7.43 -12.27,0 -22.24,4.39 -29.86,13.2 -7.66,8.77 -11.47,23.01 -11.47,42.72 0,20.85 3.78,35.74 11.28,44.6 7.54,8.88 17.32,13.31 29.36,13.31 8.89,0 16.55,-2.81 22.94,-8.47 6.38,-5.65 11,-14.5 13.77,-26.62z"/>
   <path id="1" class="fil2" d="M1725.6 711.69c0,-10.54 2.57,-20.74 7.77,-30.59 5.19,-9.89 12.54,-17.39 22.05,-22.59 9.5,-5.19 20.09,-7.81 31.82,-7.81 18.13,0 32.94,5.89 44.53,17.66 11.58,11.82 17.35,26.67 17.35,44.68 0,18.16 -5.85,33.21 -17.51,45.14 -11.7,11.93 -26.4,17.89 -44.14,17.89 -10.96,0 -21.43,-2.5 -31.4,-7.46 -9.93,-4.97 -17.51,-12.24 -22.7,-21.86 -5.2,-9.58 -7.77,-21.28 -7.77,-35.06zm32.55 1.69c0,11.9 2.81,21.02 8.43,27.33 5.66,6.35 12.58,9.5 20.86,9.5 8.23,0 15.16,-3.15 20.74,-9.5 5.58,-6.31 8.39,-15.51 8.39,-27.56 0,-11.73 -2.81,-20.78 -8.39,-27.09 -5.58,-6.35 -12.51,-9.5 -20.74,-9.5 -8.28,0 -15.2,3.15 -20.86,9.5 -5.62,6.31 -8.43,15.43 -8.43,27.32z"/>
   <path id="2" class="fil2" d="M1871.72 653.24l29.09 0 0 16.35c10.43,-12.58 22.86,-18.89 37.29,-18.89 7.65,0 14.31,1.58 19.93,4.73 5.66,3.16 10.27,7.93 13.85,14.32 5.27,-6.39 10.97,-11.16 17.05,-14.32 6.08,-3.15 12.58,-4.73 19.51,-4.73 8.77,0 16.2,1.77 22.32,5.35 6.08,3.58 10.62,8.81 13.62,15.74 2.2,5.08 3.27,13.35 3.27,24.78l0 76.5 -31.63 0 0 -68.38c0,-11.89 -1.08,-19.55 -3.27,-22.98 -2.92,-4.5 -7.46,-6.77 -13.55,-6.77 -4.42,0 -8.61,1.35 -12.54,4.04 -3.89,2.73 -6.73,6.7 -8.47,11.89 -1.73,5.24 -2.57,13.47 -2.57,24.75l0 57.45 -31.64 0 0 -65.57c0,-11.62 -0.57,-19.17 -1.69,-22.51 -1.12,-3.39 -2.85,-5.93 -5.23,-7.59 -2.35,-1.65 -5.58,-2.46 -9.62,-2.46 -4.89,0 -9.28,1.31 -13.16,3.93 -3.93,2.65 -6.7,6.42 -8.39,11.39 -1.7,4.96 -2.54,13.2 -2.54,24.66l0 58.15 -31.63 0 0 -119.83z"/>
   <path id="3" class="fil2" d="M2079.32 637.08l0 -29.33 31.64 0 0 29.33 -31.64 0zm0 135.99l0 -119.83 31.64 0 0 119.83 -31.64 0z"/>
   <path id="4" class="fil2" d="M2253.38 773.07l-29.33 0 0 -17.59c-4.88,6.85 -10.69,11.97 -17.35,15.44 -6.66,3.42 -13.39,5.15 -20.16,5.15 -13.82,0 -25.63,-5.54 -35.49,-16.66 -9.81,-11.12 -14.73,-26.59 -14.73,-46.49 0,-20.32 4.77,-35.78 14.35,-46.37 9.58,-10.58 21.67,-15.85 36.29,-15.85 13.39,0 25.01,5.58 34.79,16.7l0 -59.65 31.63 0 0 165.32zm-84.51 -62.22c0,12.81 1.77,22.08 5.27,27.82 5.12,8.31 12.24,12.47 21.4,12.47 7.27,0 13.47,-3.12 18.55,-9.36 5.12,-6.23 7.66,-15.5 7.66,-27.89 0,-13.82 -2.47,-23.75 -7.43,-29.83 -4.97,-6.08 -11.28,-9.12 -19.01,-9.12 -7.51,0 -13.78,3 -18.86,9.01 -5.04,6 -7.58,14.97 -7.58,26.9z"/>
   <path id="5" class="fil2" d="M2308.06 690.18l-28.63 -5.08c3.24,-11.7 8.82,-20.36 16.71,-25.97 7.88,-5.62 19.62,-8.43 35.17,-8.43 14.12,0 24.66,1.65 31.59,5 6.89,3.35 11.78,7.58 14.59,12.74 2.8,5.15 4.23,14.58 4.23,28.36l-0.46 36.94c0,10.51 0.5,18.28 1.5,23.28 1,5.01 2.88,10.35 5.65,16.05l-31.4 0c-0.8,-2.08 -1.84,-5.16 -3.04,-9.24 -0.5,-1.88 -0.88,-3.11 -1.11,-3.69 -5.39,5.31 -11.16,9.27 -17.32,11.93 -6.16,2.65 -12.7,4 -19.66,4 -12.28,0 -21.98,-3.35 -29.06,-10.04 -7.08,-6.66 -10.62,-15.13 -10.62,-25.36 0,-6.74 1.62,-12.78 4.85,-18.09 3.23,-5.27 7.74,-9.35 13.58,-12.16 5.82,-2.81 14.2,-5.27 25.17,-7.39 14.78,-2.77 25.05,-5.38 30.75,-7.77l0 -3.19c0,-6.16 -1.5,-10.55 -4.5,-13.2 -3.04,-2.62 -8.74,-3.93 -17.09,-3.93 -5.66,0 -10.04,1.12 -13.2,3.39 -3.19,2.23 -5.73,6.19 -7.7,11.85zm42.49 25.63c-4.04,1.35 -10.47,2.96 -19.28,4.85 -8.77,1.88 -14.55,3.73 -17.24,5.5 -4.12,2.96 -6.2,6.66 -6.2,11.16 0,4.46 1.66,8.27 4.97,11.51 3.31,3.23 7.5,4.85 12.62,4.85 5.7,0 11.16,-1.89 16.35,-5.62 3.81,-2.89 6.35,-6.35 7.55,-10.51 0.81,-2.69 1.23,-7.85 1.23,-15.43l0 -6.31z"/>
   <path id="6" class="fil2" d="M2586.98 773.07l-29.33 0 0 -17.59c-4.88,6.85 -10.69,11.97 -17.35,15.44 -6.66,3.42 -13.39,5.15 -20.16,5.15 -13.82,0 -25.63,-5.54 -35.49,-16.66 -9.81,-11.12 -14.73,-26.59 -14.73,-46.49 0,-20.32 4.77,-35.78 14.35,-46.37 9.58,-10.58 21.67,-15.85 36.29,-15.85 13.39,0 25.01,5.58 34.79,16.7l0 -59.65 31.63 0 0 165.32zm-84.51 -62.22c0,12.81 1.77,22.08 5.27,27.82 5.12,8.31 12.24,12.47 21.4,12.47 7.27,0 13.47,-3.12 18.55,-9.36 5.12,-6.23 7.66,-15.5 7.66,-27.89 0,-13.82 -2.47,-23.75 -7.43,-29.83 -4.97,-6.08 -11.28,-9.12 -19.01,-9.12 -7.51,0 -13.78,3 -18.86,9.01 -5.04,6 -7.58,14.97 -7.58,26.9z"/>
   <path id="7" class="fil2" d="M2687.38 735.2l31.63 5.31c-4.04,11.59 -10.46,20.4 -19.2,26.48 -8.77,6.04 -19.74,9.08 -32.86,9.08 -20.82,0 -36.25,-6.81 -46.22,-20.43 -7.89,-10.93 -11.85,-24.71 -11.85,-41.37 0,-19.86 5.19,-35.44 15.55,-46.68 10.35,-11.27 23.47,-16.89 39.32,-16.89 17.78,0 31.83,5.89 42.14,17.66 10.28,11.78 15.2,29.82 14.74,54.15l-79.2 0c0.23,9.38 2.77,16.7 7.66,21.93 4.85,5.23 10.93,7.85 18.17,7.85 4.96,0 9.12,-1.35 12.46,-4.04 3.39,-2.69 5.93,-7.04 7.66,-13.05zm1.85 -32.09c-0.23,-9.2 -2.58,-16.2 -7.08,-20.97 -4.5,-4.81 -9.97,-7.2 -16.43,-7.2 -6.89,0 -12.59,2.54 -17.09,7.58 -4.5,5.04 -6.7,11.93 -6.62,20.59l47.22 0z"/>
   <polygon id="8" class="fil2" points="2853.2,773.07 2794.05,607.75 2830.22,607.75 2872.21,730.12 2912.5,607.75 2948.05,607.75 2889.25,773.07 "/>
   <path id="9" class="fil2" d="M3021.21 735.2l31.63 5.31c-4.04,11.59 -10.46,20.4 -19.2,26.48 -8.77,6.04 -19.74,9.08 -32.86,9.08 -20.82,0 -36.25,-6.81 -46.22,-20.43 -7.89,-10.93 -11.85,-24.71 -11.85,-41.37 0,-19.86 5.19,-35.44 15.55,-46.68 10.35,-11.27 23.47,-16.89 39.32,-16.89 17.78,0 31.83,5.89 42.14,17.66 10.28,11.78 15.2,29.82 14.74,54.15l-79.2 0c0.23,9.38 2.77,16.7 7.66,21.93 4.85,5.23 10.93,7.85 18.17,7.85 4.96,0 9.12,-1.35 12.46,-4.04 3.39,-2.69 5.93,-7.04 7.66,-13.05zm1.85 -32.09c-0.23,-9.2 -2.58,-16.2 -7.08,-20.97 -4.5,-4.81 -9.97,-7.2 -16.43,-7.2 -6.89,0 -12.59,2.54 -17.09,7.58 -4.5,5.04 -6.7,11.93 -6.62,20.59l47.22 0z"/>
   <path id="10" class="fil2" d="M3110.6 773.07l-31.63 0 0 -119.83 29.32 0 0 17.01c5.04,-8.05 9.58,-13.32 13.62,-15.82 4.04,-2.5 8.62,-3.73 13.74,-3.73 7.24,0 14.2,2 20.9,5.96l-9.82 27.63c-5.34,-3.46 -10.31,-5.19 -14.89,-5.19 -4.46,0 -8.23,1.23 -11.31,3.65 -3.08,2.47 -5.5,6.85 -7.27,13.24 -1.77,6.39 -2.66,19.78 -2.66,40.14l0 36.94z"/>
   <path id="11" class="fil2" d="M3280.11 773.07l-29.33 0 0 -17.59c-4.88,6.85 -10.69,11.97 -17.35,15.44 -6.66,3.42 -13.39,5.15 -20.16,5.15 -13.82,0 -25.63,-5.54 -35.49,-16.66 -9.81,-11.12 -14.73,-26.59 -14.73,-46.49 0,-20.32 4.77,-35.78 14.35,-46.37 9.58,-10.58 21.67,-15.85 36.29,-15.85 13.39,0 25.01,5.58 34.79,16.7l0 -59.65 31.63 0 0 165.32zm-84.51 -62.22c0,12.81 1.77,22.08 5.27,27.82 5.12,8.31 12.24,12.47 21.4,12.47 7.27,0 13.47,-3.12 18.55,-9.36 5.12,-6.23 7.66,-15.5 7.66,-27.89 0,-13.82 -2.47,-23.75 -7.43,-29.83 -4.97,-6.08 -11.28,-9.12 -19.01,-9.12 -7.51,0 -13.78,3 -18.86,9.01 -5.04,6 -7.58,14.97 -7.58,26.9z"/>
   <path id="12" class="fil2" d="M3334.79 690.18l-28.63 -5.08c3.24,-11.7 8.82,-20.36 16.71,-25.97 7.88,-5.62 19.62,-8.43 35.17,-8.43 14.12,0 24.66,1.65 31.59,5 6.89,3.35 11.78,7.58 14.59,12.74 2.8,5.15 4.23,14.58 4.23,28.36l-0.46 36.94c0,10.51 0.5,18.28 1.5,23.28 1,5.01 2.88,10.35 5.65,16.05l-31.4 0c-0.8,-2.08 -1.84,-5.16 -3.04,-9.24 -0.5,-1.88 -0.88,-3.11 -1.11,-3.69 -5.39,5.31 -11.16,9.27 -17.32,11.93 -6.16,2.65 -12.7,4 -19.66,4 -12.28,0 -21.98,-3.35 -29.06,-10.04 -7.08,-6.66 -10.62,-15.13 -10.62,-25.36 0,-6.74 1.62,-12.78 4.85,-18.09 3.23,-5.27 7.74,-9.35 13.58,-12.16 5.82,-2.81 14.2,-5.27 25.17,-7.39 14.78,-2.77 25.05,-5.38 30.75,-7.77l0 -3.19c0,-6.16 -1.5,-10.55 -4.5,-13.2 -3.04,-2.62 -8.74,-3.93 -17.09,-3.93 -5.66,0 -10.04,1.12 -13.2,3.39 -3.19,2.23 -5.73,6.19 -7.7,11.85zm42.49 25.63c-4.04,1.35 -10.47,2.96 -19.28,4.85 -8.77,1.88 -14.55,3.73 -17.24,5.5 -4.12,2.96 -6.2,6.66 -6.2,11.16 0,4.46 1.66,8.27 4.97,11.51 3.31,3.23 7.5,4.85 12.62,4.85 5.7,0 11.16,-1.89 16.35,-5.62 3.81,-2.89 6.35,-6.35 7.55,-10.51 0.81,-2.69 1.23,-7.85 1.23,-15.43l0 -6.31z"/>
   <path id="13" class="fil2" d="M3549.56 773.07l-29.33 0 0 -17.59c-4.88,6.85 -10.69,11.97 -17.35,15.44 -6.66,3.42 -13.39,5.15 -20.16,5.15 -13.82,0 -25.63,-5.54 -35.49,-16.66 -9.81,-11.12 -14.73,-26.59 -14.73,-46.49 0,-20.32 4.77,-35.78 14.35,-46.37 9.58,-10.58 21.67,-15.85 36.29,-15.85 13.39,0 25.01,5.58 34.79,16.7l0 -59.65 31.63 0 0 165.32zm-84.51 -62.22c0,12.81 1.77,22.08 5.27,27.82 5.12,8.31 12.24,12.47 21.4,12.47 7.27,0 13.47,-3.12 18.55,-9.36 5.12,-6.23 7.66,-15.5 7.66,-27.89 0,-13.82 -2.47,-23.75 -7.43,-29.83 -4.97,-6.08 -11.28,-9.12 -19.01,-9.12 -7.51,0 -13.78,3 -18.86,9.01 -5.04,6 -7.58,14.97 -7.58,26.9z"/>
   <path id="14" class="fil2" d="M3649.96 735.2l31.63 5.31c-4.04,11.59 -10.46,20.4 -19.2,26.48 -8.77,6.04 -19.74,9.08 -32.86,9.08 -20.82,0 -36.25,-6.81 -46.22,-20.43 -7.89,-10.93 -11.85,-24.71 -11.85,-41.37 0,-19.86 5.19,-35.44 15.55,-46.68 10.35,-11.27 23.47,-16.89 39.32,-16.89 17.78,0 31.83,5.89 42.14,17.66 10.28,11.78 15.2,29.82 14.74,54.15l-79.2 0c0.23,9.38 2.77,16.7 7.66,21.93 4.85,5.23 10.93,7.85 18.17,7.85 4.96,0 9.12,-1.35 12.46,-4.04 3.39,-2.69 5.93,-7.04 7.66,-13.05zm1.85 -32.09c-0.23,-9.2 -2.58,-16.2 -7.08,-20.97 -4.5,-4.81 -9.97,-7.2 -16.43,-7.2 -6.89,0 -12.59,2.54 -17.09,7.58 -4.5,5.04 -6.7,11.93 -6.62,20.59l47.22 0z"/>
   <path id="15" class="fil2" d="M3721.34 730.59l-8.2 -84.01 0 -38.83 34.18 0 0 38.83 -8.08 84.01 -17.9 0zm-6.81 42.48l0 -31.63 31.63 0 0 31.63 -31.63 0z"/>
  </g>
  <g id="_2013969365440">
   <path class="fil3" d="M833.58 687.66c7.25,4.5 10.55,8.7 17.17,13.85 8.01,6.22 12.67,5.32 22.1,9.93l-5.13 3.67c-26.26,11.18 -9.27,0.93 -40.8,24.02 -11.55,8.46 -15.63,4.54 -31.12,2.63 -30.09,-3.71 -161.71,-4.94 -178.87,2.11 9.48,27.68 129.35,-6.37 180.98,10.4 -2.94,15.75 -25.25,11.06 -46.82,12.5 -18.09,1.22 -37.91,1.88 -56.64,1.27 -32.55,-1.07 -48.79,1.12 -75.58,-11.7 -7.38,-3.53 -13.97,-5.55 -15.14,-14.17 18.12,-13.2 51.96,-3.52 74.92,-10.54 16.89,-5.17 42.36,-28.24 52.47,-32.89 -5.79,19.44 -31.88,26.86 -36.2,35.27 8.55,0.42 30.06,2.04 37.44,0.93 11.58,-1.74 11.78,-15.44 23.3,-16.15l-7.62 15.94 19.25 1.19c-0.24,-17.14 -10.13,-16.24 -12.18,-33.91 -0.83,-7.18 -1.23,-36.59 0.77,-42.26 11.38,-1.74 3.17,3.69 10.84,6.94 5.53,-6.33 6.86,-15.42 15.39,-17.56 10.28,-2.57 14.07,9.3 19.04,13.64 4.35,3.79 5.16,1.44 9.58,6.45 10.78,12.22 3.99,7.21 23.81,26.81 -0.97,-5.71 -5.41,-6.72 -0.96,-8.37zm-247.41 -37.69c-18.75,1.78 -15.58,12.11 -29.47,21.33 -25.1,16.66 -56.64,15.78 -71.71,-10.59 -12.28,-21.5 10.64,-21.43 3.26,-35.82 -2.72,-5.29 -10.36,-9.17 -3.34,-19.96 22.92,-35.25 28.24,5.19 45.49,0.38 19.75,-5.52 21.22,3.81 33.13,14.77 5.76,5.3 6.92,7.4 11.7,13.61 7.88,10.23 10.91,3.21 10.94,16.28zm-13.74 -86.88l0.39 10.66 -8.47 6.75c-4.08,-3.5 -1.84,-3.77 -6.52,-7.07 -7.9,-5.57 -1.21,3.52 -7.26,-7.31 -5.3,-9.47 -10.35,-6.6 -9.33,-17.18 17.64,1.29 22.65,21.91 23.11,22.65 5.3,-1.53 1.18,1.35 4.42,-3.57l1.99 -3.66c0.11,-0.68 0.5,-0.83 1.67,-1.27zm142.08 -78.49c0.57,0.45 4.05,3.18 5.76,4.49 0.12,6.15 -1.44,11.78 2.12,16.04 5.06,6.07 9.75,-0.01 6.88,7.89 -0.53,1.46 -7.22,8.75 -8.94,9.53 -8.37,3.74 -4.66,0.04 -11.43,-2.85 -11.99,9.67 -30.93,3.37 -30.72,1.95l-7.46 -1.63c-0.56,-0.17 -0.94,-0.35 -1.47,-0.53l-4.06 -1.58c-0.56,-0.19 -2.21,-0.66 -2.76,-0.83 -14.13,-4.44 -9.47,-7.52 -20.21,-11.89 -6.44,-2.62 -6.1,-0.88 -10.77,-5 2.48,-2.15 -2.74,-2.15 6.67,-1.93l20.2 4.81c-2.78,-21.73 5.05,-15.51 7.43,-26.41 -22.64,-2.12 -24.74,16.85 -38.1,12.53 1,-8.43 2.53,-5.92 7.59,-12.68 -8.91,3.49 -15,9.52 -25.67,2.42 2.83,-14.14 16.86,-6.18 29.75,-10.61 8.73,-2.99 17.43,-8.39 24,-13.91 12.1,0.4 0.03,0.76 9.5,2.61 6.95,1.37 -0.04,-2.45 6.86,1.84 9.09,5.66 -1.89,3.51 12.72,1.88 3.2,7.64 0.45,3.08 5.38,6.97 0.32,0.26 0.8,0.52 1.12,0.78 5.13,4.05 12.99,9.62 15.61,16.11zm45.62 -16.04c-24.1,-47.25 -34.23,-25.45 -98.29,-29.7 -34.16,-2.27 -20.98,-22.19 -19.24,-23.53 9.77,-7.53 84.05,-2.29 95.27,3.17 19.39,9.42 25,27.24 31.62,46.01 2.9,8.24 5.82,14.87 0.85,21.53 -7.25,-2.45 -6.66,-10.53 -10.21,-17.48zm-266.25 -115.22c-6.19,-7.84 -1.58,-12.34 2.36,-17.39 5.13,-6.58 2.54,-9.68 13.39,-9.03 1.31,6.73 -4.68,16.11 -8.7,22.59 -4.06,6.56 1.69,4.25 -7.05,3.83zm108.41 -72.98c-6.21,-3.03 -3.79,-3.55 -5.45,-11.57 -2.18,-10.54 -12.46,-23.24 -18.4,-30.61 -13.34,-16.59 -6.97,-45.78 2.87,-48.65 2.37,18.45 -0.55,26.21 1.02,34.35 3.04,15.73 9.28,26.18 18.95,38.49 3.86,4.92 7.21,11.24 1.01,17.99zm-77.88 -30.12c-11.32,-0.44 -12.75,-16.6 -13.41,-26.83 -1.78,-27.81 13.78,-38.88 21.86,-49.54 2.65,-3.49 23.83,-30.82 21.96,-14.64 -0.14,1.2 -13.21,19.19 -15.63,24.49 -21.64,47.43 14.26,77.37 7.09,93.21 -7.6,-0.27 -4.68,1.24 -8.03,-6l-11.59 -31.26c-4.48,-17.62 -2.44,-36.95 -0.25,-54.37 -15.3,18.48 -3.12,52.89 -2,64.94zm95.32 -52.53c9.18,5.05 5.76,15.56 13.28,20.47 1.98,-3.29 0.73,1.16 1.2,-3.63l0.26 -9.64c-3.53,-6.49 -10.1,-16.14 -11.18,-23.37 12.98,5.23 16.01,29.21 34.98,37.01 -3.21,-8.71 -8.18,-10.35 -10.16,-21.04l12 16.9c-6.14,-25.4 -40.81,-48.6 -39.01,-64.38 27.67,-4.28 51.19,48.63 70.67,59.72 26.82,15.28 24.29,-10.69 56.7,17.41 14.21,12.32 33.83,39.27 37.46,67.33 2.72,21 -2.47,27.06 9.61,42.87 7.03,9.19 18.79,18.14 24.12,27 -1.63,15.67 -9.23,21.76 -20.83,26.58 -14.55,6.05 -23.94,5.46 -35.44,-3.34 -10.33,-7.92 -14.6,-13.12 -20.52,-26.54 -2.08,-4.7 -4.49,-10.75 -6.36,-17.14 -2.91,-9.88 -0.94,-12.42 -10.63,-11.22 -2.47,31.99 22.26,40.7 22.12,52.65 -25.82,1.07 -40.09,-70.52 -54.57,-92.27 -3.73,-5.62 -5.14,-7.32 -13.55,-6.64 -0.12,12.02 1.37,4.68 7.88,14.1 4.69,6.8 15.93,37.21 19.25,45.82 18.01,46.63 34.71,44.01 55.01,51.57 4.24,1.58 11.48,5.91 14.61,6.83 11.29,3.31 25.13,-0.81 34.14,-5.45 22.16,-11.4 30.03,-36.04 40.45,-43.15 -0.56,11.84 -16.09,39.82 -33.58,50.08 -14.3,8.4 -6.75,2.33 -11.13,15.78 -9.52,-3.5 -0.47,-3.32 -12.14,-6.14 2.67,14.06 11.5,29.54 3.62,57.23 -2.59,-2.52 -0.91,-0.27 -2.83,-3.66 -3.96,-6.97 -3.36,-21.99 -4.76,-29.32 -9.9,-51.83 -33.04,-3.48 -81.49,-61.35 -8.53,-10.2 -12.63,-19.9 -19.69,-32.7 -16.64,-30.2 -7.16,-18.49 -12.95,-37.93 7.26,6.08 7.46,13.4 12.71,21.58 -0.4,-11.84 -7.84,-17.88 -11.7,-27.83 -9.62,-24.81 -10.62,-9.15 -17.16,-5.73 -20.21,-9.34 -7.46,-10.81 -16.27,-20.66 -7.21,2.83 -2.21,11.28 -9.03,11.08 -6.15,-0.18 -6.71,-17.98 -9.85,-26.7 -1.7,6.94 3.11,15.82 2.74,21.48 -0.46,7.1 0.32,2.83 -1.93,6.46 -19.55,-4.09 -2.57,-41.24 -18.89,-41.98 0.91,5.53 3.28,11.27 4.7,17.3 1.65,6.96 3.55,13.49 -0.26,17.89 -3.41,-8.67 -2.08,-18.27 -6.69,-29.21 -3.39,-8.02 -7.67,-16.67 -10.31,-24.42 -4.79,-14.05 -5.74,-47.93 -13.05,-57.07 -11.01,-6.68 -29.05,18.82 -29.02,24.79 0.08,13.29 8.22,-5.44 12.2,9.81 1.72,6.62 2.07,18.92 1.87,26.21 -7.08,0.14 -7.07,-0.92 -11.82,-3.26 5.02,29.11 4.87,18.3 18.87,17.19 6.7,7.06 11.49,12.96 10.58,25.17l-26.84 -4.38 -18.35 -30.11c0.33,0.31 0.72,0.79 0.89,1.03l6.79 13.48c2.86,4.68 1.03,2.1 3.8,4.53 -0.93,-35.02 -18.95,-26.85 -7.02,-54.26 11.44,-26.33 -3.14,-7.29 18.24,-32.57 3.86,-4.56 2.59,-19.03 26.29,-17.17 7.11,0.56 14.61,6.06 18.29,9.12 12.81,10.66 13.7,15.85 13.68,37.79zm-125.23 70.83c-1.2,-23.67 1.75,-30.69 10.15,-47.11 1.97,3.64 0.86,6.47 0.85,6.51 -0.88,8.2 -8.77,31.85 4.64,39.81 4.64,-6.32 -1.82,-3.71 10.6,-10.39l3.85 -2.08c5.53,4.31 13.13,13.18 14.89,22.31 -5.29,9.13 -9.37,8.5 -14.83,19.68 -2.31,4.74 -10.4,16.83 -14.9,19.54 -14.92,8.98 2.01,-3.74 -16.8,17.71 -7.72,8.8 -6.83,11.91 -5.11,26.88 15.53,0.83 18.68,-32.97 45.9,-6.21 12.84,12.63 25.29,31.91 21.54,52.22 -9.7,0.51 -8.79,-2.9 -13.63,-9.48l-29.7 -37.51c-9.32,3.74 -21.44,14.16 -23.72,25.33 -1.34,6.58 -5.3,36.28 -3.69,39.47l2.08 -14.39c7.22,1.56 4.63,2.75 5.38,-9.08 17.66,4.23 15.35,-4.13 27.52,1.97 5.53,2.78 13.65,9.41 18.04,14.51 21.11,24.52 3.89,35.7 20.2,46.5 1.34,-8.3 3.98,-17.52 0.65,-25.81 -3.96,-9.88 -13.11,-10.64 -6.71,-20.64 13.27,3.49 13.64,31.42 11.98,45.22 -1.8,15.01 -26.21,42.51 -34.83,49.76 -39.36,33.09 3.23,31.99 -6.4,56.64 -7.1,-2.19 -14.78,-8.11 -19.55,-11.8 -0.93,-6.48 1.31,-26 3.79,-32.87 2.53,-7.02 11.03,-13.11 16.15,-18.01 7.13,-6.82 29.63,-28.31 31.79,-38.01 -6.11,-4.24 -9.31,-7.39 -13.08,-13.63 -5.68,7.14 -4.2,1.98 -5.65,10.1 -1.83,10.18 -9.69,1.09 -18.66,-0.14 -9.59,-1.33 -10.92,1.19 -19.34,-3.92 -14.97,-9.11 -4.53,-25.03 -24.08,-24.98 -15.02,42.91 -48.22,93.43 -27.61,132.78 7.28,13.91 16.97,24.47 9.72,38.27 -5.47,-5.53 -3.35,-9.52 -11.89,-11.3 -1.33,23.78 -0.58,54.09 3.13,76.84 8.12,49.73 29.12,74.81 81.95,80.77 12.99,1.47 25.77,2.09 38.87,1.76 4.62,-0.11 13.98,-0.1 18.1,-0.71 12.92,-1.93 2.32,-3.6 12.59,-8.04 6.14,5.27 0.73,5.07 9.16,11.33 35.54,26.38 137.92,39.65 181.34,24.28 27.49,-9.73 44.94,-31.83 70.18,-47.19l39.14 -19.95 147.3 -30.05c6.11,-1.17 10.98,-1.35 16.08,-4.36 5.5,-3.25 2.91,0.37 2.92,-6.93 0,-0.42 -0.08,-0.68 0.07,-0.97 7.97,-1.33 17.18,-1.77 25.37,-2.39 11.55,-0.88 16.49,-7.02 22.46,-5.41l19.34 9.67c6.64,2.84 15.25,5.08 18.32,10.47 4.01,7.03 0.74,17.52 4.34,24.65 0.7,1.39 11.57,13.5 13.34,15.58l26.72 30.44c-1.6,-17.9 -1.98,-38.44 -5.62,-55.13 -1.74,-7.94 -3.94,-17.69 -5.22,-25.89 -3.21,-20.43 8.23,-22.25 -52,-38.17 -52.32,-13.82 -53.62,30.59 -76.07,38.49 -24.25,8.53 -73.99,14.47 -100.2,20.42 -15.84,3.59 -34.73,9.39 -50.52,11.06 5.79,-10.44 12.52,-6.15 20.3,-17.53 4.94,-7.22 9.19,-13.56 13.8,-20.51 12.66,-19.08 11.9,-32.55 12.1,-58.71 0.39,-49.25 -20.49,-67.09 -61.78,-77.58 7.45,6.48 57.93,36 50.64,53.35 -2.91,-2.21 -20.78,-29.39 -25.34,-31.54 -3.33,-1.57 -0.84,-4.77 -3.27,0.54 3.91,1.65 6.95,6.25 9.37,9.43 22.45,29.51 34.64,61.47 15.91,98.56 -31.08,61.55 -84.3,37.4 -93.22,20.8 12.53,2.62 24.72,13.41 38.61,11.52 9.84,-1.34 21.07,-16.31 22.51,-28.37 -15.51,4.93 -9.31,18.09 -26.11,17.01l5.59 -14.27c-6.85,5.61 -3.39,9.12 -16.33,7.16 -4.05,-5.46 -1.44,-4.78 -3.61,-9.66 -5.72,4.74 -11.76,13 -20.52,15.82 -0.76,-15.07 10.83,-20.58 11.79,-38.3 -10.8,4.74 -15.26,19.6 -27.82,21.76 -6.11,-19.82 -1.26,-34.1 -26.76,-36.43 -26.39,-2.42 -24.32,23.83 -38.17,25.41 0.47,-8.47 8.53,-21.53 13.62,-26.46 9.02,-8.74 16.9,-6.74 30.47,-6.01 6.5,-9.9 13.05,-15.54 8.02,-32.25 -14.52,-3.88 -14.12,1.24 -23.36,-10.77 -5.31,-6.9 -12.65,-11.39 -12.57,-22.35 12.88,0.36 14.3,9.15 25.11,11.91 6.18,1.57 6.74,-0.07 7.98,-0.86 -6.47,-9.43 -19.03,-10.62 -25.41,-21.87 -5.13,-9.05 -18.33,-17.03 -10.38,-29.86 8.19,-0.04 8.89,7.8 16.39,13.1 11.97,8.44 6.76,3.84 9.24,19.71 8.14,4.36 34.57,18.71 42.2,15.25 -0.27,-10.29 -9.63,-9.94 -18.66,-15.35 -7.68,-4.61 -12.43,-7.97 -21.47,-12.93 -9.34,-5.11 -22.52,-27.79 -17.95,-46.32 5.38,1.15 4.98,7.49 13.74,11.7 -0.74,-2.61 -23.74,-40.18 -13.11,-57.83 5.9,9.1 5,25.27 10.31,36.26 2.37,4.9 6.38,10.33 7.34,16.2 6.4,39.26 17.96,41.73 50.94,61.29l4.83 -0.21c0.45,-0.07 1.2,-0.09 1.55,-0.74 0.31,-0.56 0.71,-0.71 1.08,-1.05 -8.4,-14.17 -47.12,-31.45 -51.5,-65.88 -1.98,-15.53 -2.19,-41.87 1.42,-56.31 5.73,-22.91 7.3,-22.27 22.74,-34.54 20.02,13.86 31.88,86.35 36.04,119.08 8.47,2.5 31.86,11.29 39.7,10.41 1.99,-6.62 0.47,-15.12 2.73,-22.53 4.47,-14.68 8.41,-13.52 10.91,-14.63 -0.29,5.68 -1.27,8.58 -1.78,13.36 -0.81,7.63 0.09,6.22 1.65,8.25 1.7,-6.69 2.68,-7.04 4.7,-14.96 1.89,-7.38 2.42,-7.24 6.65,-13.3 3.95,-5.66 11.26,-20.42 15.04,-24 3.78,1.53 0.57,0.53 3.9,2.93 1.29,0.92 0.69,1.26 4.38,2.95 3.9,-21.13 11.36,-26.85 10.36,-64.6 -0.35,-13.36 -11.64,-29.61 -19.91,-52.87 -9.48,-26.63 -39.15,-71.24 -54.04,-90.52 -14.37,-18.61 -86.45,-60.39 -116.27,-66.17 -4.54,-0.87 -11.6,-1.68 -16.38,-1.75 -3.97,-0.05 -58.57,11.2 -83.72,7.57 2.28,-20.52 31.29,-13.84 44.2,-16.73 0.6,-12.52 -23.58,-25.3 -34.18,-30.99 -7.32,-3.93 -9.18,-3.71 -9.94,-12.89l10.46 -5.21c-6.94,-1.86 -8.01,-0.54 -12.9,-1.65 -9.27,-2.11 2.44,3.16 -4.05,-2.09 -8.06,-6.52 -17.25,-15.75 -28.06,-22.7 -5.39,-3.48 -7.25,-3.84 -9.47,-11.54 -1.96,1.9 -0.74,0.42 -2.76,3.33 -0.66,0.96 -1.78,3.02 -2.06,3.55 -20.88,39.58 -8.41,43.38 -24.02,44.58 -6.22,-14.59 10.29,-42.2 14,-57.53 -2.98,-2.25 -2.95,-2.55 -5.6,-4.61l-14.37 -11.37c-5.83,-3.83 -2.86,0.32 -3.72,-2.91 -1.22,-0.5 -1.4,8.4 1,-6.73 0.88,-5.58 0.79,-7.41 0.79,-13.16 -9.72,-0.65 -16.51,-2.23 -25.62,1.22 -0.37,0.15 -0.97,0.41 -1.47,0.59 -0.08,0.58 -0.2,0.81 -0.2,1.75 -0.02,5.94 -0.41,7.39 1.99,12.7 -0.62,0.18 -1.53,-0.43 -1.93,0.31 -1.13,2.12 -6.71,1.22 -9.32,2.85l-7.24 7.29c-4.99,5.33 -10.78,8.88 -15.4,13.49l-14.67 14.09c-8.17,7.66 -5.44,10.66 -20.08,12.58 3.5,-3.95 2.02,-1.67 3.59,3.62 -12.21,-0.21 -18.82,2.46 -23.68,14.32 -1.45,3.55 -1.27,-4.23 -1.15,5.23 0.14,10.3 1.22,3.92 1.36,3.96 -1.31,-7.97 0.91,-2.54 -7.23,-5.42 -2.44,3.78 -2.57,4.4 -6.09,8.31 -0.26,0.29 -0.62,0.68 -0.88,0.97l-34.93 39.48c-2.54,2.27 -1.65,1.34 -3.81,3.2l-2.78 2.43c-3.87,3.5 -10.33,5.61 -3.91,10.68 3.4,-1.98 1.1,0 -0.02,-1.8 -0.52,-0.11 -1.34,-0.48 -1.59,0.14l-23.69 25.15c13.64,-0.71 10.33,-3.26 17.16,-9.73l13.88 -10.04c2.99,-3.45 1.99,-4.84 7.64,-5.7l16.87 15.76c5.71,2.68 4.64,3.97 8.82,8.61 4.84,5.38 14.15,10.3 20.57,14.34 0.35,0.22 2.59,1.66 2.92,1.94l1.4 1.41c4.27,4.56 -1.78,17.68 5.32,24.99z"/>
   <path class="fil4" d="M891.18 920.01c7.39,2.45 16.84,29.54 17.94,38.63 -13.85,-4.54 -31.57,-10.16 -44.75,-15.91 -17.65,-7.7 -36.71,-12.96 -38.68,-24.17 23.79,0.59 39.51,24.35 71.33,24.13l-5.84 -22.68zm-50.46 -2.49c10.85,-5.86 30.58,-2.04 43.46,-0.21 4.41,5.85 6.45,13.01 8.03,21 -11.97,-1.54 -27.81,-9.62 -39.59,-14.5 -5.65,-2.34 -7.98,-2.51 -11.9,-6.29zm53.13 -30.11c11.81,2.42 67.78,31.02 71.16,38.61 -17.98,3 -40.79,2.91 -59.26,2.14 -5.28,-11.77 -10.79,-25.92 -11.9,-40.75zm-215.48 -2.43c2.23,-5.13 11.43,-9.89 16.16,-14.39 10.45,-9.97 34.84,-43.32 42.54,-55.04 14.12,-21.47 8.08,-8.03 46.41,-16.6 23.99,-5.35 27.3,-17.66 43.76,-23.02 11.83,26.91 55.33,93.92 55.5,123.43 -64.79,10.71 -55.16,-19.6 -99.77,-25.22 -12.13,-1.53 -18.02,0.79 -30.2,-2.32 -19.3,-4.94 -1.96,2.86 -23.81,2.63 -12.05,-0.12 -18.62,-1.57 -28.46,3.81 -6.33,3.47 -15.37,10.9 -22.13,6.72zm-147.32 -96.3c42.66,-0.25 33.71,9.49 60.33,9.79 11.04,0.13 23.66,-1.21 34.42,0 11.3,1.27 19.52,8.29 29.27,-0.26 -6.83,-5.19 -14.01,1.23 -18.18,-7.23l17.72 -3.9 2.52 8.16c27.3,-4.18 4.01,-2.56 32.43,2.84 12.52,2.38 23.01,2.83 35.93,3.68 -1.94,8.68 -28.16,42.47 -33.86,47.84 -12.1,11.37 -12.4,6.72 -31.77,10.01 -11.86,2.02 -23.55,4.39 -35.81,4.77 -41.26,1.27 -61.14,-4.17 -87.88,-34.39 -9.24,-10.45 -12.09,-10.34 -11.23,-29.59 9.7,3.17 13.62,19.7 19.96,28.08 5,6.62 17.95,18.25 27.39,23.3 15.36,8.21 24.34,7.05 44.22,5.79 7.99,-0.5 40.12,-3.01 44.75,-5.13 -6.96,-2.39 -34.64,0.57 -44.34,0.99 -19.54,0.86 -24.63,-0.51 -40.47,-7.75 -21.95,-10.03 -18.57,-18.81 -23.11,-27.4 -5.53,-10.45 -20.69,-22.91 -22.29,-29.6zm102.84 -3.64l-62.44 2.09c-9.53,-1.41 -5.78,-1.19 -6.19,-6.34 -2.88,-0.03 8.63,-6.75 11.23,-8.39 7.98,-5.01 11.72,-4.21 22.21,-4.92 15.96,-1.09 5.91,-1.76 26.41,9.57 5.35,2.96 5.9,2.79 8.78,7.99zm-163.56 17.07c-4.72,4.78 -5.4,1.23 -6.58,8.07 12.25,-0.57 25.96,-19.92 35.55,-22.16 11.39,13.49 -10.23,20.38 -19.73,26.61 -14.17,9.29 -17.08,14.82 -39.66,13.34 -19.27,-1.26 -28.07,-4.95 -45.86,-8.18 -32.41,-5.88 -31.14,0.9 -48.87,4.06 4.35,-7.23 22.55,-21.08 29.61,-27.27 21.29,-18.68 44.91,-38.09 77.07,-33.5 14.1,2.01 41.65,6.79 46.21,9.82 -3.5,7.76 -34.65,21.08 -42.11,23.68 -18.04,6.27 -10.25,1.47 -22.54,-3.11 -15.08,-5.61 -50.86,8.88 -44.43,15.94 4.57,5.03 19.95,-0.89 26.97,-2.4 18.58,-4 15.85,1.86 27.33,1.96 8.23,0.08 18.09,-5.73 27.04,-6.86zm-159.28 38.32c14.21,0.73 30.77,-8.55 49.1,-9.29 13.5,-0.55 43.32,-0.62 54.56,2.59 -3.44,7.67 -13.29,11.39 -23.47,17.23 -16.67,9.56 -14.34,4.08 -33.01,7.03 -0.79,5.75 -1.75,2.24 0.54,8.24l5.06 6.1c-10.04,9.44 -86.08,29.62 -98.63,42.36 -12.85,13.03 -21.16,21.07 -33.22,37.29 -6.18,8.31 -9.32,11.8 -14.5,21.57 -3.42,6.45 -11.53,14.41 -20.08,16.46 1.45,-13.53 52.84,-105.42 66.07,-131.29 10.04,-19.66 30.07,-34.07 47.68,-51.69 10.76,-10.78 40.75,-41.74 44.73,-54.88 14.46,-0.53 37.09,5.28 43.92,13.52 -4.04,4.37 -29.15,22.86 -42.76,38.46 -31.63,36.26 -44.78,17.18 -45.99,36.3zm66.89 -105.53c1.93,3.39 -3.4,3.22 14.01,5.49 14.61,1.91 34.75,9.25 41.62,19.03 -13.52,2.55 -52.74,-14.28 -69.2,-19.05 0.18,-9.49 2.74,-12.97 11.53,-15.12 6.9,-1.7 15.01,-3.27 22.05,-4.96 13.11,-3.16 32.13,-8.92 45.33,-8.91 10,13.66 7.65,21.34 21.96,32.34 4.87,3.75 10.46,7.25 16.45,10.65 11.05,6.28 13.38,4.54 16.9,11.3l-2.93 1.1c-7.17,1.13 -0.01,0.76 -4.42,0.37 -1.29,-0.12 -5.93,-1.63 -7.35,-2.16 -14.67,-5.37 -25.5,-13.46 -38.98,-20.87 -6.93,-3.82 -19.7,-9.69 -28.92,-10.36 -5.67,-0.4 -35.46,-0.88 -38.05,1.15zm667.05 5.54c8.41,1.47 8.77,6.32 16.17,10.86 6,3.69 13.32,5.82 18.72,8.95 0.65,20.13 2.78,34.03 -2.08,52.42 -5.92,22.42 -10.68,27.56 -13.65,44.24 -5.19,29.2 -7.01,75.82 -8,106.21 -12.43,-5.16 -39.99,-26.38 -53.82,-35.46 -17.37,-11.4 -62.79,-37.35 -84.68,-47.25 -6.31,-2.85 -27,-11.18 -30.56,-14.68 -2.42,-2.39 -28.64,-54.17 -29.05,-57.41 27.43,-2.58 28.5,-3.65 46.62,-16.73 11.77,-8.5 27.83,-16.68 32.21,-31.67 -7.99,3.79 -2.92,5.19 -13.87,8.08 1.96,-10.06 5.45,-10.47 14.98,-13.32 7.25,-30.75 3.51,-31.3 18.01,-34.35 12.44,-2.62 18.76,0.86 41.42,-3.72 9.18,-1.86 11.85,6.11 16.66,11.29 7.62,8.2 11.79,3.86 19.78,10.66 -0.35,7.65 -13.18,30.03 -27.43,29.13 -0.46,-9.94 5.43,-21.21 6.36,-32.71 -7.13,2.72 -8.76,13.24 -12.3,20.41 -6.03,12.21 -2.81,18.54 -17.2,17.92 1.55,-6.06 6.27,-22.47 8.6,-28.22 2.95,-7.27 11.35,-20.36 7.94,-25.94 -4.39,3.97 -13.31,24.33 -15.92,30.51 -4.39,10.37 -18.15,28.12 1.37,28.64 10.11,0.27 10.95,-3.38 18.51,-4.82 34.27,-6.57 22.52,-14.25 41.21,-33.04zm82.04 -55.53c13.39,0.06 13.93,-1.05 14.44,11.55 -14.17,-0.97 -10.48,-1.09 -14.44,-11.55zm-63.98 1.22c7.45,-3.86 17.36,-4.73 25.86,-8.61 3.8,-1.73 11.46,-11 28.77,-1.12 -2.74,3.86 -1.73,3.71 -11.41,6.12l-39.38 5.3c-3.73,-0.68 -2.35,-0.69 -3.84,-1.69zm149.99 -1.69c-17.15,0 -18.77,3.23 -19.83,-9.11 14.76,-0.77 53.7,-1.7 66.76,-5.57 6,-1.77 12.39,-5.97 17.26,-6.39 0.69,13.68 -12.59,14.38 -24.6,17.04 -14.85,3.29 -23.51,4.03 -39.59,4.03zm-910.5 6.86c-1.67,-12.49 -1.79,-10.75 4.13,-18.93 14.64,-20.24 12.66,-34.29 40.03,-33.68 0.11,23.54 2.17,24.81 -9.14,41.08 -10.35,14.88 -10.31,16.5 -35.02,11.53zm673.94 -74.12c1.11,-8.11 4.53,-14.19 5.39,-25.04 0.75,-9.38 -0.49,-19.16 0.66,-28.14 18.92,6.1 26.41,31.51 55.17,28.24 26.5,-3.01 41.47,-25.95 59.45,-25.29 -3.43,7.7 -14.86,14.08 -23.53,19.43 -17.42,10.76 -25.19,46.92 -84.1,39.89 12.24,-13.89 31.76,-12.74 38.36,-25.79 -25.14,0.01 -33.51,13.51 -51.4,16.7zm130.26 -52.32c-0.73,-10.17 1.02,-11.7 6.92,-15.31 4.11,4.57 4.62,8.72 4.9,15.6l-11.82 -0.29zm-255.37 -37.65c5.07,-4.59 36.63,6.57 46.01,27.4 -15.87,-0.16 -18.14,-3.47 -29.11,-9.89 -6.1,-3.58 -23.97,-11.11 -16.9,-17.51zm-426.45 19.52c-12.47,-1.72 -27.93,-37.41 -12.81,-46.64 -3.33,9.81 -3.43,8.99 -1.39,20.26 1.4,-1.48 1.17,-0.95 2.67,-3.36 0.89,-1.43 0.99,-2.06 1.89,-3.8 1.1,-2.14 1.64,-3.85 3.66,-5.29 -8.54,26.75 5.84,14.06 5.98,38.83zm3.05 -14.51l-4.33 -35.57c8.16,2.08 11.82,5.88 11.86,15.91 0.04,11.78 -0.31,17.2 -7.53,19.66zm578.16 -53.31c-1.83,-18.97 -13.66,-24.19 -18.66,-38.95l36.18 48.83c3.61,-0.51 2.68,-0.79 4.97,-1.62 9.87,-3.56 5.62,-4.63 11.1,-2.15 12.23,7.11 4.38,31.55 30.09,28.89 15.69,-1.63 31.75,-10.87 45.26,-12.07 -1.33,13.57 -23.88,39.8 -29.12,55.28 -2.87,8.51 -2.59,8.13 -9.99,11.8 -16.44,8.15 -32.04,16.21 -48.64,11.89 1.66,-4.07 2.2,-4.93 11.65,-7.21 27.8,-6.72 61.58,-44.33 66.36,-63.51 -6.59,3.45 -14.43,14.87 -18.95,20.43 -18.69,22.98 -25.74,19.83 -43.77,32.09 -7.13,4.84 -11.77,11.31 -22.91,13.79 -3.26,-2.09 -17.32,-19.07 -58.23,-43.51 -10.26,-6.13 -12.82,-4.17 -24.08,-8.18 0.11,-5.5 18.2,-44 22.04,-50.94 8.57,-15.5 8.71,-25.18 15.09,-29.95 4.96,2.78 4.02,3.02 7.56,8.78 6.54,10.6 13.78,23.01 24.05,26.31zm-564.03 -16.7c-12.03,-8.62 -7.18,-23.85 -2.24,-27.18 7.8,-5.25 20.6,4.56 20.65,4.63 6.19,9.05 -0.91,7.43 -0.97,7.53 -8.92,-3.46 -2.89,-1.28 -5.96,-11.4 -7.82,0.14 -9.03,1.62 -13.49,4.46 -2.39,11.65 -0.31,11.9 2.01,21.96zm96.36 -16.08c2.35,15.4 -18,12 -28.41,9.05 -32.1,-9.1 -3.97,-38.87 13.66,-24.9 -1.82,6.59 -13.03,2.74 -10.42,21.45 5.49,0.8 1.85,0.25 5.89,-4.74l3.94 6.05c1.94,1.84 -1.47,3.43 6.6,2.19 5.66,-0.87 6.07,-4.95 8.74,-9.1zm-92.36 38.82c-4.53,-1.56 -1.28,0.79 -4.55,-4.84 -1.55,-2.66 -1.74,-3.66 -3.95,-6.98 -4.86,-7.25 -25.76,-22.32 -13.61,-43.18 9.92,-17.04 27.6,-18.51 39.61,-23.57 7.57,-3.19 5.57,-4.99 12.94,-8.43 -0.19,13.46 -1.15,9.47 -5.95,17.35 -3.56,5.84 -1.87,8.4 -5.47,14l-2.87 -8.17c-0.1,-0.29 -0.38,-0.63 -0.45,-1.28 -0.06,-0.64 -0.24,-0.85 -0.45,-1.24 -12,-0.16 -20.39,-0.17 -26.89,7.21 2.03,1.16 5.67,-0.82 6.3,-0.91 -29.27,17.36 3.76,52.45 5.34,60.04zm650.56 10.01c1.63,-13.52 10.06,-12.12 8.13,-34.82 -3.84,-45.12 7.59,-29.26 16.18,-63.17 3.45,-13.62 8.41,-14.48 15.37,-24.45 0.46,8.42 -5.43,14.45 -6.6,26.17 -1.01,10.03 -1.93,19.42 -2.61,28.98l-5.08 63.21 -25.39 4.08zm-476.09 -406.36c-3.71,15.33 -20.22,42.94 -14,57.53 15.61,-1.2 3.14,-5 24.02,-44.58 0.28,-0.53 1.4,-2.59 2.06,-3.55 2.02,-2.91 0.8,-1.43 2.76,-3.33 0.25,-4.72 11.14,-25.04 15.42,-38.13l4.46 -13.44c7.47,-7.27 50.73,-14.18 64.05,-14.58 -14.4,10.74 -11.09,27.75 -10.38,42.92l2.67 13.97c0.13,-0.28 0.52,1.06 0.89,1.52 3.56,-5.33 4.81,-25.5 5.65,-33.53 1.04,-10.06 2.68,-17.3 10.61,-25.87 28.24,1.43 59.1,-3.5 88.6,-1.48 15.49,1.06 21.77,5.58 36.99,8.21 28.36,4.91 18.68,3.31 31.75,13.71 6.5,5.16 41.09,20.06 57.8,32.49 35.94,26.75 68.99,48.62 100.29,80.43 60.1,61.08 30.87,26.06 52.18,83.37 22.21,59.71 16.54,27.98 33.7,56.7 12.82,21.47 -4.15,27.26 7.06,32.3 5.72,-2.97 3.73,-7.79 4.7,-14.79 5.45,0.51 8.79,2.61 8.24,9.49l-20.08 36.48c-5.32,8.46 -11.33,12.9 -16.73,21.25 -4.51,6.96 -7.75,15.3 -12.31,23.73 -8.85,16.38 -22.69,30.71 -16.79,55.01 3.11,12.81 11.45,14.25 1.37,27.31 -6.76,8.75 -11.8,10.24 -26.1,10.27 -3.01,-5.03 -3.82,-13.6 -6.5,-18.91l-24.72 -45.97c-17.43,-28.07 -23.88,-42.38 -51.11,-43.06 -29.63,-46.37 3.12,-42.65 -4.86,-114.49 -6.27,8.07 -2.38,6.02 -5.3,5.65 -5.27,-11.63 -1.7,-47.3 -6.18,-61.62l-4.33 10.29c-4.02,-5.11 -8.83,-16.36 -16.51,-19.58 -21.13,-8.89 1.08,28.05 1.1,28.09 10.11,18 19.96,40.08 17.23,62.25 -1.21,9.87 -1.78,26.07 -9.83,31.41 -8.75,-26.16 -16.05,-43.27 -33.15,-64.3 -6.97,-8.57 -8.99,-7.5 -8.82,-23.02 0.78,-72.36 18.44,-74.59 22.89,-105.15 -9.14,1 -13.67,10.25 -17.18,19.18 -8.67,21.99 -11.09,32.1 -12.32,56.92 -0.73,14.96 1.23,24.34 -4.84,29.68 -9.5,-2.8 -9.26,-22.29 -21.47,-27.51 1.27,7.34 3.16,6.39 3.3,14.73l-12.17 -8.33c-0.64,-12.98 -8.2,-35.76 -14.33,-46.44 -26.69,-1.85 -11.05,19.53 -7.94,29.35 -8.59,-1.21 -32.67,-15.32 -40.16,-19.78 -36.65,-21.83 -30.55,-4.05 -42.09,-12.03 -5.26,-3.65 -11.55,-16.18 -30.15,-29.55 -34.27,-24.64 -20.98,-12.54 -40.12,-17.17l-10.46 5.21c0.76,9.18 2.62,8.96 9.94,12.89 10.6,5.69 34.78,18.47 34.18,30.99 -12.91,2.89 -41.92,-3.79 -44.2,16.73 25.15,3.63 79.75,-7.62 83.72,-7.57 4.78,0.07 11.84,0.88 16.38,1.75 29.82,5.78 101.9,47.56 116.27,66.17 14.89,19.28 44.56,63.89 54.04,90.52 8.27,23.26 19.56,39.51 19.91,52.87 1,37.75 -6.46,43.47 -10.36,64.6 -3.69,-1.69 -3.09,-2.03 -4.38,-2.95 -3.33,-2.4 -0.12,-1.4 -3.9,-2.93 -3.78,3.58 -11.09,18.34 -15.04,24 -4.23,6.06 -4.76,5.92 -6.65,13.3 -2.02,7.92 -3,8.27 -4.7,14.96 -1.56,-2.03 -2.46,-0.62 -1.65,-8.25 0.51,-4.78 1.49,-7.68 1.78,-13.36 -2.5,1.11 -6.44,-0.05 -10.91,14.63 -2.26,7.41 -0.74,15.91 -2.73,22.53 -7.84,0.88 -31.23,-7.91 -39.7,-10.41 -4.16,-32.73 -16.02,-105.22 -36.04,-119.08 -15.44,12.27 -17.01,11.63 -22.74,34.54 -3.61,14.44 -3.4,40.78 -1.42,56.31 4.38,34.43 43.1,51.71 51.5,65.88 -0.37,0.34 -0.77,0.49 -1.08,1.05 -0.35,0.65 -1.1,0.67 -1.55,0.74l-4.83 0.21c2.84,2.28 5.5,3.2 9.89,1.72l3.94 -4.09c0.1,-0.57 0.37,-0.78 0.62,-1.13 6.31,3.94 1.94,1.63 10.99,1.91 25.38,0.77 19.74,3.23 21.52,-2.64l9.35 1.23c2.43,-5.31 -0.06,-2.11 3.27,-0.54 4.56,2.15 22.43,29.33 25.34,31.54 7.29,-17.35 -43.19,-46.87 -50.64,-53.35 41.29,10.49 62.17,28.33 61.78,77.58 -0.2,26.16 0.56,39.63 -12.1,58.71 -4.61,6.95 -8.86,13.29 -13.8,20.51 -7.78,11.38 -14.51,7.09 -20.3,17.53 15.79,-1.67 34.68,-7.47 50.52,-11.06 26.21,-5.95 75.95,-11.89 100.2,-20.42 22.45,-7.9 23.75,-52.31 76.07,-38.49 60.23,15.92 48.79,17.74 52,38.17 1.28,8.2 3.48,17.95 5.22,25.89 3.64,16.69 4.02,37.23 5.62,55.13l-26.72 -30.44c-1.77,-2.08 -12.64,-14.19 -13.34,-15.58 -3.6,-7.13 -0.33,-17.62 -4.34,-24.65 -3.07,-5.39 -11.68,-7.63 -18.32,-10.47l-19.34 -9.67c-5.97,-1.61 -10.91,4.53 -22.46,5.41 -8.19,0.62 -17.4,1.06 -25.37,2.39 -0.15,0.29 -0.07,0.55 -0.07,0.97 -0.01,7.3 2.58,3.68 -2.92,6.93 -5.1,3.01 -9.97,3.19 -16.08,4.36l-147.3 30.05 -39.14 19.95c-25.24,15.36 -42.69,37.46 -70.18,47.19 -43.42,15.37 -145.8,2.1 -181.34,-24.28 -8.43,-6.26 -3.02,-6.06 -9.16,-11.33 -10.27,4.44 0.33,6.11 -12.59,8.04 -4.12,0.61 -13.48,0.6 -18.1,0.71 -13.1,0.33 -25.88,-0.29 -38.87,-1.76 -52.83,-5.96 -73.83,-31.04 -81.95,-80.77 -3.71,-22.75 -4.46,-53.06 -3.13,-76.84 8.54,1.78 6.42,5.77 11.89,11.3 7.25,-13.8 -2.44,-24.36 -9.72,-38.27 -20.61,-39.35 12.59,-89.87 27.61,-132.78 19.55,-0.05 9.11,15.87 24.08,24.98 8.42,5.11 9.75,2.59 19.34,3.92 8.97,1.23 16.83,10.32 18.66,0.14 1.45,-8.12 -0.03,-2.96 5.65,-10.1 3.77,6.24 6.97,9.39 13.08,13.63 -2.16,9.7 -24.66,31.19 -31.79,38.01 -5.12,4.9 -13.62,10.99 -16.15,18.01 -2.48,6.87 -4.72,26.39 -3.79,32.87 4.77,3.69 12.45,9.61 19.55,11.8 9.63,-24.65 -32.96,-23.55 6.4,-56.64 8.62,-7.25 33.03,-34.75 34.83,-49.76 1.66,-13.8 1.29,-41.73 -11.98,-45.22 -6.4,10 2.75,10.76 6.71,20.64 3.33,8.29 0.69,17.51 -0.65,25.81 -16.31,-10.8 0.91,-21.98 -20.2,-46.5 -4.39,-5.1 -12.51,-11.73 -18.04,-14.51 -12.17,-6.1 -9.86,2.26 -27.52,-1.97 -0.75,11.83 1.84,10.64 -5.38,9.08l-2.08 14.39c-1.61,-3.19 2.35,-32.89 3.69,-39.47 2.28,-11.17 14.4,-21.59 23.72,-25.33l29.7 37.51c4.84,6.58 3.93,9.99 13.63,9.48 3.75,-20.31 -8.7,-39.59 -21.54,-52.22 -27.22,-26.76 -30.37,7.04 -45.9,6.21 -1.72,-14.97 -2.61,-18.08 5.11,-26.88 18.81,-21.45 1.88,-8.73 16.8,-17.71 4.5,-2.71 12.59,-14.8 14.9,-19.54 5.46,-11.18 9.54,-10.55 14.83,-19.68 -1.76,-9.13 -9.36,-18 -14.89,-22.31l-3.85 2.08c-12.42,6.68 -5.96,4.07 -10.6,10.39 -13.41,-7.96 -5.52,-31.61 -4.64,-39.81 0.01,-0.04 1.12,-2.87 -0.85,-6.51 -8.4,16.42 -11.35,23.44 -10.15,47.11 7.16,21.62 24.47,27.04 10.77,34.92 -0.43,0.24 -1.85,0.93 -2.28,1.24 -3.08,2.19 -0.83,0.39 -2.84,2.61l-9.26 8.87c-2.62,2.44 -11.68,18.15 -13.97,22.14 -2.89,5.06 -2.86,19.78 -5.28,29.17 -9.13,35.44 0.17,22.4 -31.57,38.86 -41.77,21.66 -18.57,53.36 -24.9,77.82 -8.98,-4.38 -3.88,-2.8 -9.36,-13.3 -1.87,-3.58 0.35,-1.78 -2.55,-3.46 -1.82,21.65 -19.42,42.29 -6.34,73.43 2.97,7.08 9.57,26.55 12.29,31.18 1.64,2.79 19.17,18.29 23.75,20.79 0.15,20.37 -0.74,41.98 0.52,62.2 1.17,18.91 7.9,35.35 9.26,53.53 -22.12,-3.67 -53.67,4.29 -70.98,12.89 2.67,-20.1 23.29,-41.4 19.95,-61.91 -1.92,-11.82 -6.66,-18.62 -8.39,-34.42 -1.02,-9.34 -2.46,-29.58 -5.09,-37.8 -5.85,2.54 -1.19,9.14 -21.68,21.76 -7.38,-7.14 -6.79,-15.14 -19.79,-15.71 -8.22,-0.37 -21.42,3.87 -28.67,6.43 -21.89,7.71 -20.3,28.51 -35.41,36.3 2.32,-13.89 7.09,-28.47 13.52,-38.42 8.29,-12.83 11.34,-18.91 18.32,-34.07 4.62,-10.01 13.12,-17.63 19.6,-31.21 7.18,-15.06 6.53,-27.82 0.53,-41.95 -18.29,0.31 -26,19.64 -42.06,40.39 -7.94,10.27 -31.22,36.32 -33.45,49.71 8.19,-2.86 10.42,-8.92 18.84,-19.15l33.25 -42.67c4.45,-5.66 11.89,-18.33 18.77,-14.99 14.09,8.55 -13.5,44.54 -26.23,69.14 -16.49,31.85 -20.14,23.17 -30.84,74.08 -8.05,-1.85 -8.76,-5.14 -15.73,-5.14 -0.36,6.93 -0.29,4.77 15,15.79 6.21,4.48 13.21,9.66 21.74,9.82 -3.43,-8.24 -10,-4.87 -14.38,-15.62 3.48,-7.32 8.53,-8.84 14.49,-16.48 4,-5.12 8.65,-12.93 12.21,-18.52 5.32,-8.35 7.06,-9.35 18.68,-12.03 10.15,-2.33 13.6,-7.12 24.79,-4.75 2.98,6.27 1.02,10.39 5.22,16.45 5,7.22 8.63,4.51 3.98,15.44 -5,2.29 -12.33,1.2 -16.76,-2.68 -5.72,-5.02 -4.45,-9.65 -13.61,-12 1.3,10.64 5.81,10.5 8.54,18.3 -13.75,9.49 -11.03,2.66 -23.63,-0.87 2.28,8.55 2.58,6.14 9.43,9.68 -1.09,11.75 -10.65,23.78 -16.75,30.06 -5.03,-1.04 -2.67,-0.87 -6.22,-4.58 0.63,12.27 8.25,10.88 8.19,21.75 -18.69,14.99 -29.76,-3.21 -47.4,-6.29 2.78,8.8 9.67,11.72 17.71,16.72 11.57,7.21 16.15,4.79 27.24,0.86 25.16,-8.89 36.9,3.26 52.12,10.55 -1.58,-11.36 -6.86,-8.81 -13.37,-16.42 13.45,-26.17 19.54,-25.57 24.98,-31.1 -3.31,-7.21 -4.36,0.71 -5.25,-13.94 -0.43,-6.99 0.18,-14.2 1.51,-20.99 2.79,-14.23 6.77,-21.49 17.15,-26.47 0.31,0.4 0.67,0.57 0.77,1.31 0.11,0.74 0.59,1 0.72,1.33 2.79,7.05 3.18,20.66 3.75,28.43 2.57,35.28 17.86,8.66 -3.49,54.4 -7.47,15.99 -13.62,38.93 -20.01,53.78 -6.08,14.14 -6.25,11.63 -15.92,20.29 -8.12,7.26 -13.54,8.27 -20.88,15.25l-45.79 46.3c-11.05,15.27 -64.7,121.7 -77.49,150.32l-4.56 7.45 -3.46 15.14c26.09,0.69 13.93,-4.42 27.35,-8.42 1.34,3.59 -0.22,3.4 -1.43,8.59l23.11 0.29c7.38,-6.7 24.76,-35.8 30.36,-45.6 10.97,-19.19 12.02,-34.58 31.94,-43.94 16.49,-7.75 38.82,-13.97 55.7,-20.15 8.71,-3.19 19.68,-10.19 29.15,-7.03 4.72,1.58 21.8,12.62 24.23,15.42 -7.47,15.53 -24.36,29.97 -37.67,41.56 -5.73,4.98 -10.49,5.93 -11.9,14.02 17.91,5.83 95.2,-32.44 104.97,-34.71 33.91,-7.86 33.75,21.89 49.31,55.42 4.55,9.81 5.73,20.08 16.64,19.73 4.37,-8.07 -12.15,-47.52 -16.28,-58.02 -5.26,-13.37 -20.62,-44.3 -28.41,-51.34 -2.99,-1.01 -54.9,3.56 -67.38,3.27 -24.54,-0.55 -23.19,-9.34 -39.34,-15.73 -6.66,-2.63 -7.82,-0.68 -11.81,-6.74l6.03 -2.3c19.75,-5.03 35.84,-13.2 41.23,-13.74 -10.45,12.98 -19.53,10.23 -28.49,17.85 2.61,2.61 -0.45,0.73 4.45,2.92 1.42,0.63 3.4,1.05 5.4,1.73 21.88,7.47 0.37,8.69 37.08,6.92 13.83,-0.66 45.97,2.38 54.52,-7.96 -6.77,-4.93 -12.33,0.5 -19.5,2.01 -6.94,1.46 -16.86,0.76 -24.23,0.88 -15.78,0.25 -34.96,3.83 -42.68,-6.5 5.76,-5.35 15.92,-13.67 21.66,-17.43 13.03,-8.52 33.99,2.25 65.4,-15.84 10.95,-6.31 23.48,-3.16 37.69,-1.68 2.99,9.24 2.83,22.77 5.35,32.66 2.87,11.29 8.34,20.37 7.3,33.02 -0.97,11.98 -3.73,23.1 -5.36,35.01 -2.69,19.62 0.54,19.41 3.66,35.05l5.4 32.83c6.48,-6.14 2.52,-39.26 0.15,-45.93 -6.11,-17.18 0.45,-26.89 1.44,-41.27 7.75,12.7 -0.39,35.38 12.02,38.62 4.81,-9.35 2.61,-48.77 -0.45,-59.46 -3.34,-11.68 -15.23,-36.28 -15.23,-46.97 8.13,4.09 10.94,11.49 23.03,17.61 39.28,19.89 74.21,8.8 113.06,4.35 -4.38,14.01 -13.13,22.6 -21.01,30.17 -10.39,9.99 -60.16,70.45 -65.88,81.71 13.79,-4.69 58.89,-55.52 63.92,-65.76 15.68,4.76 10.94,-3.06 25.43,-15.14l42.92 24.93c8.56,6.78 32.71,29.47 38.39,31.35 19.93,-16.33 7.04,-17.19 41.38,6.45 7.87,5.42 7.25,3.84 15.25,0.44 15.48,-6.57 78.81,5.56 102.6,8.6 -0.02,-11.62 -2.24,-16.01 -2.39,-19.36l0.15 -2.29c0.02,-0.23 0.24,-0.84 0.27,-1.01 1.77,-9.74 87.05,-0.53 102.47,6.62 12.06,5.59 19.04,15.86 33.3,22.64 23.91,11.37 2.24,27.79 31.29,27.98 -2.6,-13.11 -12.66,-33.18 -9.61,-44.92 -1.3,-2.07 -0.43,0.6 -1.98,-4.59l-2.58 -35.97c-0.83,-18.48 6.57,-77.53 17.31,-93.63 4.83,-7.24 6.76,-4.93 6.84,-16.55 0.09,-13.2 -2.87,-26.24 -4.29,-39.51 -2.28,-21.14 -7.34,-14.32 -20.8,-24.08 -11.7,-8.49 -11.29,-10.95 -28.03,-15.29 -10.1,-2.62 -26.54,-5.61 -25.42,-17.84 3.21,-0.44 10.27,-0.9 12.89,-1.72 8.44,-2.63 7.16,-11.58 34.77,-0.87 67.01,25.99 41.41,-10.54 69.03,91.91 2.42,8.96 0.78,7.81 7.73,9.9 2.42,-12.64 -15.16,-77.8 -21.71,-86.48 -8.06,-10.68 -53.03,-24.69 -71.24,-24.17l-11.92 -2.21c18.78,-10.99 46.45,-5.3 60.31,-7.82 28.95,-5.27 17.52,-11.03 51.76,48.71 7.6,13.27 14.58,40.21 33.38,50.87 -1.05,-16.09 -41.37,-72.34 -41.25,-85.88 9.3,2.22 3.96,0.54 9.37,8.22 6.59,9.34 37.83,39.8 47.46,50.13 17.52,18.8 -9.07,36.91 -5.17,77.5 0.48,5.01 -16.52,73.92 -19.9,78.47 1.98,19.1 -9.2,28.06 1.05,47.08 3.38,6.27 2.3,8.88 8.7,10.41 4.94,-10.34 -9.95,-15 -2.1,-30.26 7.65,-14.87 5.21,-14.07 8.28,-31.55 4.09,-23.29 10.47,-46.26 12.61,-68.28 6.28,-64.42 6.43,-51.98 4.94,-111.45 -0.37,-14.53 -3.3,-25.76 -3.91,-37.9 21.35,-0.69 38.06,-0.74 57.43,-5.94 21.2,-5.68 31.61,-11.19 29.61,-36.16 -22.08,-12.25 -82.43,-12.32 -94.67,-6.77 2.46,9.89 14.02,6.24 38.4,6.47 12.09,0.11 34.02,-1.09 43.28,2.5 -4.84,9.59 -22.29,9.66 -35.96,10.37 -14.04,0.73 -30.8,2.91 -45.26,0.19l-1.69 -16.78c-22.85,-12.72 -0.18,-4.42 -36.48,-16.99 -9.93,-3.45 -12.61,-3.31 -23.23,-4.23 -15.8,-1.37 -10.22,-16.48 -38.29,1.89l-29.32 24.93c-8.32,7.64 -6.09,5.4 -10.26,16.57l-109 21.13c4.77,-17.7 7.95,-2.42 12.55,-36.1 38.06,-10.77 64.89,12.57 105.62,-24.4 10.89,-9.88 22.14,-21.9 32.22,-32.87 17.8,-19.38 17.39,-17.04 33.94,-30.41 1.13,-14.28 -3.2,-18.38 -4.89,-30.87 -2.03,-14.98 2.25,-18.26 8.13,-29.8 4.24,-8.32 2.21,-7.9 4.19,-14.42 2.31,-7.6 8.72,-2.92 12.68,-44.49 2.25,-23.64 4.13,-47.41 4.9,-72.08 1.78,-56.8 14.82,-50.05 -11.83,-92 -14.95,-23.53 1.98,-12.7 -14.87,-23 -16.24,-9.91 -31.18,-67.2 -37.83,-76.11l-36.19 -39.73c-26.68,-24.31 -8.76,-11.56 -41.26,-34.65l-22.8 -15.14c-14.35,-9.45 -74.22,-54.4 -91.45,-60.4 -5.99,-2.09 -8.54,-1.1 -14.05,-3.95 -4.32,-2.24 -6.84,-5.51 -12.21,-7.63 -9.34,-3.69 -21.43,-2.64 -31.53,-6.54 -29.47,-11.37 -28.12,-7.22 -68.07,-7.88 -38.98,-0.63 -69.16,-2.93 -104.06,10 -36.25,13.43 -30.91,51.09 -45.71,66.85z"/>
   <path class="fil5" d="M1070.52 239.79c15.45,0.73 6.51,17.24 19.75,34.07 4.57,5.79 5.01,3.71 10.55,7.51 5.28,3.63 11.77,12.37 16.27,19.9 5.36,8.98 15.33,15.04 9.22,24.84 -8.23,-1.2 -5.18,-1.91 -8.52,-9.27 -5.63,-12.42 -14.27,-24.72 -28.43,-27.67 -9,-19.5 -20.34,-31.89 -18.84,-49.38zm-49.26 -79.59c15.62,3.39 24.78,23.12 30.26,33.08 6.35,11.54 20.87,25.73 18.6,44.37 -6.95,-3.3 -20.14,-29.51 -24.55,-38.28 -4.02,-7.96 -6.88,-12.61 -11.8,-19.03 -4.19,-5.45 -11.66,-14.52 -12.51,-20.14zm-311.11 -71.25c9.05,2.4 44.81,47.47 53.98,57.45 5.62,6.12 8.93,18.18 10.66,29.23 -16.63,-5.32 -60.88,-57.97 -64.64,-86.68zm145 -0.08l-7.05 1.57c-8.85,0.94 -19.26,-1.88 -23.93,-2.16 -7.42,-0.42 -17.43,3.03 -30.13,1.26l-0.38 -10.51c10.87,-4.5 20.43,-0.84 29.39,1.03 11.24,2.34 22.26,-0.78 33.43,1.13l-1.33 7.68zm-219.74 5.8c2.22,7.7 4.08,8.06 9.47,11.54 10.81,6.95 20,16.18 28.06,22.7 6.49,5.25 -5.22,-0.02 4.05,2.09 4.89,1.11 5.96,-0.21 12.9,1.65 19.14,4.63 5.85,-7.47 40.12,17.17 18.6,13.37 24.89,25.9 30.15,29.55 11.54,7.98 5.44,-9.8 42.09,12.03 7.49,4.46 31.57,18.57 40.16,19.78 -3.11,-9.82 -18.75,-31.2 7.94,-29.35 6.13,10.68 13.69,33.46 14.33,46.44l12.17 8.33c-0.14,-8.34 -2.03,-7.39 -3.3,-14.73 12.21,5.22 11.97,24.71 21.47,27.51 6.07,-5.34 4.11,-14.72 4.84,-29.68 1.23,-24.82 3.65,-34.93 12.32,-56.92 3.51,-8.93 8.04,-18.18 17.18,-19.18 -4.45,30.56 -22.11,32.79 -22.89,105.15 -0.17,15.52 1.85,14.45 8.82,23.02 17.1,21.03 24.4,38.14 33.15,64.3 8.05,-5.34 8.62,-21.54 9.83,-31.41 2.73,-22.17 -7.12,-44.25 -17.23,-62.25 -0.02,-0.04 -22.23,-36.98 -1.1,-28.09 7.68,3.22 12.49,14.47 16.51,19.58l4.33 -10.29c4.48,14.32 0.91,49.99 6.18,61.62 2.92,0.37 -0.97,2.42 5.3,-5.65 7.98,71.84 -24.77,68.12 4.86,114.49 27.23,0.68 33.68,14.99 51.11,43.06l24.72 45.97c2.68,5.31 3.49,13.88 6.5,18.91 14.3,-0.03 19.34,-1.52 26.1,-10.27 10.08,-13.06 1.74,-14.5 -1.37,-27.31 -5.9,-24.3 7.94,-38.63 16.79,-55.01 4.56,-8.43 7.8,-16.77 12.31,-23.73 5.4,-8.35 11.41,-12.79 16.73,-21.25l20.08 -36.48c0.55,-6.88 -2.79,-8.98 -8.24,-9.49 -0.97,7 1.02,11.82 -4.7,14.79 -11.21,-5.04 5.76,-10.83 -7.06,-32.3 -17.16,-28.72 -11.49,3.01 -33.7,-56.7 -21.31,-57.31 7.92,-22.29 -52.18,-83.37 -31.3,-31.81 -64.35,-53.68 -100.29,-80.43 -16.71,-12.43 -51.3,-27.33 -57.8,-32.49 -13.07,-10.4 -3.39,-8.8 -31.75,-13.71 -15.22,-2.63 -21.5,-7.15 -36.99,-8.21 -29.5,-2.02 -60.36,2.91 -88.6,1.48 -7.93,8.57 -9.57,15.81 -10.61,25.87 -0.84,8.03 -2.09,28.2 -5.65,33.53 -0.37,-0.46 -0.76,-1.8 -0.89,-1.52l-2.67 -13.97c-0.71,-15.17 -4.02,-32.18 10.38,-42.92 -13.32,0.4 -56.58,7.31 -64.05,14.58l-4.46 13.44c-4.28,13.09 -15.17,33.41 -15.42,38.13z"/>
   <path class="fil3" d="M148.1 560.26c6.06,-2.2 7.51,-4.69 15.11,-3.99 8.03,13.86 3.02,34.17 -14.67,46.71l2.16 23.5c8.02,3.25 16.4,7.16 24.48,6.42 1.51,-13.9 -1.32,-35.58 3.3,-47.21 14.11,-35.53 13.22,-41.13 34.55,-66.66 10.54,-12.61 17.21,-23.04 27.88,-22.34 8.47,20.23 -0.43,43.75 -10.74,61.18 -6.13,10.36 -4.36,18.87 -7.82,32.11 -2.9,11.07 0.43,24.07 0.69,36.67 10.19,-5.71 13.3,-37.43 25.14,-41.7 -2.04,10.64 -11.77,31.68 -16.23,43.43l-5.5 13.32c-13.02,-1.17 -8.51,-4.61 -18.78,-3.09 -8.14,1.2 -10.94,2.1 -16.68,-3.09 5.37,-3.93 16.58,-2.3 23.95,-2.67 2.02,-13.93 -1.63,-24.87 -2.04,-35.58 -0.26,-6.88 2.15,-7.86 4.29,-14.38 2.36,-7.15 0.8,-10.77 1.72,-17.85 1.01,-7.74 9.99,-17.73 13.62,-26.4 1.81,-4.32 13.52,-34.81 1.01,-31.28l-8.86 7.07c-3.62,4.49 -6.04,8.62 -9.91,13.57 -7.6,9.72 -12.04,15.05 -17.03,29.83 -9.92,29.38 -18.35,29.42 -15.49,77.69 4.43,3.73 6.69,4.36 9.85,7.23 12,10.9 18.86,25.87 25.31,29.21 6.58,-9.91 -5.48,-11.8 -6.8,-23.61 7.37,1.29 14.86,12.08 16.12,19.85 3.27,20.08 -1.23,9.79 8.88,25.06 23.06,34.83 24.99,18.18 41.22,26.93 -14.14,0.88 -17.17,2.61 -31.58,0.98 2.77,15.98 13.65,23.86 11.32,43.9 -4.01,-7.38 -5.84,-13.67 -9.86,-21.5 -14.31,-27.9 -20.88,-11.78 -41.82,-55.81 -9.63,-20.23 1.95,-2.46 -12.43,-20.4 -9.1,-11.33 9.55,-7.19 -6.03,-22.54 -10.57,-10.41 -16.29,-2.99 -25,-7.49 -5.39,-2.79 -1.4,-3.34 -11.15,-4.94 -9.2,-1.51 -5.97,-0.08 -12.6,-3.73 3.11,-5.55 3.94,0.69 6.24,-7.82 3.49,-12.93 -10.13,-23.21 -11.09,-24.85 11.98,-0.27 16.1,-0.53 22,-8.62 3.76,-5.15 7.94,-13.09 4.77,-20.34 -6.14,-6.53 -17.86,16.68 -39.39,24.63l1.29 -8.56c-3.42,4.21 0.19,-2.17 -3.8,6.21 -2.03,4.28 1.55,-3.46 -1.46,4.59 5.69,3.32 1.88,-0.95 4,5.51 2.79,8.5 -6.33,33.13 -4.44,43.2 1.23,6.49 21.48,24.13 28.13,27.22l3.01 -13.73c14.7,3.73 6.82,59.23 13.74,81.32 5.44,17.35 4.72,25.07 3.74,44.48 -0.35,6.91 -10.49,27.64 -13.44,32.97l-72.13 120.16c5.53,1 12.88,8.83 22.36,15.44 3.74,2.6 1.18,1.12 4.62,2.89l10.39 3.94c-2.85,7.87 -7.03,7.15 -9.02,14.44 8.32,-6.9 -3.48,-5.32 -3.61,-5.4 0.5,9.7 2.76,6.22 -0.26,10.79l-3.91 4.99c-8.21,7.72 -10.85,-2.32 -12.1,14.94l21.51 1.97c0.69,0.02 4.17,-0.1 4.8,-0.22 3.4,-0.6 4.52,-1.16 6.9,-2.91 0.45,-0.33 2.35,-2.34 2.69,-2.75 3.07,-3.69 4.7,-9.35 11.97,-9.35 0.19,0 0.68,0.14 0.88,0.14 10.62,-0.11 -7.83,1.51 3.84,-0.28l3.41 -1.06c2.15,-2.16 0.87,-6.17 1.03,-6.75l8.37 -8.84c0.29,-0.18 0.83,-0.41 1.1,-0.59 7.93,-5.32 0.45,-8.01 11.52,-11.6 9.46,-3.07 5.17,0.96 12.33,-1.14 0,-13.61 -1,-8.44 14.45,-21.69l2.52 4.83c2.76,2.05 5.16,2.25 5.23,13.57 0,0.29 0.04,0.81 0.01,1.07 -0.02,0.23 -0.07,0.74 -0.11,0.95 -0.81,3.89 -15.34,15.02 -9.86,30.93l4.56 -7.45c12.79,-28.62 66.44,-135.05 77.49,-150.32l45.79 -46.3c7.34,-6.98 12.76,-7.99 20.88,-15.25 9.67,-8.66 9.84,-6.15 15.92,-20.29 6.39,-14.85 12.54,-37.79 20.01,-53.78 21.35,-45.74 6.06,-19.12 3.49,-54.4 -0.57,-7.77 -0.96,-21.38 -3.75,-28.43 -0.13,-0.33 -0.61,-0.59 -0.72,-1.33 -0.1,-0.74 -0.46,-0.91 -0.77,-1.31 -10.38,4.98 -14.36,12.24 -17.15,26.47 -1.33,6.79 -1.94,14 -1.51,20.99 0.89,14.65 1.94,6.73 5.25,13.94 -5.44,5.53 -11.53,4.93 -24.98,31.1 6.51,7.61 11.79,5.06 13.37,16.42 -15.22,-7.29 -26.96,-19.44 -52.12,-10.55 -11.09,3.93 -15.67,6.35 -27.24,-0.86 -8.04,-5 -14.93,-7.92 -17.71,-16.72 17.64,3.08 28.71,21.28 47.4,6.29 0.06,-10.87 -7.56,-9.48 -8.19,-21.75 3.55,3.71 1.19,3.54 6.22,4.58 6.1,-6.28 15.66,-18.31 16.75,-30.06 -6.85,-3.54 -7.15,-1.13 -9.43,-9.68 12.6,3.53 9.88,10.36 23.63,0.87 -2.73,-7.8 -7.24,-7.66 -8.54,-18.3 9.16,2.35 7.89,6.98 13.61,12 4.43,3.88 11.76,4.97 16.76,2.68 4.65,-10.93 1.02,-8.22 -3.98,-15.44 -4.2,-6.06 -2.24,-10.18 -5.22,-16.45 -11.19,-2.37 -14.64,2.42 -24.79,4.75 -11.62,2.68 -13.36,3.68 -18.68,12.03 -3.56,5.59 -8.21,13.4 -12.21,18.52 -5.96,7.64 -11.01,9.16 -14.49,16.48 4.38,10.75 10.95,7.38 14.38,15.62 -8.53,-0.16 -15.53,-5.34 -21.74,-9.82 -15.29,-11.02 -15.36,-8.86 -15,-15.79 6.97,0 7.68,3.29 15.73,5.14 10.7,-50.91 14.35,-42.23 30.84,-74.08 12.73,-24.6 40.32,-60.59 26.23,-69.14 -6.88,-3.34 -14.32,9.33 -18.77,14.99l-33.25 42.67c-8.42,10.23 -10.65,16.29 -18.84,19.15 2.23,-13.39 25.51,-39.44 33.45,-49.71 16.06,-20.75 23.77,-40.08 42.06,-40.39 6,14.13 6.65,26.89 -0.53,41.95 -6.48,13.58 -14.98,21.2 -19.6,31.21 -6.98,15.16 -10.03,21.24 -18.32,34.07 -6.43,9.95 -11.2,24.53 -13.52,38.42 15.11,-7.79 13.52,-28.59 35.41,-36.3 7.25,-2.56 20.45,-6.8 28.67,-6.43 13,0.57 12.41,8.57 19.79,15.71 20.49,-12.62 15.83,-19.22 21.68,-21.76 2.63,8.22 4.07,28.46 5.09,37.8 1.73,15.8 6.47,22.6 8.39,34.42 3.34,20.51 -17.28,41.81 -19.95,61.91 17.31,-8.6 48.86,-16.56 70.98,-12.89 -1.36,-18.18 -8.09,-34.62 -9.26,-53.53 -1.26,-20.22 -0.37,-41.83 -0.52,-62.2 -4.58,-2.5 -22.11,-18 -23.75,-20.79 -2.72,-4.63 -9.32,-24.1 -12.29,-31.18 -13.08,-31.14 4.52,-51.78 6.34,-73.43l-2.53 1.92c-14.22,10.42 -9.74,14.03 -12.11,10.97 -0.28,-0.37 -0.88,1.05 -1.34,1.55 -2.75,-3.69 -45.23,-1.82 -52.51,-1.85 -17.21,-0.06 -15.46,2.28 -21.85,2.63 -0.25,0.01 -0.77,0.02 -1.02,0.01l-134.24 -0.79c-3.66,6.66 -4.25,5.57 -9.93,9.05 10.82,11.81 -1.9,1.79 16.41,13.93 9.8,6.49 6.61,9.05 15.21,11.38l-3.88 1.83c-4.83,0.84 -2.73,-0.2 -3.36,-1.84 0.29,4.36 -1.23,-1.07 4.33,3.69l4.7 5.36c-5.15,6.78 -8.51,3.93 -10.68,10.82 -0.18,0.57 -0.47,2.46 -0.6,3.11 -0.47,2.31 -0.24,3.68 -1.36,7.75 -16.77,0 -18.34,1.77 -27.45,2.11 -7,0.27 -3.51,-0.78 -10.49,1.5 -0.06,4.37 -0.08,3.47 -2.46,9.72z"/>
   <path class="fil5" d="M1044.99 740.44c-18.69,18.79 -6.94,26.47 -41.21,33.04 -7.56,1.44 -8.4,5.09 -18.51,4.82 -19.52,-0.52 -5.76,-18.27 -1.37,-28.64 2.61,-6.18 11.53,-26.54 15.92,-30.51 3.41,5.58 -4.99,18.67 -7.94,25.94 -2.33,5.75 -7.05,22.16 -8.6,28.22 14.39,0.62 11.17,-5.71 17.2,-17.92 3.54,-7.17 5.17,-17.69 12.3,-20.41 -0.93,11.5 -6.82,22.77 -6.36,32.71 14.25,0.9 27.08,-21.48 27.43,-29.13 -7.99,-6.8 -12.16,-2.46 -19.78,-10.66 -4.81,-5.18 -7.48,-13.15 -16.66,-11.29 -22.66,4.58 -28.98,1.1 -41.42,3.72 -14.5,3.05 -10.76,3.6 -18.01,34.35 -9.53,2.85 -13.02,3.26 -14.98,13.32 10.95,-2.89 5.88,-4.29 13.87,-8.08 -4.38,14.99 -20.44,23.17 -32.21,31.67 -18.12,13.08 -19.19,14.15 -46.62,16.73 0.41,3.24 26.63,55.02 29.05,57.41 3.56,3.5 24.25,11.83 30.56,14.68 21.89,9.9 67.31,35.85 84.68,47.25 13.83,9.08 41.39,30.3 53.82,35.46 0.99,-30.39 2.81,-77.01 8,-106.21 2.97,-16.68 7.73,-21.82 13.65,-44.24 4.86,-18.39 2.73,-32.29 2.08,-52.42 -5.4,-3.13 -12.72,-5.26 -18.72,-8.95 -7.4,-4.54 -7.76,-9.39 -16.17,-10.86z"/>
   <path class="fil4" d="M687.59 237.11c11.05,-2.47 13.67,1.37 26.28,-5.43 10.68,-5.77 11.56,-0.72 18.38,6.27 11.37,11.64 21.96,16.64 20.97,42.18 -10.52,-4.69 -10.23,-9.78 -14.69,-15.94 -9.41,-13.02 -45.58,-11.27 -59.92,-25.78l8.98 -1.3zm-53.12 -32.2l15.83 29c1.08,8.87 8.44,17.52 15.38,20.9 -1.59,-4.59 -2.45,-5.25 -4.03,-10.3 12.33,6.63 14.26,13.62 33.36,18.2 9.75,2.34 33.64,4.89 40.32,8.13 23.01,11.16 19.24,73.62 14.22,80.12l-2.85 -9.93c-10.09,0.81 -2.35,2.94 -7.12,1.63 -2.14,-4.28 -3.4,-8.17 -5.32,-12.78 -0.54,-1.3 -2.63,-6.36 -2.65,-6.45 -0.46,-2.28 -0.22,-2.06 -0.08,-4.25l0.86 -2.99c8.51,5.33 2.75,6.56 13.11,10.43 -1.29,-29.73 -22.71,-47.19 -48.21,-53.67 -17.93,-4.55 -44.71,5.38 -64.21,-33.33 -8.53,-8.8 -10.83,-30.02 -13.35,-41.91 0.02,-21.94 -0.87,-27.13 -13.68,-37.79 -3.68,-3.06 -11.18,-8.56 -18.29,-9.12 -23.7,-1.86 -22.43,12.61 -26.29,17.17 -21.38,25.28 -6.8,6.24 -18.24,32.57 -11.93,27.41 6.09,19.24 7.02,54.26 -2.77,-2.43 -0.94,0.15 -3.8,-4.53l-6.79 -13.48c-0.17,-0.24 -0.56,-0.72 -0.89,-1.03l18.35 30.11 26.84 4.38c0.91,-12.21 -3.88,-18.11 -10.58,-25.17 -14,1.11 -13.85,11.92 -18.87,-17.19 4.75,2.34 4.74,3.4 11.82,3.26 0.2,-7.29 -0.15,-19.59 -1.87,-26.21 -3.98,-15.25 -12.12,3.48 -12.2,-9.81 -0.03,-5.97 18.01,-31.47 29.02,-24.79 7.31,9.14 8.26,43.02 13.05,57.07 2.64,7.75 6.92,16.4 10.31,24.42 4.61,10.94 3.28,20.54 6.69,29.21 3.81,-4.4 1.91,-10.93 0.26,-17.89 -1.42,-6.03 -3.79,-11.77 -4.7,-17.3 16.32,0.74 -0.66,37.89 18.89,41.98 2.25,-3.63 1.47,0.64 1.93,-6.46 0.37,-5.66 -4.44,-14.54 -2.74,-21.48 3.14,8.72 3.7,26.52 9.85,26.7 6.82,0.2 1.82,-8.25 9.03,-11.08 8.81,9.85 -3.94,11.32 16.27,20.66 6.54,-3.42 7.54,-19.08 17.16,5.73 3.86,9.95 11.3,15.99 11.7,27.83 -5.25,-8.18 -5.45,-15.5 -12.71,-21.58 5.79,19.44 -3.69,7.73 12.95,37.93 7.06,12.8 11.16,22.5 19.69,32.7 48.45,57.87 71.59,9.52 81.49,61.35 1.4,7.33 0.8,22.35 4.76,29.32 1.92,3.39 0.24,1.14 2.83,3.66 7.88,-27.69 -0.95,-43.17 -3.62,-57.23 11.67,2.82 2.62,2.64 12.14,6.14 4.38,-13.45 -3.17,-7.38 11.13,-15.78 17.49,-10.26 33.02,-38.24 33.58,-50.08 -10.42,7.11 -18.29,31.75 -40.45,43.15 -9.01,4.64 -22.85,8.76 -34.14,5.45 -3.13,-0.92 -10.37,-5.25 -14.61,-6.83 -20.3,-7.56 -37,-4.94 -55.01,-51.57 -3.32,-8.61 -14.56,-39.02 -19.25,-45.82 -6.51,-9.42 -8,-2.08 -7.88,-14.1 8.41,-0.68 9.82,1.02 13.55,6.64 14.48,21.75 28.75,93.34 54.57,92.27 0.14,-11.95 -24.59,-20.66 -22.12,-52.65 9.69,-1.2 7.72,1.34 10.63,11.22 1.87,6.39 4.28,12.44 6.36,17.14 5.92,13.42 10.19,18.62 20.52,26.54 11.5,8.8 20.89,9.39 35.44,3.34 11.6,-4.82 19.2,-10.91 20.83,-26.58 -5.33,-8.86 -17.09,-17.81 -24.12,-27 -12.08,-15.81 -6.89,-21.87 -9.61,-42.87 -3.63,-28.06 -23.25,-55.01 -37.46,-67.33 -32.41,-28.1 -29.88,-2.13 -56.7,-17.41 -19.48,-11.09 -43,-64 -70.67,-59.72 -1.8,15.78 32.87,38.98 39.01,64.38l-12 -16.9c1.98,10.69 6.95,12.33 10.16,21.04 -18.97,-7.8 -22,-31.78 -34.98,-37.01 1.08,7.23 7.65,16.88 11.18,23.37z"/>
   <path class="fil3" d="M1129.92 874.18c-3.54,-7.31 0.65,-12.66 4.38,-19.2l12.13 -17.74c-1.3,14.23 -5.1,32.75 -16.51,36.94zm37.95 -28.88c-5.29,-9.89 5.31,-17.21 8.97,-38.25 0.24,-1.39 0.98,-7.75 1.16,-8.29 2.7,-8.4 0.23,-2.42 4.32,-4.85 2.82,3.85 1.02,-4.57 2.8,6.05 1.33,7.94 -6.32,40.47 -17.25,45.34zm-95.47 114.59c11.91,-14.27 32.27,-31.62 47.01,-45.51l19.84 -16.76c0.37,-0.21 0.87,-0.4 1.23,-0.6l7.52 -6.6 17.92 3.37c6.21,15.1 -0.09,12.78 3.04,25.2 3.38,-4.55 20.38,-73.46 19.9,-78.47 -3.9,-40.59 22.69,-58.7 5.17,-77.5 -9.63,-10.33 -40.87,-40.79 -47.46,-50.13 -5.41,-7.68 -0.07,-6 -9.37,-8.22 -0.12,13.54 40.2,69.79 41.25,85.88 -18.8,-10.66 -25.78,-37.6 -33.38,-50.87 -34.24,-59.74 -22.81,-53.98 -51.76,-48.71 -13.86,2.52 -41.53,-3.17 -60.31,7.82l11.92 2.21c18.21,-0.52 63.18,13.49 71.24,24.17 6.55,8.68 24.13,73.84 21.71,86.48 -6.95,-2.09 -5.31,-0.94 -7.73,-9.9 -27.62,-102.45 -2.02,-65.92 -69.03,-91.91 -27.61,-10.71 -26.33,-1.76 -34.77,0.87 -2.62,0.82 -9.68,1.28 -12.89,1.72 -1.12,12.23 15.32,15.22 25.42,17.84 16.74,4.34 16.33,6.8 28.03,15.29 13.46,9.76 18.52,2.94 20.8,24.08 1.42,13.27 4.38,26.31 4.29,39.51 -0.08,11.62 -2.01,9.31 -6.84,16.55 -10.74,16.1 -18.14,75.15 -17.31,93.63l2.58 35.97c1.55,5.19 0.68,2.52 1.98,4.59z"/>
   <path class="fil4" d="M897.37 694.75c2.77,-5.4 8.04,-10.19 11.13,-15 3.57,-5.55 5.49,-14.04 11.81,-16.6 6.66,12.71 -13.77,28.15 -22.94,31.6zm-68.23 -40.04c2.05,-8.44 1.92,-5.49 6.87,-11.34 16.61,-19.63 10.1,-28.56 17.45,-32.8 7.17,7.9 -0.75,19.59 -4.54,25.86 -5.26,8.67 -7.93,16.11 -19.78,18.28zm-0.98 -16.77c-5.17,-3.65 -7.4,-6.53 -14.65,-11.46 1.07,-5.75 7.4,-19.88 11.04,-23.61 3.98,3.48 2.17,0.37 4.24,6.42 1.96,5.74 -0.55,4.41 2.99,9.59 7.36,-5.08 6.19,-11.37 5.06,-21.96 21.64,12.96 3.3,33.5 -8.68,41.02zm83.42 -82.96l-9.35 -1.23c-1.78,5.87 3.86,3.41 -21.52,2.64 -9.05,-0.28 -4.68,2.03 -10.99,-1.91 -0.25,0.35 -0.52,0.56 -0.62,1.13l-3.94 4.09c-4.39,1.48 -7.05,0.56 -9.89,-1.72 -32.98,-19.56 -44.54,-22.03 -50.94,-61.29 -0.96,-5.87 -4.97,-11.3 -7.34,-16.2 -5.31,-10.99 -4.41,-27.16 -10.31,-36.26 -10.63,17.65 12.37,55.22 13.11,57.83 -8.76,-4.21 -8.36,-10.55 -13.74,-11.7 -4.57,18.53 8.61,41.21 17.95,46.32 9.04,4.96 13.79,8.32 21.47,12.93 9.03,5.41 18.39,5.06 18.66,15.35 -7.63,3.46 -34.06,-10.89 -42.2,-15.25 -2.48,-15.87 2.73,-11.27 -9.24,-19.71 -7.5,-5.3 -8.2,-13.14 -16.39,-13.1 -7.95,12.83 5.25,20.81 10.38,29.86 6.38,11.25 18.94,12.44 25.41,21.87 -1.24,0.79 -1.8,2.43 -7.98,0.86 -10.81,-2.76 -12.23,-11.55 -25.11,-11.91 -0.08,10.96 7.26,15.45 12.57,22.35 9.24,12.01 8.84,6.89 23.36,10.77 5.03,16.71 -1.52,22.35 -8.02,32.25 -13.57,-0.73 -21.45,-2.73 -30.47,6.01 -5.09,4.93 -13.15,17.99 -13.62,26.46 13.85,-1.58 11.78,-27.83 38.17,-25.41 25.5,2.33 20.65,16.61 26.76,36.43 12.56,-2.16 17.02,-17.02 27.82,-21.76 -0.96,17.72 -12.55,23.23 -11.79,38.3 8.76,-2.82 14.8,-11.08 20.52,-15.82 2.17,4.88 -0.44,4.2 3.61,9.66 12.94,1.96 9.48,-1.55 16.33,-7.16l-5.59 14.27c16.8,1.08 10.6,-12.08 26.11,-17.01 -1.44,12.06 -12.67,27.03 -22.51,28.37 -13.89,1.89 -26.08,-8.9 -38.61,-11.52 8.92,16.6 62.14,40.75 93.22,-20.8 18.73,-37.09 6.54,-69.05 -15.91,-98.56 -2.42,-3.18 -5.46,-7.78 -9.37,-9.43z"/>
   <path class="fil5" d="M678.37 884.98c6.76,4.18 15.8,-3.25 22.13,-6.72 9.84,-5.38 16.41,-3.93 28.46,-3.81 21.85,0.23 4.51,-7.57 23.81,-2.63 12.18,3.11 18.07,0.79 30.2,2.32 44.61,5.62 34.98,35.93 99.77,25.22 -0.17,-29.51 -43.67,-96.52 -55.5,-123.43 -16.46,5.36 -19.77,17.67 -43.76,23.02 -38.33,8.57 -32.29,-4.87 -46.41,16.6 -7.7,11.72 -32.09,45.07 -42.54,55.04 -4.73,4.5 -13.93,9.26 -16.16,14.39z"/>
   <path class="fil3" d="M311.05 840.43c1.21,-19.12 14.36,-0.04 45.99,-36.3 13.61,-15.6 38.72,-34.09 42.76,-38.46 -6.83,-8.24 -29.46,-14.05 -43.92,-13.52 -3.98,13.14 -33.97,44.1 -44.73,54.88 -17.61,17.62 -37.64,32.03 -47.68,51.69 -13.23,25.87 -64.62,117.76 -66.07,131.29 8.55,-2.05 16.66,-10.01 20.08,-16.46 5.18,-9.77 8.32,-13.26 14.5,-21.57 12.06,-16.22 20.37,-24.26 33.22,-37.29 12.55,-12.74 88.59,-32.92 98.63,-42.36l-5.06 -6.1c-2.29,-6 -1.33,-2.49 -0.54,-8.24 18.67,-2.95 16.34,2.53 33.01,-7.03 10.18,-5.84 20.03,-9.56 23.47,-17.23 -11.24,-3.21 -41.06,-3.14 -54.56,-2.59 -18.33,0.74 -34.89,10.02 -49.1,9.29z"/>
   <path class="fil3" d="M1006.13 478.91c-10.27,-3.3 -17.51,-15.71 -24.05,-26.31 -3.54,-5.76 -2.6,-6 -7.56,-8.78 -6.38,4.77 -6.52,14.45 -15.09,29.95 -3.84,6.94 -21.93,45.44 -22.04,50.94 11.26,4.01 13.82,2.05 24.08,8.18 40.91,24.44 54.97,41.42 58.23,43.51 11.14,-2.48 15.78,-8.95 22.91,-13.79 18.03,-12.26 25.08,-9.11 43.77,-32.09 4.52,-5.56 12.36,-16.98 18.95,-20.43 -4.78,19.18 -38.56,56.79 -66.36,63.51 -9.45,2.28 -9.99,3.14 -11.65,7.21 16.6,4.32 32.2,-3.74 48.64,-11.89 7.4,-3.67 7.12,-3.29 9.99,-11.8 5.24,-15.48 27.79,-41.71 29.12,-55.28 -13.51,1.2 -29.57,10.44 -45.26,12.07 -25.71,2.66 -17.86,-21.78 -30.09,-28.89 -5.48,-2.48 -1.23,-1.41 -11.1,2.15 -2.29,0.83 -1.36,1.11 -4.97,1.62l-36.18 -48.83c5,14.76 16.83,19.98 18.66,38.95z"/>
   <path class="fil4" d="M833.58 687.66c-4.45,1.65 -0.01,2.66 0.96,8.37 -19.82,-19.6 -13.03,-14.59 -23.81,-26.81 -4.42,-5.01 -5.23,-2.66 -9.58,-6.45 -4.97,-4.34 -8.76,-16.21 -19.04,-13.64 -8.53,2.14 -9.86,11.23 -15.39,17.56 -7.67,-3.25 0.54,-8.68 -10.84,-6.94 -2,5.67 -1.6,35.08 -0.77,42.26 2.05,17.67 11.94,16.77 12.18,33.91l-19.25 -1.19 7.62 -15.94c-11.52,0.71 -11.72,14.41 -23.3,16.15 -7.38,1.11 -28.89,-0.51 -37.44,-0.93 4.32,-8.41 30.41,-15.83 36.2,-35.27 -10.11,4.65 -35.58,27.72 -52.47,32.89 -22.96,7.02 -56.8,-2.66 -74.92,10.54 1.17,8.62 7.76,10.64 15.14,14.17 26.79,12.82 43.03,10.63 75.58,11.7 18.73,0.61 38.55,-0.05 56.64,-1.27 21.57,-1.44 43.88,3.25 46.82,-12.5 -51.63,-16.77 -171.5,17.28 -180.98,-10.4 17.16,-7.05 148.78,-5.82 178.87,-2.11 15.49,1.91 19.57,5.83 31.12,-2.63 31.53,-23.09 14.54,-12.84 40.8,-24.02l5.13 -3.67c-9.43,-4.61 -14.09,-3.71 -22.1,-9.93 -6.62,-5.15 -9.92,-9.35 -17.17,-13.85z"/>
   <path class="fil3" d="M531.05 788.68c1.6,6.69 16.76,19.15 22.29,29.6 4.54,8.59 1.16,17.37 23.11,27.4 15.84,7.24 20.93,8.61 40.47,7.75 9.7,-0.42 37.38,-3.38 44.34,-0.99 -4.63,2.12 -36.76,4.63 -44.75,5.13 -19.88,1.26 -28.86,2.42 -44.22,-5.79 -9.44,-5.05 -22.39,-16.68 -27.39,-23.3 -6.34,-8.38 -10.26,-24.91 -19.96,-28.08 -0.86,19.25 1.99,19.14 11.23,29.59 26.74,30.22 46.62,35.66 87.88,34.39 12.26,-0.38 23.95,-2.75 35.81,-4.77 19.37,-3.29 19.67,1.36 31.77,-10.01 5.7,-5.37 31.92,-39.16 33.86,-47.84 -12.92,-0.85 -23.41,-1.3 -35.93,-3.68 -28.42,-5.4 -5.13,-7.02 -32.43,-2.84l-2.52 -8.16 -17.72 3.9c4.17,8.46 11.35,2.04 18.18,7.23 -9.75,8.55 -17.97,1.53 -29.27,0.26 -10.76,-1.21 -23.38,0.13 -34.42,0 -26.62,-0.3 -17.67,-10.04 -60.33,-9.79z"/>
   <path class="fil4" d="M148.1 560.26c-0.72,1.43 0.38,0.16 -1.89,2.47l-24.71 20.37 -1.29 8.56c21.53,-7.95 33.25,-31.16 39.39,-24.63 3.17,7.25 -1.01,15.19 -4.77,20.34 -5.9,8.09 -10.02,8.35 -22,8.62 0.96,1.64 14.58,11.92 11.09,24.85 -2.3,8.51 -3.13,2.27 -6.24,7.82 6.63,3.65 3.4,2.22 12.6,3.73 9.75,1.6 5.76,2.15 11.15,4.94 8.71,4.5 14.43,-2.92 25,7.49 15.58,15.35 -3.07,11.21 6.03,22.54 14.38,17.94 2.8,0.17 12.43,20.4 20.94,44.03 27.51,27.91 41.82,55.81 4.02,7.83 5.85,14.12 9.86,21.5 2.33,-20.04 -8.55,-27.92 -11.32,-43.9 14.41,1.63 17.44,-0.1 31.58,-0.98 -16.23,-8.75 -18.16,7.9 -41.22,-26.93 -10.11,-15.27 -5.61,-4.98 -8.88,-25.06 -1.26,-7.77 -8.75,-18.56 -16.12,-19.85 1.32,11.81 13.38,13.7 6.8,23.61 -6.45,-3.34 -13.31,-18.31 -25.31,-29.21 -3.16,-2.87 -5.42,-3.5 -9.85,-7.23 -2.86,-48.27 5.57,-48.31 15.49,-77.69 4.99,-14.78 9.43,-20.11 17.03,-29.83 3.87,-4.95 6.29,-9.08 9.91,-13.57l8.86 -7.07c12.51,-3.53 0.8,26.96 -1.01,31.28 -3.63,8.67 -12.61,18.66 -13.62,26.4 -0.92,7.08 0.64,10.7 -1.72,17.85 -2.14,6.52 -4.55,7.5 -4.29,14.38 0.41,10.71 4.06,21.65 2.04,35.58 -7.37,0.37 -18.58,-1.26 -23.95,2.67 5.74,5.19 8.54,4.29 16.68,3.09 10.27,-1.52 5.76,1.92 18.78,3.09l5.5 -13.32c4.46,-11.75 14.19,-32.79 16.23,-43.43 -11.84,4.27 -14.95,35.99 -25.14,41.7 -0.26,-12.6 -3.59,-25.6 -0.69,-36.67 3.46,-13.24 1.69,-21.75 7.82,-32.11 10.31,-17.43 19.21,-40.95 10.74,-61.18 -10.67,-0.7 -17.34,9.73 -27.88,22.34 -21.33,25.53 -20.44,31.13 -34.55,66.66 -4.62,11.63 -1.79,33.31 -3.3,47.21 -8.08,0.74 -16.46,-3.17 -24.48,-6.42l-2.16 -23.5c17.69,-12.54 22.7,-32.85 14.67,-46.71 -7.6,-0.7 -9.05,1.79 -15.11,3.99z"/>
   <path class="fil4" d="M497.89 648.5c7.16,1.78 0.76,1.47 7.91,1.26 3.79,-0.11 3.24,-0.79 8.37,-0.15l1.7 18.45c-6.78,0.43 -3.19,2.14 -7.95,-1.51 -3.5,-2.68 0.49,-0.14 -2.34,-3.22 -2.56,-2.79 -0.12,-0.7 -2.31,-1.94 -6.71,-3.82 -5.52,-0.61 -5.38,-12.89zm36.32 14.66c-0.67,-0.34 -3.53,-2.76 -4.2,-3.46 -4.16,4.92 -0.46,5.18 -9.94,2.03l-0.39 -7.46c7.95,-2.43 7.02,-0.64 13.86,-1.09 9.26,-0.61 -0.46,-0.52 6.09,-1.36 5.83,-0.73 11.81,1.43 6.65,11.36 -9.64,0.19 -5.75,1.69 -9.19,-5.4l-2.88 5.38zm-23.74 -38.55c7.2,0.06 12.73,3.05 18.66,6.35 1.19,0.66 6.82,4.07 7.87,4.97 1.51,1.3 1.64,0.88 2.51,2.73l0.32 3.45c0,0.24 -0.14,0.85 -0.27,1.25 -4.77,2.12 -16.58,3.3 -22.8,-0.05 -6.08,-3.27 -6.27,-10.36 -6.29,-18.7zm75.7 25.36c-0.03,-13.07 -3.06,-6.05 -10.94,-16.28 -4.78,-6.21 -5.94,-8.31 -11.7,-13.61 -11.91,-10.96 -13.38,-20.29 -33.13,-14.77 -17.25,4.81 -22.57,-35.63 -45.49,-0.38 -7.02,10.79 0.62,14.67 3.34,19.96 7.38,14.39 -15.54,14.32 -3.26,35.82 15.07,26.37 46.61,27.25 71.71,10.59 13.89,-9.22 10.72,-19.55 29.47,-21.33z"/>
   <path class="fil3" d="M470.33 802.11c-8.95,1.13 -18.81,6.94 -27.04,6.86 -11.48,-0.1 -8.75,-5.96 -27.33,-1.96 -7.02,1.51 -22.4,7.43 -26.97,2.4 -6.43,-7.06 29.35,-21.55 44.43,-15.94 12.29,4.58 4.5,9.38 22.54,3.11 7.46,-2.6 38.61,-15.92 42.11,-23.68 -4.56,-3.03 -32.11,-7.81 -46.21,-9.82 -32.16,-4.59 -55.78,14.82 -77.07,33.5 -7.06,6.19 -25.26,20.04 -29.61,27.27 17.73,-3.16 16.46,-9.94 48.87,-4.06 17.79,3.23 26.59,6.92 45.86,8.18 22.58,1.48 25.49,-4.05 39.66,-13.34 9.5,-6.23 31.12,-13.12 19.73,-26.61 -9.59,2.24 -23.3,21.59 -35.55,22.16 1.18,-6.84 1.86,-3.29 6.58,-8.07z"/>
   <path class="fil4" d="M78.85 935.03l72.13 -120.16c2.95,-5.33 13.09,-26.06 13.44,-32.97 0.98,-19.41 1.7,-27.13 -3.74,-44.48 -6.92,-22.09 0.96,-77.59 -13.74,-81.32l-3.01 13.73c-6.65,-3.09 -26.9,-20.73 -28.13,-27.22 -1.89,-10.07 7.23,-34.7 4.44,-43.2 -2.12,-6.46 1.69,-2.19 -4,-5.51 3.06,27.48 -25.48,40.32 8.2,71.36 6.67,6.15 14.55,7.82 20.23,13.64 1.96,35.5 -0.9,50.97 7.37,85.56 7.54,31.56 -3.92,34.89 -21.77,65.87 -11.47,19.9 -22.51,38.52 -34.55,57.73 -5.79,9.24 -11.61,19.09 -18.17,28.74 -12.21,17.95 -23.31,20.75 -14.95,27.51 5.91,3.81 9.06,-6.44 16.25,-9.28z"/>
   <path class="fil4" d="M770.34 486.04c4.97,-6.66 2.05,-13.29 -0.85,-21.53 -6.62,-18.77 -12.23,-36.59 -31.62,-46.01 -11.22,-5.46 -85.5,-10.7 -95.27,-3.17 -1.74,1.34 -14.92,21.26 19.24,23.53 64.06,4.25 74.19,-17.55 98.29,29.7 3.55,6.95 2.96,15.03 10.21,17.48z"/>
   <path class="fil4" d="M669.51 485.98c9.45,-1.22 14.03,0.95 18.87,8.53l-1.49 10.47c-9.23,1.93 -25.68,3.34 -23.19,-10.96l5.45 7.24c6.45,1.13 13.03,0.98 12.53,-6.48 -0.58,-8.65 -6.61,-6.61 -12.17,-8.8zm8.67 35.67c0.02,-5.95 1.6,-6.59 1.8,-12.68 2.54,0 2.84,0.11 5.35,-0.45 6.3,-1.4 2.33,0.05 2.98,-1.33 0.35,-0.36 0.74,-1.49 0.9,-1.17l2.85 -3.12c4.19,-2.48 1.04,-1.12 6.13,-1.21l-0.32 9.08c3.28,-3.67 1.19,0.42 3.42,-4.87 2.26,-5.35 2.12,-8.23 -1.43,-9.59 0.93,5.68 0.28,1.77 1.83,5.43l3.77 -5.17c2.25,-4.67 1.59,-4.56 1.64,-11.1l7.41 -0.87c-2.62,-6.49 -10.48,-12.06 -15.61,-16.11 -0.32,-0.26 -0.8,-0.52 -1.12,-0.78 -4.93,-3.89 -2.18,0.67 -5.38,-6.97 -14.61,1.63 -3.63,3.78 -12.72,-1.88 -6.9,-4.29 0.09,-0.47 -6.86,-1.84 -9.47,-1.85 2.6,-2.21 -9.5,-2.61 -6.57,5.52 -15.27,10.92 -24,13.91 -12.89,4.43 -26.92,-3.53 -29.75,10.61 10.67,7.1 16.76,1.07 25.67,-2.42 -5.06,6.76 -6.59,4.25 -7.59,12.68 13.36,4.32 15.46,-14.65 38.1,-12.53 -2.38,10.9 -10.21,4.68 -7.43,26.41l-20.2 -4.81c-9.41,-0.22 -4.19,-0.22 -6.67,1.93 4.67,4.12 4.33,2.38 10.77,5 10.74,4.37 6.08,7.45 20.21,11.89 0.55,0.17 2.2,0.64 2.76,0.83l4.06 1.58c0.53,0.18 0.91,0.36 1.47,0.53l7.46 1.63z"/>
   <path class="fil6" d="M976.48 617.18c17.89,-3.19 26.26,-16.69 51.4,-16.7 -6.6,13.05 -26.12,11.9 -38.36,25.79 58.91,7.03 66.68,-29.13 84.1,-39.89 8.67,-5.35 20.1,-11.73 23.53,-19.43 -17.98,-0.66 -32.95,22.28 -59.45,25.29 -28.76,3.27 -36.25,-22.14 -55.17,-28.24 -1.15,8.98 0.09,18.76 -0.66,28.14 -0.86,10.85 -4.28,16.93 -5.39,25.04z"/>
   <path class="fil7" d="M377.94 734.9c2.59,-2.03 32.38,-1.55 38.05,-1.15 9.22,0.67 21.99,6.54 28.92,10.36 13.48,7.41 24.31,15.5 38.98,20.87 1.42,0.53 6.06,2.04 7.35,2.16 4.41,0.39 -2.75,0.76 4.42,-0.37l2.93 -1.1c-3.52,-6.76 -5.85,-5.02 -16.9,-11.3 -5.99,-3.4 -11.58,-6.9 -16.45,-10.65 -14.31,-11 -11.96,-18.68 -21.96,-32.34 -13.2,-0.01 -32.22,5.75 -45.33,8.91 -7.04,1.69 -15.15,3.26 -22.05,4.96 -8.79,2.15 -11.35,5.63 -11.53,15.12 16.46,4.77 55.68,21.6 69.2,19.05 -6.87,-9.78 -27.01,-17.12 -41.62,-19.03 -17.41,-2.27 -12.08,-2.1 -14.01,-5.49z"/>
   <path class="fil8" d="M633.08 239.62c19.5,38.71 46.28,28.78 64.21,33.33 25.5,6.48 46.92,23.94 48.21,53.67 -10.36,-3.87 -4.6,-5.1 -13.11,-10.43l-0.86 2.99c-0.14,2.19 -0.38,1.97 0.08,4.25 0.02,0.09 2.11,5.15 2.65,6.45 1.92,4.61 3.18,8.5 5.32,12.78 4.77,1.31 -2.97,-0.82 7.12,-1.63l2.85 9.93c5.02,-6.5 8.79,-68.96 -14.22,-80.12 -6.68,-3.24 -30.57,-5.79 -40.32,-8.13 -19.1,-4.58 -21.03,-11.57 -33.36,-18.2 1.58,5.05 2.44,5.71 4.03,10.3 -6.94,-3.38 -14.3,-12.03 -15.38,-20.9l-5.23 -2.27c-1.12,10.86 -6.15,11.23 -6.18,11.18 -0.28,-0.43 -1.01,0.84 -1.5,1.28 -2.07,-3.87 -3.25,-10.97 -4.31,-4.48z"/>
   <path class="fil3" d="M1096.66 494.96l25.39 -4.08 5.08 -63.21c0.68,-9.56 1.6,-18.95 2.61,-28.98 1.17,-11.72 7.06,-17.75 6.6,-26.17 -6.96,9.97 -11.92,10.83 -15.37,24.45 -8.59,33.91 -20.02,18.05 -16.18,63.17 1.93,22.7 -6.5,21.3 -8.13,34.82z"/>
   <path class="fil4" d="M524.41 250.24c-1.12,-12.05 -13.3,-46.46 2,-64.94 -2.19,17.42 -4.23,36.75 0.25,54.37l11.59 31.26c3.35,7.24 0.43,5.73 8.03,6 7.17,-15.84 -28.73,-45.78 -7.09,-93.21 2.42,-5.3 15.49,-23.29 15.63,-24.49 1.87,-16.18 -19.31,11.15 -21.96,14.64 -8.08,10.66 -23.64,21.73 -21.86,49.54 0.66,10.23 2.09,26.39 13.41,26.83z"/>
   <path class="fil3" d="M302.54 691.3c24.71,4.97 24.67,3.35 35.02,-11.53 11.31,-16.27 9.25,-17.54 9.14,-41.08 -27.37,-0.61 -25.39,13.44 -40.03,33.68 -5.92,8.18 -5.8,6.44 -4.13,18.93z"/>
   <path class="fil3" d="M965.01 926.02c-3.38,-7.59 -59.35,-36.19 -71.16,-38.61 1.11,14.83 6.62,28.98 11.9,40.75 18.47,0.77 41.28,0.86 59.26,-2.14z"/>
   <path class="fil4" d="M764.13 146.4c-9.17,-9.98 -44.93,-55.05 -53.98,-57.45 3.76,28.71 48.01,81.36 64.64,86.68 -1.73,-11.05 -5.04,-23.11 -10.66,-29.23z"/>
   <path class="fil9" d="M687.59 237.11l-8.98 1.3c14.34,14.51 50.51,12.76 59.92,25.78 4.46,6.16 4.17,11.25 14.69,15.94 0.99,-25.54 -9.6,-30.54 -20.97,-42.18 -6.82,-6.99 -7.7,-12.04 -18.38,-6.27 -12.61,6.8 -15.23,2.96 -26.28,5.43z"/>
   <path class="fil4" d="M697.87 510.77l-6.03 0.69 -3.53 -4.27c-0.65,1.38 3.32,-0.07 -2.98,1.33 -2.51,0.56 -2.81,0.45 -5.35,0.45 -0.2,6.09 -1.78,6.73 -1.8,12.68 -0.21,1.42 18.73,7.72 30.72,-1.95 6.77,2.89 3.06,6.59 11.43,2.85 1.72,-0.78 8.41,-8.07 8.94,-9.53 2.87,-7.9 -1.82,-1.82 -6.88,-7.89 -3.56,-4.26 -2,-9.89 -2.12,-16.04 -1.71,-1.31 -5.19,-4.04 -5.76,-4.49l-7.41 0.87c-0.05,6.54 0.61,6.43 -1.64,11.1l-3.77 5.17c-1.55,-3.66 -0.9,0.25 -1.83,-5.43 3.55,1.36 3.69,4.24 1.43,9.59 -2.23,5.29 -0.14,1.2 -3.42,4.87z"/>
   <path class="fil10" d="M633.89 785.04c-2.88,-5.2 -3.43,-5.03 -8.78,-7.99 -20.5,-11.33 -10.45,-10.66 -26.41,-9.57 -10.49,0.71 -14.23,-0.09 -22.21,4.92 -2.6,1.64 -14.11,8.36 -11.23,8.39 0.41,5.15 -3.34,4.93 6.19,6.34l62.44 -2.09z"/>
   <path class="fil11" d="M897.02 942.69c-31.82,0.22 -47.54,-23.54 -71.33,-24.13 1.97,11.21 21.03,16.47 38.68,24.17 13.18,5.75 30.9,11.37 44.75,15.91 -1.1,-9.09 -10.55,-36.18 -17.94,-38.63l5.84 22.68z"/>
   <path class="fil4" d="M1100.82 281.37c-5.54,-3.8 -5.98,-1.72 -10.55,-7.51 -13.24,-16.83 -4.3,-33.34 -19.75,-34.07 -1.5,17.49 9.84,29.88 18.84,49.38 14.16,2.95 22.8,15.25 28.43,27.67 3.34,7.36 0.29,8.07 8.52,9.27 6.11,-9.8 -3.86,-15.86 -9.22,-24.84 -4.5,-7.53 -10.99,-16.27 -16.27,-19.9z"/>
   <path class="fil12" d="M446.1 484.95c-1.58,-7.59 -34.61,-42.68 -5.34,-60.04 -0.63,0.09 -4.27,2.07 -6.3,0.91 6.5,-7.38 14.89,-7.37 26.89,-7.21 0.21,0.39 0.39,0.6 0.45,1.24 0.07,0.65 0.35,0.99 0.45,1.28l2.87 8.17c3.6,-5.6 1.91,-8.16 5.47,-14 4.8,-7.88 5.76,-3.89 5.95,-17.35 -7.37,3.44 -5.37,5.24 -12.94,8.43 -12.01,5.06 -29.69,6.53 -39.61,23.57 -12.15,20.86 8.75,35.93 13.61,43.18 2.21,3.32 2.4,4.32 3.95,6.98 3.27,5.63 0.02,3.28 4.55,4.84z"/>
   <path class="fil7" d="M1213.04 684.44c16.08,0 24.74,-0.74 39.59,-4.03 12.01,-2.66 25.29,-3.36 24.6,-17.04 -4.87,0.42 -11.26,4.62 -17.26,6.39 -13.06,3.87 -52,4.8 -66.76,5.57 1.06,12.34 2.68,9.11 19.83,9.11z"/>
   <path class="fil4" d="M1051.52 193.28c-5.48,-9.96 -14.64,-29.69 -30.26,-33.08 0.85,5.62 8.32,14.69 12.51,20.14 4.92,6.42 7.78,11.07 11.8,19.03 4.41,8.77 17.6,34.98 24.55,38.28 2.27,-18.64 -12.25,-32.83 -18.6,-44.37z"/>
   <path class="fil4" d="M602.29 280.36c6.2,-6.75 2.85,-13.07 -1.01,-17.99 -9.67,-12.31 -15.91,-22.76 -18.95,-38.49 -1.57,-8.14 1.35,-15.9 -1.02,-34.35 -9.84,2.87 -16.21,32.06 -2.87,48.65 5.94,7.37 16.22,20.07 18.4,30.61 1.66,8.02 -0.76,8.54 5.45,11.57z"/>
   <path class="fil7" d="M828.16 637.94c11.98,-7.52 30.32,-28.06 8.68,-41.02 1.13,10.59 2.3,16.88 -5.06,21.96 -3.54,-5.18 -1.03,-3.85 -2.99,-9.59 -2.07,-6.05 -0.26,-2.94 -4.24,-6.42 -3.64,3.73 -9.97,17.86 -11.04,23.61 7.25,4.93 9.48,7.81 14.65,11.46z"/>
   <path class="fil6" d="M840.72 917.52c3.92,3.78 6.25,3.95 11.9,6.29 11.78,4.88 27.62,12.96 39.59,14.5 -1.58,-7.99 -3.62,-15.15 -8.03,-21 -12.88,-1.83 -32.61,-5.65 -43.46,0.21z"/>
   <path class="fil4" d="M856.48 81.19c-11.17,-1.91 -22.19,1.21 -33.43,-1.13 -8.96,-1.87 -18.52,-5.53 -29.39,-1.03l0.38 10.51c12.7,1.77 22.71,-1.68 30.13,-1.26 4.67,0.28 15.08,3.1 23.93,2.16l7.05 -1.57 1.33 -7.68z"/>
   <path class="fil7" d="M897.38 554.61c-9.38,-20.83 -40.94,-31.99 -46.01,-27.4 -7.07,6.4 10.8,13.93 16.9,17.51 10.97,6.42 13.24,9.73 29.11,9.89z"/>
   <path class="fil13" d="M538.46 446.13c-2.67,4.15 -3.08,8.23 -8.74,9.1 -8.07,1.24 -4.66,-0.35 -6.6,-2.19l-3.94 -6.05c-4.04,4.99 -0.4,5.54 -5.89,4.74 -2.61,-18.71 8.6,-14.86 10.42,-21.45 -17.63,-13.97 -45.76,15.8 -13.66,24.9 10.41,2.95 30.76,6.35 28.41,-9.05z"/>
   <path class="fil4" d="M633.08 239.62c1.06,-6.49 2.24,0.61 4.31,4.48 0.49,-0.44 1.22,-1.71 1.5,-1.28 0.03,0.05 5.06,-0.32 6.18,-11.18l5.23 2.27 -15.83 -29 -0.26 9.64c-0.47,4.79 0.78,0.34 -1.2,3.63 -7.52,-4.91 -4.1,-15.42 -13.28,-20.47 2.52,11.89 4.82,33.11 13.35,41.91z"/>
   <path class="fil7" d="M537 635.93c-1.05,-0.9 -6.68,-4.31 -7.87,-4.97 -5.93,-3.3 -11.46,-6.29 -18.66,-6.35 0.02,8.34 0.21,15.43 6.29,18.7 6.22,3.35 18.03,2.17 22.8,0.05 0.13,-0.4 0.27,-1.01 0.27,-1.25l-0.32 -3.45c-0.87,-1.85 -1,-1.43 -2.51,-2.73z"/>
   <path class="fil4" d="M1167.87 845.3c10.93,-4.87 18.58,-37.4 17.25,-45.34 -1.78,-10.62 0.02,-2.2 -2.8,-6.05 -4.09,2.43 -1.62,-3.55 -4.32,4.85 -0.18,0.54 -0.92,6.9 -1.16,8.29 -3.66,21.04 -14.26,28.36 -8.97,38.25z"/>
   <path class="fil13" d="M1063.05 686.13c1.49,1 0.11,1.01 3.84,1.69l39.38 -5.3c9.68,-2.41 8.67,-2.26 11.41,-6.12 -17.31,-9.88 -24.97,-0.61 -28.77,1.12 -8.5,3.88 -18.41,4.75 -25.86,8.61z"/>
   <path class="fil4" d="M564.35 580.5l8.47 -6.75 -0.39 -10.66c-1.17,0.44 -1.56,0.59 -1.67,1.27l-1.99 3.66c-3.24,4.92 0.88,2.04 -4.42,3.57 -0.46,-0.74 -5.47,-21.36 -23.11,-22.65 -1.02,10.58 4.03,7.71 9.33,17.18 6.05,10.83 -0.64,1.74 7.26,7.31 4.68,3.3 2.44,3.57 6.52,7.07z"/>
   <path class="fil14" d="M424.92 546.73c-0.14,-24.77 -14.52,-12.08 -5.98,-38.83 -2.02,1.44 -2.56,3.15 -3.66,5.29 -0.9,1.74 -1,2.37 -1.89,3.8 -1.5,2.41 -1.27,1.88 -2.67,3.36 -2.04,-11.27 -1.94,-10.45 1.39,-20.26 -15.12,9.23 0.34,44.92 12.81,46.64z"/>
   <path class="fil15" d="M829.14 654.71c11.85,-2.17 14.52,-9.61 19.78,-18.28 3.79,-6.27 11.71,-17.96 4.54,-25.86 -7.35,4.24 -0.84,13.17 -17.45,32.8 -4.95,5.85 -4.82,2.9 -6.87,11.34z"/>
   <path class="fil4" d="M493.88 353.34c8.74,0.42 2.99,2.73 7.05,-3.83 4.02,-6.48 10.01,-15.86 8.7,-22.59 -10.85,-0.65 -8.26,2.45 -13.39,9.03 -3.94,5.05 -8.55,9.55 -2.36,17.39z"/>
   <path class="fil9" d="M427.97 532.22c7.22,-2.46 7.57,-7.88 7.53,-19.66 -0.04,-10.03 -3.7,-13.83 -11.86,-15.91l4.33 35.57z"/>
   <path class="fil16" d="M537.09 657.78c3.44,7.09 -0.45,5.59 9.19,5.4 5.16,-9.93 -0.82,-12.09 -6.65,-11.36 -6.55,0.84 3.17,0.75 -6.09,1.36 -6.84,0.45 -5.91,-1.34 -13.86,1.09l0.39 7.46c9.48,3.15 5.78,2.89 9.94,-2.03 0.67,0.7 3.53,3.12 4.2,3.46l2.88 -5.38z"/>
   <path class="fil17" d="M514.17 649.61c-5.13,-0.64 -4.58,0.04 -8.37,0.15 -7.15,0.21 -0.75,0.52 -7.91,-1.26 -0.14,12.28 -1.33,9.07 5.38,12.89 2.19,1.24 -0.25,-0.85 2.31,1.94 2.83,3.08 -1.16,0.54 2.34,3.22 4.76,3.65 1.17,1.94 7.95,1.51l-1.7 -18.45z"/>
   <path class="fil4" d="M1129.92 874.18c11.41,-4.19 15.21,-22.71 16.51,-36.94l-12.13 17.74c-3.73,6.54 -7.92,11.89 -4.38,19.2z"/>
   <path class="fil18" d="M897.37 694.75c9.17,-3.45 29.6,-18.89 22.94,-31.6 -6.32,2.56 -8.24,11.05 -11.81,16.6 -3.09,4.81 -8.36,9.6 -11.13,15z"/>
   <path class="fil19" d="M669.51 485.98c5.56,2.19 11.59,0.15 12.17,8.8 0.5,7.46 -6.08,7.61 -12.53,6.48l-5.45 -7.24c-2.49,14.3 13.96,12.89 23.19,10.96l1.49 -10.47c-4.84,-7.58 -9.42,-9.75 -18.87,-8.53z"/>
   <path class="fil20" d="M442.1 462.21c-2.32,-10.06 -4.4,-10.31 -2.01,-21.96 4.46,-2.84 5.67,-4.32 13.49,-4.46 3.07,10.12 -2.96,7.94 5.96,11.4 0.06,-0.1 7.16,1.52 0.97,-7.53 -0.05,-0.07 -12.85,-9.88 -20.65,-4.63 -4.94,3.33 -9.79,18.56 2.24,27.18z"/>
   <path class="fil9" d="M1106.74 564.86l11.82 0.29c-0.28,-6.88 -0.79,-11.03 -4.9,-15.6 -5.9,3.61 -7.65,5.14 -6.92,15.31z"/>
   <path class="fil8" d="M1127.03 684.91c3.96,10.46 0.27,10.58 14.44,11.55 -0.51,-12.6 -1.05,-11.49 -14.44,-11.55z"/>
   <path class="fil10" d="M688.31 507.19l3.53 4.27 6.03 -0.69 0.32 -9.08c-5.09,0.09 -1.94,-1.27 -6.13,1.21l-2.85 3.12c-0.16,-0.32 -0.55,0.81 -0.9,1.17z"/>
  </g>
 </g>
</svg>
